<svg id="Layer_1" data-name="Layer 1" xmlns="http://www.w3.org/2000/svg" viewBox="0 0 216 216"><defs><style>.cls-1{fill:#73cbcb;opacity:0.6;}.cls-2{fill:none;stroke:#576571;stroke-linecap:round;stroke-miterlimit:10;stroke-width:4px;}</style></defs><title>icon-</title><path class="cls-1" d="M43.67,204.13a3.09,3.09,0,0,0,2.83,4.59c2.67-.17,4.42-3.92,5-6.42s1.92-4.42,6.5-4,11,2.54,11.17,5.18,1.53,7.42,3.73,7.4,2.85-4.84,2.94-7.75.25-60,0-60.5-2.6-2.92-4.63-2.83c-1.42.06-11-.91-16.87-.83-.41,0,1.54-8.41,1.17-8.4-.72,0,15.07-.29,15.17,4.34.08,3.44,5.29,2.41,4.23-3.11-1.1-5.72-23.19-5.6-23.34-5.55-.36.12-1.67,13.36-1.73,13.54C49.25,141.71,43.67,204.13,43.67,204.13Z"/><path class="cls-1" d="M127.77,125.4s.23,31,2.73,32.73,13.88,6.19,19.26,5.69,8.61-16.94,8-17.69-5.12-3.37-5-5.5,3-13.25,3-13.25S130.29,122.92,127.77,125.4Z"/><path class="cls-2" d="M76.91,137.08c-.38-1-2.11-1.92-1.67-5.12s2.69-6.15-12.81-6.53-12.49,3.52-12.3,6.66-1.34,4-1.54,5"/><path class="cls-2" d="M48.6,137.08S42.87,202.59,42.66,206s-.56,3.93,1.37,3.93,3.67.17,6.41.17,2-3,2-5.38-1.15-4.27,2-4.27H65.21c3.42,0,2.65,2.56,2.65,6.66s.26,3.76,5,3.76,4.91.13,4.78-4.1c-.12-3.81-.59-51.48-.59-62.64,0-1.07.36-2.22.42-1s4.27,58.12,4.27,58.12"/><path class="cls-2" d="M55.4,172.7H69.74c1.41,0,2.43,0,0-4.27s-5.94-11.83-6.49-12.9-1.84-3-3.59,0-9.31,16.37-9.31,16.37"/><path class="cls-2" d="M117,182.25h8.48c1,0,1.66,0,0-2.91s-4-8-4.42-8.77-1.25-2-2.44,0-6.33,11.13-6.33,11.13"/><path class="cls-2" d="M76.91,137.08c-1.35.58-2.08,1.31-7.81,1.28s-9.77,0-12.36-.26-1.73-2.95-1.47-5.32c0,0,.66-2.43,7.49-2.43,4,0,7.09,1.38,7.07,3.34"/><path class="cls-2" d="M169.84,90.19s-13.55,47.75-14.92,51.93,6.43-4,6.17-1.12-4.92,21.89-5.94,22.31a20.39,20.39,0,0,1-5.38.5c-2.09,0-3.42-.9-3.42,1.71v19.81c0,3.07,3.54,5.21,4.78,6.15s1.07,4,1,4.87-.07,1.7-1.91,1.73c-3,0-6.54,3.4-6.09,6.3.71,4.57,4.94,5.23,6.88,3.32,3.29-3.24.53-9.45-5.62-9.54-4.23-.06-36.23-.4-39.3-.36-6.75.09-11.7,4.29-9.33,8.84,1.49,2.85,6,2.19,7.35,0,1.92-3.08-2.62-7.71-4.09-9.58-2.29-2.92-11.4-35.12-11.49-39.27,0-1.38,36.32-.77,39.07-.7s1.55-6.53,1.54-9.48-1.16-20.87-1.42-22.19,27.29-.61,27.29-.61"/><line class="cls-2" x1="173.51" y1="5.13" x2="111.78" y2="152.4"/></svg>