<svg id="Layer_1" data-name="Layer 1" xmlns="http://www.w3.org/2000/svg" viewBox="0 0 216 216"><defs><style>.cls-1{fill:#73cbcb;opacity:0.6;}.cls-2{fill:none;stroke:#576571;stroke-linecap:round;stroke-miterlimit:10;stroke-width:4px;}</style></defs><title>icon-</title><circle class="cls-1" cx="84.71" cy="176.33" r="7.94"/><circle class="cls-1" cx="172.71" cy="176.33" r="7.94"/><path class="cls-2" d="M9,23.1s22.5,4.38,27.25,5.5,4.88,2.88,6,7.25S57,124,57.75,127.73s2.13,7.63,10.38,8,110,0,117.63,0,10.25-7,11.5-11.13,11.17-56.08,12.42-60.67-1.75-13.42-13.5-14.83S50,39.27,50,39.27"/><path class="cls-2" d="M69.74,135.89s-5.84,18.6-7.53,23.35S63,164,67.46,164H82.33c5.19,0,13.42,5.31,13.42,11s-2.37,12.5-11,12.5-10.67-7.44-10.67-11.25,2.81-12,12.88-12h83.76c4.94,0,11.71,5,11.71,10.88,0,5.63-1.29,12.38-9.08,12.38-7.12,0-11.05-3.13-10.75-11.37.25-6.83,7.45-9.64,7.45-9.64,4.83-1.35,6-2,17.79-2"/><rect class="cls-1" x="69" y="68.73" width="108.25" height="10.37" rx="5.19" ry="5.19" transform="translate(4.6 -7.18) rotate(3.4)"/><rect class="cls-1" x="69" y="99.45" width="108.25" height="10.37" rx="5.19" ry="5.19" transform="translate(1.49 -1.72) rotate(0.81)"/></svg>