<svg id="Layer_1" data-name="Layer 1" xmlns="http://www.w3.org/2000/svg" viewBox="0 0 216 216"><defs><style>.cls-1{fill:#73cbcb;opacity:0.6;}.cls-2{fill:none;stroke:#576571;stroke-linecap:round;stroke-miterlimit:10;stroke-width:4px;}</style></defs><title>icon-</title><rect class="cls-1" x="101.67" y="46.37" width="24.82" height="12.28"/><ellipse class="cls-1" cx="113.84" cy="29.35" rx="7.73" ry="5.78"/><path class="cls-2" d="M64.75,211.15s35.75-128.9,36.73-132,1.28-4.36,3.87-4.27c1,0,6.57-.08,7.73-.09s2.33,1.09,2.36,3.07,19.88,133.33,19.88,133.33"/><path class="cls-2" d="M165.25,211.15s-38-134.26-38.7-136.7-1.26-4.8-3.82-4.88-19.28,0-21.23,0-2-1.26-2-2.44.12-3,2.16-3,27-.43,28.65-.43,3.69.92,3.69-2.63V15.78c0-2.33-2.44-10.63-4.61-10.63H99.76c-2.17,0-4.61,8.3-4.61,10.63V54.55c0,3.55,2,3.63,3.69,3.63h26.25c1.67,0,2.77-1.43,2.77-3.71V47.89c0-2.36-1.14-2.28-3.09-2.28H103.69c-1.34,0-2.36.16-2.36,2.44v5.37"/><path class="cls-2" d="M105.89,16.54h16.16c1.79,0,2.11,8.52,2.11,11.07,0,0-.16,8.95-.16,10.19s-8.25,1.08-12.15,1.08-5.75-.33-5.75-2.28V26.95c0-1.68,3.81-4.18,7.17-4.18s5.48,3.09,5.48,4.66S117.7,31.5,115,31.5A3.4,3.4,0,0,1,111.74,29"/></svg>