<svg id="Layer_1" data-name="Layer 1" xmlns="http://www.w3.org/2000/svg" viewBox="0 0 216 216"><defs><style>.cls-1{fill:#73cbcb;opacity:0.6;}.cls-2{fill:none;stroke:#576571;stroke-linecap:round;stroke-miterlimit:10;stroke-width:4px;}</style></defs><title>icons-</title><path class="cls-1" d="M36.25,61.75S60.63,76.88,63.25,77s12.13-7.17,25.42-9.5-4.21,5.5-4.5,7S77.46,88.58,79.5,92.42s11.63,4.21,16.58,1S106.5,85.21,108,85.5s6.83-.5,7.25.67,5.17,11.42,12.08,16.33,24.52,14.92,32.67,24.88,9.13,13.31,5,17.13-6.62,1.92-7.67,3-1.67,6.88-2.5,7.67-11.83,1-12.5,1.25.67,8-.92,9.67-11.71.08-12.5,1.08-.12,8-.83,8.34-8.77,3.43-12.21.87-12.62-26.47-16.5-27.87S79.75,131.29,71.5,131.25s-19,1.07-23.37-.25S8,109.56,8,108.5,34.56,61.81,36.25,61.75Z"/><path class="cls-2" d="M171.82,132.9s30.93-12.9,31.43-15.4-16.37-51.75-18-52S152.5,80.63,150,79s-29.25-16.75-37.25-17S90.58,68.17,86.17,74.83s-8.08,9.08-6.33,16.67,14.67,1.58,17.33,0l2.67-1.58s4.92-5.42,8.17-5.25,8.33-.67,8.33.5S120.67,99.08,136,107s31.08,26.75,31.67,27.83,2.92,15.33-9.67,12-27-22-26.5-22.83,33.08,22.08,22.17,30.83-35.33-18.08-34.17-19.5,29.83,22.92,20.5,30.83-31.58-17.5-30.33-18.33,22.92,20.33,18,26.17-22.08-7-22-8.67-.92,3.33-2.67,5.33-21,5.92-16.5-12.5S106.75,147,104,159.83s-29.08,13.83-30.17,1,8.67-27.83,17.33-21S80.25,164.75,70.33,161s-11.58-10.5-9.5-15.83S72.75,126.83,79,131.83s-15.17,23.83-22.5,17.83-7.5-13.5-4.33-16.5,9.42-6.67,14.33-.83-16.92,2.5-18.5.5-35.92-23.33-35.83-25.5,27-45.6,30-45.34S61.33,75.08,63,74.5,80.95,65.6,88.2,66"/></svg>