<svg id="Layer_1" data-name="Layer 1" xmlns="http://www.w3.org/2000/svg" viewBox="0 0 216 216"><defs><style>.cls-1{fill:#73cbcb;opacity:0.6;}.cls-2{fill:none;stroke:#576571;stroke-linecap:round;stroke-miterlimit:10;stroke-width:4px;}</style></defs><title>icon-</title><path class="cls-1" d="M162.37,209.31c-6.37,0,0-65.33,0-83,0-4.79-1.07-4.42-3.88-4.42H131.64c-2.39,0-3.1-6.5-.14-6.5H161c1.69,0,1.76-5.61-.56-5.61h-34c-3.45,0-3-5.91-.28-5.91h35c1.59,0,2.39-5.67-.24-5.67H134.31c-1.55,0-2.39-6.4,0-6.4h26.48c2,0,2.68-6.8-.38-6.8H134.84c-2.44,0-2.68-6.3.19-6.3h24.92c1.64,0,4.37-6.8,0-6.8H139.76c-.42,0-1.27-6,0-6h20.75c2.11,0,2.91-6.7,0-6.7H138.32c-1.78,0-4.09-5.81,0-5.81H160.7c1.64,0,3.05-7.39-.09-7.39H145.3c-2.16,0-4.09-6.3-.38-6.3H161c1.57,0,1.83-6.9,0-6.9h-9.53c-1.76,0-1.87-6.13.35-6.13h9.44c1.83,0,1.66-5.84.21-5.84h-5.28c-1.48,0-2.43-6.21.56-6.21h3.17c1.24,0,2-1.31,2-3.3V3.71a3.17,3.17,0,0,1,6.27,0v7.59c0,2,.73,3.3,2,3.3h4.3c1.87,0,.91,6.21.56,6.21h-6.41c-1.44,0-1.62,5.84.21,5.84h9.44c2.22,0,2.11,6.13.35,6.13H169c-1.83,0-1.57,6.9,0,6.9h16.06c3.71,0,1.78,6.3-.38,6.3H169.41c-3.15,0-1.74,7.39-.09,7.39h23.51c3,0,.66,5.81,0,5.81H169.5c-2.91,0-2.11,6.7,0,6.7h20.75c2.39,0,1.55,6,0,6H170.06c-4.37,0-1.64,6.8,0,6.8H195c2.86,0,2.63,6.3.19,6.3H169.59c-3.05,0-2.35,6.8-.38,6.8H195.7c2.39,0,1.55,6.4,0,6.4H169.13c-2.63,0-1.83,5.67-.24,5.67h35c2.68,0,3.17,5.91-.28,5.91h-34c-2.32,0-2.25,5.61-.56,5.61h29.53c3,0,4.26,6.5,1.86,6.5H172.65c-2.82,0-5-.37-5,4.42,0,3.92,5.26,82.93,0,83"/><path class="cls-2" d="M4.24,209H61.08c7.38,0,6.86-7.2,6.86-9.26s0-1.54,0-5.15-3.1-2.74-7.21-2.74-41.86-.09-47.35-.09S8.58,185,13,185H65.54c2.65,0,3.95-6.18-1-6.18H23.68c-4.8,0-5.49-6.52-.69-6.52h42.2c3.26,0,3.47-6,.13-6H16.69c-1.93,0-2.77-6.43.51-6.43H65.77c2.12,0,3.47-6.56-.13-6.56H29.43c-3.28,0-2.32-5.92,1.42-5.92H65.71c2.57,0,2.57-6.56-.26-6.56H37.66c-3.09,0-1.54-5.15.77-5.15h27.4c2.19,0,2.14-6.26,1.29-6.26H35.34c-2.83,0-2.06-6,1.89-6H66.18c1.89,0,2.32-5.32-.17-5.32H45.47c-1.8,0-2.66-5,.17-5H65.79c2.57,0,2.83-6.35.69-6.35H51c-1.54,0-3.52-4.8,0-4.8H66.39c2.14,0,1.54-5.15-.34-5.15H57.22c-1.93,0-2.23-4.72,0-4.72h9.86c1.33,0,1.2-4.63-.26-4.63H62.28c-.64,0-1.54-5,1.8-5h3c.69,0,.74-1.37.74-2.92s.13-5.79.13-6.69,5-1.35,5,0v6.56c0,1.54,0,3.13.87,3.13h3.4c3.35,0,2.44,5,1.8,5H74.5c-1.46,0-1.59,4.63-.26,4.63H84.1c2.23,0,1.93,4.72,0,4.72H75.27c-1.89,0-2.49,5.15-.34,5.15H90.37c3.52,0,1.54,4.8,0,4.8H74.84c-2.14,0-1.89,6.35.69,6.35H95.68c2.83,0,2,5,.17,5H75.31c-2.49,0-2.06,5.32-.17,5.32h28.95c3.95,0,4.72,6,1.89,6H74.2c-.86,0-.9,6.26,1.29,6.26h27.4c2.32,0,3.86,5.15.77,5.15H75.87c-2.83,0-2.83,6.56-.26,6.56h34.87c3.73,0,4.7,5.92,1.42,5.92H75.68c-3.6,0-2.25,6.56-.13,6.56h48.57c3.28,0,2.44,6.43.51,6.43H76c-3.35,0-3.13,6,.13,6h42.2c4.8,0,4.12,6.52-.69,6.52H76.81c-5,0-3.51,6.18-1,6.18h52.49c4.46,0,5.15,6.77-.34,6.77S84.7,192,80.59,192s-7.21-.86-7.21,2.74,0,1.24,0,5.15,1.72,9.18,8,9.18h71.86c10.12,0,9.11-13.24,9.11-15.74V124.65c0-4.57-1.07-4.22-3.88-4.22H131.64c-2.39,0-3.1-6.2-.14-6.2H161c1.69,0,1.76-5.35-.56-5.35h-34c-3.45,0-3-5.63-.28-5.63h35c1.59,0,2.39-5.4-.24-5.4H134.31c-1.55,0-2.39-6.11,0-6.11h26.48c2,0,2.68-6.48-.38-6.48H134.84c-2.44,0-2.68-6,.19-6h24.92c1.64,0,4.37-6.48,0-6.48H139.76c-.42,0-1.27-5.73,0-5.73h20.75c2.11,0,2.91-6.39,0-6.39H138.32c-1.78,0-4.09-5.54,0-5.54H160.7c1.64,0,3.05-7-.09-7H145.3c-2.16,0-4.09-6-.38-6H161c1.57,0,1.83-6.57,0-6.57h-9.53c-1.76,0-1.87-5.85.35-5.85h9.44c1.83,0,1.66-5.56.21-5.56h-5.28c-1.48,0-2.43-5.92.56-5.92h3.17c1.24,0,2-1.24,2-3.15V7.79c0-1.22,1.57-2.58,3.14-2.58s3.14,1.36,3.14,2.58V15c0,1.9.73,3.15,2,3.15h4.3c1.87,0,.91,5.92.56,5.92h-6.41c-1.44,0-1.62,5.56.21,5.56h9.44c2.22,0,2.11,5.85.35,5.85H169c-1.83,0-1.57,6.57,0,6.57h16.06c3.71,0,1.78,6-.38,6H169.41c-3.15,0-1.74,7-.09,7h23.51c3,0,.66,5.54,0,5.54H169.5c-2.91,0-2.11,6.39,0,6.39h20.75c2.39,0,1.55,5.73,0,5.73H170.06c-4.37,0-1.64,6.48,0,6.48H195c2.86,0,2.63,6,.19,6H169.59c-3.05,0-2.35,6.48-.38,6.48H195.7c2.39,0,1.55,6.11,0,6.11H169.13c-2.63,0-1.83,5.4-.24,5.4h35c2.68,0,3.17,5.63-.28,5.63h-34c-2.32,0-2.25,5.35-.56,5.35h29.53c3,0,2.25,6.2-.14,6.2H172.65c-2.82,0-5-.35-5,4.22v68.6c0,2.89.43,15.78,9.17,15.78H212"/></svg>