<svg id="Layer_1" data-name="Layer 1" xmlns="http://www.w3.org/2000/svg" viewBox="0 0 216 216"><defs><style>.cls-1,.cls-3{fill:#73cbcb;}.cls-1,.cls-2{opacity:0.6;}.cls-4{fill:none;stroke:#576571;stroke-linecap:round;stroke-miterlimit:10;stroke-width:4px;}</style></defs><title>icons-</title><path class="cls-1" d="M197,102.94c.9-1.17,5.25-3.41,7.72-2.72s6.11,4.39,6,5.44,0,3.17-1.66,4.09-2.58,1-2.62,2-2,3.13-3.78,3.13-6.27-5.22-6.22-5.84S196,104.16,197,102.94Z"/><g class="cls-2"><path class="cls-3" d="M187.71,109.58c-2.25-2.08-6.08-10.17-8.25-18.17S177,71.87,177,70.33s.33-8.75-4.17-8.75-5.25,5.58-5.25,7.33-2.83,17.71-7.42,33.92S148.63,122.7,148,122.74s-1.71-6.62-2.42-12.17.46-12.25.67-23.17S144.67,76.28,140,75s-10,1.63-10.42,1.58.38-.87-3.75-4.33-11.29-.75-13.08,5.08,4.63,9.46,6.83,9.75a11.06,11.06,0,0,0,5-1s.63.63-.5,5.58-4.92,10.25-8.92,15-9.17,9.25-11.92,9.25-4.42-3.54-4.42-8.17S99,106.28,102,92.08s7.25-17,4.5-17.58-6.33.67-13.08,3.42S74.42,96.24,74,96.74s-.37,0,.08-13.58S77.3,69.62,82.3,61s-2.46-12.17-8.5-10.75S56.13,69.66,54.46,72.49s-10.08,14.42-11.25,15-2,2.75-1.83-7,3.75-16.92,6.5-25.33S44,45.49,35,48.41s-16.5,20.08-16.5,20.08c-.57,1.23-.27,3.48,1.17,4.17s4.69-2.12,6.13-2.87,1.65.37.71,5.54c-1.17,6.42-.85,13.6.08,20.67S33.09,107.16,41,107,59.34,95.6,60.59,94a1.87,1.87,0,0,1,3.25.88c0,1,.19,16.56-.12,17.25S47.9,134.72,46.34,137.53s-8.69,18.38,1.88,21,16.31-2.44,20.5-9.87,4.88-26.31,5.63-34.75-2.12-.44,6.75-14.5,17.25-19.56,18.25-20,1.44,1.88-.87,6.13-5.69,17-6.25,21,1.5,17.88,11.16,18.79,15.84-11.42,20.17-19.67,6.89-21.16,7.1-21.75,5.72-4.59,5.94-4.44.09,4.44-.37,9-1.58,4.52-2.08,19.69,3.38,19.21,4.33,20.25,4.46,5.17,9.88,5.33,13.13-11.67,13.92-13.71,7-25.23,7.13-26.62.65-.48,1.75,2.71A83.75,83.75,0,0,0,177.67,109c2.5,4.1,5,5.5,5.54,5.46S190,111.66,187.71,109.58ZM124.46,79.1c-.53.78-1.53.63-2.06.63s-2.22-.53-1.25-2S124.7,78.75,124.46,79.1ZM61.71,140.83c-.36,1.78-2.75,7.9-7,9.83s-4.87-.44-4.37-4.5,13.13-21.25,13.13-21.25S62.36,137.67,61.71,140.83Z"/></g><path class="cls-4" d="M20.62,68.82c1.37-2,14.88-22.39,21-18.75,3.08,1.83-21.75,42.08-6,49.5,5.27,2.48,16.83-2.33,25-16.75,5.51-9.73,11.37-27.5,14-27.5s-1.75,3.5-4.5,12.75-1.5,41.24-1.5,46.5c0,7.75-.25,39.12-13,41.75s-11.8-13.87-8.12-20.56c3.38-6.12,35-53,55.86-58.27,4.92-1.25,1.08,2-1.17,6.5-1.94,3.89-15.25,28.08-6.5,35.66s20.83,4,26.83-10.5,10.08-26.67,7.83-30.33-12.17-8.5-14.17-2.33,5.33,12.33,18,3S140,94.4,139.86,98.15s-5.83,29.67,5.5,32.17S168.61,97.31,171,74s2.08,1.5,2.33,4.33-1.75,18.92,12.5,36"/><path class="cls-4" d="M203.5,108.69c-.13-.94-3.58-1.79-4.45-.42s-1.22,3,1.48,3.82c1.3.39,2.13-1.66,2.13-1.66"/></svg>