<svg id="Layer_1" data-name="Layer 1" xmlns="http://www.w3.org/2000/svg" viewBox="0 0 216 216"><defs><style>.cls-1{fill:#73cbcb;opacity:0.6;}.cls-2{fill:none;stroke:#576571;stroke-linecap:round;stroke-miterlimit:10;stroke-width:3.73px;}</style></defs><title>icons-</title><path class="cls-1" d="M91.39,175.42s36.65-1.53,37.58,0,.08,29.49-.62,31.71-32.92,1.36-35.56-1.36S91.39,175.42,91.39,175.42Z"/><path class="cls-2" d="M127.37,196.82s.31,2.73-.08,3.52a34.31,34.31,0,0,1-4.3,4.3c-.47.35-7.81-.2-8.67,0s-.51,3.55-6.28,3.75-6.26-3.79-6.69-4.14-7.54.59-8.44,0-4.92-6.68-5-7.71c-.19-1.64,42.42-4.92,42.42-5.8s-41.16-3.14-41.13-3.52,41.1-7.24,41.13-7.68-41.22.62-41.19.12.87-22.55-1.29-27.83S61,127.45,61.28,100.8s24.14-47.51,46.87-46.69,47.57,18.7,46.63,47.14-26.6,34.41-27.18,67.69c0,0-.23.92-2,.86s-25.89.23-25.87-.24-7-61.09-7-61.09c-.7-4.92,1.87-5.94,2.5-4.77s6.5,12.59,2.5,13,.94-13.83,3.12-13.9,7.66,13.75,4.37,13.9-1.41-14.53,3-14.69,8.12,13.44,4.69,13.59.39-14.06,2.66-14.22,5.31.08,3.75,16.25-4.06,47.18-4.06,47.18"/><path class="cls-1" d="M108,1.63c-5.77,0-7.3,3.72-7.59,4.67s1.61,33.43,7.59,33.43,7.88-32.48,7.59-33.43S113.81,1.63,108,1.63Z"/><path class="cls-1" d="M206.64,102.41c0-5.77-3.72-7.3-4.67-7.59s-33.43,1.61-33.43,7.59S201,110.29,202,110,206.64,108.17,206.64,102.41Z"/><path class="cls-1" d="M197.32,52.47c-2.91-5-6.9-4.42-7.87-4.19s-28,18.28-25,23.45,32-9.62,32.68-10.35S200.23,57.45,197.32,52.47Z"/><path class="cls-1" d="M156.94,13.57c-5.42-2-8.13,1-8.73,1.8s-9.91,32-4.28,34,18.5-27.84,18.55-28.83S162.36,15.54,156.94,13.57Z"/><path class="cls-1" d="M8.32,102.41c0-5.77,3.72-7.3,4.67-7.59s33.43,1.61,33.43,7.59S13.94,110.29,13,110,8.32,108.17,8.32,102.41Z"/><path class="cls-1" d="M17.65,52.47c2.91-5,6.9-4.42,7.87-4.19s28,18.28,25,23.45-32-9.62-32.68-10.35S14.73,57.45,17.65,52.47Z"/><path class="cls-1" d="M58,13.57c5.42-2,8.13,1,8.73,1.8s9.91,32,4.28,34S52.53,21.54,52.48,20.55,52.6,15.54,58,13.57Z"/></svg>