<svg id="Layer_1" data-name="Layer 1" xmlns="http://www.w3.org/2000/svg" viewBox="0 0 216 216"><defs><style>.cls-1{fill:#73cbcb;opacity:0.6;}.cls-2{fill:none;stroke:#576571;stroke-linecap:round;stroke-linejoin:round;stroke-width:4px;}</style></defs><title>icon-Fruit</title><path class="cls-1" d="M74.5,72.22c-7.84,1.15-36.33-6.5-43.33,12.67s3.37,62.16,28.33,75.67c8.17,4.42,14.58,1,20.33-1.67s12.08,2.33,16.5,1.67,31-18.42,33.5-39.83-1.17-51.58-27.5-52.83S84.75,70.72,74.5,72.22Z"/><path class="cls-1" d="M80.18,64.22l25.33-9s16.26-9.6,15.43-21.11S85,40.1,83.59,41.86,67.4,65.54,80.18,64.22Z"/><path class="cls-2" d="M78.81,65.69c4.11-3.35,12.6-4.56,19.71-7.11,22.76-8.15,23.91-24.16,22.25-25.46S106.56,29.4,91.82,37,75.33,64.13,74.27,62.69c-3.78-5.19-5.21-17.3-5.29-19s-2-.4-5.09,1-4,4.76.78,12.79,8.66,11.3,8.66,11.3c2.69,2.67,4.8,4.13-1.89,3.22s-28.21-5-38.23,9.72-7.73,35.17,1.36,52,28.81,32.12,37,31.35,5.27-6.63,10.44-6.24,4.09,4.88,9.43,4.38,30.42-9.49,39.16-44.5-11.19-47.53-20.69-49.66c-7.87-1.77-12.71-3.32-28.78,1.57"/><path class="cls-1" d="M11.28,168.92c1.05-1.13,4.05,4.38,2.45,12.32s-4.94,9-5.06,3.1S9.51,170.83,11.28,168.92Z"/><path class="cls-1" d="M157.89,21.57l15.29-.8,5.23,19.33s-2.73,6.09-12.51,5.69c-3.43-.14-1.55-5-2.4-8.94S157.89,21.57,157.89,21.57Z"/><path class="cls-2" d="M136.95,119.84c8.06-8.2,14.82-17.69,17.81-27.82,5.89-20,5.71-21,8.14-30.68a56.45,56.45,0,0,0,.61-24.48c-1.19-5.72-7.23-13.74-5.61-15.28s6,.35,10.65-1.4"/><path class="cls-2" d="M173.25,15.5c.66,9.13-.85,19.81,13.08,34.66s27.05,28.74,15.74,64.54-40.24,61.52-59.23,73.44-62.71,25.32-99.57,17.44C26.68,202,10.55,188.72,8.88,186.64s-1.61-6-1.16-9.7.36-8,6.76-10.23a142,142,0,0,1,31.12-7.34"/></svg>