<svg id="Layer_1" data-name="Layer 1" xmlns="http://www.w3.org/2000/svg" viewBox="0 0 107.17 87.25"><defs><style>.cls-1{fill:#d1da3b;}</style></defs><title>tick_good</title><polygon class="cls-1" points="107.17 12.15 105.83 13.86 97.66 23.7 90.83 31.75 84.28 39.7 77.63 47.59 71.08 55.54 64.26 63.6 57.7 71.54 52.44 77.82 45.64 86.03 44.65 87.07 42.18 87.25 33.82 80.26 27.13 74.57 18.77 67.58 12.07 61.91 3.61 54.84 0.08 51.84 0 50.55 10.7 37.72 12.67 37.45 21.36 44.79 29.56 51.6 36.34 57.37 40.79 61.1 41.43 61.1 47.63 53.75 53.07 47.19 59.71 39.15 65.05 32.8 71.7 24.77 77.29 18.16 83.94 10.13 89.19 3.86 92.29 0.12 93.22 0 102.88 8.23 106.46 11.14 107.17 12.15 107.17 12.15"/></svg>