<svg id="Layer_1" data-name="Layer 1" xmlns="http://www.w3.org/2000/svg" viewBox="0 0 216 216"><defs><style>.cls-1{fill:#73cbcb;opacity:0.6;}.cls-2{fill:none;stroke:#576571;stroke-linecap:round;stroke-miterlimit:10;stroke-width:4px;}</style></defs><title>icon-</title><path class="cls-1" d="M135.25,146.91c-.67-1.2,13-14,13.62-13.62S207.37,191,202.75,199,153.62,179.84,135.25,146.91Z"/><path class="cls-1" d="M103.42,38c0,2.29,0,4-4,4.75s-8,2.13-11.75,8.33-1.83,17,0,19.67,3.79,6,4.5,6.25.7-.92,2.31-5.5S102,58.56,105.17,57.16c6-2.66,12.08-4.54,19.58-1.67s13.46,11.63,13.5,17,.08,14.38-7.33,21.42-15.08,9.33-23.92,5.83S87.71,87.2,81.42,78.41s-4-22.33-3.25-24.83S85.46,39.74,88.75,38s6.83-3.37,10.75-3.08S103.42,38,103.42,38Z"/><path class="cls-1" d="M50.33,75.16c2.11-1.8,5.29-2.87,9.5,1.33s21,23,22.83,24.83,1.58,1.75,3.33,0,4.15-4.23,4.83-4.92a3.66,3.66,0,0,1,5.08.42c2.06,2.06,3.42,4.67.75,7.33s-4.33,4.17-5.25,5.08-.21,1.88,1.17,3.25L99,118.95a4.27,4.27,0,0,1,0,6c-1.92,1.92-5.4,1.06-7-.58l-7.71-7.71c-1-1-.67-1.46-2.12,0s-22.37,20.92-23.75,21.71-4.92,1-6.08-1.67a10.61,10.61,0,0,1-1.08-4.58c-.12-1.08-2.42-49.38-2.42-52.5S49.56,75.82,50.33,75.16Z"/><path class="cls-2" d="M128.23,152.75a75.79,75.79,0,1,1,21.69-20.57c-2.21,3.13,65.52,55.42,52.71,68.23-13.56,13.56-65-54.5-67.79-52.33q-1.21,1-2.46,1.86"/><path class="cls-2" d="M93.5,100.7,58,133.55c-3,2.76-2.58-1.06-2.51-7.77s-2.28-41.17-2.51-43.42.87-6,6.39,0,36,39.24,36,39.24"/><path class="cls-2" d="M99.22,38.88a19,19,0,0,0-11.1,5.48c-5.31,5.35-13.19,19.78.75,36.19S115.66,102.15,126.6,92s8.24-21.94,2.36-28.37-16.57-6.32-22.75-1.41c-5.89,4.68-8.75,11.2-9,19.89"/></svg>