<svg id="Layer_1" data-name="Layer 1" xmlns="http://www.w3.org/2000/svg" viewBox="0 0 216 216"><defs><style>.cls-1{fill:#73cbcb;opacity:0.6;}.cls-2{fill:none;stroke:#576571;stroke-linecap:round;stroke-miterlimit:10;stroke-width:4px;}</style></defs><title>icon-</title><path class="cls-1" d="M61.17,174.44H154c4.37,0,6.85-1.14,6.85-4.55V46.58c0-3.31-.35-5.38-4.72-5.38h-90c-3.43,0-5,1.55-5,5.79V163.26"/><path class="cls-2" d="M61.17,174.44h93.21c4.39,0,6.88-1.14,6.88-4.55V46.58c0-3.31-.36-5.38-4.74-5.38H66.15c-3.44,0-5,1.55-5,5.79V169.49"/><path class="cls-2" d="M173.6,172.27V39.47c0-12.3-3-12.64-11.16-12.64H62.49c-14.17,0-13.67,3.44-13.67,13.79,0,3.29,0,129.22,0,137.08,0,9.26,2.46,11.48,11.91,11.46,4.16,0,92.34,0,100,0,12.27,0,12.85-2.38,12.85-12.27"/><circle class="cls-2" cx="111.21" cy="182.35" r="2.89"/><circle class="cls-2" cx="111.21" cy="34.02" r="0.2"/></svg>