<?xml version="1.0" encoding="utf-8"?>
<!-- Generator: Adobe Illustrator 21.0.2, SVG Export Plug-In . SVG Version: 6.00 Build 0)  -->
<svg version="1.1" id="Layer_1" xmlns="http://www.w3.org/2000/svg" xmlns:xlink="http://www.w3.org/1999/xlink" x="0px" y="0px"
	 viewBox="0 0 50 50" style="enable-background:new 0 0 50 50;" xml:space="preserve">
<style type="text/css">
	.st0{fill:#FFFFFF;}
</style>
<path id="Search_Icon" class="st0" d="M48.6,48.7c-1.8,1.7-4.6,1.7-6.3-0.1L26.8,32.9c-1-1.1-1.5-2.6-1.1-4
	c-6.6,4.5-15.4,3.8-21-1.9c-3-3-4.7-7.1-4.6-11.3c0-4.4,1.7-8.4,4.9-11.3c6.5-6,16.5-5.8,22.8,0.4c5.6,5.6,6.1,14.4,1.3,20.7
	c1.4-0.3,3,0.2,4.1,1.3l15.5,15.7C50.4,44.2,50.4,46.9,48.6,48.7C48.7,48.6,48.7,48.6,48.6,48.7z M27.5,16.1c0-2.9-1.1-5.8-3.2-7.8
	C19.9,3.8,12.8,3.7,8.3,8C4,12.1,3.9,19,8,23.3c0,0.1,0.1,0.2,0.1,0.2c4.4,4.4,11.4,4.6,15.9,0.3C26.2,21.8,27.5,19,27.5,16.1
	L27.5,16.1z"/>
</svg>
