<svg id="Layer_1" data-name="Layer 1" xmlns="http://www.w3.org/2000/svg" viewBox="0 0 216 216"><defs><style>.cls-1{fill:#73cbcb;opacity:0.6;}.cls-2{fill:none;stroke:#576571;stroke-linecap:round;stroke-miterlimit:10;stroke-width:4px;}</style></defs><title>icon-</title><circle class="cls-1" cx="53.43" cy="153.7" r="14.52"/><circle class="cls-1" cx="177.61" cy="153.7" r="14.52"/><path class="cls-1" d="M33.41,94.43c1.14,0,7.31-.53,7.66.35s-8.47,11.27-8.47,11.27S32.9,94.44,33.41,94.43Z"/><path class="cls-2" d="M40.72,97.86s-9.52,10.43-9.51,10.29,0-12.16,0-13.46S30.85,93,32.44,93H48.56c.79,0,1.52.19,1.52,1.55v16.59c0,.83.19,1.49-.85,1.49H31.35"/><line class="cls-2" x1="40.34" y1="104.94" x2="44.15" y2="108.31"/><path class="cls-2" d="M118.57,90.83c-.07,10.13-1,53.32-1.06,55.83,0,2.78.34,2.92,3.26,3.16s30.88.62,33.8.38,3.48-.35,4-3.11,4.92-14.58,10.7-16,16.63-1,19.25,1.08A19.55,19.55,0,0,1,196.66,147c.11,2,0,2.84,0,4.45s1.08,2.23,3.09,2.23h6.46c2.3,0,3.59-1.19,4.38-3.88a39.3,39.3,0,0,0,1.22-9.91c-.18-1.72-3.38-.54-3.38-2.3s-.22-11.71-.22-14.8.86-3.77-3.59-6-14.84-4.85-29.45-7.25c-3.05-.5-4.38-1.47-5.24-2.66s-19.49-20.92-25-23.13-22.12-2.3-30.45-2.59S61.39,79.39,42,79.63s-21.4,1.72-23.27,5.65S10.83,103.14,10.83,116V135c0,1.62.35,2.59-1.41,2.59s-6.25-.4-6.25,2.66-.54,7.18,2.3,7.18L33,147.31c1.26,0,1.72-.07,2-2.3s2.66-14.51,11.35-15.44,17.35-.65,19.82,2.37A30.91,30.91,0,0,1,72,144.29c.72,4.06.54,4,2.23,4s38.33,1.1,38.33,1.1"/><path class="cls-2" d="M118.56,88.82c0,.25,0,1,0,2"/><path class="cls-2" d="M118.56,88.82c-.14-2.68.81-2.06,2.87-2.11s12.23.55,15.85,1c3.78.43,5,1.58,6.94,3s11.25,9.77,13.41,12.07,1.44,5.22,1.44,6.9-1.29,2.39-3.26,2.3-24.8-.86-28.63-1.05-3.3-1.24-3.35-3.11-.31-15.37-.31-15.37"/><circle class="cls-2" cx="53.1" cy="153.17" r="14.17"/><circle class="cls-2" cx="177.61" cy="153.17" r="14.17"/></svg>