<svg id="Layer_1" data-name="Layer 1" xmlns="http://www.w3.org/2000/svg" viewBox="0 0 599.76 600"><defs><style>.cls-1{fill:#fff;}</style></defs><title>icon-phone</title><path class="cls-1" d="M23.85,182.58a203.25,203.25,0,0,1,20.78-87.7C51.91,80,60.72,65.55,73.15,54.15,89.73,39,106.06,23.33,123.86,9.67c18.34-14.08,37-10.35,54,5,18.54,16.78,31,38.1,43.72,59.17a282.11,282.11,0,0,1,19.37,37.39c12.44,30.11,7.71,56.17-19.73,77.36-12.11,9.36-24.44,18.54-35.71,28.85-11.75,10.75-16.66,24.24-14.07,40.83,4.16,26.59,18.26,48.11,33.28,69.17a512.53,512.53,0,0,0,64.49,73.93c14.18,13.47,29.44,25.83,47.13,34.59,12.77,6.32,26.4,10.12,40.39,5.62,6.74-2.17,13.08-6.71,18.59-11.37C390,417.74,403.52,403.7,418.82,392c17.72-13.54,37.8-12.64,57.6-4.09,19.27,8.32,35.37,21.37,50.86,35.25,10,9,20.8,17.19,30.05,26.88,10.21,10.69,20.19,21.77,23.67,37.18,3,13.19-.2,25-9.26,33.63C554.61,537.26,537,553.46,518,567.5a152.41,152.41,0,0,1-77,29.23c-11.44,1.08-23,2.69-34.39,2.17A237,237,0,0,1,332.2,583a309.6,309.6,0,0,1-72.49-39.42c-14.66-10.75-29.07-21.94-42.86-33.78-13.51-11.6-26.83-23.58-38.91-36.63-18.63-20.13-37-40.63-53.88-62.22a794.64,794.64,0,0,1-48.41-68.56C54.53,308.5,38.69,272,30.27,232.8,26.74,216.36,25.91,199.34,23.85,182.58Z"/></svg>