<svg id="Layer_1" data-name="Layer 1" xmlns="http://www.w3.org/2000/svg" viewBox="0 0 216 216"><defs><style>.cls-1{fill:#73cbcb;opacity:0.6;}.cls-2{fill:none;stroke:#576571;stroke-linecap:round;stroke-miterlimit:10;stroke-width:4px;}</style></defs><title>icons-</title><path class="cls-1" d="M139.12,113.92s-4.28-5.68-5.21-10.44c-.84-4.31,2-10.44,7-6.67,2.17,1.64,2.58,4.84,2.58,4.84s6.89-8,10.83-6c3.36,1.74,7.37,18.06-9.18,25.72"/><path class="cls-2" d="M13.26,60c.43-1.73-2.5-5.44,0-5.35s94.48-.52,97.85,0,17.95,4.49,17.43,5.35-9.23,4.66-7.08,5.52,6.15,1.81,7.09,1.38,11-.82,14.22-.43,8.54,2.5.65,3.8S135.35,85.51,136,87.94s2.33,5,4.06,2.07,1.45-7.4,1.25-9.66,2-7.7,6.22-7.08,6.59,5.82,6.81,8.41-2,6.6-1.64,8,2.2,3.92,7.42,1.59,19.33-16.48,22.78-16.18,14.54-.9,14.67-1.77S198.9,62.14,203,62.79s3.75,5.39,4.49,7.94,2.8,4.1,2.85,5-12.25,6-13.29,8.89-.56,6.77-1.38,7.64-12.73,7.08-14,10.48-2.24,14.06-3,15.88-17.43,12.86-18.29,14.93-3,3.93-.26,11.82,3.28,15.53,1.64,15.88-6.56-7.33-7.33-9.49-.56-5.87-2-7.51-13.93-5-18.9-3.8-3.32,2.11-3.28,3.54-3,1.25-4.49,1.29-3.54-2.55-9.4-2-11.48,4.53-12.42,6.47-1.9,6.26-.95,8-6,.65-7.77-2.42-5-10-6.47-11.39-5.09-1.86-6.13,0-1.16,3.24-2.42,2.24-2.31-3.88-5-6c-2.42-1.86-4.29-4.31-13.93-3.8s-38.25-6-47.15-24-7.46-24.16-7-29.68,1.64-8.59,1.38-12.17S6.8,61.24,6,59.94s-.35-3.11,1.81-2"/><path class="cls-2" d="M140.14,116.45s-5.23-6.34-5.91-9.79c-.61-3.13,1.18-8.66,4.8-5.86,2,1.57,2.45,3.5,3.57,3.73.56.12,3.82-7.16,6.85-6.08,3.43,1.22,6.41,13-5.51,20.95"/></svg>