<svg id="Layer_1" data-name="Layer 1" xmlns="http://www.w3.org/2000/svg" viewBox="0 0 216 216"><defs><style>.cls-1{fill:none;stroke:#576571;stroke-linecap:round;stroke-miterlimit:10;stroke-width:4px;}.cls-2{fill:#73cbcb;opacity:0.6;}</style></defs><title>icon-</title><path class="cls-1" d="M30.67,107.18V78.41c0-9.51,7.5-16,14.33-16H165.67c6.83,0,14.33,6.46,14.33,16v76.06c0,9.51-7.5,16-14.33,16H45c-6.83,0-14.33-6.46-14.33-16V112.11h0"/><path class="cls-1" d="M42.67,101.43V93.62a2.28,2.28,0,0,1,2.11-2.35H62.56a2.28,2.28,0,0,1,2.11,2.35v11.2a2.28,2.28,0,0,1-2.11,2.35H30.67"/><path class="cls-1" d="M152.88,157.16s1.27,1.11,5,1.11c7.92,0,10.5-4.95,10.5-10.17s-3-10.7-9.79-11c-4.58-.19-7.21,2.58-7,3.21s1.36,5.4.79,8.34c-1.13,5.79-5.16,8.5-12.25,8.5-5.83,0-9.92-4.33-9.75-11.43.15-6.49,5.49-8.58,9.25-8.62,4.25,0,6.5,2.12,7.17,3"/><rect class="cls-2" x="41.33" y="148.02" width="78.99" height="9.95" rx="2.98" ry="2.98"/><rect class="cls-2" x="41.33" y="118.35" width="28.73" height="9.95" rx="3.49" ry="3.49"/><rect class="cls-2" x="73.65" y="118.35" width="28.73" height="9.95" rx="3.49" ry="3.49"/><rect class="cls-2" x="105.96" y="118.35" width="28.73" height="9.95" rx="3.49" ry="3.49"/><rect class="cls-2" x="138.27" y="118.35" width="28.73" height="9.95" rx="3.49" ry="3.49"/></svg>