<svg id="Layer_1" data-name="Layer 1" xmlns="http://www.w3.org/2000/svg" viewBox="0 0 216 216"><defs><style>.cls-1{fill:none;stroke:#576571;stroke-linecap:round;stroke-linejoin:round;stroke-width:4px;}</style></defs><title>icon-Mini Skyline</title><path class="cls-1" d="M6.74,188.25A1.14,1.14,0,0,0,8,187v-4.25c0-1.23.07-1.2,1.2-1.2s1.84.63,1.84-1.84V134.17c0-1,1.71-1,1.71-.11s1.16.8,1.16-.07v-6.07c0-1.23-.07-1.41,1-1.41h1.62c.39,0,.68-.23.68-.79s.08-.87.6-.87h.56c.32,0,4.35-5.48,4.5-5.75s.35-.27,1.31-.27l6,.05a.88.88,0,0,1,.69.34S35,125,35.32,125h.56c.52,0,.6.31.6.87s.29.79.68.79h1.62c1,0,1,.18,1,1.41v6.07c0,.87,1.16.92,1.16.07s1.71-.9,1.71.11v47.07c0,2.47.72,1.84,1.84,1.84h2.46c.49,0,.63-.41.63-1.77V99c0-1.52.07-1.59,1.92-1.59H66.9c1,0,.9-.44.9-1.13V79.11c0-.32.54-.4.54,0s.39.53.62.6a7.83,7.83,0,0,1,2.94,1.94,3.32,3.32,0,0,1,.67,3.27c-.4,1.19-.76.13-.78-.07s-.63-1.48-1-1.63a5,5,0,0,0-2.1,0,1.75,1.75,0,0,0-.17.76V96.28c0,.42,0,1.11,1.45,1.11H88.22c1.34,0,1.22.13,1.22,1.22v63.19c0,1.08,0,1.18,1.18,1.18h2.52c.87,0,1.16-.06,1.16,1.6v7.7c0,1.12-.29,1.41.9,1.41h2.17c1,0,1.23.05,1.23,1.23v3.33c0,1,.63.8,1.81.8s1.84.14,1.84-.83v-107c0-1.36-.09-2.1.54-2.1h.76c.48,0,.8.17.8-1.44V65.27c0-1,0-1.44.67-1.44s1,.05,1-1.59V60.32c0-.8.08-.8.91-.8h1.32c.59,0,.74-.05.74-.73V57.6c0-.57.14-.64.48-1s4.77-5.34,5-5.57.26-.18.49-.18h1c.17,0,.32,0,.32-.68V27a.52.52,0,1,1,1,0V50.18c0,.43,0,.65.21.65l6.68-.06c.22,0,.21-.22.21-.65V26.92a.52.52,0,1,1,1,0V50.13c0,.69.15.68.32.68h1c.23,0,.3,0,.49.18s4.62,5.23,5,5.57.48.41.48,1v1.2c0,.67.15.73.74.73h1.32c.83,0,.91,0,.91.8v1.91c0,1.65.31,1.59,1,1.59s.67.43.67,1.44v2.38c0,1.61.32,1.44.8,1.44H139c.63,0,.54.74.54,2.1V187.46c0,.65,1.16.94,1.16-.14V179c0-1-.29-.92.77-2s5.53-5.72,6.22-6.41.58-.43,1.64-.43,1.1-.2,2,.67,6.51,5.4,6.94,5.83.24.6.24,1.59v9.53c0,.52.71-.18.71.65v2.7c0,.52.38.6,1.82.6s2,.08,2-.79V164.39c0-1.37-.11-1.15,1.15-1.15h4.73c.81,0,1,0,1-1v-11c0-1.3-.27-1.19.88-2.82s3.52-5,3.91-5.64.53-.42.52-1.52,0-2.37,0-3,.65-.5.65,0v3c0,.22-.11.44.74.44h4.87c.26,0,.25-.29.25-.68s0-2.56,0-3.1.65-.5.65,0v3.13c0,.37-.06.74,1.17.74h3c1.23,0,1.17-.37,1.17-.74v-3.13c0-.48.65-.52.65,0s0,2.71,0,3.1,0,.68.25.68h4.87c.84,0,.74-.22.74-.44v-3c0-.48.65-.63.65,0s0,1.92,0,3,.12.87.52,1.52,2.75,4,3.91,5.64.88,1.52.88,2.82v15.68c0,1,.22,1,1,1h6.06c1.26,0,1.15-.22,1.15,1.15v17.78c0,1.47-.29,2,1.11,2"/></svg>