<svg id="Layer_1" data-name="Layer 1" xmlns="http://www.w3.org/2000/svg" viewBox="0 0 216 216"><defs><style>.cls-1{fill:#73cbcb;opacity:0.6;}.cls-2{fill:none;stroke:#576571;stroke-linecap:round;stroke-miterlimit:10;stroke-width:4px;}</style></defs><title>icon-</title><path class="cls-1" d="M47.12,139.29h0c-7.28,0-7.28-3.28-7.28-7.28V99.49a7.3,7.3,0,0,1,7.28-7.28h3.45A3.85,3.85,0,0,1,54.41,96v36C54.41,136,54.41,139.29,47.12,139.29Z"/><path class="cls-1" d="M95.09,136.58h0c-7.28,0-7.28-4.71-7.28-10.46V79.37c-.16-8.52-1.88-10.07,7.28-10.46h3.45c2.11,0,3.84,2.48,3.84,5.51v51.7C102.37,131.87,102.37,136.58,95.09,136.58Z"/><path class="cls-1" d="M71,138.13h0c-7.28,0-7.28,0-7.28-13.85V62.41c0-7.62,0-13.85,7.28-13.85h3.45c2.11,0,3.84,3.28,3.84,7.3v68.43C78.27,138.13,78.27,138.13,71,138.13Z"/><rect class="cls-1" x="66.78" y="204.05" width="84.4" height="5.15" rx="2.54" ry="2.54"/><path class="cls-2" d="M127.32,157.64H18.1C7.85,157.64,4,153.49,4,146.29V71.77C4,59.3,4,39.44,4,32.23S7.85,20.88,18.1,20.88H197.9C208.15,20.88,212,25,212,32.23V146.29c0,7.2-1.55,11.36-11.8,11.36-1.56,0-1.3-2.19-1.34-3.74s-.7-114.93-.7-117.26-.68-3.5-3.3-3.5H20c-1.65,0-2.52,1.94-2.52,4.47V142.7c0,2.26,1.07,1.92,1.92,1.92H189.85c2.23,0,2,1.55,2,2.35v7.67c0,1.07.22,3.3-2.18,3.3H133.71"/><path class="cls-2" d="M127.32,157.64c4.27,34.47,21.82,46.41,23.86,46.41,2.36,0,2.52,5.15,0,5.15H64.81c-2.52,0-2.36-5.15,0-5.15,2,0,20-13.42,23.26-40.81"/><path class="cls-2" d="M36.35,138.42V95c0-3.86,2.84-3.64,4.18-3.64H52.06c2.26,0,2.67,1.17,2.67,2.92v41.5c0,1.17.84,2.62,3.51,2.62a3,3,0,0,0,3-2.72"/><path class="cls-2" d="M61.19,135.7V51.47c0-3.86,2.84-3.64,4.18-3.64H76.9c2.26,0,2.67,1.17,2.67,2.92v85c0,2.06.64,3.59,2.81,3.59s3.54-1.07,3.54-3.59V72c0-3.86,2.84-3.64,4.18-3.64h11.53c2.26,0,2.67,1.17,2.67,2.92v65"/></svg>