<svg id="Layer_1" data-name="Layer 1" xmlns="http://www.w3.org/2000/svg" viewBox="0 0 216 216"><defs><style>.cls-1{fill:#73cbcb;opacity:0.6;}.cls-2{fill:none;stroke:#576571;stroke-linecap:round;stroke-linejoin:round;stroke-width:4px;}</style></defs><title>icon-Heart</title><path class="cls-1" d="M143.5,187.47s-78.25-17.5-104-82C17.43,50.2,71.61,52.53,99.63,72.72c11.19,8.06,6.88,13.56,12.88-2.44,13.89-37,67.63-51.06,58.17,25.52C164.1,148.95,145,182.35,145,182.35"/><path class="cls-2" d="M142,184.22s-78.25-17.5-104-82C15.93,46.95,70.11,49.28,98.13,69.47,109.31,77.54,105,83,111,67,124.89,30,178.63,16,169.17,92.56,162.6,145.7,143.5,179.1,143.5,179.1"/></svg>