<svg id="Layer_1" data-name="Layer 1" xmlns="http://www.w3.org/2000/svg" viewBox="0 0 216 216"><defs><style>.cls-1{fill:#73cbcb;opacity:0.6;}.cls-2{fill:none;stroke:#576571;stroke-linecap:round;stroke-miterlimit:10;stroke-width:4px;}</style></defs><title>icon-</title><circle class="cls-1" cx="169.62" cy="66.64" r="17.88"/><path class="cls-2" d="M167.5,128c1.75,0,29.75-47.25,29.75-67.75,0-19.51-18-26.75-29.75-26.75s-29,9-29,28C138.5,80.76,167.5,128,167.5,128Z"/><circle class="cls-2" cx="167.62" cy="63.88" r="17.88"/><path class="cls-2" d="M182.25,124.75s21.5,37.63,21.25,38.5S161.63,183.13,158.75,183s-12.83-59.92-12.25-60.33,6.85-8.1,6.35-6.35-5.19,4.44-9,2.69S108.75,93.88,108,94.25s-.25,63.44,0,64,43.25,28.58,45.29,23.58c2.6-6.36-41.65-21.52-45.69-21.33s-49,24.25-49.48,24.25,11.44-61.94,11.75-62.87,31.54-28.3,33.63-24.29c2.72,5.23-31.31,23.83-33.75,23.33s-23.31-25.73-24-25.67-33.37,65.31-33.37,66.13,40.5,22.13,40.5,22.13"/></svg>