<svg id="Layer_1" data-name="Layer 1" xmlns="http://www.w3.org/2000/svg" viewBox="0 0 50 45.19"><defs><style>.cls-1{fill:#fff;}</style></defs><title>download-icon</title><path class="cls-1" d="M3.47,45.19c-2.37,0-3.44-1-3.44-3.09C0,38.54.1,35,0,31.41a3,3,0,0,1,3-3,2.92,2.92,0,0,1,3,3.06c0,2.41,0,4.81,0,7.22,0,.86.33,1.13,1.26,1.12q17.74,0,35.48,0c.95,0,1.26-.29,1.25-1.14,0-2.52,0-5.05,0-7.58a2.65,2.65,0,0,1,2.18-2.56A2.87,2.87,0,0,1,50,31.15c0,3.74,0,7.49,0,11.23,0,1.76-1.18,2.8-3.16,2.8Z" transform="translate(0 0)"/><path class="cls-1" d="M22.16,24.27c0-.6.06-1,.06-1.33q0-9.71,0-19.43a6.14,6.14,0,0,1,.21-1.67,2.7,2.7,0,0,1,5.11,0,6,6,0,0,1,.22,1.67q0,9.71,0,19.43c0,.37,0,.75,0,1.4.46-.39.7-.57.92-.79L34.2,18a2.85,2.85,0,0,1,4.13-.18,2.78,2.78,0,0,1-.26,4L27.17,32.8a2.73,2.73,0,0,1-4.29,0q-5.49-5.47-11-11a2.76,2.76,0,0,1-.17-4A2.85,2.85,0,0,1,15.8,18l5.49,5.48C21.51,23.72,21.75,23.91,22.16,24.27Z" transform="translate(0 0)"/></svg>