<svg id="Layer_1" data-name="Layer 1" xmlns="http://www.w3.org/2000/svg" viewBox="0 0 216 216"><defs><style>.cls-1{fill:#73cbcb;opacity:0.6;}.cls-2{fill:none;stroke:#576571;stroke-linecap:round;stroke-miterlimit:10;stroke-width:4px;}</style></defs><title>icons-</title><path class="cls-1" d="M179,171c1.13.53,1.88,25.75,1.75,27.5s-120.08,1.67-124.08,1.17S43.54,195,42.75,188.75s.75-17.67,7.83-18.08S176.17,169.67,179,171Z"/><path class="cls-1" d="M128.13,19.31s-2.5,73.42,0,75.19c1.34,1,16.25-20.25,16.88-19.08S154.44,89.48,155.38,89s0-68.42,0-68.42Z"/><path class="cls-2" d="M175.34,167.2s1.8-149.91,0-150.35-43.59-1.82-44.1,1.8-1.51,74.48,0,74.56,11-15.74,12.79-15.48S154.64,95,157.16,95.55s1.68-73.47,0-74.9-25.67-5.47-33.83-5.22-64.24-.42-67.83,0S40.24,16.39,39.57,29s-.67,158,0,160.9A16.08,16.08,0,0,0,56,202.21c12-.11,119.07.56,120.18,0s1-27.38,0-28.05-117.6.34-119.73.45S45,182,46.53,187.62s122.53,1.12,122.53,1.12"/></svg>