<svg id="Layer_1" data-name="Layer 1" xmlns="http://www.w3.org/2000/svg" viewBox="0 0 216 216"><defs><style>.cls-1{fill:#73cbcb;opacity:0.6;}.cls-2{fill:none;stroke:#576571;stroke-linecap:round;stroke-linejoin:round;stroke-width:4px;}</style></defs><title>icon-Balloon</title><path class="cls-1" d="M120.71,127.18a88.71,88.71,0,0,0,7.33,5.33c2.33,1.33-9.83,12.67-11,10.67s-3.17-13.33-3.67-16.33-16.83,10.67-55.67-1.67S6.36,59.67,20.38,35.68C35.38,10,78.25,11.48,98.88,25c37.33,24.5,34.67,66.42,18.79,97.67"/><path class="cls-2" d="M117.33,126.06a88.71,88.71,0,0,0,7.33,5.33c2.33,1.33-9.83,12.67-11,10.67s-3.17-13.33-3.67-16.33-16.83,10.67-55.67-1.67S3,58.54,17,34.56C32,8.89,74.87,10.35,95.5,23.89c37.33,24.5,34.67,66.42,18.79,97.67"/><path class="cls-2" d="M162,118.06c-9.5,4.83-31.31,3.48-38.81,3s-2.12,2,7.38,7.31,13.1,7.21,32.77,19.38,24.5,37.33,1.67,45-61.67-14.67-91-19.33-60.67,25.33-60.67,25.33"/><path class="cls-2" d="M130.75,19.89c3.38-1.75,5.63-4.06,5.5,2.25s0,8.63-5.12,4-4.25-4.37-4.25-4.37"/><path class="cls-2" d="M10.58,134c-.46-3.77-1.85-6.69,4-4.37s8.08,3,2,6.2S11,138.29,11,138.29"/><path class="cls-2" d="M131.91,162c-1.84,3.33-2.43,6.5-5.83,1.18s-4.78-7.18,2-6.17,6,1.29,6,1.29"/><path class="cls-2" d="M69.36,200.2c-2.29,3-3.33,6.09-5.93.34s-3.71-7.78,2.9-5.82,5.72,2.12,5.72,2.12"/><path class="cls-2" d="M192.92,47.56c1.92.83,6.58.33,2.83,4.42s-5,8.17-5.42,5.25-2.5-10.08-2.5-10.08"/><path class="cls-2" d="M166,84.2c-1,1.85-.8,6.54-4.61,2.52s-7.8-5.52-4.86-5.77,10.23-1.79,10.23-1.79"/><path class="cls-2" d="M45,160.85c-2-.5-6.55.77-3.53-3.88s3.53-8.88,4.47-6.08,4.15,9.53,4.15,9.53"/><path class="cls-2" d="M123.19,204.64c1.64-1.3,3.39-5.65,5.23-.42s4.87,8.22,2.08,7.25-10.07-2.54-10.07-2.54"/><path class="cls-2" d="M192.83,121.75c.34-2.06-1.29-6.47,3.59-3.83s9.13,2.81,6.41,4-9.17,4.89-9.17,4.89"/></svg>