<svg id="Layer_1" data-name="Layer 1" xmlns="http://www.w3.org/2000/svg" viewBox="0 0 216 216"><defs><style>.cls-1,.cls-4{fill:#73cbcb;}.cls-1,.cls-3{opacity:0.6;}.cls-2{fill:none;stroke:#576571;stroke-linecap:round;stroke-miterlimit:10;stroke-width:4px;}</style></defs><title>icons-</title><path class="cls-1" d="M126.17,152.83c-.38,1.1,3.58,22.33,31.67,21.33,0,0,.75,0,2.33,0s4.67,7.63,6,8.8,9.61,5,17.5,3c.51-.12-8.17-9.41-9.54-14.62s5.25,1.69,13.88.25,22.42-25.21,21.67-30.46,1.17-27.17-17.5-28.83-21.33-1.25-21.33,0-11.17,20.83-18.83,25.5S126.92,150.67,126.17,152.83Z"/><path class="cls-2" d="M165.7,114s-10.08,21.44-38.45,33.82-61.22,10.6-72-1.5c-1.64-1.84-1.5-.87-3,.5s-22,23.12-38.75,17.13c-3.71-1.33,7.06-6.46,9.86-8.74,4.15-3.38,13.83-13.45,13.77-15.89S19.83,134.22,11,120.47-5.75,83.05,29.5,48.05,124,35.89,132.17,40,166,60.89,169.83,79s-1.5,28.33-1.5,28.92.42,1.17,6.33.42,24.67-.42,31.17,7.83,11.21,26.1,0,39c-10.46,12-19,15.41-27.42,15.67-4.77.15,10.27,16.38,10.58,17.13s-7.81,2.06-14.12-1.12-7.75-10.06-8.87-10.37-6.5,1.5-11.75,1.38-20.69-3.12-25.12-9.87A43.54,43.54,0,0,1,123.31,155"/><g class="cls-3"><path class="cls-4" d="M105,82.61V51.76h-37V82.61h-18v41.6H123V82.61ZM68,118.76H56V87.42H68Zm30.13,0H74V58.59H98.17Zm19,0H105V87.42h12.08Z"/></g><rect class="cls-1" x="63" y="89.53" width="2" height="7.04"/><rect class="cls-1" x="63" y="99.57" width="2" height="7.04"/><rect class="cls-1" x="108" y="89.53" width="2" height="7.04"/><rect class="cls-1" x="108" y="99.57" width="2" height="7.04"/><rect class="cls-1" x="81.07" y="62.57" width="3.01" height="5.98"/><rect class="cls-1" x="89.03" y="62.57" width="3.01" height="5.98"/><rect class="cls-1" x="81.07" y="71.56" width="3.01" height="5.98"/><rect class="cls-1" x="89.03" y="71.56" width="3.01" height="5.98"/><rect class="cls-1" x="81.07" y="80.54" width="3.01" height="5.98"/><rect class="cls-1" x="89.03" y="80.54" width="3.01" height="5.98"/><rect class="cls-1" x="81.07" y="89.53" width="3.01" height="5.98"/><rect class="cls-1" x="89.03" y="89.53" width="3.01" height="5.98"/><rect class="cls-1" x="81.07" y="98.51" width="3.01" height="5.98"/><rect class="cls-1" x="89.03" y="98.51" width="3.01" height="5.98"/></svg>