<svg id="Layer_1" data-name="Layer 1" xmlns="http://www.w3.org/2000/svg" viewBox="0 0 216 216"><defs><style>.cls-1{fill:#73cbcb;opacity:0.6;}.cls-2{fill:none;stroke:#576571;stroke-linecap:round;stroke-miterlimit:10;stroke-width:4px;}</style></defs><title>icon-</title><path class="cls-1" d="M115.92,44.23S93.21,54.77,81.28,85.57s-9,59.17-11.77,59.79-17.17-4.87-18.35-6.43,7.72-41.27,17.66-58.37c7.8-13.42,21.89-29.43,38.1-35.47"/><path class="cls-1" d="M37.1,139.21c-5.41-.23-12.73,9.46-12.61,11s30.79,17.09,60.2,21.67,46.78-10.26,47-11.58-42.54-2.24-47.13-3.21S38.48,139.27,37.1,139.21Z"/><path class="cls-2" d="M39.77,139.44c1.67,1.29,16.6,14.33,61.67,17.54,51.53,3.67,77.06-6.65,88.29-12.84s6-9.1,4.74-9.79-6-4.13-5.81-9.48.27-77.17-62.69-84.4S45.25,96,45.4,114.33s-7.19,20.95-8.87,22.32S21.62,148,21.24,150.1s7,9.33,33.64,16.05,34.55,8.94,45.87,6.88S132,161.78,132,161.78"/><path class="cls-2" d="M74.74,141.34c.17.52,29.53,8,65.93,4,34.53-3.78,44.94-13,44.94-13"/><path class="cls-2" d="M113.7,44.23S91,54.77,79.06,85.57s-9,59.17-11.77,59.79-17.17-4.87-18.35-6.43S56.67,97.66,66.6,80.57c7.8-13.42,21.89-29.43,38.1-35.47"/></svg>