<svg id="Layer_1" data-name="Layer 1" xmlns="http://www.w3.org/2000/svg" viewBox="0 0 216 216"><defs><style>.cls-1{fill:#73cbcb;opacity:0.6;}.cls-2{fill:none;stroke:#576571;stroke-linecap:round;stroke-linejoin:round;stroke-width:4px;}</style></defs><title>icon-Printer</title><polygon class="cls-1" points="51.5 92.39 52.83 32.89 59.72 28.73 123.5 29.22 154.67 60.06 154.67 93.06 51.5 92.39"/><path class="cls-2" d="M161.41,155.52H173c6.54,0,10.32-2.06,10.32-8.51V110.1c0-15.52-7-16.61-13.08-16.61H41.94c-14.85,0-16.1,5.28-16.1,11.91v40.93c0,11.32,10.9,10.57,16.78,10.57s8.72.5,8.72,4.36v17.28c0,5.79,4,8.72,9.56,8.72h82.37c11.49,0,12.08-4.53,12.08-10.9v-33c0-8.72-4.36-11-13-11H62.52c-6,0-10.46,0-10.46,5.76V151.6"/><path class="cls-2" d="M43.62,72V85.08c0,2.8,8.5,4.31,8.5.34v-49c0-4.92,2.07-7.72,7.6-7.72h56.7c4.75,0,7.72-.56,14.2,5.93s19.15,18.7,22,21.58,3.08,5.48-5,5.48h-20c-3.41,0-6.93-2-6.93-6.93V36"/><path class="cls-2" d="M155.12,67.1v19c0,3,8.95,2,8.95.14V71.9"/><line class="cls-2" x1="31.25" y1="109.54" x2="178.06" y2="109.54"/></svg>