<svg id="Layer_1" data-name="Layer 1" xmlns="http://www.w3.org/2000/svg" viewBox="0 0 216 216"><defs><style>.cls-1{fill:#73cbcb;opacity:0.6;}.cls-2{fill:none;stroke:#576571;stroke-linecap:round;stroke-miterlimit:10;stroke-width:4px;}</style></defs><title>icon-</title><path class="cls-1" d="M16,107.93c3.26,8.36,16,55.28,36.67,56.2s57.89-10.32,69-16.21,58.13-19.72,72.21-17.65c6.11.9,1.35-11-1.14-11.18-4.45-.39-22-3.13-29,1.44S113.18,140.84,105,142.69s-37.84,11.19-49,5.65-28.2-29.23-33.73-42.17S16,107.93,16,107.93Z"/><ellipse class="cls-1" cx="105.48" cy="94.24" rx="25.41" ry="32.58" transform="translate(-30.62 55.69) rotate(-25.97)"/><path class="cls-2" d="M107.51,77.52c-1.8-.32-6.39-1.3-10,.48s-7.95,6.94-5.59,11.76,7.18,4.85,13,3.66,10.73-1.58,13,3.1-.07,9.68-5.34,12.26-10,1.15-12.58.49"/><line class="cls-2" x1="95.9" y1="75.06" x2="114.8" y2="113.69"/><path class="cls-2" d="M17.51,95c-2-4.56-11.4-22-6.19-22.15s9.45.76,19.33.76,36.92-6.19,56.8-15.42,42.68-18,61.9-18,23.19,2.82,25.85,7.6,27,62.15,27.69,63.69,1.55,7.25-3.26,7.17-6.76-1.3-16.45-1.3S150.44,120.59,124.7,133s-46.59,17.27-62.23,17.27S41,149.42,36.9,140.3,22.4,106.41,21.26,104s-8.63.49-8,2.12,20.85,51.26,22.91,53.54,8.47,4.89,22.59,4.56,37.79-3.37,56.69-13.25,51-19.7,68.42-20.42c5.27-.22,13.25-1,14.23,1.19s5.82,13.79,5.3,14.44,0,3.26-6.93,3.15-21-1.85-33.5,1.41-44.72,16.78-54.57,20.69S79.74,182,60.35,182s-23.46-9.77-24.27-11.73"/></svg>