<svg id="Layer_1" data-name="Layer 1" xmlns="http://www.w3.org/2000/svg" viewBox="0 0 216 216"><defs><style>.cls-1{fill:#73cbcb;opacity:0.6;}.cls-2,.cls-3{fill:none;stroke:#576571;stroke-linecap:round;stroke-miterlimit:10;}.cls-2{stroke-width:4px;}.cls-3{stroke-width:2px;}</style></defs><title>icon-</title><path class="cls-1" d="M12.75,27.12c10.71-.49,189.47-1.27,191.38,1s1.5,13.17-2,13.5-188.94,2.75-189.38,0S6.94,27.39,12.75,27.12Z"/><path class="cls-1" d="M188.93,115.49c-2.21.61-150.49-.06-156.92-.06s-9.57-2.31-3.34-10.62c7.07-9.42,6-10.09,12.33-10.09H172.65c3.85,0,11.61,10.49,11.61,10.49C184.93,106,192.87,114.4,188.93,115.49Z"/><path class="cls-1" d="M136,195c-1.85,4.16-55.89,3.73-59.16,0s-3.36-43.88,0-48.18,55.89-3.58,59.16,0S137.85,190.84,136,195Z"/><path class="cls-2" d="M139.51,193.54V149.8c0-3.44-.09-5.93-4.26-5.93H115.49c-3.24,0-5.58-.59-5.58,4.27v45.4"/><path class="cls-2" d="M24.14,174.64V143.77c0-5.29,3.33-4.64,7.92-4.64H60.12c5.93,0,6,2.71,6,6.45V177.1c0,2.91-2.37,3-4.65,3H24.14"/><path class="cls-2" d="M149.14,174.64V143.77c0-5.29,3.33-4.64,7.92-4.64h28.06c5.93,0,6,2.71,6,6.45V177.1c0,2.91-2.37,3-4.65,3H149.14"/><path class="cls-2" d="M163.79,77V63.11c0-5.29-2.55-4.64-6.07-4.64H56.17c-4.54,0-4.63,2.71-4.63,6.45V79.43c0,2.91,1.81,3,3.56,3H163.79"/><path class="cls-2" d="M105.11,143.85h-26c-1.49,0-3.15.79-3.15,5.36v44.33"/><path class="cls-2" d="M15.58,48.1s-.12,141.25,0,145.11c.08,2.66-.62,5.5,6.53,5.5H194c5.31,0,6.85-1.33,6.85-4.08s0-4.93,0-7.88V47.92c0-5.69.26-5.34-9.64-5.34H20.51c-4.88,0-11.64.77-11.64-4.36s.21-8.48.21-8.48c0-3.28,5.25-2.9,8.63-2.9l183.18-.3c3.95,0,5.57-.45,5.57,2.55V39.6"/><path class="cls-2" d="M189.19,112H32.86c-6.42,0-9.57-2.23-3.34-10.28,7.07-9.12,6-9.76,12.33-9.76H175.31c3.85,0,13.09,14.21,13.09,14.21"/><path class="cls-3" d="M43,175.54V169c0-.25,0-.39.39-.39S48,168.2,48,170.5s-4.06,2.39-4.06,2.1"/><line class="cls-3" x1="50.85" y1="168.95" x2="54.79" y2="168.95"/><path class="cls-3" d="M50.06,168.67v6.58c0,.28,0,.28.42.28H54.9"/><line class="cls-3" x1="50.87" y1="172.1" x2="54.17" y2="172.1"/><path class="cls-3" d="M39.26,169c-.31-.15-4.62-1.93-4.88,3-.25,4.68,4.35,3.92,5.21,3.13a4.1,4.1,0,0,0,.46-5.31"/><path class="cls-3" d="M57,175.63v-6.88c0-.34.2-.11.52.39s4,6.2,4.13,6.41.14-.23.14-.37c0-.3.1-6.33.1-6.43"/></svg>