<svg id="Layer_1" data-name="Layer 1" xmlns="http://www.w3.org/2000/svg" viewBox="0 0 87.18 87.25"><defs><style>.cls-1{fill:#f16d7d;}</style></defs><title>tick_bad</title><path class="cls-1" d="M349.92,365.63c-0.26.28-.52,0.58-0.8,0.86q-14.29,14.31-28.61,28.59c-0.88.88-.81,1.28,0,2.11q14.38,14.3,28.7,28.67c0.69,0.68.79,1,0,1.78q-5.8,5.68-11.46,11.48c-0.79.81-1.17,0.67-1.88,0q-14.24-14.35-28.52-28.68c-0.83-.84-1.25-0.95-2.15,0-9.55,9.63-19.16,19.2-28.71,28.83-0.75.76-1.13,0.77-1.89,0q-5.63-5.76-11.38-11.39c-0.72-.7-0.72-1.08,0-1.8,9.64-9.6,19.23-19.24,28.88-28.83,0.85-.84.79-1.25,0-2.06q-14.42-14.35-28.79-28.75c-0.72-.72-0.85-1.1,0-1.89q5.76-5.62,11.38-11.39c0.79-.81,1.17-0.67,1.89,0q14.34,14.43,28.72,28.82c0.81,0.82,1.23.85,2.07,0,9.52-9.6,19.1-19.14,28.63-28.74,0.74-.75,1.11-0.79,1.87,0,3.77,3.88,7.61,7.69,11.41,11.53A1.75,1.75,0,0,1,349.92,365.63Z" transform="translate(-262.74 -352.5)"/></svg>