<svg id="Layer_1" data-name="Layer 1" xmlns="http://www.w3.org/2000/svg" viewBox="0 0 216 216"><defs><style>.cls-1{fill:#73cbcb;opacity:0.6;}.cls-2{fill:none;stroke:#576571;stroke-linecap:round;stroke-miterlimit:10;stroke-width:4px;}</style></defs><title>icon-</title><path class="cls-1" d="M62.74,92.75H99.07c2.92,0,4.33.67,4.33,4.17v42c0,2.83.17,3.33,2.67,3.33h13c1.75,0,1.83,1.25-1,4.83s-48.08,57.25-50.17,60-3.42,2.5-6.67-1-50-57.58-51.67-59.33-2.12-4.42,1.33-4.42H22.82c1.67,0,3.5,0,3.5-2.5S25.95,99,25.95,97.08s-.5-4.33,2.63-4.33Z"/><path class="cls-2" d="M94.73,90.41H25.23c-3.12,0-2.62,2.46-2.62,4.33S23,135,23,137.49s-1.83,2.5-3.5,2.5H7.57c-3.46,0-3,2.67-1.33,4.42s48.42,55.83,51.67,59.33,4.58,3.75,6.67,1,47.33-56.42,50.17-60,2.75-4.83,1-4.83h-13c-2.5,0-2.67-.5-2.67-3.33V93a2.42,2.42,0,0,1,2.54-2.44H112.9c1.79,0,2.3-.77,2.3-2.52v-11c0-2.83-.17-3.33-2.67-3.33h-13c-1.75,0-1.83-1.25,1-4.83s48.08-57.25,50.17-60,3.42-2.5,6.67,1,50,57.58,51.67,59.33,2.13,4.42-1.33,4.42H195.78c-1.67,0-3.5,0-3.5,2.5s.38,40.88.38,42.75.5,4.33-2.62,4.33h-70.5c-2.92,0-4.33-.67-4.33-4.17V96.36"/></svg>