<svg id="Layer_1" data-name="Layer 1" xmlns="http://www.w3.org/2000/svg" viewBox="0 0 216 216"><defs><style>.cls-1{fill:#73cbcb;opacity:0.6;}.cls-2{fill:none;stroke:#576571;stroke-linecap:round;stroke-miterlimit:10;stroke-width:4px;}</style></defs><title>icon-</title><path class="cls-1" d="M15.8,104.63c-.63.9-1.5,39,0,38.88s26.5-7.67,36.17,5.11S55.58,160.35,62.1,161s21.79,2.12,23.45,1.5c1.44-.54,5-22.35,22.95-21.94s13.13,1.5,13.83.7-1.3-6-4.21-6.21-40.78.1-42.39-.4-16.18-32.07-17.44-32.27S17.46,102.28,15.8,104.63Z"/><path class="cls-2" d="M11.95,154.88c-8.87,9.47-3.26,36.83,19.59,36.83S54.08,174,55,172.17s31.56-2,32.32-1.2,6.69,22.1,26.3,22.1S139.76,174,139.76,164.8s-10.15-23.75-27.66-23.75-23.67,22.4-24.2,23.15S56,165.41,55.81,165s-2.36-14.48-15.66-19.84c-5.71-2.3-13.05-1.57-16.28-.76-4.51,1.14-11.24,6-11.2,5.19s-1.73-48.25-1.13-49.23,46.22-.9,47.65,0,17.51,31.94,19.09,32.32,39-.2,39.63.55-8,0-8.42-1.2-24-82.92-24.75-83.37S34.84,43.28,33.94,44s-.06,48.61.62,48.76,17.89.83,18.26.38-.77-26.21-.77-27.64"/><path class="cls-2" d="M109.39,30.48S145.47,155,146.87,155.33l1.4.3s50.85-13.43,52.41-9.42-38,10.62-44.8-2.3-16.83-52.21-16.63-53S169,82,169.81,82s10.57,27,7,28.06S165.1,85,165.5,84.29s29-10.32,29.66-9.92,17.19,52.91,16.93,53.81-51.2,13.73-51.2,13.73"/></svg>