<svg id="Layer_1" data-name="Layer 1" xmlns="http://www.w3.org/2000/svg" viewBox="0 0 216 216"><defs><style>.cls-1{fill:#73cbcb;opacity:0.6;}.cls-2{fill:none;stroke:#576571;stroke-linecap:round;stroke-miterlimit:10;stroke-width:4px;}</style></defs><title>icon-</title><path class="cls-1" d="M189.55,172.48l4.6,4.6c3.06,3.06,4.85,5.52-4.47,14.84s-12.43,8.19-15.5,5.13l-43.84-43.84c-2-2-5.34-3.32-5.5-12.53S116,137,113.75,136.8s-3.29-1.89-4.62-3.22-3.81-3.71-4.47-4.37a2.62,2.62,0,0,1,.31-3.85l4.77-4.77c.93-.93,0-2.7-1.24-3.89L48.85,56.86c-1.86-1.86-4.26-2-5.6-.41S26.18,36.31,25.16,34.59s.18-2.83,1.68-4.51l.35-.35c1.68-1.5,2.78-2.7,4.51-1.68S55.16,44.81,53.56,46.14s-1.45,3.75.41,5.6l59.84,59.66c1.19,1.19,3,2.17,3.89,1.24l4.77-4.77a2.62,2.62,0,0,1,3.85-.31c.66.66,3,3.14,4.37,4.47s3,2.36,3.22,4.62-5.34,10.94,3.87,11.1,10.5,3.46,12.53,5.5l35.18,35.18"/><path class="cls-2" d="M187.22,170.82l4.6,4.6c3.06,3.06,4.85,5.52-4.47,14.84s-12.43,8.19-15.5,5.13L128,151.54c-2-2-5.34-3.32-5.5-12.53s-8.84-3.66-11.1-3.87-3.29-1.89-4.62-3.22-3.81-3.71-4.47-4.37a2.62,2.62,0,0,1,.31-3.85l4.77-4.77c.93-.93,0-2.7-1.24-3.89L46.51,55.2c-1.86-1.86-4.26-2-5.6-.41S23.84,34.65,22.82,32.93,23,30.1,24.5,28.42l.35-.35c1.68-1.5,2.78-2.7,4.51-1.68S52.82,43.14,51.22,44.48s-1.45,3.75.41,5.6l59.84,59.66c1.19,1.19,3,2.17,3.89,1.24l4.77-4.77a2.62,2.62,0,0,1,3.85-.31c.66.66,3,3.14,4.37,4.47s3,2.36,3.22,4.62-5.34,10.94,3.87,11.1,10.5,3.46,12.53,5.5l35.18,35.18"/><path class="cls-2" d="M141.93,64.76s-47.85,46.37-49.35,47.88-2.78-.4-8.4,4.15-41.45,37-47.73,43.66S28.63,169.16,23,174.77s-7.69,4.39-9.49,7.54,1.15,8,4.3,11.14,8,6.1,11.14,4.3,1.93-3.87,7.54-9.49,7.69-7.16,14.32-13.44,39.11-42.12,43.66-47.73,2.65-6.89,4.15-8.4,47.88-49.35,47.88-49.35c1.53-1.53.8.5,4.42-1.71s11.87-7.22,18.8-4.42S179,70.41,179.35,77c.09,1.8-.12,1.12,2.06,2.89l6.25,5.07c1,.8,2.39,0,3.42-.59s8.7-6,12.2-11.14c1.12-1.65,0-2.06-.88-3.12s-6-7.37-6.31-7.6-7.19-.41-10.67-4.66-3.3-9.39-3.3-12.26c0-1.53-6.54-7.78-10.19-10.19s-13.39-11.62-35.62-9.81-24.23,6.76-20.3,6.1,26.32-.69,31.41,1.83,9.22,6.48,3.92,14.35a105.35,105.35,0,0,1-9.19,12"/></svg>