<svg id="Layer_1" data-name="Layer 1" xmlns="http://www.w3.org/2000/svg" viewBox="0 0 216 216"><defs><style>.cls-1{fill:#73cbcb;opacity:0.6;}.cls-2{fill:none;stroke:#576571;stroke-linecap:round;stroke-miterlimit:10;stroke-width:4px;}</style></defs><title>icon-</title><path class="cls-1" d="M20.83,113s65.92,71.87,66.42,76.25,2.07,7.45-6.28,9.6-9.69,3.93-26.7-11.58S12.13,133.9,12.25,132,15.17,111.65,20.83,113Z"/><path class="cls-1" d="M129.25,16.78c-.32-5.47,16-15.39,64,37.06C200.74,62,208,61.09,199,84.78c-3.37,8.88-46.15-39.51-53.41-46.86S129.5,21,129.25,16.78Z"/><path class="cls-2" d="M14.11,140.28s44.61,53.5,52.52,60.12c2.31,1.94,3.19,1.38,6,.63s17.38-4.37,19.56-5.31,1.69-2.56,0-4S38.34,134.64,20.83,113c-3.92-4.83-4.5-6.17-6-2s-18,59.85-3.5,87.17c2.25,4.25,31.25,13.58,69.5,6.83s96-38.67,116.17-89.33S212.13,21.15,208,17s-51.61-10.2-82.83-2.17c-2.92.75-.58,3.67,3.67,6.67S178.31,71.35,195,90.28c3.17,3.58,3.5,1.92,4.33,0s4-15.52,5.21-19.79c.74-2.59.25-3.92-1.17-5.5s-33.25-37-47.42-48.46S102.08,21.45,82.83,32.2,37.55,67.26,20.17,102c-2.08,4.17,8.5-1.83,12-5.83s-1.5-4.92-2.33-4.17,9,13.83,10.17,12.33-8.25-9.65-5.37-12.08A66.21,66.21,0,0,0,40,87.53c1.67-1.71-.67-7.62-2.17-5.92s9.79,13,10.83,12S41,85.11,42.58,83.28s5-5.62,6.33-7.08-1.33-6.92-3.08-5.25S56,83.65,57.25,82.61s-7.33-7.54-5.58-9.5,5.83-5.92,7-7.17-1.37-7.46-2.75-5.58,9.63,13.25,11,12.33-6.62-8.46-5-10.17,4.63-4.21,5.75-5.42S67,49.24,65,51,76.54,64.4,77.58,63.11s-8-8.25-6.58-9.75a48.78,48.78,0,0,1,7.75-6.17c1.46-.71-.92-7.46-2.58-6.08S86.67,55,87.92,54s-6.67-8.75-5.67-9.58a74.66,74.66,0,0,1,8.58-5.75c1.92-.87-.54-5.92-2.08-4.83S99,47.24,100,46.28s-5.83-9.08-4.75-10.33A49.63,49.63,0,0,1,102,30.61c1-.58.38-4-.67-3.67s10,13.25,11.17,12.25-5.5-9-5.5-9"/></svg>