<svg id="Layer_1" data-name="Layer 1" xmlns="http://www.w3.org/2000/svg" viewBox="0 0 216 216"><defs><style>.cls-1{fill:#73cbcb;opacity:0.6;}.cls-2{fill:none;stroke:#576571;stroke-linecap:round;stroke-miterlimit:10;stroke-width:4px;}</style></defs><title>icon-</title><circle class="cls-1" cx="40.25" cy="153.28" r="15.07"/><circle class="cls-1" cx="165.01" cy="153.28" r="15.07"/><path class="cls-1" d="M84.1,126.31c1.18,0,7.59-.55,7.95.36s-8.8,11.7-8.8,11.7S83.58,126.31,84.1,126.31Z"/><path class="cls-2" d="M91.7,129.86s-9.89,10.83-9.87,10.68,0-12.63,0-14-.38-1.79,1.27-1.79H99.84c.82,0,1.58.2,1.58,1.61V143.6c0,.86.2,1.55-.88,1.55H82"/><line class="cls-2" x1="91.3" y1="137.22" x2="95.26" y2="140.72"/><circle class="cls-2" cx="40.25" cy="152.43" r="15.06"/><circle class="cls-2" cx="165.01" cy="152.43" r="15.06"/><path class="cls-2" d="M120.46,146.29s.48-32.21-1.14-44.41-1.52-11.44-5-11.63S91,90.72,85.9,91.58,73.6,95.2,64,101.87,52.06,111.78,46.63,112,13.38,116.61,11,118.25s-3.62,5.93-3.62,8.4V135c0,1-3.62.29-3.62,2.86s.1,12.87,4.19,14.11,6.4.89,8.79.93,3.07-.75,3.07-2.72,0-15,3.72-18.37,15.33-3.57,21.59-3.72,10,.86,11.44,5.72,3.75,13.94,4.36,15.51,1.68,2.39,4,2.29,76-2.6,77.85-2.6,2.14-.62,2.14-2.62V136.28c0-8.54,6.61-10.65,11.51-11s21.37-.5,22.44-.21,5.9,1.39,6.08,10.44,0,8.29,0,10,.36,2,2.22,2a100.46,100.46,0,0,0,11.15-.79c1.54-.39,2.25-1.89,2.72-1.72s4.11,1,6.58-.21,4.72-2.86,4.72-7.43c0-2.39-.57-2.18-2.14-2.14s-2.54.14-2.5-1.79.38-14.44.38-18a14.19,14.19,0,0,0-1.33-6.48c-.43-.91-2-.7-3.12-.7s-79.7,1.37-79.7,1.37"/><path class="cls-2" d="M101.43,112.88V101c0-2.9-1.62-5-3.81-5s-14,.72-16.68,2.38-19.68,15.3-19.73,16.23-2.43,4.81,7.43,4.55h32.48"/></svg>