<svg id="Layer_1" data-name="Layer 1" xmlns="http://www.w3.org/2000/svg" viewBox="0 0 216 216"><defs><style>.cls-1{fill:#73cbcb;opacity:0.6;}.cls-2{fill:none;stroke:#576571;stroke-linecap:round;stroke-miterlimit:10;stroke-width:4px;}</style></defs><title>icon-</title><circle class="cls-1" cx="112.56" cy="90.2" r="7.6"/><circle class="cls-1" cx="99.35" cy="74.25" r="7.6"/><circle class="cls-1" cx="113.71" cy="56.87" r="7.6"/><circle class="cls-1" cx="99.35" cy="39.73" r="7.6"/><circle class="cls-1" cx="113.71" cy="22.59" r="7.6"/><circle class="cls-2" cx="113.71" cy="90.2" r="7.6"/><path class="cls-1" d="M128,110.78c0,4.2,12.78,99.58-21.05,94-4.14-.69-25.55,4.66-20.62-95.54.16-3.17,14.74-3,18.94-3S128,106.58,128,110.78Z"/><circle class="cls-2" cx="99.35" cy="73.3" r="7.6"/><circle class="cls-2" cx="113.71" cy="56.4" r="7.6"/><circle class="cls-2" cx="99.35" cy="39.49" r="7.6"/><circle class="cls-2" cx="113.71" cy="22.59" r="7.6"/><path class="cls-2" d="M85.92,10.81v167c0,16.1,6.86,26.89,21.05,26.89,15.47,0,21.05-10.8,21.05-26.89v-167"/></svg>