<svg id="Layer_1" data-name="Layer 1" xmlns="http://www.w3.org/2000/svg" viewBox="0 0 216 216"><defs><style>.cls-1{fill:#73cbcb;opacity:0.6;}.cls-2{fill:none;stroke:#576571;stroke-linecap:round;stroke-miterlimit:10;stroke-width:4px;}</style></defs><title>icon-</title><path class="cls-1" d="M177.92,16.21c3,1.25,4.54,16.79,2.67,16.92s-17.21-8.71-17-9.17S177,15.83,177.92,16.21Z"/><circle class="cls-1" cx="31.5" cy="170.21" r="6.17"/><circle class="cls-1" cx="91.75" cy="142.58" r="6.17"/><circle class="cls-1" cx="123.48" cy="76.56" r="6.17"/><circle class="cls-1" cx="150.98" cy="93.73" r="6.17"/><path class="cls-2" d="M20.33,20.88V181.54c0,6.33.33,6.33,5.33,6.33h170"/><path class="cls-2" d="M29,169.46c2.3,1,8.51,4.25,10,5.08s3,.35,4.92-.52,42.49-28.81,45.73-30.94,2.76-.73,4,1.38,4.33,7.17,5,8.58a2,2,0,0,0,3.7-.4c.81-1.89,17.93-67.44,19.74-73.44s4.53-.91,5.79,1.31,7.22,12.56,8.48,14.38,2.56-.12,3.45-1.94,3-6.69,3.66-8.25,1.57-1.28,2.51.88,2.3,5.75,2.72,6.81,1.57,2.31,2.72-.19,22.71-66,22.71-66c.33-1.17,1.27.13,3,1.25s3.59,2.31,4.88,3.13,1.78-.22,1.38-2.06-2.44-12.78-2.87-14.31-.44-1.94-1.31-1.75-13.84,5.47-15.25,6-2.72,1.36.06,2.42,6.19,2.21,6.19,2.21"/></svg>