<svg id="Layer_1" data-name="Layer 1" xmlns="http://www.w3.org/2000/svg" viewBox="0 0 216 216"><defs><style>.cls-1{fill:#73cbcb;opacity:0.6;}.cls-2{fill:none;stroke:#576571;stroke-linecap:round;stroke-miterlimit:10;stroke-width:4px;}</style></defs><title>icon-</title><path class="cls-1" d="M152.63,146.32c-.1-2.39-4.33-4-4.33-1.95s-3.17,63.14-1,63.79,6.42,1,6.67,0S152.71,148.27,152.63,146.32Z"/><path class="cls-1" d="M77.13,91.21c6.36.49,18.56,6.13,23.5,4.19,8.42-3.31.62-11,3.62-14.83C106.1,78.2,117,76,117.46,67.82c.67-13.08-6.92-8.87-5.08-14.37s10.79,1.13,8.5-13.07C116,10.26,101.43,26.73,100.54,26.32S105,4.43,85.19,2.5C62.82.32,57.75,18.07,56.33,18.15S49.26,8,35.63,20.07s3,19.21,3.08,22S17.65,55.77,27.56,71.94c6.3,10.27,17.15,3.29,19.06,4.88S41.13,88.88,51,95.67,74.7,91,77.13,91.21Z"/><path class="cls-2" d="M210.83,209.06H160.2c-6.75,0-6.83-8.83-6.83-10.5V148.25a3,3,0,0,1,3.08-3.31c2.1,0,3.65,12.21,7.88,12.21s9.14-4.37,9-18.33c-.05-4,.6-1.22,3.67-.44s11.51-2.6,12.46-9c.73-4.93,2.94-29.81-10.7-24-3.13,1.32-.19-4.5,1.63-5.75s1.25-5.12-4.37-1.5-5.06,3.44-4-1,6.74-29.72-9.14-38c-3-1.58-8.4-3.67-11.28.41-2.09,3-3-.94-4.28-3.57s-7.83-3.72-11.21-3.09-13.71,1.94-11,36.69c.43,5.4,3,11,.24,9s-12.49-5-12.45,7.81-.37,17,1.33,17.75,4.54-.75,5.92-2.08,2.88-2.21,2.92,1.33.33,27.38,2.17,28.83,13-1,18.5-10.83c1-1.79,3-2.54,3.08,1s0,50.54,0,56.38-2.27,10.62-5.85,10.62H86.12c-7.67,0-8-7.33-8-12.83V99.32c0-6.5,1.29-7.17,5-5.75,2.63,1,20.86,8.67,23.17-1.42.95-4.13-3.1-7.11-1.29-9.21,1.37-1.58,7.5,1.88,11.23-11s-3.31-13.21-3.85-18.55c-.22-2.21,14.42-4,6.08-19s-11.23-6.86-14.9-10,5.94-17.17-24.1-20C58.94,2.57,58.83,13,55.33,15S43.79,7.73,35.63,20.07,37.88,35,35.38,42s-13.11,2.45-7.58,22.81c5,18.25,15.21,7.54,18.83,12,2,2.51-3.67,15.5,1.83,20.67s18.94-1.08,20.91-2.91S73,94.79,73,98.23V197c0,5.17,1.34,12.33-8.74,12.33H4.3"/></svg>