<svg id="Layer_1" data-name="Layer 1" xmlns="http://www.w3.org/2000/svg" viewBox="0 0 216 216"><defs><style>.cls-1,.cls-3,.cls-5{fill:#73cbcb;}.cls-1,.cls-2{opacity:0.6;}.cls-4,.cls-6{fill:none;stroke:#576571;stroke-linecap:round;stroke-width:2.85px;}.cls-4{stroke-miterlimit:10;}.cls-5{opacity:0.7;}.cls-6{stroke-linejoin:round;}.cls-7{fill:#fff;}</style></defs><title>icon-thank-you</title><path class="cls-1" d="M168.61,168.11c.64-.84,3.74-2.43,5.5-1.94s4.35,3.13,4.25,3.87,0,2.26-1.18,2.92-1.84.71-1.87,1.4a3.28,3.28,0,0,1-2.69,2.23c-1.28,0-4.47-3.72-4.43-4.16S167.94,169,168.61,168.11Z"/><g class="cls-2"><path class="cls-3" d="M162,172.84c-1.61-1.49-4.34-7.24-5.88-12.94s-1.75-13.92-1.78-15,.24-6.23-3-6.23-3.74,4-3.74,5.22-2,12.62-5.28,24.16-8.19,14.15-8.66,14.18-1.22-4.71-1.72-8.66.32-8.73.47-16.5-1.1-7.92-4.45-8.84-7.12,1.15-7.42,1.12.27-.62-2.67-3.08-8-.54-9.32,3.62,3.3,6.73,4.87,6.94a7.86,7.86,0,0,0,3.56-.71s.44.45-.36,4-3.5,7.3-6.35,10.68-6.53,6.59-8.48,6.59-3.15-2.53-3.15-5.82.15-1,2.32-11.16,5.16-12.07,3.2-12.52-4.51.48-9.32,2.43S81.33,163.34,81.06,163.7s-.26,0,.06-9.68,2.26-9.64,5.82-15.78-1.75-8.67-6-7.66S68.3,144.41,67.12,146.43s-7.18,10.26-8,10.68-1.43,2-1.31-5,2.67-12,4.63-18-2.73-6.88-9.14-4.8-11.75,14.3-11.75,14.3a2.41,2.41,0,0,0,.83,3c1,.48,3.34-1.52,4.36-2.05s1.18.26.51,3.94a48.46,48.46,0,0,0,0,14.72c.67,5,4.6,8,10.21,7.87s13.09-8.15,14-9.26a1.33,1.33,0,0,1,2.31.62c0,.71.14,11.8-.09,12.29s-11.26,16.07-12.37,18.07-6.19,13.08,1.34,14.95,11.61-1.73,14.6-7,3.47-18.74,4-24.75-1.51-.31,4.81-10.32,12.28-13.94,13-14.25,1,1.34-.63,4.36-4,12.11-4.45,15,1.07,12.73,8,13.38,11.28-8.13,14.37-14,4.9-15.07,5.06-15.49a21.23,21.23,0,0,1,4.23-3.16,34.2,34.2,0,0,1-.27,6.41c-.34,3.25-1.13,3.22-1.49,14s2.41,13.68,3.09,14.42,3.18,3.68,7,3.8,9.35-8.31,9.91-9.77,5-18,5.08-19,.46-.34,1.25,1.93a58.89,58.89,0,0,0,4.65,9.2c1.78,2.92,3.54,3.92,3.95,3.89S163.62,174.32,162,172.84ZM117,151.13c-.38.56-1.09.45-1.47.45s-1.58-.38-.89-1.43S117.14,150.88,117,151.13Zm-44.69,44c-.26,1.27-2,5.63-5,7s-3.48-.32-3.12-3.21,9.35-15.13,9.35-15.13S72.74,192.85,72.28,195.09Z"/></g><path class="cls-4" d="M43,143.81c1-1.43,10.6-16,15-13.36,2.19,1.31-15.49,30-4.27,35.26,3.75,1.76,12-1.67,17.8-11.93,3.92-6.93,8.1-19.59,10-19.59s-1.25,2.5-3.21,9.08-1.06,29.38-1.06,33.12c0,5.52-.18,27.86-9.26,29.73s-8.41-9.88-5.78-14.64c2.4-4.36,24.9-37.72,39.78-41.5,3.51-.89.78,1.41-.83,4.63-1.38,2.77-10.86,20-4.63,25.4s14.84,2.85,19.11-7.48,7.18-19,5.58-21.6-8.66-6.05-10.09-1.66,3.8,8.78,12.82,2.13,4.16,10.63,4,13.3-4.16,21.12,3.91,22.9,16.56-23.5,18.28-40.11,1.49,1.07,1.66,3.08-1.24,13.47,8.91,25.64"/><path class="cls-4" d="M173.26,172.2c-.1-.67-2.55-1.27-3.17-.29s-.87,2.14,1.06,2.72c.92.28,1.51-1.18,1.51-1.18"/><path class="cls-5" d="M28.83,89.54c-1.48,5.41-4.49,20.51-4,21.34s4.33,5,5.88.73c1.28-3.56,1.69-9,2.37-5.06s5.31,18,9,8.14S48.82,90.21,55.87,78c.85-1.48-.71,3.93-.75,13-.06,18.29-.3,30.79,1.5,31.84s7.93.25,7.63-2.84-2.92-25.52-1.79-31.62,4-10.55,5.43-9.34,2.63,1,2.56,11.45,1.73,17.47,5.42,17.62,7.63-9.45,8.59-10.41-.93,6.43,2.46,8.18,6,.35,9.52-2.47,6.82-12.91,6.75-9.18c0,1.75-2.78,14.73.69,16.77,6.15,3.63,11-2.94,11.81-4s8.16-20,7.59-16.94c-1.53,8-3.63,20.5-3.57,21.23s5.31,1,6.33.88S127.17,100,130.79,93s9.72-19.55,9.49-16.27-.68,23.5,1.58,25.65,17-19.27,18.65-21.25,3.53-4.25,3.93-4.85.27-.2,0,1.55-5.36,38.14-4.94,46.71c.19,3.83,8.58,1.49,8.66-.17s.67-38.75.83-40.3,8.77-11.37,12.58-11.37.52,4.37,0,5.12a42.27,42.27,0,0,1-6.86,6c-1.66.86-4.41.37-1.88,5.57s17.14,24,18,24.86,3.28-2.22,3.69-2.79-16.46-20.83-17.78-22.9,8.07-5.23,9.42-12.28-.53-8.85-2.79-9.19-11.64,5.09-13,6.48-1.62-1-.9-2.64,22.9-24.82,24.26-32.31S189.35,26.77,185,27s-9.08.49-14.76,9.72-4.67,25.8-6.33,29.68S147.85,94,146.46,95.44s-1.88,2.52-2.11-.76-.79-21.05-1-21.69-1.51-5.31-6.78,1.35-7.12,11.18-7.91,11.15c-.36,0-2.38-1.92,1.58-6.47s12.31-11.72,8.36-16.58-9.1-1.72-11,.54c-2.88,3.42-3.16,6.73-4,15.66S110.88,106.29,110,104.4s-3.18-5.84-2-18,5.9-14.12,3.77-19.66c-3.81-9.88-8.22,0-8.9,7.38s.13,10.7-.85,12.58-8.9,14.65-10.9,13.86S91.07,84,95.41,76.14s9-2.47,8.49-3.83-2.27-6.87-8-5.33S89.23,70.4,84.3,84.68s-5.53,18.07-6.92,18.14S74,101,74.67,88.21s-2-14.66-6.33-14.09-7.2,3.28-7.16,2.56-1.09-4.37-.3-6.48,8.39-15.84,9.79-19S75.84,36.37,72.5,32c-6.91-9-14.09-1.91-15.56,4.37-1,4.1-.29,13.56-.69,12.91-1-1.53-13.5,2.23-13.08,1.25s6.19-25.66-.67-26S34,34.66,33.5,37a123,123,0,0,0-1.34,15.36C32,56,27.21,54.42,13.08,63.62c-5.08,3.32-.67,6.19,7.09.05,6.13-4.86,11.77-5.76,11.77-2.61C31.94,63.41,29.7,86.39,28.83,89.54Z"/><path class="cls-6" d="M28.35,110.84c2-5,9.23-55.23,15.27-75.59,4-13.43-6.8-9.73-7.64,6.84-1,19.29-3.15,59.83,1.62,71.58,2.11,5.2,4.18-6.08,5.41-9.89,1.13-3.47,9-28,23.89-51.53,5.47-8.64,5-16.42,2.93-18.25C68.6,32.92,55.38,20,58.39,76.3c.07,1.23.38,6.51.77,13,.76,12.59,1.79,29.62,1.79,29.62s-2.37-24.58-1.13-32.66c.5-3.2,6.45-13.17,10.74-9.49s.17,24.58,5,28.47,11.12-20,13.34-24.74c2.51-5.43,6.68-14.4,14.5-9.5,0,0-8.63-5.76-12.81,7.8s-5.42,20.43-1.92,23.73c4.9,4.62,14.63-11,16.39-15.93s3.76-9.25,5-15.82c.6-3.27-2-7.25-3.09-.53s-2.84,31.43.6,36.46,7.86-4.68,13.79-16.38,13-19.11,14.91-21.81c2.57-3.65.26-7.88-3.72-4.63-4.41,3.59-7.24,13.72-7.69,44.18,0,0,.62-12.37,2.94-16.16s11-19,13.79-17.85-.57,20.62,2,25.08,11.92-18,22.94-29,25.09-25.48,25.2-34.47-13.9-8.7-18.19,3.85-9,32-7.8,83.39c0,0,0-39.36,1.32-41.24S178.78,69,182.7,70.28s2.63,11.07-9.19,16c0,0,1.59,4.29,7.68,12.28,4.5,5.89,5.68,7.5,10.51,13"/><path class="cls-7" d="M130,73.16c.45-3,3.59-8.62,4.35-7.91s-1.18,3.38-4.35,7.91"/><path class="cls-7" d="M170.87,62s5.23-28,12.5-28.48,6,3.24,4.9,5.5C182.92,50.09,170.87,62,170.87,62Z"/><path class="cls-7" d="M37.25,51.52s2.45-17.73,3.38-19.09.79.26.76,2.57S38,51.52,38,51.52Z"/><path class="cls-7" d="M42.25,55.61c-.5.5-6.3,30.32-6.27,31.22s3.33,21.9,3.67,21.3,3.79-14.63,8.87-24.86S55.76,69.43,55.87,69,56.93,51.4,56,52.41C55,53.61,42.82,55.05,42.25,55.61Z"/><path class="cls-7" d="M61.18,55.21c.1-.72,2.37-20.08,6.09-18.77s.89,8.49.45,9.59-5,9.14-5.17,9.42S61.13,55.65,61.18,55.21Z"/><path class="cls-4" d="M13.93,65.67C19.84,61,32.67,53.92,54.08,51"/></svg>