<svg id="Layer_1" data-name="Layer 1" xmlns="http://www.w3.org/2000/svg" viewBox="0 0 216 216"><defs><style>.cls-1{fill:#73cbcb;opacity:0.6;}.cls-2,.cls-3{fill:none;stroke:#576571;stroke-linecap:round;stroke-width:4px;}.cls-2{stroke-linejoin:round;}.cls-3{stroke-miterlimit:10;}</style></defs><title>icon-Coffee Cup</title><path class="cls-1" d="M33.33,155.06l121.33.33s4.67,22.33-57,22.33S34.33,161.22,33.33,155.06Z"/><path class="cls-2" d="M127.69,154.06H62.33c-6,0-15.17-13.5-18-23.33A120.6,120.6,0,0,1,39,94.39c0-6.17,1.83-7.67,10.67-7.67h88.67c5.83,0,13.75-2.61,12.67,8.33-2.75,27.92.26,12.55,4.67,6,6.83-10.17,25.83-15.17,31.67,4s-8.62,39.61-24,36.67c-19.58-3.75-13.5-37.08-17-17-1.74,10-8.83,22.33-11.33,25s-2.5,5,8.67,5,21.33-.5,12.33,7.33-16.5,15.33-60.67,15.33-50.83-7-62.33-15.67,10-7.06,18.31-6.56"/><path class="cls-2" d="M115.71,78.76c2-3.75,5.79-11.79,2.73-21.1-3.46-10.53-2.56-16.81.27-23.73"/><path class="cls-2" d="M94.21,78.76C96.21,75,100,67,96.94,57.66c-3.46-10.53-2.56-16.81.27-23.73"/><path class="cls-2" d="M72.71,78.76c2-3.75,5.79-11.79,2.73-21.1-3.46-10.53-2.56-16.81.27-23.73"/><path class="cls-1" d="M78.3,104.59c-.21.24.62,16.65,1,18.7s3.9-3.85,4.32-4,13.6-14.35,12.89-14.92S79.52,103.17,78.3,104.59Z"/><path class="cls-3" d="M93.56,108.63s-12.72,14.54-13.61,15.62-1.47,1.08-1.47-.42,0-18.5,0-19,.08-.53.73-.51,18.08,0,18.08,0"/><path class="cls-3" d="M90.75,119.25l17.37,15.93a1.44,1.44,0,0,0,1.28.22c.12-.06.18-.1.18-.7V105c0-.58-.1-.51-.37-.51-.65,0-4.66-.11-5.06-.11s-10,11-10,11"/><path class="cls-3" d="M102.23,136.86s-21.87,0-22.53,0c-.32,0-.39,0-.39-.39s-.05-2.22-.05-2.67,7.72-9.07,8.06-9.51a.56.56,0,0,1,.85,0c.19.25,8.48,7.67,8.48,7.67"/></svg>