<svg id="Layer_1" data-name="Layer 1" xmlns="http://www.w3.org/2000/svg" viewBox="0 0 216 216"><defs><style>.cls-1{fill:#73cbcb;opacity:0.6;}.cls-2{fill:none;stroke:#576571;stroke-linecap:round;stroke-miterlimit:10;stroke-width:4px;}</style></defs><title>icon-</title><path class="cls-1" d="M107.66,159.78c0,28.64-1.64,51.86-3.66,51.86s-3.66-23.22-3.66-51.86S98.5,107.92,104,107.92C109.06,107.92,107.66,131.14,107.66,159.78Z"/><ellipse class="cls-1" cx="151.03" cy="53.71" rx="17.36" ry="33.06"/><path class="cls-2" d="M50.8,86c-1.22,0-10.66-.37-10.66-16.63s.08-48.68,1.73-48.68,2.94,42.68,4.4,42.68,2.26-42.68,3.55-42.68S52.09,65,53.74,65s2.87-44.4,4.4-44.4,1.22,42.81,2.69,42.81S63.4,20.65,65.6,20.65s1.22,44.64,1.22,49.17S66.69,86,57.78,86c-1.57,0,.41,104.9.41,111.66s.65,12.56-3.75,12.56-4.89-9.38-4.89-11.74,2-105.67,2-105.67"/><path class="cls-2" d="M100.58,111.6s-1.63,85.93-1.63,88.3.49,11.74,4.89,11.74,3.75-5.79,3.75-12.56,1.53-186.93,1.47-188.5c-.07-2-.19-6.39-3.22-6.39S94.63,17.92,92.92,43.85s-1.26,53.69-1.22,55,3.22,3.3,4.16,4S99,105.65,99,105.65"/><path class="cls-2" d="M146.59,94.23s-2,103.31-2,105.67.49,11.74,4.89,11.74,3.75-5.79,3.75-12.56-2-111.66-.41-111.66c2.1,0,15.52-4.93,15.52-29.55S159,22.65,150.32,22.65,131.4,36.84,131.4,55.92s6.3,28,13.7,31.27"/></svg>