<svg xmlns="http://www.w3.org/2000/svg" xmlns:xlink="http://www.w3.org/1999/xlink" viewBox="0 0 1000 500"><defs><style>.cls-1,.cls-12{fill:#fff;}.cls-1{stroke:#231f20;}.cls-1,.cls-12,.cls-13,.cls-14,.cls-5,.cls-7,.cls-9{stroke-miterlimit:10;}.cls-2{mask:url(#mask);}.cls-3{fill:#e6e7e8;}.cls-4{fill:url(#linear-gradient);}.cls-13,.cls-14,.cls-5{fill:none;}.cls-5{stroke:#fff;}.cls-6{fill:#deede7;}.cls-7,.cls-8{fill:#d0e5ab;}.cls-14,.cls-7,.cls-9{stroke:#d1d3d4;}.cls-7{stroke-width:2px;}.cls-9{fill:#d1d3d4;}.cls-14,.cls-9{stroke-width:8px;}.cls-10{fill:#323c47;}.cls-11{fill:#576571;}.cls-12,.cls-13{stroke:#58595b;}</style><mask id="mask" x="-230.66" y="-507.1" width="1622.15" height="1346.87" maskUnits="userSpaceOnUse"><rect class="cls-1" y="0.33" width="1000" height="499.67"/></mask><linearGradient id="linear-gradient" x1="-357.02" y1="924.1" x2="-76.05" y2="961.59" gradientTransform="translate(1522.01 -1887.41) scale(3.81 2.18)" gradientUnits="userSpaceOnUse"><stop offset="0.31" stop-color="#fff"/><stop offset="0.39" stop-color="#fff" stop-opacity="0.86"/><stop offset="0.48" stop-color="#fff" stop-opacity="0.74"/><stop offset="0.52" stop-color="#fff" stop-opacity="0.7"/><stop offset="0.54" stop-color="#fff" stop-opacity="0.61"/><stop offset="0.56" stop-color="#fff" stop-opacity="0.47"/><stop offset="0.59" stop-color="#fff" stop-opacity="0.34"/><stop offset="0.62" stop-color="#fff" stop-opacity="0.23"/><stop offset="0.65" stop-color="#fff" stop-opacity="0.15"/><stop offset="0.69" stop-color="#fff" stop-opacity="0.08"/><stop offset="0.74" stop-color="#fff" stop-opacity="0.03"/><stop offset="0.81" stop-color="#fff" stop-opacity="0.01"/><stop offset="1" stop-color="#fff" stop-opacity="0"/></linearGradient></defs><title>Multifamily Graphic</title><g id="Layer_5" data-name="Layer 5"><g class="cls-2"><rect class="cls-3" x="-23.91" y="-66.49" width="1054.55" height="648.59" transform="translate(20.21 -36.14) rotate(4.2)"/><rect class="cls-4" x="281.9" y="-392" width="829.36" height="1116.67" transform="matrix(-0.63, 0.78, -0.78, -0.63, 1263.71, -271)"/><line class="cls-5" x1="94.49" y1="221.48" x2="112.02" y2="203.54"/><line class="cls-5" x1="208.91" y1="239.61" x2="227.62" y2="220.46"/><polyline class="cls-5" points="242.43 372.13 262.67 351.42 286.63 351.53"/><line class="cls-5" x1="78.51" y1="204.27" x2="98.35" y2="190.17"/><line class="cls-5" x1="64.07" y1="184.87" x2="85.92" y2="175.84"/><line class="cls-5" x1="56.85" y1="165.18" x2="80.04" y2="158.33"/><line class="cls-5" x1="51.06" y1="21.95" x2="78.72" y2="20.12"/><line class="cls-5" x1="118.48" y1="6.89" x2="144.37" y2="6.65"/><line class="cls-5" x1="50.77" y1="-1.54" x2="77.45" y2="1.03"/><line class="cls-5" x1="319.49" y1="357.46" x2="299.83" y2="337.86"/><line class="cls-5" x1="305.99" y1="371" x2="286.33" y2="351.4"/><line class="cls-5" x1="332.99" y1="343.91" x2="313.34" y2="324.31"/><line class="cls-5" x1="346.34" y1="330.53" x2="326.68" y2="310.93"/><line class="cls-5" x1="215.54" y1="345.17" x2="234.43" y2="326.23"/><line class="cls-5" x1="201.99" y1="331.67" x2="220.88" y2="312.72"/><line class="cls-5" x1="229.08" y1="358.68" x2="247.97" y2="339.73"/><line class="cls-5" x1="242.47" y1="372.02" x2="261.36" y2="353.08"/><line class="cls-5" x1="355.3" y1="497.54" x2="381.24" y2="497.17"/><line class="cls-5" x1="355.03" y1="478.41" x2="380.97" y2="478.05"/><line class="cls-5" x1="439.23" y1="423.57" x2="439.61" y2="450.42"/><line class="cls-5" x1="458.36" y1="423.3" x2="458.74" y2="450.15"/><line class="cls-5" x1="420.11" y1="423.84" x2="420.49" y2="450.69"/><line class="cls-5" x1="401.21" y1="424.11" x2="401.59" y2="450.95"/><line class="cls-5" x1="496.38" y1="423.32" x2="496.76" y2="450.16"/><line class="cls-5" x1="515.5" y1="423.05" x2="515.88" y2="449.89"/><line class="cls-5" x1="477.26" y1="423.59" x2="477.63" y2="450.43"/><line class="cls-5" x1="458.35" y1="423.85" x2="458.73" y2="450.7"/><line class="cls-5" x1="346.5" y1="330.37" x2="326.84" y2="310.77"/><line class="cls-5" x1="360" y1="316.83" x2="340.34" y2="297.23"/><line class="cls-5" x1="373.35" y1="303.44" x2="353.69" y2="283.84"/><line class="cls-5" x1="329.33" y1="191.8" x2="302.82" y2="191.84"/><line class="cls-5" x1="329.36" y1="211.93" x2="302.85" y2="211.97"/><line class="cls-5" x1="329.3" y1="171.67" x2="302.79" y2="171.71"/><line class="cls-5" x1="329.27" y1="151.78" x2="302.76" y2="151.82"/><line class="cls-5" x1="329.27" y1="151.54" x2="302.76" y2="151.58"/><line class="cls-5" x1="329.24" y1="131.41" x2="302.73" y2="131.45"/><line class="cls-5" x1="329.21" y1="111.52" x2="302.7" y2="111.55"/><line class="cls-5" x1="329.29" y1="91.36" x2="302.78" y2="91.4"/><line class="cls-5" x1="329.32" y1="111.49" x2="302.81" y2="111.53"/><line class="cls-5" x1="329.26" y1="71.23" x2="302.75" y2="71.27"/><line class="cls-5" x1="329.23" y1="51.33" x2="302.72" y2="51.37"/><line class="cls-5" x1="329.28" y1="51.13" x2="302.77" y2="51.17"/><line class="cls-5" x1="329.31" y1="71.26" x2="302.8" y2="71.3"/><line class="cls-5" x1="329.25" y1="31" x2="302.74" y2="31.04"/><line class="cls-5" x1="329.22" y1="11.1" x2="302.71" y2="11.14"/><line class="cls-5" x1="329.22" y1="10.87" x2="302.71" y2="10.91"/><line class="cls-5" x1="262.92" y1="191.81" x2="235.11" y2="191.85"/><line class="cls-5" x1="262.95" y1="211.94" x2="235.14" y2="211.98"/><line class="cls-5" x1="262.89" y1="171.68" x2="235.08" y2="171.72"/><line class="cls-5" x1="262.86" y1="151.78" x2="235.05" y2="151.83"/><line class="cls-5" x1="262.86" y1="151.55" x2="235.05" y2="151.59"/><line class="cls-5" x1="262.83" y1="131.42" x2="235.02" y2="131.46"/><line class="cls-5" x1="262.8" y1="111.52" x2="234.99" y2="111.56"/><line class="cls-5" x1="262.89" y1="91.37" x2="235.08" y2="91.41"/><line class="cls-5" x1="262.92" y1="111.5" x2="235.11" y2="111.54"/><line class="cls-5" x1="262.86" y1="71.24" x2="235.05" y2="71.28"/><line class="cls-5" x1="262.83" y1="51.34" x2="235.02" y2="51.38"/><line class="cls-5" x1="262.88" y1="51.14" x2="235.07" y2="51.18"/><line class="cls-5" x1="262.91" y1="71.27" x2="235.1" y2="71.31"/><line class="cls-5" x1="262.85" y1="31.01" x2="235.04" y2="31.05"/><line class="cls-5" x1="262.82" y1="11.11" x2="235.01" y2="11.15"/><line class="cls-5" x1="262.82" y1="10.88" x2="235.01" y2="10.92"/><line class="cls-5" x1="537.64" y1="31.29" x2="519" y2="50.5"/><line class="cls-5" x1="523.19" y1="17.27" x2="504.55" y2="36.48"/><line class="cls-5" x1="508.91" y1="3.42" x2="490.27" y2="22.63"/><line class="cls-5" x1="508.92" y1="3.5" x2="490.28" y2="22.71"/><line class="cls-5" x1="494.47" y1="-10.52" x2="475.83" y2="8.69"/><line class="cls-5" x1="461.95" y1="57.05" x2="444.8" y2="74.73"/><line class="cls-5" x1="447.5" y1="43.04" x2="430.36" y2="60.71"/><line class="cls-5" x1="433.22" y1="29.18" x2="416.07" y2="46.86"/><line class="cls-5" x1="435.36" y1="149.04" x2="414.21" y2="129.54"/><line class="cls-5" x1="449.01" y1="134.24" x2="427.86" y2="114.74"/><line class="cls-5" x1="462.5" y1="119.62" x2="441.34" y2="100.11"/><line class="cls-5" x1="489.41" y1="184.08" x2="470.54" y2="166.68"/><line class="cls-5" x1="503.06" y1="169.28" x2="484.19" y2="151.89"/><line class="cls-5" x1="516.54" y1="154.66" x2="497.68" y2="137.26"/><line class="cls-5" x1="332.7" y1="259.5" x2="312.86" y2="241.21"/><line class="cls-5" x1="346.35" y1="244.71" x2="326.51" y2="226.41"/><polygon class="cls-6" points="46.71 692.16 -218.28 696.01 -230.66 -156.33 -15.7 -159.46 46.71 692.16"/><path class="cls-7" d="M-165.34-128.17l110-22.89L17.74-66.79,46.12-87.19,70.74-67.56s-20.33,32-24,46.78S46.19,26.73,46,30s-33.08.48-33.08.48L13.24,148l37.5-.54s5.53,39.3,13,49.32,38.46,40.78,38.46,40.78L78.34,260l81.18,94.33,29.06-25.67,50.19,46.89-20,44.43-99,45.47,10,117.17,215.46,13,5.68-10.83s-1.34-.61,26.91-.39,28.9,27.08,23.8,37.91-21.4,41.73-21.4,41.73L52,668.88"/><path class="cls-8" d="M134.53,680.45,16.28,672.53s14.91-8.35.93-37.32-18.92-101.47-19-130S-17.69,466.46-23.89,457s-10.46-36.76-14-50.67-31.63-35.09-32.2-46.13S-72.62,333.74-97,274.57s-35.25-120-38.54-174.88S-167.4-97.93-173.71-119.42l37.8-48.47"/><path class="cls-7" d="M244.22,377.9l-17.73,42L518,415.67s-1.2-34.49,28.41-73.09,60.43-50.94,68.52-56.61,18.5-11.66,17.21-31.31-9.43-70.43-9.76-74.93c-.51-7.08-9.63-20.3-23.71-25.6S578,132.87,577.54,121.78c-.41-9.38-16.44-20.1-32.1-19.2s-35.54,9.52-33.6,16.82,20.21,26,20.21,26l-45.45,48.41,29,25.81-117.78,82-8.39-9.44L306.55,377Z"/><path class="cls-9" d="M212.21,423.12l-25.89.38c-10.6.15-90.83,21.07-89.87,87.31s32.62,110,118.12,108.8Z"/><rect class="cls-7" x="322.32" y="462.36" width="26.41" height="129.03" transform="translate(-7.62 4.93) rotate(-0.83)"/><path class="cls-7" d="M211.3,464l-.59-40.91,171.61-2.49.29,19.7c.18,12.3-2.14,19.71-19.25,20C314.68,461,211.3,464,211.3,464Z"/><path class="cls-7" d="M227.49-85.49s34.49-.83,34.24-6.83-10.79-19.85-29.06-3.91-72.74,66.6-72.74,66.6L149.51-17l-5,5.41L124.92-32.33s-5.73,7.21-6.06,19.15l25.71,6.23,2,138.24s-9.37.47-20.53.63c-7.38.11-5.45,9.5-4.88,13.82s3.76,9.24,7.85,6.55,17.66-14.76,17.66-14.76L226.57,218S230.71,113.32,230,63.66,227.49-85.49,227.49-85.49Z"/><path class="cls-7" d="M442.44,632.79C465.38,605,543.89,502.31,682.94,470.29S920.78,440,960.82,450.83s145.71,22,166.19,20.62,75.52-12.62,90.89,14.06c12.65,22,10.81,33.27,11.33,69.05l1.46,100.32"/><path class="cls-10" d="M308.3,250.37c-2.28,2-2.55,3.5-2.49,3.78a35,35,0,0,0,2.12,3.14c.29.37,8,9,8.29,9.45a30.2,30.2,0,0,0,2,2.45,3.86,3.86,0,0,0,2.76,1.36c1.32.12,3-1.29,3.36-1.57s2-1.76,2.06-3.09a3.86,3.86,0,0,0-.93-2.94,30.2,30.2,0,0,0-2.13-2.32c-.37-.37-7.8-9.26-8.12-9.6a35,35,0,0,0-2.79-2.56C312.14,248.37,310.58,248.41,308.3,250.37Z"/><path class="cls-6" d="M314.48,251.35s.29.77,3.61,4.62a40.32,40.32,0,0,0,5,5l-2-2.38c-.4-.48-4.3-4.91-4.66-5.3A20.72,20.72,0,0,0,314.48,251.35Z"/><path class="cls-11" d="M322.31,260l.34.39a.2.2,0,0,1,0-.2.11.11,0,0,0,.17,0s.58-.46.53-.92-.22-.62-.31-.55a7.11,7.11,0,0,0-.64.94.51.51,0,0,0,.06.19Z"/><path class="cls-11" d="M315.76,265.66l.34.39a.2.2,0,0,0-.19,0,.11.11,0,0,1,0,.17s-.54.5-1,.39-.58-.31-.5-.39a7.11,7.11,0,0,1,1-.49.51.51,0,0,1,.18.08Z"/><path class="cls-6" d="M320.87,264.95c-2.25,1.94-2.75,1.79-3.31,1.78s-2-2.19-2.21-2.56-.34-.51-.21-.53a11.49,11.49,0,0,0,5.27-4.54c0-.13.16,0,.5.28s2.28,2,2.21,2.56S323.13,263,320.87,264.95Z"/><path class="cls-6" d="M308.36,256.63s.71.4,4,4.26a40.32,40.32,0,0,1,4.23,5.71l-2.06-2.33c-.41-.47-4.21-5-4.55-5.39A20.72,20.72,0,0,1,308.36,256.63Z"/><path class="cls-6" d="M309.57,251.85a7.73,7.73,0,0,0-1.83,2.12c-.38.75-.05,1,0,1.1l1.88,2c.07.07.22-.31.42-.62A19,19,0,0,1,314,253c.34-.15.73-.25.68-.33s-1.6-2-1.69-2.15-.29-.47-1.08-.2A7.73,7.73,0,0,0,309.57,251.85Z"/><path class="cls-10" d="M332.64,303.86c-2.13,2.12-2.29,3.68-2.21,4a35,35,0,0,0,2.34,3c.31.34,8.6,8.44,8.94,8.84a30.2,30.2,0,0,0,2.15,2.31,3.86,3.86,0,0,0,2.85,1.16c1.33,0,2.93-1.5,3.24-1.81s1.85-1.9,1.83-3.23a3.86,3.86,0,0,0-1.14-2.86,30.2,30.2,0,0,0-2.29-2.17c-.39-.34-8.44-8.68-8.78-9a35,35,0,0,0-3-2.36C336.33,301.59,334.77,301.75,332.64,303.86Z"/><path class="cls-6" d="M338.88,304.41s.35.74,3.93,4.35a40.32,40.32,0,0,0,5.36,4.66L346,311.18c-.44-.45-4.64-4.59-5-5A20.72,20.72,0,0,0,338.88,304.41Z"/><path class="cls-11" d="M347.31,312.49l.37.37a.2.2,0,0,1,0-.2.11.11,0,0,0,.17,0s.54-.5.46-1-.27-.6-.35-.52a7.11,7.11,0,0,0-.57,1,.51.51,0,0,0,.07.19Z"/><path class="cls-11" d="M341.18,318.58l.37.37a.2.2,0,0,0-.2,0,.11.11,0,0,1,0,.17s-.5.54-1,.46-.6-.27-.52-.35a7.11,7.11,0,0,1,1-.56.51.51,0,0,1,.19.07Z"/><path class="cls-6" d="M346.22,317.51c-2.11,2.1-2.61,2-3.17,2s-2.11-2-2.38-2.4-.38-.48-.25-.52a11.49,11.49,0,0,0,4.93-4.9c0-.13.16,0,.51.25s2.42,1.84,2.38,2.4S348.33,315.41,346.22,317.51Z"/><path class="cls-6" d="M333.14,310.1s.74.35,4.33,4a40.32,40.32,0,0,1,4.63,5.39l-2.22-2.18c-.44-.44-4.56-4.67-4.93-5.05A20.72,20.72,0,0,1,333.14,310.1Z"/><path class="cls-6" d="M334,305.25a7.73,7.73,0,0,0-1.67,2.24c-.33.77,0,1,.12,1.1l2,1.85c.07.06.2-.32.38-.65a19,19,0,0,1,3.69-3.67c.33-.18.71-.3.65-.37l-1.84-2c-.1-.1-.32-.45-1.1-.13A7.73,7.73,0,0,0,334,305.25Z"/><path class="cls-10" d="M227.59,318.93c-2.12-2.13-3.68-2.29-4-2.21a35,35,0,0,0-3,2.34c-.34.31-8.44,8.6-8.84,8.94a30.2,30.2,0,0,0-2.31,2.15,3.86,3.86,0,0,0-1.16,2.85c0,1.33,1.5,2.93,1.81,3.24s1.9,1.85,3.23,1.83a3.86,3.86,0,0,0,2.86-1.14,30.2,30.2,0,0,0,2.17-2.29c.34-.39,8.68-8.44,9-8.78a35,35,0,0,0,2.36-3C229.87,322.62,229.71,321.06,227.59,318.93Z"/><path class="cls-6" d="M227.05,325.17s-.74.35-4.35,3.93a40.32,40.32,0,0,0-4.66,5.36l2.23-2.16c.45-.44,4.59-4.64,5-5A20.72,20.72,0,0,0,227.05,325.17Z"/><path class="cls-11" d="M219,333.59l-.37.37a.2.2,0,0,1,.2,0,.11.11,0,0,0,0,.17s.5.54,1,.46.6-.27.52-.35a7.11,7.11,0,0,0-1-.57.51.51,0,0,0-.19.07Z"/><path class="cls-11" d="M212.88,327.47l-.37.37a.2.2,0,0,0,0-.2.11.11,0,0,1-.17,0s-.54-.5-.46-1,.27-.6.35-.52a7.11,7.11,0,0,1,.56,1,.51.51,0,0,1-.07.19Z"/><path class="cls-6" d="M214,332.51c-2.1-2.11-2-2.61-2-3.17s2-2.11,2.4-2.38.48-.38.52-.25a11.49,11.49,0,0,0,4.9,4.93c.13,0,0,.16-.25.51s-1.84,2.42-2.4,2.38S216,334.62,214,332.51Z"/><path class="cls-6" d="M221.36,319.43s-.35.74-4,4.33a40.32,40.32,0,0,1-5.39,4.63l2.18-2.22c.44-.44,4.67-4.56,5.05-4.93A20.72,20.72,0,0,1,221.36,319.43Z"/><path class="cls-6" d="M226.21,320.3a7.73,7.73,0,0,0-2.24-1.67c-.77-.33-1,0-1.1.12l-1.85,2c-.06.07.32.2.65.38a19,19,0,0,1,3.67,3.69c.18.33.3.71.37.65l2-1.84c.1-.1.45-.32.13-1.1A7.73,7.73,0,0,0,226.21,320.3Z"/><path class="cls-10" d="M121.75,212.73c-2.12-2.13-3.68-2.29-4-2.21a35,35,0,0,0-3,2.34c-.34.31-8.44,8.6-8.84,8.94a30.2,30.2,0,0,0-2.31,2.15,3.86,3.86,0,0,0-1.16,2.85c0,1.33,1.5,2.93,1.81,3.24s1.9,1.85,3.23,1.83a3.86,3.86,0,0,0,2.86-1.14,30.2,30.2,0,0,0,2.17-2.29c.34-.39,8.68-8.44,9-8.78a35,35,0,0,0,2.36-3C124,216.42,123.87,214.86,121.75,212.73Z"/><path class="cls-6" d="M121.21,219s-.74.35-4.35,3.93a40.32,40.32,0,0,0-4.66,5.36l2.23-2.16c.45-.44,4.59-4.64,5-5A20.72,20.72,0,0,0,121.21,219Z"/><path class="cls-11" d="M113.12,227.4l-.37.37a.2.2,0,0,1,.2,0,.11.11,0,0,0,0,.17s.5.54,1,.46.6-.27.52-.35a7.11,7.11,0,0,0-1-.57.51.51,0,0,0-.19.07Z"/><path class="cls-11" d="M107,221.27l-.37.37a.2.2,0,0,0,0-.2.11.11,0,0,1-.17,0s-.54-.5-.46-1,.27-.6.35-.52a7.11,7.11,0,0,1,.56,1,.51.51,0,0,1-.07.19Z"/><path class="cls-6" d="M108.11,226.31c-2.1-2.11-2-2.61-2-3.17s2-2.11,2.4-2.38.48-.38.52-.25a11.49,11.49,0,0,0,4.9,4.93c.13,0,0,.16-.25.51s-1.84,2.42-2.4,2.38S110.2,228.42,108.11,226.31Z"/><path class="cls-6" d="M115.51,213.23s-.35.74-4,4.33a40.32,40.32,0,0,1-5.39,4.63l2.18-2.22c.44-.44,4.67-4.56,5.05-4.93A20.72,20.72,0,0,1,115.51,213.23Z"/><path class="cls-6" d="M120.37,214.1a7.73,7.73,0,0,0-2.24-1.67c-.77-.33-1,0-1.1.12l-1.85,2c-.06.07.32.2.65.38a19,19,0,0,1,3.67,3.69c.18.33.3.71.37.65l2-1.84c.1-.1.45-.32.13-1.1A7.73,7.73,0,0,0,120.37,214.1Z"/><path class="cls-10" d="M107.36,195.48c-2-2.28-3.5-2.56-3.78-2.49a35,35,0,0,0-3.14,2.12c-.37.29-9,8-9.46,8.28a30.2,30.2,0,0,0-2.46,2,3.86,3.86,0,0,0-1.36,2.76c-.12,1.32,1.28,3,1.57,3.36s1.76,2,3.08,2.06a3.86,3.86,0,0,0,2.94-.93,30.2,30.2,0,0,0,2.33-2.13c.37-.36,9.28-7.78,9.61-8.1a35,35,0,0,0,2.57-2.79C109.35,199.33,109.31,197.76,107.36,195.48Z"/><path class="cls-6" d="M106.36,201.66s-.77.29-4.63,3.6a40.32,40.32,0,0,0-5,5l2.39-2c.48-.4,4.91-4.29,5.31-4.65A20.72,20.72,0,0,0,106.36,201.66Z"/><path class="cls-11" d="M97.69,209.48l-.39.34a.2.2,0,0,1,.2,0,.11.11,0,0,0,0,.17c0,.05.46.58.92.53s.62-.22.55-.31a7.11,7.11,0,0,0-.94-.64.51.51,0,0,0-.19.06Z"/><path class="cls-11" d="M92.06,202.93l-.39.34a.2.2,0,0,0,0-.19.11.11,0,0,1-.17,0s-.5-.54-.38-1,.31-.58.39-.5a7.11,7.11,0,0,1,.49,1,.51.51,0,0,1-.08.18Z"/><path class="cls-6" d="M92.76,208c-1.94-2.26-1.78-2.75-1.77-3.31s2.19-2,2.57-2.2.51-.34.53-.21a11.49,11.49,0,0,0,4.53,5.28c.13,0,0,.16-.29.5s-2,2.28-2.57,2.2S94.7,210.29,92.76,208Z"/><path class="cls-6" d="M101.1,195.53s-.4.71-4.26,4a40.32,40.32,0,0,1-5.71,4.22l2.33-2.06c.47-.41,5-4.21,5.4-4.55A20.72,20.72,0,0,1,101.1,195.53Z"/><path class="cls-6" d="M105.88,196.75a7.73,7.73,0,0,0-2.11-1.83c-.75-.38-1-.05-1.1,0l-2,1.87c-.07.07.31.22.62.42a19,19,0,0,1,3.39,4c.15.34.25.73.32.68l2.15-1.69c.11-.09.47-.29.2-1.08A7.73,7.73,0,0,0,105.88,196.75Z"/><path class="cls-10" d="M86.11,165.39c-1.06-2.81-2.42-3.59-2.71-3.63a35,35,0,0,0-3.68.92c-.44.14-11.22,4.41-11.72,4.56a30.2,30.2,0,0,0-3,1,3.86,3.86,0,0,0-2.22,2.13c-.56,1.2.18,3.28.33,3.69s1,2.46,2.2,3a3.86,3.86,0,0,0,3.08.12A30.2,30.2,0,0,0,71.33,176c.47-.22,11.37-4.16,11.8-4.35a35,35,0,0,0,3.36-1.75C86.68,169.68,87.17,168.19,86.11,165.39Z"/><path class="cls-6" d="M83.07,170.86s-.82,0-5.58,1.81a40.32,40.32,0,0,0-6.44,3L74,174.6c.59-.22,6.08-2.37,6.58-2.56A20.72,20.72,0,0,0,83.07,170.86Z"/><path class="cls-11" d="M72.25,175.26l-.49.18a.2.2,0,0,1,.18.07.11.11,0,0,0-.07.16c0,.06.24.7.69.81s.66,0,.62-.1a7.11,7.11,0,0,0-.67-.92.51.51,0,0,0-.2,0Z"/><path class="cls-11" d="M69.19,167.18l-.49.18a.2.2,0,0,0,.09-.17.11.11,0,0,1-.16-.07c0-.06-.29-.68,0-1.06s.49-.44.54-.33a7.11,7.11,0,0,1,.11,1.13.51.51,0,0,1-.14.14Z"/><path class="cls-6" d="M68.12,172.22c-1.05-2.78-.74-3.19-.54-3.72s2.73-1.09,3.16-1.2.6-.15.57,0a11.49,11.49,0,0,0,2.46,6.5c.11.08,0,.16-.44.37s-2.67,1.46-3.16,1.2S69.17,175,68.12,172.22Z"/><path class="cls-6" d="M80.21,163.3s-.62.53-5.38,2.34a40.32,40.32,0,0,1-6.81,2l2.89-1.14c.58-.22,6.12-2.26,6.62-2.44A20.72,20.72,0,0,1,80.21,163.3Z"/><path class="cls-6" d="M84.29,166.08a7.73,7.73,0,0,0-1.36-2.44c-.57-.62-.92-.39-1-.34l-2.51,1.08c-.08,0,.21.31.44.61a19,19,0,0,1,1.85,4.87c0,.37,0,.77.07.75l2.6-.85c.13,0,.54-.11.56-.95A7.73,7.73,0,0,0,84.29,166.08Z"/><path class="cls-10" d="M51.14,130.67c0-3-1.06-4.2-1.31-4.33a35,35,0,0,0-3.77-.38c-.46,0-12,.34-12.57.31a30.2,30.2,0,0,0-3.15-.05,3.86,3.86,0,0,0-2.81,1.25c-.94.94-.95,3.15-.94,3.59s.09,2.65,1.05,3.56a3.86,3.86,0,0,0,2.85,1.16,30.2,30.2,0,0,0,3.15-.15c.52,0,12.11-.05,12.57-.08A35,35,0,0,0,50,135C50.21,134.9,51.18,133.67,51.14,130.67Z"/><path class="cls-6" d="M46.42,134.78s-.77-.27-5.86-.19a40.32,40.32,0,0,0-7.08.63H36.6l7.06-.18A20.72,20.72,0,0,0,46.42,134.78Z"/><path class="cls-11" d="M34.75,135.25h-.52a.2.2,0,0,1,.15.13.11.11,0,0,0-.12.13c0,.06,0,.74.37,1s.62.22.62.11a7.11,7.11,0,0,0-.32-1.1.51.51,0,0,0-.19-.08Z"/><path class="cls-11" d="M34.62,126.61H34.1a.2.2,0,0,0,.14-.13.11.11,0,0,1-.13-.12c0-.06,0-.74.34-1s.61-.24.62-.13a7.11,7.11,0,0,1-.28,1.1.51.51,0,0,1-.18.09Z"/><path class="cls-6" d="M31.89,131c0-3,.39-3.26.76-3.68s2.94-.1,3.38-.05.61.06.54.18a11.49,11.49,0,0,0,.11,7c.07.12-.09.13-.54.2s-3,.46-3.38.05S31.94,134,31.89,131Z"/><path class="cls-6" d="M46.29,126.7s-.77.29-5.85.37a40.32,40.32,0,0,1-7.09-.41l3.11-.09,7.06,0A20.72,20.72,0,0,1,46.29,126.7Z"/><path class="cls-6" d="M49.19,130.7a7.73,7.73,0,0,0-.45-2.76c-.33-.77-.73-.68-.87-.67l-2.73.17c-.09,0,.1.36.21.72a19,19,0,0,1,.08,5.21c-.1.36-.28.72-.18.73l2.73.08c.14,0,.54.08.85-.7A7.73,7.73,0,0,0,49.19,130.7Z"/><path class="cls-10" d="M264,123.41c0-3-1.06-4.2-1.31-4.33a35,35,0,0,0-3.77-.38c-.46,0-12,.34-12.57.31a30.2,30.2,0,0,0-3.15-.05,3.86,3.86,0,0,0-2.81,1.25c-.94.94-.95,3.15-.94,3.59s.09,2.65,1.05,3.56a3.86,3.86,0,0,0,2.85,1.16,30.2,30.2,0,0,0,3.15-.15c.52,0,12.11-.05,12.57-.08a35,35,0,0,0,3.76-.5C263.08,127.64,264.05,126.41,264,123.41Z"/><path class="cls-6" d="M259.29,127.52s-.77-.27-5.86-.19a40.32,40.32,0,0,0-7.08.63h3.11l7.06-.18A20.72,20.72,0,0,0,259.29,127.52Z"/><path class="cls-11" d="M247.62,128h-.52a.2.2,0,0,1,.15.13.11.11,0,0,0-.12.13c0,.06,0,.74.37,1s.62.22.62.11a7.11,7.11,0,0,0-.32-1.1.51.51,0,0,0-.19-.08Z"/><path class="cls-11" d="M247.48,119.34H247a.2.2,0,0,0,.14-.13.11.11,0,0,1-.13-.12c0-.06,0-.74.34-1s.61-.24.62-.13a7.11,7.11,0,0,1-.28,1.1.51.51,0,0,1-.18.09Z"/><path class="cls-6" d="M244.76,123.72c0-3,.39-3.26.76-3.68s2.94-.1,3.38-.05.61.06.54.18a11.49,11.49,0,0,0,.11,7c.07.12-.09.13-.54.2s-3,.46-3.38.05S244.81,126.7,244.76,123.72Z"/><path class="cls-6" d="M259.16,119.44s-.77.29-5.85.37a40.32,40.32,0,0,1-7.09-.41l3.11-.09,7.06,0A20.72,20.72,0,0,1,259.16,119.44Z"/><path class="cls-6" d="M262.06,123.44a7.73,7.73,0,0,0-.45-2.76c-.33-.77-.73-.68-.87-.67l-2.73.17c-.09,0,.1.36.21.72a19,19,0,0,1,.08,5.21c-.1.36-.28.72-.18.73l2.73.08c.14,0,.54.08.85-.7A7.73,7.73,0,0,0,262.06,123.44Z"/><path class="cls-10" d="M264.87,42.22c0-3-1.06-4.2-1.31-4.33a35,35,0,0,0-3.77-.38c-.46,0-12,.34-12.57.31a30.2,30.2,0,0,0-3.15-.05A3.86,3.86,0,0,0,241.25,39c-.94.94-.95,3.15-.94,3.59s.09,2.65,1.05,3.56a3.86,3.86,0,0,0,2.85,1.16,30.2,30.2,0,0,0,3.15-.15c.52,0,12.11-.05,12.57-.08a35,35,0,0,0,3.76-.5C263.94,46.45,264.92,45.22,264.87,42.22Z"/><path class="cls-6" d="M260.15,46.33s-.77-.27-5.86-.19a40.32,40.32,0,0,0-7.08.63h3.11l7.06-.18A20.72,20.72,0,0,0,260.15,46.33Z"/><path class="cls-11" d="M248.48,46.79H248a.2.2,0,0,1,.15.13.11.11,0,0,0-.12.13c0,.06,0,.74.37,1s.62.22.62.11a7.11,7.11,0,0,0-.32-1.1.51.51,0,0,0-.19-.08Z"/><path class="cls-11" d="M248.35,38.15h-.52A.2.2,0,0,0,248,38a.11.11,0,0,1-.13-.12c0-.06,0-.74.34-1s.61-.24.62-.13a7.11,7.11,0,0,1-.28,1.1.51.51,0,0,1-.18.09Z"/><path class="cls-6" d="M245.62,42.53c0-3,.39-3.26.76-3.68s2.94-.1,3.38-.05.61.06.54.18a8.28,8.28,0,0,0-.48,3.49,8.28,8.28,0,0,0,.59,3.47c.07.12-.09.13-.54.2s-3,.46-3.38.05S245.67,45.5,245.62,42.53Z"/><path class="cls-6" d="M260,38.25s-.77.29-5.85.37a40.32,40.32,0,0,1-7.09-.41l3.11-.09,7.06,0A20.72,20.72,0,0,1,260,38.25Z"/><path class="cls-6" d="M262.92,42.25a7.73,7.73,0,0,0-.45-2.76c-.33-.77-.73-.68-.87-.67l-2.73.17c-.09,0,.1.36.21.72a19,19,0,0,1,.08,5.21c-.1.36-.28.72-.18.73l2.73.08c.14,0,.54.08.85-.7A7.73,7.73,0,0,0,262.92,42.25Z"/><path class="cls-10" d="M327.28,60.78c0-3-1.06-4.2-1.31-4.33a35,35,0,0,0-3.77-.38c-.46,0-12,.34-12.57.31a30.2,30.2,0,0,0-3.15-.05,3.86,3.86,0,0,0-2.81,1.25c-.94.94-.95,3.15-.94,3.59s.09,2.65,1.05,3.56a3.86,3.86,0,0,0,2.85,1.16,30.2,30.2,0,0,0,3.15-.15c.52,0,12.11-.05,12.57-.08a35,35,0,0,0,3.76-.5C326.35,65,327.32,63.79,327.28,60.78Z"/><path class="cls-6" d="M322.56,64.9s-.77-.27-5.86-.19a40.32,40.32,0,0,0-7.08.63h3.11l7.06-.18A20.72,20.72,0,0,0,322.56,64.9Z"/><path class="cls-11" d="M310.89,65.36h-.52a.2.2,0,0,1,.15.13.11.11,0,0,0-.12.13c0,.06,0,.74.37,1s.62.22.62.11a7.11,7.11,0,0,0-.32-1.1.51.51,0,0,0-.19-.08Z"/><path class="cls-11" d="M310.76,56.72h-.52a.2.2,0,0,0,.14-.13.11.11,0,0,1-.13-.12c0-.06,0-.74.34-1s.61-.24.62-.13a7.11,7.11,0,0,1-.28,1.1.51.51,0,0,1-.18.09Z"/><path class="cls-6" d="M308,61.1c0-3,.39-3.26.76-3.68s2.94-.1,3.38-.05.61.06.54.18a8.28,8.28,0,0,0-.48,3.49,8.28,8.28,0,0,0,.59,3.47c.07.12-.09.13-.54.2s-3,.46-3.38.05S308.08,64.07,308,61.1Z"/><path class="cls-6" d="M322.44,56.82s-.77.29-5.85.37a40.32,40.32,0,0,1-7.09-.41l3.11-.09,7.06,0A20.72,20.72,0,0,1,322.44,56.82Z"/><path class="cls-6" d="M325.33,60.81a7.73,7.73,0,0,0-.45-2.76c-.33-.77-.73-.68-.87-.67l-2.73.17c-.09,0,.1.36.21.72a19,19,0,0,1,.08,5.21c-.1.36-.28.72-.18.73l2.73.08c.14,0,.54.08.85-.7A7.73,7.73,0,0,0,325.33,60.81Z"/><path class="cls-10" d="M240.75,21.46c0,3,1.06,4.2,1.31,4.33a35,35,0,0,0,3.77.38c.46,0,12-.34,12.57-.31a30.2,30.2,0,0,0,3.15.05,3.86,3.86,0,0,0,2.81-1.25c.94-.94.95-3.15.94-3.59s-.09-2.65-1.05-3.56a3.86,3.86,0,0,0-2.85-1.16,30.2,30.2,0,0,0-3.15.15c-.52,0-12.11.05-12.57.08a35,35,0,0,0-3.76.5C241.67,17.23,240.7,18.46,240.75,21.46Z"/><path class="cls-6" d="M245.47,17.35s.77.27,5.86.19a40.32,40.32,0,0,0,7.08-.63h-3.11l-7.06.18A20.72,20.72,0,0,0,245.47,17.35Z"/><path class="cls-11" d="M257.14,16.89h.52a.2.2,0,0,1-.15-.13.11.11,0,0,0,.12-.13c0-.06,0-.74-.37-1s-.62-.22-.62-.11a7.11,7.11,0,0,0,.32,1.1.51.51,0,0,0,.19.08Z"/><path class="cls-11" d="M257.27,25.53h.52a.2.2,0,0,0-.14.13.11.11,0,0,1,.13.12c0,.06,0,.74-.34,1s-.61.24-.62.13a7.11,7.11,0,0,1,.28-1.1.51.51,0,0,1,.18-.09Z"/><path class="cls-6" d="M260,21.15c0,3-.39,3.26-.76,3.68s-2.94.1-3.38.05-.61-.06-.54-.18a8.28,8.28,0,0,0,.48-3.49,8.28,8.28,0,0,0-.59-3.47c-.07-.12.09-.13.54-.2s3-.46,3.38-.05S259.95,18.17,260,21.15Z"/><path class="cls-6" d="M245.59,25.43s.77-.29,5.85-.37a40.32,40.32,0,0,1,7.09.41l-3.11.09-7.06,0A20.72,20.72,0,0,1,245.59,25.43Z"/><path class="cls-6" d="M242.7,21.43a7.73,7.73,0,0,0,.45,2.76c.33.77.73.68.87.67l2.73-.17c.09,0-.1-.36-.21-.72a19,19,0,0,1-.08-5.21c.1-.36.28-.72.18-.73L243.92,18c-.14,0-.54-.08-.85.7A7.73,7.73,0,0,0,242.7,21.43Z"/><path class="cls-10" d="M507.67,38.19c2,2.22,3.58,2.45,3.86,2.37a35,35,0,0,0,3.08-2.21c.36-.3,8.8-8.24,9.2-8.56a30.2,30.2,0,0,0,2.4-2.05,3.86,3.86,0,0,0,1.28-2.8c.08-1.32-1.38-3-1.67-3.31s-1.82-1.93-3.15-2a3.86,3.86,0,0,0-2.91,1,30.2,30.2,0,0,0-2.26,2.2c-.36.38-9,8.07-9.36,8.4a35,35,0,0,0-2.48,2.86C505.55,34.41,505.64,36,507.67,38.19Z"/><path class="cls-6" d="M508.47,32s.76-.31,4.51-3.74a40.32,40.32,0,0,0,4.88-5.16l-2.32,2.07c-.46.42-4.78,4.44-5.16,4.81A20.72,20.72,0,0,0,508.47,32Z"/><path class="cls-11" d="M516.9,23.9l.38-.35a.2.2,0,0,1-.2,0,.11.11,0,0,0,0-.17s-.48-.56-.94-.5-.61.24-.54.33a7.11,7.11,0,0,0,1,.61.51.51,0,0,0,.19-.06Z"/><path class="cls-11" d="M522.73,30.28l.38-.35a.2.2,0,0,0,0,.19.11.11,0,0,1,.17,0s.52.52.41,1-.29.59-.37.51a7.11,7.11,0,0,1-.52-1,.51.51,0,0,1,.08-.19Z"/><path class="cls-6" d="M521.87,25.19c2,2.2,1.87,2.69,1.87,3.26s-2.13,2-2.5,2.28-.5.36-.53.22A8.28,8.28,0,0,0,518.77,28a8.28,8.28,0,0,0-2.74-2.2c-.13,0,0-.16.27-.5s1.94-2.34,2.5-2.28S519.86,23,521.87,25.19Z"/><path class="cls-6" d="M513.92,37.95s.38-.73,4.14-4.16a40.32,40.32,0,0,1,5.58-4.4l-2.27,2.13c-.46.42-4.86,4.36-5.26,4.71A20.72,20.72,0,0,1,513.92,37.95Z"/><path class="cls-6" d="M509.11,36.87a7.73,7.73,0,0,0,2.17,1.76c.76.36,1,0,1.1-.07l1.93-1.93c.06-.07-.31-.21-.63-.4a19,19,0,0,1-3.51-3.85c-.16-.34-.27-.72-.35-.67l-2.1,1.75c-.1.09-.46.3-.17,1.09A7.73,7.73,0,0,0,509.11,36.87Z"/><path class="cls-10" d="M496.61,26.86c2,2.22,3.58,2.45,3.86,2.37A35,35,0,0,0,503.54,27c.36-.3,8.8-8.24,9.2-8.56a30.2,30.2,0,0,0,2.4-2.05,3.86,3.86,0,0,0,1.28-2.8c.08-1.32-1.38-3-1.67-3.31s-1.82-1.93-3.15-2a3.86,3.86,0,0,0-2.91,1,30.2,30.2,0,0,0-2.26,2.2c-.36.38-9,8.07-9.36,8.4a35,35,0,0,0-2.48,2.86C494.49,23.08,494.58,24.64,496.61,26.86Z"/><path class="cls-6" d="M497.41,20.65s.76-.31,4.51-3.74a40.32,40.32,0,0,0,4.88-5.16l-2.32,2.07c-.46.42-4.78,4.44-5.16,4.81A20.72,20.72,0,0,0,497.41,20.65Z"/><path class="cls-11" d="M505.84,12.57l.38-.35a.2.2,0,0,1-.2,0,.11.11,0,0,0,0-.17s-.48-.56-.94-.5-.61.24-.54.33a7.11,7.11,0,0,0,1,.61.51.51,0,0,0,.19-.06Z"/><path class="cls-11" d="M511.67,19l.38-.35a.2.2,0,0,0,0,.19.11.11,0,0,1,.17,0s.52.52.41,1-.29.59-.37.51a7.11,7.11,0,0,1-.52-1,.51.51,0,0,1,.08-.19Z"/><path class="cls-6" d="M510.81,13.87c2,2.2,1.87,2.69,1.87,3.26s-2.13,2-2.5,2.28-.5.36-.53.22a8.28,8.28,0,0,0-1.95-2.93,8.28,8.28,0,0,0-2.74-2.2c-.13,0,0-.16.27-.5s1.94-2.34,2.5-2.28S508.8,11.67,510.81,13.87Z"/><path class="cls-6" d="M502.86,26.62s.38-.73,4.14-4.16a40.32,40.32,0,0,1,5.58-4.4l-2.27,2.13c-.46.42-4.86,4.36-5.26,4.71A20.72,20.72,0,0,1,502.86,26.62Z"/><path class="cls-6" d="M498,25.55a7.73,7.73,0,0,0,2.17,1.76c.76.36,1,0,1.1-.07l1.93-1.93c.06-.07-.31-.21-.63-.4a20.21,20.21,0,0,1-1.89-1.8,20.21,20.21,0,0,1-1.62-2c-.16-.34-.27-.72-.35-.67l-2.1,1.75c-.1.09-.46.3-.17,1.09A7.73,7.73,0,0,0,498,25.55Z"/><path class="cls-10" d="M469.92,1.28c2,2.22,3.58,2.45,3.86,2.37a35,35,0,0,0,3.08-2.21c.36-.3,8.8-8.24,9.2-8.56a30.2,30.2,0,0,0,2.4-2.05,3.86,3.86,0,0,0,1.28-2.8c.08-1.32-1.38-3-1.67-3.31s-1.82-1.93-3.15-2a3.86,3.86,0,0,0-2.91,1,30.2,30.2,0,0,0-2.26,2.2c-.36.38-9,8.07-9.36,8.4a35,35,0,0,0-2.48,2.86C467.8-2.51,467.89-.94,469.92,1.28Z"/><path class="cls-6" d="M476.17,1s.38-.73,4.14-4.16a40.32,40.32,0,0,1,5.58-4.4l-2.27,2.13c-.46.42-4.86,4.36-5.26,4.71A20.72,20.72,0,0,1,476.17,1Z"/><path class="cls-6" d="M471.36,0a7.73,7.73,0,0,0,2.17,1.76c.76.36,1,0,1.1-.07l1.93-1.93c.06-.07-.31-.21-.63-.4A20.21,20.21,0,0,1,474-2.49a20.21,20.21,0,0,1-1.62-2c-.16-.34-.27-.72-.35-.67L470-3.44c-.1.09-.46.3-.17,1.09A7.73,7.73,0,0,0,471.36,0Z"/><path class="cls-10" d="M425.26,53.67c2,2.22,3.58,2.45,3.86,2.37a35,35,0,0,0,3.08-2.21c.36-.3,8.8-8.24,9.2-8.56a30.2,30.2,0,0,0,2.4-2.05,3.86,3.86,0,0,0,1.28-2.8c.08-1.32-1.38-3-1.67-3.31s-1.82-1.93-3.15-2a3.86,3.86,0,0,0-2.91,1,30.2,30.2,0,0,0-2.26,2.2c-.36.38-9,8.07-9.36,8.4a35,35,0,0,0-2.48,2.86C423.14,49.89,423.23,51.46,425.26,53.67Z"/><path class="cls-6" d="M426.06,47.47s.76-.31,4.51-3.74a40.32,40.32,0,0,0,4.88-5.16l-2.32,2.07c-.46.42-4.78,4.44-5.16,4.81A20.72,20.72,0,0,0,426.06,47.47Z"/><path class="cls-11" d="M434.49,39.38l.38-.35a.2.2,0,0,1-.2,0,.11.11,0,0,0,0-.17s-.48-.56-.94-.5-.61.24-.54.33a7.11,7.11,0,0,0,1,.61.51.51,0,0,0,.19-.06Z"/><path class="cls-11" d="M440.32,45.76l.38-.35a.2.2,0,0,0,0,.19.11.11,0,0,1,.17,0s.52.52.41,1-.29.59-.37.51a7.11,7.11,0,0,1-.52-1,.51.51,0,0,1,.08-.19Z"/><path class="cls-6" d="M439.46,40.68c2,2.2,1.87,2.69,1.87,3.26s-2.13,2-2.5,2.28-.5.36-.53.22a8.28,8.28,0,0,0-1.95-2.93,8.28,8.28,0,0,0-2.74-2.2c-.13,0,0-.16.27-.5s1.94-2.34,2.5-2.28S437.45,38.48,439.46,40.68Z"/><path class="cls-6" d="M431.51,53.43s.38-.73,4.14-4.16a40.32,40.32,0,0,1,5.58-4.4L439,47c-.46.42-4.86,4.36-5.26,4.71A20.72,20.72,0,0,1,431.51,53.43Z"/><path class="cls-6" d="M426.7,52.36a7.73,7.73,0,0,0,2.17,1.76c.76.36,1,0,1.1-.07l1.93-1.93c.06-.07-.31-.21-.63-.4a19,19,0,0,1-3.51-3.85c-.16-.34-.27-.72-.35-.67L425.31,49c-.1.09-.46.3-.17,1.09A7.73,7.73,0,0,0,426.7,52.36Z"/><path class="cls-10" d="M454.54,47.32c-2-2.22-3.58-2.45-3.86-2.37a35,35,0,0,0-3.08,2.21c-.36.3-8.8,8.24-9.2,8.56a30.2,30.2,0,0,0-2.4,2.05,3.86,3.86,0,0,0-1.28,2.8c-.08,1.32,1.38,3,1.67,3.31s1.82,1.93,3.15,2a3.86,3.86,0,0,0,2.91-1,30.2,30.2,0,0,0,2.26-2.2c.36-.38,9-8.07,9.36-8.4a35,35,0,0,0,2.48-2.86C456.65,51.1,456.56,49.54,454.54,47.32Z"/><path class="cls-6" d="M453.74,53.53s-.76.31-4.51,3.74a40.32,40.32,0,0,0-4.88,5.16l2.32-2.07c.46-.42,4.78-4.44,5.16-4.81A20.72,20.72,0,0,0,453.74,53.53Z"/><path class="cls-11" d="M445.3,61.61l-.38.35a.2.2,0,0,1,.2,0,.11.11,0,0,0,0,.17s.48.56.94.5.61-.24.54-.33a7.11,7.11,0,0,0-1-.61.51.51,0,0,0-.19.06Z"/><path class="cls-11" d="M439.48,55.23l-.38.35a.2.2,0,0,0,0-.19.11.11,0,0,1-.17,0s-.52-.52-.41-1,.29-.59.37-.51a7.11,7.11,0,0,1,.52,1,.51.51,0,0,1-.08.19Z"/><path class="cls-6" d="M440.34,60.32c-2-2.2-1.87-2.69-1.87-3.26s2.13-2,2.5-2.28.5-.36.53-.22a8.28,8.28,0,0,0,1.95,2.93,8.28,8.28,0,0,0,2.74,2.2c.13,0,0,.16-.27.5s-1.94,2.34-2.5,2.28S442.34,62.51,440.34,60.32Z"/><path class="cls-6" d="M448.28,47.56s-.38.73-4.14,4.16a40.32,40.32,0,0,1-5.58,4.4L440.84,54c.46-.42,4.86-4.36,5.26-4.71A20.72,20.72,0,0,1,448.28,47.56Z"/><path class="cls-6" d="M453.1,48.64a7.73,7.73,0,0,0-2.17-1.76c-.76-.36-1,0-1.1.07l-1.93,1.93c-.06.07.31.21.63.4A19,19,0,0,1,452,53.13c.16.34.27.72.35.67l2.1-1.75c.1-.09.46-.3.17-1.09A7.73,7.73,0,0,0,453.1,48.64Z"/><path class="cls-10" d="M619.86,71.86c-1.52-2.59-3-3.14-3.28-3.12a35,35,0,0,0-3.47,1.52c-.41.22-10.32,6.23-10.79,6.46a30.2,30.2,0,0,0-2.77,1.51,3.86,3.86,0,0,0-1.83,2.48c-.35,1.28.72,3.21.95,3.59s1.38,2.26,2.67,2.58a3.86,3.86,0,0,0,3.06-.39,30.2,30.2,0,0,0,2.67-1.68c.43-.29,10.51-6,10.9-6.26a35,35,0,0,0,3-2.28C621.14,76,621.38,74.45,619.86,71.86Z"/><path class="cls-6" d="M617.79,77.76s-.81.15-5.19,2.72a40.32,40.32,0,0,0-5.85,4l2.7-1.54c.54-.31,5.6-3.35,6.05-3.63A20.72,20.72,0,0,0,617.79,77.76Z"/><path class="cls-11" d="M607.86,83.91l-.45.26a.2.2,0,0,1,.19,0,.11.11,0,0,0,0,.17c0,.06.35.65.81.69s.65-.11.6-.21a7.11,7.11,0,0,0-.81-.8.51.51,0,0,0-.2,0Z"/><path class="cls-11" d="M603.48,76.46l-.45.26a.2.2,0,0,0,.06-.19.11.11,0,0,1-.17,0c0-.06-.4-.62-.2-1s.41-.51.47-.42a7.11,7.11,0,0,1,.3,1.1.51.51,0,0,1-.12.17Z"/><path class="cls-6" d="M603.27,81.61c-1.51-2.57-1.27-3-1.15-3.57s2.5-1.54,2.92-1.71.56-.25.56-.11a8.28,8.28,0,0,0,1.29,3.27,8.28,8.28,0,0,0,2.22,2.73c.12.07,0,.16-.37.44s-2.38,1.88-2.92,1.71S604.77,84.17,603.27,81.61Z"/><path class="cls-6" d="M613.7,70.79s-.52.63-4.91,3.2a40.32,40.32,0,0,1-6.37,3.14l2.66-1.61c.54-.32,5.66-3.25,6.12-3.51A20.72,20.72,0,0,1,613.7,70.79Z"/><path class="cls-6" d="M618.18,72.84a7.73,7.73,0,0,0-1.75-2.18c-.67-.51-1-.23-1.09-.16L613,72c-.08.05.26.27.53.53A19,19,0,0,1,616.22,77c.09.36.11.76.2.72l2.42-1.28c.12-.07.51-.2.39-1A7.73,7.73,0,0,0,618.18,72.84Z"/><path class="cls-10" d="M655.33,153.43c2.92.71,4.33,0,4.52-.19a35,35,0,0,0,1.31-3.56c.13-.45,2.69-11.75,2.84-12.25a30.2,30.2,0,0,0,.84-3,3.86,3.86,0,0,0-.51-3c-.67-1.14-2.81-1.71-3.24-1.81s-2.59-.58-3.71.13a3.86,3.86,0,0,0-1.84,2.47,30.2,30.2,0,0,0-.64,3.09c-.09.51-3,11.74-3.06,12.19a35,35,0,0,0-.46,3.76C651.46,151.47,652.41,152.72,655.33,153.43Z"/><path class="cls-6" d="M652.52,147.83s.45-.68,1.65-5.63a40.32,40.32,0,0,0,1.16-7s-.62,2.41-.77,3-1.48,6.36-1.59,6.88A20.72,20.72,0,0,0,652.52,147.83Z"/><path class="cls-11" d="M655,136.42l.12-.51a.2.2,0,0,1-.16.11.11.11,0,0,0-.09-.15c-.06,0-.71-.2-1.06.11s-.37.54-.26.57a7.11,7.11,0,0,0,1.14,0,.51.51,0,0,0,.13-.16Z"/><path class="cls-11" d="M663.39,138.45l.12-.51a.2.2,0,0,0,.09.17.11.11,0,0,1,.15-.09c.06,0,.72.15.89.58s.08.65,0,.63a7.11,7.11,0,0,1-1-.55.51.51,0,0,1,0-.2Z"/><path class="cls-6" d="M659.84,134.71c2.89.7,3.06,1.19,3.37,1.65s-.63,2.87-.79,3.29-.21.58-.31.48a11.49,11.49,0,0,0-6.76-1.63c-.13,0-.11-.12-.06-.57s.3-3,.79-3.29S656.94,134,659.84,134.71Z"/><path class="cls-6" d="M660.38,149.73s-.09-.81,1.1-5.76a40.32,40.32,0,0,1,2.17-6.76s-.55,2.42-.69,3-1.59,6.33-1.72,6.84A20.72,20.72,0,0,1,660.38,149.73Z"/><path class="cls-6" d="M655.79,151.53a7.73,7.73,0,0,0,2.78.25c.83-.13.84-.54.87-.67s.51-2.59.52-2.68-.38,0-.75,0a19,19,0,0,1-5.06-1.22c-.32-.19-.63-.45-.66-.36s-.73,2.49-.76,2.63-.21.51.47,1A7.73,7.73,0,0,0,655.79,151.53Z"/><path class="cls-10" d="M745.8,344.46c2.28-2,2.55-3.5,2.48-3.78a35,35,0,0,0-2.12-3.14c-.29-.37-8-9-8.29-9.45a30.2,30.2,0,0,0-2-2.45,3.86,3.86,0,0,0-2.76-1.36c-1.32-.12-3,1.29-3.36,1.58s-2,1.76-2.05,3.09a3.86,3.86,0,0,0,.94,2.93,30.2,30.2,0,0,0,2.13,2.32c.37.37,7.8,9.26,8.12,9.6a35,35,0,0,0,2.79,2.56C742,346.46,743.53,346.42,745.8,344.46Z"/><path class="cls-6" d="M739.62,343.47s-.29-.77-3.61-4.62a40.32,40.32,0,0,0-5-5l2,2.38c.41.48,4.3,4.91,4.66,5.3A20.72,20.72,0,0,0,739.62,343.47Z"/><path class="cls-11" d="M731.79,334.81l-.34-.39a.2.2,0,0,1,0,.2.11.11,0,0,0-.17,0s-.58.46-.53.92.22.62.31.55a7.11,7.11,0,0,0,.64-.94.51.51,0,0,0-.06-.19Z"/><path class="cls-11" d="M738.34,329.17l-.34-.39a.2.2,0,0,0,.19,0,.11.11,0,0,1,0-.17s.54-.5,1-.39.58.31.5.39a7.11,7.11,0,0,1-1,.49.51.51,0,0,1-.18-.08Z"/><path class="cls-6" d="M733.23,329.89c2.25-1.94,2.75-1.79,3.31-1.78s2,2.19,2.21,2.56.34.51.21.53a11.49,11.49,0,0,0-5.27,4.54c0,.13-.16,0-.5-.28s-2.28-2-2.21-2.56S731,331.83,733.23,329.89Z"/><path class="cls-6" d="M745.75,338.2s-.71-.4-4-4.25a40.32,40.32,0,0,1-4.23-5.71l2.06,2.33c.41.47,4.22,5,4.56,5.39A20.72,20.72,0,0,1,745.75,338.2Z"/><path class="cls-6" d="M744.53,343a7.73,7.73,0,0,0,1.83-2.12c.38-.75.05-1,0-1.1l-1.88-2c-.07-.07-.22.31-.42.62a19,19,0,0,1-3.95,3.4c-.34.16-.73.25-.68.33s1.6,2,1.69,2.15.29.47,1.08.2A7.73,7.73,0,0,0,744.53,343Z"/><path class="cls-10" d="M301.75-.42c0,3,1.06,4.2,1.31,4.33a35,35,0,0,0,3.77.38c.46,0,12-.34,12.57-.31a30.2,30.2,0,0,0,3.15.05,3.86,3.86,0,0,0,2.81-1.25c.94-.94.95-3.15.94-3.59s-.09-2.65-1.05-3.56a3.86,3.86,0,0,0-2.85-1.16,30.2,30.2,0,0,0-3.15.15c-.52,0-12.11.05-12.57.08a35,35,0,0,0-3.76.5C302.67-4.66,301.7-3.43,301.75-.42Z"/><path class="cls-11" d="M318.27,3.64h.52a.2.2,0,0,0-.14.13.11.11,0,0,1,.13.12c0,.06,0,.74-.34,1s-.61.24-.62.13a7.11,7.11,0,0,1,.28-1.1.51.51,0,0,1,.18-.09Z"/><path class="cls-6" d="M321-.74c0,3-.39,3.26-.76,3.68s-2.94.1-3.38.05-.61-.06-.54-.18a8.28,8.28,0,0,0,.48-3.49,8.28,8.28,0,0,0-.59-3.47c-.07-.12.09-.13.54-.2s3-.46,3.38-.05S320.95-3.71,321-.74Z"/><path class="cls-6" d="M306.59,3.54s.77-.29,5.85-.37a40.32,40.32,0,0,1,7.09.41l-3.11.09-7.06,0A20.72,20.72,0,0,1,306.59,3.54Z"/><path class="cls-6" d="M303.7-.45a7.73,7.73,0,0,0,.45,2.76c.33.77.73.68.87.67l2.73-.17c.09,0-.1-.36-.21-.72a20.21,20.21,0,0,1-.22-2.6,20.21,20.21,0,0,1,.14-2.61c.1-.36.28-.72.18-.73l-2.73-.08c-.14,0-.54-.08-.85.7A7.73,7.73,0,0,0,303.7-.45Z"/><path class="cls-10" d="M302.71,81.38c0,3,1.06,4.2,1.31,4.33a35,35,0,0,0,3.77.38c.46,0,12-.34,12.57-.31a30.2,30.2,0,0,0,3.15.05,3.86,3.86,0,0,0,2.81-1.25c.94-.94.95-3.15.94-3.59s-.09-2.65-1.05-3.56a3.86,3.86,0,0,0-2.85-1.16,30.2,30.2,0,0,0-3.15.15c-.52,0-12.11.05-12.57.08a35,35,0,0,0-3.76.5C303.64,77.14,302.67,78.37,302.71,81.38Z"/><path class="cls-6" d="M307.43,77.26s.77.27,5.86.19a40.32,40.32,0,0,0,7.08-.63h-3.11L310.2,77A20.72,20.72,0,0,0,307.43,77.26Z"/><path class="cls-11" d="M319.1,76.8h.52a.2.2,0,0,1-.15-.13.11.11,0,0,0,.12-.13c0-.06,0-.74-.37-1s-.62-.22-.62-.11a7.11,7.11,0,0,0,.32,1.1.51.51,0,0,0,.19.08Z"/><path class="cls-11" d="M319.24,85.44h.52a.2.2,0,0,0-.14.13.11.11,0,0,1,.13.12c0,.06,0,.74-.34,1s-.61.24-.62.13a7.11,7.11,0,0,1,.28-1.1.51.51,0,0,1,.18-.09Z"/><path class="cls-6" d="M322,81.06c0,3-.39,3.26-.76,3.68s-2.94.1-3.38.05-.61-.06-.54-.18a8.28,8.28,0,0,0,.48-3.49,8.28,8.28,0,0,0-.59-3.47c-.07-.12.09-.13.54-.2s3-.46,3.38-.05S321.91,78.09,322,81.06Z"/><path class="cls-6" d="M307.56,85.34s.77-.29,5.85-.37a40.32,40.32,0,0,1,7.09.41l-3.11.09-7.06,0A20.72,20.72,0,0,1,307.56,85.34Z"/><path class="cls-6" d="M304.66,81.35a7.73,7.73,0,0,0,.45,2.76c.33.77.73.68.87.67l2.73-.17c.09,0-.1-.36-.21-.72a19,19,0,0,1-.08-5.21c.1-.36.28-.72.18-.73l-2.73-.08c-.14,0-.54-.08-.85.7A7.73,7.73,0,0,0,304.66,81.35Z"/><path class="cls-10" d="M302.7,140.9c0,3,1.06,4.2,1.31,4.33a35,35,0,0,0,3.77.38c.46,0,12-.34,12.57-.31a30.2,30.2,0,0,0,3.15.05,3.86,3.86,0,0,0,2.81-1.25c.94-.94.95-3.15.94-3.59s-.09-2.65-1.05-3.56a3.86,3.86,0,0,0-2.85-1.16,30.2,30.2,0,0,0-3.15.15c-.52,0-12.11.05-12.57.08a35,35,0,0,0-3.76.5C303.62,136.67,302.65,137.9,302.7,140.9Z"/><path class="cls-6" d="M307.42,136.79s.77.27,5.86.19a40.32,40.32,0,0,0,7.08-.63h-3.11l-7.06.18A20.72,20.72,0,0,0,307.42,136.79Z"/><path class="cls-11" d="M319.09,136.32h.52a.2.2,0,0,1-.15-.13.11.11,0,0,0,.12-.13c0-.06,0-.74-.37-1s-.62-.22-.62-.11a7.11,7.11,0,0,0,.32,1.1.51.51,0,0,0,.19.08Z"/><path class="cls-11" d="M319.22,145h.52a.2.2,0,0,0-.14.13.11.11,0,0,1,.13.12c0,.06,0,.74-.34,1s-.61.24-.62.13a7.11,7.11,0,0,1,.28-1.1.51.51,0,0,1,.18-.09Z"/><path class="cls-6" d="M321.95,140.59c0,3-.39,3.26-.76,3.68s-2.94.1-3.38.05-.61-.06-.54-.18a11.49,11.49,0,0,0-.11-7c-.07-.12.09-.13.54-.2s3-.46,3.38-.05S321.9,137.61,321.95,140.59Z"/><path class="cls-6" d="M307.54,144.87s.77-.29,5.85-.37a40.32,40.32,0,0,1,7.09.41l-3.11.09-7.06,0A20.72,20.72,0,0,1,307.54,144.87Z"/><path class="cls-6" d="M304.65,140.87a7.73,7.73,0,0,0,.45,2.76c.33.77.73.68.87.67l2.73-.17c.09,0-.1-.36-.21-.72a19,19,0,0,1-.08-5.21c.1-.36.28-.72.18-.73l-2.73-.08c-.14,0-.54-.08-.85.7A7.73,7.73,0,0,0,304.65,140.87Z"/><path class="cls-10" d="M77.32,12.15c0-3-1.06-4.2-1.31-4.33a35,35,0,0,0-3.77-.38c-.46,0-12,.34-12.57.31a30.2,30.2,0,0,0-3.15-.05,3.86,3.86,0,0,0-2.81,1.25c-.94.94-.95,3.15-.94,3.59s.09,2.65,1.05,3.56a3.86,3.86,0,0,0,2.85,1.16,30.2,30.2,0,0,0,3.15-.15c.52,0,12.11-.05,12.57-.08a35,35,0,0,0,3.76-.5C76.39,16.39,77.36,15.16,77.32,12.15Z"/><path class="cls-6" d="M72.6,16.27s-.77-.27-5.86-.19a40.32,40.32,0,0,0-7.08.63h3.11l7.06-.18A20.72,20.72,0,0,0,72.6,16.27Z"/><path class="cls-11" d="M60.93,16.73h-.52a.2.2,0,0,1,.15.13.11.11,0,0,0-.12.13c0,.06,0,.74.37,1s.62.22.62.11a7.11,7.11,0,0,0-.32-1.1.51.51,0,0,0-.19-.08Z"/><path class="cls-11" d="M60.8,8.09h-.52A.2.2,0,0,0,60.42,8a.11.11,0,0,1-.13-.12c0-.06,0-.74.34-1s.61-.24.62-.13A7.11,7.11,0,0,1,61,7.81a.51.51,0,0,1-.18.09Z"/><path class="cls-6" d="M58.07,12.47c0-3,.39-3.26.76-3.68s2.94-.1,3.38-.05.61.06.54.18a8.28,8.28,0,0,0-.48,3.49,8.28,8.28,0,0,0,.59,3.47c.07.12-.09.13-.54.2s-3,.46-3.38.05S58.12,15.44,58.07,12.47Z"/><path class="cls-6" d="M72.47,8.19s-.77.29-5.85.37a40.32,40.32,0,0,1-7.09-.41l3.11-.09L69.7,8A20.72,20.72,0,0,1,72.47,8.19Z"/><path class="cls-6" d="M75.37,12.18a7.73,7.73,0,0,0-.45-2.76c-.33-.77-.73-.68-.87-.67l-2.73.17c-.09,0,.1.36.21.72a20.21,20.21,0,0,1,.22,2.6,20.21,20.21,0,0,1-.14,2.61c-.1.36-.28.72-.18.73l2.73.08c.14,0,.54.08.85-.7A7.73,7.73,0,0,0,75.37,12.18Z"/><path class="cls-10" d="M26.35,85.83c0,3,1.06,4.2,1.31,4.33a35,35,0,0,0,3.77.38c.46,0,12-.34,12.57-.31a30.2,30.2,0,0,0,3.15.05A3.86,3.86,0,0,0,50,89c.94-.94.95-3.15.94-3.59s-.09-2.65-1.05-3.56A3.86,3.86,0,0,0,47,80.72a30.2,30.2,0,0,0-3.15.15c-.52,0-12.11.05-12.57.08a35,35,0,0,0-3.76.5C27.28,81.59,26.31,82.82,26.35,85.83Z"/><path class="cls-6" d="M31.07,81.71s.77.27,5.86.19A40.32,40.32,0,0,0,44,81.27H40.89l-7.06.18A20.72,20.72,0,0,0,31.07,81.71Z"/><path class="cls-11" d="M42.74,81.25h.52a.2.2,0,0,1-.15-.13.11.11,0,0,0,.12-.13c0-.06,0-.74-.37-1s-.62-.22-.62-.11a7.11,7.11,0,0,0,.32,1.1.51.51,0,0,0,.19.08Z"/><path class="cls-11" d="M42.87,89.89h.52a.2.2,0,0,0-.14.13.11.11,0,0,1,.13.12c0,.06,0,.74-.34,1s-.61.24-.62.13a7.11,7.11,0,0,1,.28-1.1.51.51,0,0,1,.18-.09Z"/><path class="cls-6" d="M45.6,85.51c0,3-.39,3.26-.76,3.68s-2.94.1-3.38.05-.61-.06-.54-.18a8.28,8.28,0,0,0,.48-3.49,8.28,8.28,0,0,0-.59-3.47c-.07-.12.09-.13.54-.2s3-.46,3.38-.05S45.55,82.54,45.6,85.51Z"/><path class="cls-6" d="M31.19,89.79S32,89.5,37,89.42a40.32,40.32,0,0,1,7.09.41L41,89.92,34,90A20.72,20.72,0,0,1,31.19,89.79Z"/><path class="cls-6" d="M28.3,85.8a7.73,7.73,0,0,0,.45,2.76c.33.77.73.68.87.67l2.73-.17c.09,0-.1-.36-.21-.72a19,19,0,0,1-.08-5.21c.1-.36.28-.72.18-.73l-2.73-.08c-.14,0-.54-.08-.85.7A7.73,7.73,0,0,0,28.3,85.8Z"/><path class="cls-10" d="M118.87,118.72c0,3,1.06,4.2,1.31,4.33a35,35,0,0,0,3.77.38c.46,0,12-.34,12.57-.31a30.2,30.2,0,0,0,3.15.05,3.86,3.86,0,0,0,2.81-1.25c.94-.94.95-3.15.94-3.59s-.09-2.65-1.05-3.56a3.86,3.86,0,0,0-2.85-1.16,30.2,30.2,0,0,0-3.15.15c-.52,0-12.11.05-12.57.08a35,35,0,0,0-3.76.5C119.79,114.48,118.82,115.71,118.87,118.72Z"/><path class="cls-6" d="M123.58,114.6s.77.27,5.86.19a40.32,40.32,0,0,0,7.08-.63h-3.11l-7.06.18A20.72,20.72,0,0,0,123.58,114.6Z"/><path class="cls-11" d="M135.25,114.14h.52a.2.2,0,0,1-.15-.13.11.11,0,0,0,.12-.13c0-.06,0-.74-.37-1s-.62-.22-.62-.11a7.11,7.11,0,0,0,.32,1.1.51.51,0,0,0,.19.08Z"/><path class="cls-11" d="M135.39,122.78h.52a.2.2,0,0,0-.14.13.11.11,0,0,1,.13.12c0,.06,0,.74-.34,1s-.61.24-.62.13a7.11,7.11,0,0,1,.28-1.1.51.51,0,0,1,.18-.09Z"/><path class="cls-6" d="M138.11,118.4c0,3-.39,3.26-.76,3.68s-2.94.1-3.38.05-.61-.06-.54-.18a11.49,11.49,0,0,0-.11-7c-.07-.12.09-.13.54-.2s3-.46,3.38-.05S138.06,115.43,138.11,118.4Z"/><path class="cls-6" d="M123.71,122.68s.77-.29,5.85-.37a40.32,40.32,0,0,1,7.09.41l-3.11.09-7.06,0A20.72,20.72,0,0,1,123.71,122.68Z"/><path class="cls-6" d="M120.81,118.69a7.73,7.73,0,0,0,.45,2.76c.33.77.73.68.87.67l2.73-.17c.09,0-.1-.36-.21-.72a19,19,0,0,1-.08-5.21c.1-.36.28-.72.18-.73l-2.73-.08c-.14,0-.54-.08-.85.7A7.73,7.73,0,0,0,120.81,118.69Z"/><path class="cls-10" d="M380.82,486.46c-.07-3-1.09-4.19-1.35-4.32a35,35,0,0,0-3.77-.35c-.46,0-12,.43-12.57.41a30.2,30.2,0,0,0-3.15,0,3.86,3.86,0,0,0-2.8,1.27c-.93.95-.92,3.16-.91,3.59s.11,2.65,1.08,3.55a3.86,3.86,0,0,0,2.86,1.14,30.2,30.2,0,0,0,3.15-.17c.52,0,12.11-.15,12.57-.18a35,35,0,0,0,3.75-.53C379.93,490.7,380.89,489.46,380.82,486.46Z"/><path class="cls-6" d="M376.13,490.61s-.78-.26-5.86-.14a40.32,40.32,0,0,0-7.07.69l3.11,0,7.05-.23A20.72,20.72,0,0,0,376.13,490.61Z"/><path class="cls-11" d="M364.47,491.16h-.52a.2.2,0,0,1,.15.13.11.11,0,0,0-.12.13c0,.06,0,.74.38,1s.62.22.62.11a7.11,7.11,0,0,0-.33-1.09.51.51,0,0,0-.19-.08Z"/><path class="cls-11" d="M364.26,482.53h-.52a.2.2,0,0,0,.14-.13.11.11,0,0,1-.13-.12c0-.06,0-.74.33-1s.61-.25.62-.14a7.11,7.11,0,0,1-.27,1.11.51.51,0,0,1-.18.09Z"/><path class="cls-6" d="M361.57,486.92c-.07-3,.36-3.26.73-3.69s2.94-.13,3.38-.08.61.06.54.18a11.49,11.49,0,0,0,.16,7c.07.12-.09.14-.53.2s-3,.49-3.38.08S361.64,489.9,361.57,486.92Z"/><path class="cls-6" d="M375.94,482.53s-.76.3-5.85.42a40.32,40.32,0,0,1-7.09-.35l3.11-.11,7.06-.1A20.72,20.72,0,0,1,375.94,482.53Z"/><path class="cls-6" d="M378.87,486.5a7.73,7.73,0,0,0-.48-2.75c-.34-.77-.74-.67-.88-.67l-2.73.19c-.09,0,.1.36.21.72a19,19,0,0,1,.12,5.21c-.1.36-.27.72-.18.73l2.73.06c.14,0,.54.08.84-.71A7.73,7.73,0,0,0,378.87,486.5Z"/><path class="cls-10" d="M595.5,485.16c1.25,2.73,2.66,3.42,2.94,3.44a35,35,0,0,0,3.61-1.17c.43-.17,10.9-5.15,11.38-5.34a30.2,30.2,0,0,0,2.91-1.22,3.86,3.86,0,0,0,2.07-2.28c.48-1.24-.4-3.26-.58-3.66s-1.14-2.39-2.39-2.83a3.86,3.86,0,0,0-3.08.08,30.2,30.2,0,0,0-2.83,1.4c-.46.25-11.07,4.92-11.48,5.13a35,35,0,0,0-3.24,2C594.65,480.91,594.25,482.43,595.5,485.16Z"/><path class="cls-6" d="M598.17,479.5s.82-.07,5.44-2.18a40.32,40.32,0,0,0,6.23-3.42L607,475.15c-.57.26-5.91,2.77-6.39,3A20.72,20.72,0,0,0,598.17,479.5Z"/><path class="cls-11" d="M608.67,474.39l.47-.22a.2.2,0,0,1-.19-.06.11.11,0,0,0,.06-.16c0-.06-.28-.68-.74-.76s-.65,0-.61.15a7.11,7.11,0,0,0,.73.88.51.51,0,0,0,.2,0Z"/><path class="cls-11" d="M612.26,482.24l.47-.22a.2.2,0,0,0-.08.18.11.11,0,0,1,.16.06c0,.06.33.66.1,1.06s-.46.47-.51.37a7.11,7.11,0,0,1-.19-1.12.51.51,0,0,1,.13-.15Z"/><path class="cls-6" d="M613,477.14c1.24,2.7,1,3.14.79,3.67s-2.65,1.27-3.08,1.41-.58.19-.57.05a11.49,11.49,0,0,0-2.89-6.32c-.11-.08,0-.16.41-.4s2.56-1.63,3.08-1.41S611.76,474.43,613,477.14Z"/><path class="cls-6" d="M601.53,486.85s.58-.57,5.21-2.69a40.32,40.32,0,0,1,6.66-2.48L610.59,483c-.57.26-6,2.66-6.45,2.88A20.72,20.72,0,0,1,601.53,486.85Z"/><path class="cls-6" d="M597.28,484.35a7.73,7.73,0,0,0,1.52,2.34c.61.58.94.33,1.07.27l2.43-1.25c.08,0-.23-.29-.48-.58a19,19,0,0,1-2.17-4.74c-.05-.37,0-.77-.12-.74l-2.54,1c-.13.06-.53.14-.5,1A7.73,7.73,0,0,0,597.28,484.35Z"/><path class="cls-10" d="M411.51,425.22c-3,.07-4.19,1.09-4.32,1.35a35,35,0,0,0-.35,3.77c0,.46.43,12,.41,12.57a30.2,30.2,0,0,0,0,3.15,3.86,3.86,0,0,0,1.27,2.8c.95.93,3.16.92,3.59.91s2.65-.11,3.55-1.08a3.86,3.86,0,0,0,1.14-2.86,30.2,30.2,0,0,0-.17-3.15c0-.52-.15-12.11-.18-12.57a35,35,0,0,0-.53-3.75C415.75,426.11,414.52,425.15,411.51,425.22Z"/><path class="cls-6" d="M415.67,429.9s-.26.78-.14,5.86a40.32,40.32,0,0,0,.69,7.07s0-2.49,0-3.11-.21-6.52-.23-7.05A20.72,20.72,0,0,0,415.67,429.9Z"/><path class="cls-11" d="M416.22,441.57v.52a.2.2,0,0,1,.13-.15.11.11,0,0,0,.13.12c.06,0,.74,0,1-.38s.22-.62.11-.62a7.11,7.11,0,0,0-1.09.33.51.51,0,0,0-.08.19Z"/><path class="cls-11" d="M407.58,441.77v.52a.2.2,0,0,0-.13-.14.11.11,0,0,1-.12.13c-.06,0-.74,0-1-.33s-.25-.61-.14-.62a7.11,7.11,0,0,1,1.11.27.51.51,0,0,1,.09.18Z"/><path class="cls-6" d="M412,444.46c-3,.07-3.26-.36-3.69-.73s-.13-2.94-.08-3.38.06-.61.18-.54a11.49,11.49,0,0,0,7-.16c.12-.07.14.09.2.53s.49,3,.08,3.38S415,444.39,412,444.46Z"/><path class="cls-6" d="M407.59,430.09s.3.76.42,5.85a40.32,40.32,0,0,1-.35,7.09s-.09-2.48-.11-3.11-.1-6.52-.1-7.06A20.72,20.72,0,0,1,407.59,430.09Z"/><path class="cls-6" d="M411.56,427.16a7.73,7.73,0,0,0-2.75.48c-.77.34-.67.74-.67.88s.18,2.63.19,2.73.36-.1.72-.21a19,19,0,0,1,5.21-.12c.36.1.72.27.73.18s.06-2.6.06-2.73.08-.54-.71-.84A7.73,7.73,0,0,0,411.56,427.16Z"/><path class="cls-10" d="M429.46,449.84c3-.07,4.19-1.09,4.32-1.35a35,35,0,0,0,.35-3.77c0-.46-.43-12-.41-12.57a30.2,30.2,0,0,0,0-3.15,3.86,3.86,0,0,0-1.27-2.8c-.95-.93-3.16-.92-3.59-.91s-2.65.11-3.55,1.08a3.86,3.86,0,0,0-1.14,2.86,30.2,30.2,0,0,0,.17,3.15c0,.52.15,12.11.18,12.57a35,35,0,0,0,.53,3.75C425.22,449,426.46,449.91,429.46,449.84Z"/><path class="cls-6" d="M425.31,445.16s.26-.78.14-5.86a40.32,40.32,0,0,0-.69-7.07s0,2.49,0,3.11.21,6.52.23,7.05A20.72,20.72,0,0,0,425.31,445.16Z"/><path class="cls-11" d="M424.76,433.49V433a.2.2,0,0,1-.13.15.11.11,0,0,0-.13-.12c-.06,0-.74,0-1,.38s-.22.62-.11.62a7.11,7.11,0,0,0,1.09-.33.51.51,0,0,0,.08-.19Z"/><path class="cls-11" d="M433.4,433.29v-.52a.2.2,0,0,0,.13.14.11.11,0,0,1,.12-.13c.06,0,.74,0,1,.33s.25.61.14.62a7.11,7.11,0,0,1-1.11-.27.51.51,0,0,1-.09-.18Z"/><path class="cls-6" d="M429,430.6c3-.07,3.26.36,3.69.73s.13,2.94.08,3.38-.06.61-.18.54a11.49,11.49,0,0,0-7,.16c-.12.07-.14-.09-.2-.53s-.49-3-.08-3.38S426,430.67,429,430.6Z"/><path class="cls-6" d="M433.39,445s-.3-.76-.42-5.85a40.32,40.32,0,0,1,.35-7.09s.09,2.48.11,3.11.1,6.52.1,7.06A20.72,20.72,0,0,1,433.39,445Z"/><path class="cls-6" d="M429.42,447.9a7.73,7.73,0,0,0,2.75-.48c.77-.34.67-.74.67-.88s-.18-2.63-.19-2.73-.36.1-.72.21a19,19,0,0,1-5.21.12c-.36-.1-.72-.27-.73-.18s-.06,2.6-.06,2.73-.08.54.71.84A7.73,7.73,0,0,0,429.42,447.9Z"/><path class="cls-10" d="M338,220.68c-2.13,2.12-2.29,3.68-2.21,4a35,35,0,0,0,2.34,3c.31.34,8.6,8.44,8.94,8.84a30.2,30.2,0,0,0,2.15,2.31,3.86,3.86,0,0,0,2.85,1.16c1.33,0,2.93-1.5,3.24-1.81s1.85-1.9,1.83-3.23A3.86,3.86,0,0,0,356,232a30.2,30.2,0,0,0-2.29-2.17c-.39-.34-8.44-8.68-8.78-9a35,35,0,0,0-3-2.36C341.73,218.41,340.17,218.56,338,220.68Z"/><path class="cls-6" d="M344.27,221.22s.35.74,3.93,4.35a40.32,40.32,0,0,0,5.36,4.66L351.4,228c-.44-.45-4.64-4.59-5-5A20.72,20.72,0,0,0,344.27,221.22Z"/><path class="cls-11" d="M352.7,229.3l.37.37a.2.2,0,0,1,0-.2.11.11,0,0,0,.17,0s.54-.5.46-1-.27-.6-.35-.52a7.11,7.11,0,0,0-.57,1,.51.51,0,0,0,.07.19Z"/><path class="cls-11" d="M346.57,235.4l.37.37a.2.2,0,0,0-.2,0,.11.11,0,0,1,0,.17s-.5.54-1,.46-.6-.27-.52-.35a7.11,7.11,0,0,1,1-.56.51.51,0,0,1,.19.07Z"/><path class="cls-6" d="M351.62,234.32c-2.11,2.1-2.61,2-3.17,2s-2.11-2-2.38-2.4-.38-.48-.25-.52a11.49,11.49,0,0,0,4.93-4.9c0-.13.16,0,.51.25s2.42,1.84,2.38,2.4S353.73,232.22,351.62,234.32Z"/><path class="cls-6" d="M338.54,226.92s.74.35,4.33,4a40.32,40.32,0,0,1,4.63,5.39l-2.22-2.18c-.44-.44-4.56-4.67-4.93-5.05A20.72,20.72,0,0,1,338.54,226.92Z"/><path class="cls-6" d="M339.41,222.06a7.73,7.73,0,0,0-1.67,2.24c-.33.77,0,1,.12,1.1l2,1.85c.07.06.2-.32.38-.65a19,19,0,0,1,3.69-3.67c.33-.18.71-.3.65-.37l-1.84-2c-.1-.1-.32-.45-1.1-.13A7.73,7.73,0,0,0,339.41,222.06Z"/><path class="cls-10" d="M400.63,263.42c-2.13,2.12-2.29,3.68-2.21,4a35,35,0,0,0,2.34,3c.31.34,8.6,8.44,8.94,8.84a30.2,30.2,0,0,0,2.15,2.31,3.86,3.86,0,0,0,2.85,1.16c1.33,0,2.93-1.5,3.24-1.81s1.85-1.9,1.83-3.23a3.86,3.86,0,0,0-1.14-2.86,30.2,30.2,0,0,0-2.29-2.17c-.39-.34-8.44-8.68-8.78-9a35,35,0,0,0-3-2.36C404.32,261.15,402.76,261.3,400.63,263.42Z"/><path class="cls-6" d="M406.87,264s.35.74,3.93,4.35a40.32,40.32,0,0,0,5.36,4.66L414,270.74c-.44-.45-4.64-4.59-5-5A20.72,20.72,0,0,0,406.87,264Z"/><path class="cls-11" d="M415.3,272l.37.37a.2.2,0,0,1,0-.2.11.11,0,0,0,.17,0s.54-.5.46-1-.27-.6-.35-.52a7.11,7.11,0,0,0-.57,1,.51.51,0,0,0,.07.19Z"/><path class="cls-11" d="M409.17,278.14l.37.37a.2.2,0,0,0-.2,0,.11.11,0,0,1,0,.17s-.5.54-1,.46-.6-.27-.52-.35a7.11,7.11,0,0,1,1-.56.51.51,0,0,1,.19.07Z"/><path class="cls-6" d="M414.21,277.06c-2.11,2.1-2.61,2-3.17,2s-2.11-2-2.38-2.4-.38-.48-.25-.52a11.49,11.49,0,0,0,4.93-4.9c0-.13.16,0,.51.25s2.42,1.84,2.38,2.4S416.32,275,414.21,277.06Z"/><path class="cls-6" d="M401.14,269.66s.74.35,4.33,4a40.32,40.32,0,0,1,4.63,5.39l-2.22-2.18c-.44-.44-4.56-4.67-4.93-5.05A20.72,20.72,0,0,1,401.14,269.66Z"/><path class="cls-6" d="M402,264.8a7.73,7.73,0,0,0-1.67,2.24c-.33.77,0,1,.12,1.1l2,1.85c.07.06.2-.32.38-.65a19,19,0,0,1,3.69-3.67c.33-.18.71-.3.65-.37l-1.84-2c-.1-.1-.32-.45-1.1-.13A7.73,7.73,0,0,0,402,264.8Z"/><path class="cls-10" d="M361.5,111.38c-2.13,2.12-2.29,3.68-2.21,4a35,35,0,0,0,2.34,3c.31.34,8.6,8.44,8.94,8.84a30.2,30.2,0,0,0,2.15,2.31,3.86,3.86,0,0,0,2.85,1.16c1.33,0,2.93-1.5,3.24-1.81s1.85-1.9,1.83-3.23a3.86,3.86,0,0,0-1.14-2.86,30.2,30.2,0,0,0-2.29-2.17c-.39-.34-8.44-8.68-8.78-9a35,35,0,0,0-3-2.36C365.19,109.1,363.63,109.26,361.5,111.38Z"/><path class="cls-6" d="M367.73,111.92s.35.74,3.93,4.35a40.32,40.32,0,0,0,5.36,4.66l-2.16-2.23c-.44-.45-4.64-4.59-5-5A20.72,20.72,0,0,0,367.73,111.92Z"/><path class="cls-11" d="M376.16,120l.37.37a.2.2,0,0,1,0-.2.11.11,0,0,0,.17,0s.54-.5.46-1-.27-.6-.35-.52a7.11,7.11,0,0,0-.57,1,.51.51,0,0,0,.07.19Z"/><path class="cls-11" d="M370,126.09l.37.37a.2.2,0,0,0-.2,0,.11.11,0,0,1,0,.17s-.5.54-1,.46-.6-.27-.52-.35a7.11,7.11,0,0,1,1-.56.51.51,0,0,1,.19.07Z"/><path class="cls-6" d="M375.08,125c-2.11,2.1-2.61,2-3.17,2s-2.11-2-2.38-2.4-.38-.48-.25-.52a11.49,11.49,0,0,0,4.93-4.9c0-.13.16,0,.51.25s2.42,1.84,2.38,2.4S377.19,122.92,375.08,125Z"/><path class="cls-6" d="M362,117.61s.74.35,4.33,4A40.32,40.32,0,0,1,371,127l-2.22-2.18c-.44-.44-4.56-4.67-4.93-5.05A20.72,20.72,0,0,1,362,117.61Z"/><path class="cls-6" d="M362.87,112.76A7.73,7.73,0,0,0,361.2,115c-.33.77,0,1,.12,1.1l2,1.85c.07.06.2-.32.38-.65a19,19,0,0,1,3.69-3.67c.33-.18.71-.3.65-.37l-1.84-2c-.1-.1-.32-.45-1.1-.13A7.73,7.73,0,0,0,362.87,112.76Z"/><path class="cls-10" d="M430.44,112.75c-2.13,2.12-2.29,3.68-2.21,4a35,35,0,0,0,2.34,3c.31.34,8.6,8.44,8.94,8.84a30.2,30.2,0,0,0,2.15,2.31,3.86,3.86,0,0,0,2.85,1.16c1.33,0,2.93-1.5,3.24-1.81s1.85-1.9,1.83-3.23a3.86,3.86,0,0,0-1.14-2.86,30.2,30.2,0,0,0-2.29-2.17c-.39-.34-8.44-8.68-8.78-9a35,35,0,0,0-3-2.36C434.13,110.47,432.57,110.63,430.44,112.75Z"/><path class="cls-6" d="M436.68,113.29s.35.74,3.93,4.35A40.32,40.32,0,0,0,446,122.3l-2.16-2.23c-.44-.45-4.64-4.59-5-5A20.72,20.72,0,0,0,436.68,113.29Z"/><path class="cls-11" d="M445.11,121.37l.37.37a.2.2,0,0,1,0-.2.11.11,0,0,0,.17,0s.54-.5.46-1-.27-.6-.35-.52a7.11,7.11,0,0,0-.57,1,.51.51,0,0,0,.07.19Z"/><path class="cls-11" d="M439,127.46l.37.37a.2.2,0,0,0-.2,0,.11.11,0,0,1,0,.17s-.5.54-1,.46-.6-.27-.52-.35a7.11,7.11,0,0,1,1-.56.51.51,0,0,1,.19.07Z"/><path class="cls-6" d="M444,126.39c-2.11,2.1-2.61,2-3.17,2s-2.11-2-2.38-2.4-.38-.48-.25-.52a11.49,11.49,0,0,0,4.93-4.9c0-.13.16,0,.51.25s2.42,1.84,2.38,2.4S446.13,124.29,444,126.39Z"/><path class="cls-6" d="M430.94,119s.74.35,4.33,4a40.32,40.32,0,0,1,4.63,5.39l-2.22-2.18c-.44-.44-4.56-4.67-4.93-5.05A20.72,20.72,0,0,1,430.94,119Z"/><path class="cls-6" d="M431.82,114.13a7.73,7.73,0,0,0-1.67,2.24c-.33.77,0,1,.12,1.1l2,1.85c.07.06.2-.32.38-.65a19,19,0,0,1,3.69-3.67c.33-.18.71-.3.65-.37l-1.84-2c-.1-.1-.32-.45-1.1-.13A7.73,7.73,0,0,0,431.82,114.13Z"/><rect class="cls-12" x="131.43" y="174.17" width="86" height="30" transform="translate(185.98 -67.88) rotate(45.25)"/><line class="cls-13" x1="144.16" y1="158.64" x2="204.7" y2="219.71"/><rect class="cls-12" x="86.23" y="50.1" width="86" height="30" transform="translate(192.44 -65.06) rotate(89.17)"/><line class="cls-13" x1="128.6" y1="22.1" x2="129.85" y2="108.1"/><path class="cls-7" d="M591.18,460.95c18.16-6.68,109-41.59,145.66-44.12s84.08-17.89,53.1-62.11-120.69-60.8-169.12-29.93c-47.56,30.32-67.56,76.7-67.75,109.37S586.14,462.81,591.18,460.95Z"/><polyline class="cls-14" points="173.82 339.4 188.73 324.05 241.32 375.56 306.51 374.61 389.06 290.89 396.14 297.77"/><line class="cls-14" x1="221.94" y1="421.72" x2="241.32" y2="375.56"/><line class="cls-14" x1="341.2" y1="421.24" x2="306.52" y2="374.61"/><line class="cls-14" x1="274.18" y1="420.97" x2="273.55" y2="377.47"/><line class="cls-14" x1="212.21" y1="423.12" x2="519.06" y2="418.79"/><polyline class="cls-14" points="341.66 659.67 353.82 636.58 350.75 424.6"/><path class="cls-7" d="M461.62,553c7.54-7.46,33.39-33,45.08-41.66s24.83-24.36-.36-24.5-49.18.71-60.68.88-25.09,9.62-24.94,20.36-.88,23.93.48,33,9.7,15.11,15,17.31S448.39,566.09,461.62,553Z"/><circle class="cls-7" cx="630.38" cy="110.34" r="21" transform="translate(-1.54 9.17) rotate(-0.83)"/><path class="cls-7" d="M342.71-21.68s-36.3-40.87-39.09-44.08-3.8-3.7-2.87,9,.4,27.5.4,27.5l28-.41.5,241.19-33.5.49s-3.46,37.53-3.34,45.37,8.74,20.74,13.56,15.77-9.23-15.83-9.23-15.83,160.16-176.77,170.71-184c8.48-5.8,12.14-7.11,13.27,5.14.58,6.33.72,9.23.22,14.33-.47,4.81-4.39,12.06-12.07,5.51S342.71-21.68,342.71-21.68Z"/><line class="cls-14" x1="119.54" y1="134.79" x2="232.01" y2="133.8"/><path class="cls-14" d="M230.51-84.2c.65,30.74,3.57,108.29,4.11,145s-3.16,159.71-3.16,159.71"/><path class="cls-14" d="M23.91,144.53l28.53-.41s.68,32.66,17.5,54.54a258,258,0,0,0,35.42,37.28L88.8,250.77"/><path class="cls-14" d="M55-85.54,73.67-67.4S53.2-46.33,49.62-19a270.74,270.74,0,0,0-1.17,53.23l-24.31.58"/><line class="cls-14" x1="324.76" y1="462.51" x2="349.12" y2="462.16"/><path class="cls-6" d="M129.31,551.44l-1.08-74.34,33.25-.48c7.25-.11,17.11,7.25,17.25,16.75s-4,15.81-13.73,19.2l.56,38.35Z"/><polyline class="cls-14" points="495.33 204.9 484.62 194.73 529.87 143.17"/><polygon class="cls-12" points="448.57 254.37 449.42 253.55 447.81 251.81 463.67 236.71 465.34 238.4 485.59 219.12 483.13 216.53 492.68 207.43 491.87 206.56 519.32 180.43 566.81 230.3 561.71 235.3 588.31 263.24 576.31 274.66 578.79 277.23 560.52 294.63 553.13 286.87 522.39 316.13 524.73 318.59 508.9 333.48 506.65 331.12 475.92 360.38 483.31 368.15 465.04 385.55 462.59 382.94 450.6 394.37 423.99 366.43 418.75 371.29 371.26 321.41 398.7 295.27 399.54 296.13 409.1 287.02 411.56 289.61 431.81 270.33 430.2 268.57 446.06 253.47 447.72 255.17 448.57 254.37"/><polyline class="cls-13" points="462.59 382.94 463.7 366.67 480.7 365.69"/><polyline class="cls-13" points="423.99 366.43 424.55 337.72 475.92 360.38"/><polyline class="cls-13" points="424.67 338.05 452.06 366.82 450.6 394.37"/><polyline class="cls-13" points="398.29 295.93 395.34 321.27 396.36 322.33 405.79 323 409.1 287.02"/><line class="cls-13" x1="396.73" y1="322.73" x2="399.79" y2="295.96"/><line class="cls-13" x1="372.07" y1="321.35" x2="395.34" y2="321.27"/><polyline class="cls-13" points="405.79 323 418.22 336.05 418.75 371.29"/><polyline class="cls-13" points="431.81 270.33 452.94 276.6 447.72 255.17"/><line class="cls-13" x1="452.95" y1="276.6" x2="438.12" y2="261.03"/><polyline class="cls-13" points="452.06 366.82 463.73 366.65 463.73 366.65 473.38 376.78"/><polyline class="cls-13" points="522.39 316.13 490.94 298.86 506.65 331.12"/><polyline class="cls-13" points="576.31 274.66 560 274.97 558.2 291.91"/><polyline class="cls-13" points="561.71 235.3 533.01 234.45 553.13 286.87"/><polyline class="cls-13" points="533.33 234.59 560.72 263.35 588.31 263.24"/><polyline class="cls-13" points="492.54 206.18 518 204.47 519.02 205.54 519.22 214.99 483.13 216.53"/><line class="cls-13" x1="519.39" y1="205.93" x2="492.51" y2="207.68"/><line class="cls-13" x1="519.22" y1="181.24" x2="518" y2="204.47"/><polyline class="cls-13" points="519.22 214.99 531.65 228.05 566.81 230.3"/><polyline class="cls-13" points="485.59 219.12 531.65 228.05 474.93 282.05 418.22 336.05 411.56 289.61"/><polyline class="cls-13" points="465.34 238.4 470.56 259.82 449.42 253.55"/><line class="cls-13" x1="470.56" y1="259.82" x2="455.74" y2="244.25"/><polyline class="cls-13" points="560.72 263.35 559.98 275 559.98 275 569.63 285.13"/><line class="cls-13" x1="490.94" y1="298.85" x2="516.69" y2="325.91"/><polygon class="cls-12" points="123.92 292.84 124.74 293.68 126.48 292.07 141.58 307.93 139.89 309.61 159.17 329.85 161.76 327.39 170.86 336.95 171.73 336.14 197.86 363.58 147.99 411.08 142.99 405.97 115.05 432.57 103.63 420.58 101.06 423.06 83.66 404.78 91.42 397.39 62.16 366.66 59.7 369 44.81 353.17 47.17 350.92 17.91 320.19 10.14 327.58 -7.26 309.3 -4.66 306.86 -16.08 294.86 11.86 268.26 7 263.01 56.88 215.52 83.02 242.97 82.16 243.8 91.26 253.36 88.68 255.82 107.96 276.07 109.71 274.46 124.82 290.32 123.12 291.99 123.92 292.84"/><polyline class="cls-13" points="-4.66 306.86 11.62 307.96 12.59 324.97"/><polyline class="cls-13" points="11.86 268.26 40.57 268.81 17.91 320.19"/><polyline class="cls-13" points="40.23 268.94 11.47 296.32 -16.08 294.86"/><polyline class="cls-13" points="91.26 253.36 55.29 250.05 55.95 240.62 57.02 239.61 82.36 242.56"/><line class="cls-13" x1="55.56" y1="241" x2="82.33" y2="244.06"/><line class="cls-13" x1="57.02" y1="239.61" x2="56.94" y2="216.34"/><polyline class="cls-13" points="55.29 250.05 42.24 262.49 7 263.01"/><polyline class="cls-13" points="107.96 276.07 101.69 297.21 123.12 291.99"/><line class="cls-13" x1="101.69" y1="297.21" x2="117.26" y2="282.39"/><polyline class="cls-13" points="11.47 296.32 11.64 307.99 11.64 307.99 1.51 317.64"/><polyline class="cls-13" points="62.16 366.66 79.44 335.2 47.17 350.92"/><polyline class="cls-13" points="103.63 420.58 103.32 404.27 86.38 402.46"/><polyline class="cls-13" points="142.99 405.97 143.84 377.27 91.42 397.39"/><polyline class="cls-13" points="143.7 377.6 114.94 404.98 115.05 432.57"/><polyline class="cls-13" points="172.11 336.81 173.82 362.26 172.75 363.28 163.3 363.48 161.76 327.39"/><line class="cls-13" x1="172.36" y1="363.66" x2="170.61" y2="336.77"/><line class="cls-13" x1="197.05" y1="363.49" x2="173.82" y2="362.26"/><polyline class="cls-13" points="163.3 363.48 150.24 375.91 147.99 411.08"/><polyline class="cls-13" points="159.17 329.85 150.24 375.91 96.24 319.2 42.24 262.49 88.68 255.82"/><polyline class="cls-13" points="139.89 309.61 118.47 314.83 124.74 293.68"/><line class="cls-13" x1="118.47" y1="314.83" x2="134.04" y2="300"/><polyline class="cls-13" points="114.94 404.98 103.29 404.24 103.29 404.24 93.16 413.89"/><line class="cls-13" x1="79.43" y1="335.2" x2="52.38" y2="360.96"/><polygon class="cls-12" points="325.16 528.3 325.18 529.39 327.88 529.39 328.18 549.77 325.47 549.85 325.85 575.87 329.91 575.81 330.09 588.09 331.44 588.09 331.96 623.35 253.65 624.49 253.44 617.84 209.58 618.48 209.35 603.07 205.29 603.15 204.95 579.66 217.14 579.49 216.56 540 212.71 540.05 212.56 519.82 216.27 519.77 215.69 480.28 203.51 480.46 203.17 456.97 207.23 456.94 207.01 441.52 250.87 440.88 250.88 434.23 329.19 433.1 329.7 468.37 328.35 468.4 328.53 480.68 324.47 480.74 324.85 506.76 327.55 506.76 327.85 527.14 325.15 527.21 325.16 528.3"/><polyline class="cls-13" points="207.23 456.94 219.92 467.94 207.57 480.21"/><polyline class="cls-13" points="250.87 440.88 274.35 459.34 215.69 480.28"/><polyline class="cls-13" points="273.97 459.22 228.81 459.88 207.01 441.52"/><polyline class="cls-13" points="329.48 467.67 310.66 449.69 308.99 449.71 301.13 455.76 328.53 480.68"/><line class="cls-13" x1="308.37" y1="449.72" x2="328.29" y2="468.68"/><line class="cls-13" x1="328.61" y1="433.69" x2="310.66" y2="449.69"/><polyline class="cls-13" points="301.13 455.76 280.64 456.06 250.88 434.23"/><polyline class="cls-13" points="228.81 459.88 219.92 467.98 219.92 467.98 204.01 468.21"/><polyline class="cls-13" points="325.85 575.87 282.75 601.81 281.69 528.93 280.64 456.06 324.47 480.74"/><polygon class="cls-12" points="21.57 89.84 21.6 91.01 23.97 91.01 24.29 112.91 21.91 112.99 22.32 140.95 25.89 140.9 26.08 154.09 27.27 154.09 27.82 191.99 -41.04 192.99 -41.24 185.84 -79.82 186.4 -80.06 169.84 -83.63 169.92 -84 144.68 -73.28 144.53 -73.89 102.1 -77.28 102.15 -77.47 80.41 -74.21 80.36 -74.83 37.93 -85.54 38.09 -85.91 12.85 -82.34 12.83 -82.58 -3.73 -44.01 -4.29 -44.01 -11.44 24.85 -12.44 25.4 25.45 24.21 25.49 24.41 38.68 20.83 38.74 21.24 66.69 23.62 66.7 23.94 88.6 21.57 88.67 21.57 89.84"/><polyline class="cls-13" points="25.21 24.71 8.61 5.34 7.13 5.36 0.24 11.83 24.41 38.68"/><line class="cls-13" x1="6.59" y1="5.36" x2="24.16" y2="25.79"/><line class="cls-13" x1="24.34" y1="-11.81" x2="8.6" y2="5.34"/><polyline class="cls-13" points="0.24 11.83 -17.78 12.09 -44.01 -11.44"/><polyline class="cls-13" points="21.24 66.69 2.29 77.96 21.57 88.67"/><line class="cls-13" x1="2.29" y1="77.96" x2="23.78" y2="77.64"/><polyline class="cls-13" points="27.1 154.84 11.06 174.69 9.59 174.71 2.52 168.44 25.89 140.9"/><line class="cls-13" x1="9.05" y1="174.72" x2="26.02" y2="153.79"/><line class="cls-13" x1="27.29" y1="191.36" x2="11.06" y2="174.69"/><polyline class="cls-13" points="2.52 168.44 -15.51 168.7 -41.04 192.99"/><polyline class="cls-13" points="22.32 140.95 -15.51 168.7 -16.65 90.4 -17.78 12.09 20.83 38.74"/><polyline class="cls-13" points="21.91 112.99 2.64 102.28 21.6 91.01"/><line class="cls-13" x1="2.64" y1="102.28" x2="24.13" y2="101.97"/><rect class="cls-12" x="339.57" y="173.57" width="86" height="30" transform="matrix(-0.67, 0.74, -0.74, -0.67, 779.88, 33.44)"/><line class="cls-13" x1="411.58" y1="156.83" x2="353.56" y2="220.3"/><rect class="cls-12" x="342.75" y="-19.34" width="86" height="30" transform="translate(103.52 -267.33) rotate(43.62)"/><line class="cls-13" x1="354.62" y1="-34" x2="416.88" y2="25.33"/></g></g></svg>