<svg xmlns="http://www.w3.org/2000/svg" viewBox="0 0 713.75 402.34"><defs><style>.cls-1,.cls-4,.cls-5{fill:#73cbcb;stroke:#fff;stroke-miterlimit:10;}.cls-1{stroke-width:1.68px;}.cls-2{fill:#deede7;}.cls-10,.cls-3,.cls-7,.cls-8,.cls-9{fill:#576571;}.cls-4{stroke-width:2.42px;}.cls-5{stroke-width:3.23px;}.cls-6{fill:#fff;}.cls-7{font-size:40px;}.cls-10,.cls-7,.cls-8,.cls-9{font-family:Gotham-Bold, Gotham;font-weight:700;}.cls-8{font-size:29.35px;}.cls-9{font-size:20.12px;}.cls-10{font-size:14.02px;}</style></defs><title>Asset 2</title><g id="Layer_2" data-name="Layer 2"><g id="Industrial_-_Panel_2" data-name="Industrial - Panel 2"><polygon class="cls-1" points="160.16 384.94 1.42 261.67 103.07 192.24 160.16 384.94"/><polygon class="cls-2" points="160.41 384.77 32.76 285.23 114.12 229.66 160.41 384.77"/><polygon class="cls-3" points="160.41 384.77 87.24 327.72 133.88 295.86 160.41 384.77"/><polygon class="cls-4" points="162.21 384.93 77.08 107.51 254.81 109.92 162.21 384.93"/><polygon class="cls-2" points="162.65 384.94 94.7 161.37 236.62 163.29 162.65 384.94"/><polygon class="cls-3" points="162.65 384.94 123.7 256.79 205.05 257.89 162.65 384.94"/><polygon class="cls-4" points="157.91 384.57 288.96 1.97 487.46 150.14 157.91 384.57"/><polygon class="cls-2" points="158.4 384.94 264.56 76.99 423.45 195.6 158.4 384.94"/><polygon class="cls-3" points="158.4 384.94 219.25 208.43 310.32 276.42 158.4 384.94"/><polygon class="cls-5" points="162.51 384.15 608.14 63.46 711.53 383.45 162.51 384.15"/><polygon class="cls-2" points="162.77 384.94 522.19 127.37 604.95 383.5 162.77 384.94"/><polygon class="cls-3" points="162.77 384.94 368.78 237.31 416.21 384.11 162.77 384.94"/><circle class="cls-6" cx="162.28" cy="379.74" r="22.59"/><text class="cls-7" transform="translate(447.46 234.83) rotate(71.81)">2.4 M</text><text class="cls-8" transform="matrix(0.8, 0.6, -0.6, 0.8, 270.14, 167.95)">2.4 M</text><text class="cls-9" transform="translate(136.59 211.73) rotate(-0.08)">2.4 M</text><text class="cls-10" transform="translate(76.9 296.04) rotate(-34.42)">2.4 M</text></g></g></svg>