<svg xmlns="http://www.w3.org/2000/svg" xmlns:xlink="http://www.w3.org/1999/xlink" viewBox="0 0 1000 500"><defs><style>.cls-1,.cls-7{fill:#fff;}.cls-1{stroke:#231f20;}.cls-1,.cls-12,.cls-13,.cls-14,.cls-15,.cls-7,.cls-8{stroke-miterlimit:10;}.cls-2{mask:url(#mask);}.cls-3{fill:#e6e7e8;}.cls-4{fill:url(#linear-gradient);}.cls-14,.cls-5{fill:#d0e5ab;}.cls-6{fill:#d1d3d4;}.cls-12,.cls-13,.cls-7{stroke:#434f5c;}.cls-12,.cls-13,.cls-15,.cls-8{fill:none;}.cls-15,.cls-8{stroke:#fff;}.cls-8{stroke-linecap:round;stroke-width:1.52px;}.cls-9{fill:#323c47;}.cls-10{fill:#deede7;}.cls-11{fill:#576571;}.cls-13{stroke-width:0.5px;}.cls-14{stroke:#d1d3d4;stroke-width:2px;}.cls-15{stroke-width:1.73px;}.cls-16{fill:#7dc46e;}.cls-17{fill:#434f5c;}</style><mask id="mask" x="-280.2" y="-464.67" width="1534.68" height="1332.75" maskUnits="userSpaceOnUse"><rect class="cls-1" x="-2.32" y="-0.01" width="1001.66" height="501.03" transform="translate(997.01 501) rotate(-180)"/></mask><linearGradient id="linear-gradient" x1="149.11" y1="-167.72" x2="430.08" y2="-130.23" gradientTransform="matrix(3.13, 0, 0, -2.09, -187.29, -146.47)" gradientUnits="userSpaceOnUse"><stop offset="0.31" stop-color="#fff"/><stop offset="0.39" stop-color="#fff" stop-opacity="0.86"/><stop offset="0.48" stop-color="#fff" stop-opacity="0.74"/><stop offset="0.52" stop-color="#fff" stop-opacity="0.7"/><stop offset="0.54" stop-color="#fff" stop-opacity="0.61"/><stop offset="0.56" stop-color="#fff" stop-opacity="0.47"/><stop offset="0.59" stop-color="#fff" stop-opacity="0.34"/><stop offset="0.62" stop-color="#fff" stop-opacity="0.23"/><stop offset="0.65" stop-color="#fff" stop-opacity="0.15"/><stop offset="0.69" stop-color="#fff" stop-opacity="0.08"/><stop offset="0.74" stop-color="#fff" stop-opacity="0.03"/><stop offset="0.81" stop-color="#fff" stop-opacity="0.01"/><stop offset="1" stop-color="#fff" stop-opacity="0"/></linearGradient></defs><title>bg-office-panel-1</title><g id="Industrial_-_Panel_1" data-name="Industrial - Panel 1"><g class="cls-2"><rect class="cls-3" x="-2.32" y="-0.01" width="1001.66" height="501.03" transform="translate(997.01 501) rotate(-180)"/><rect class="cls-4" x="379.09" y="-371.15" width="681.53" height="1073" transform="translate(1442.57 12.97) rotate(155.16)"/><rect class="cls-5" x="-94.45" y="-10.12" width="387.59" height="681.81" transform="translate(405.81 490.05) rotate(134.18)"/><rect class="cls-6" x="240.85" y="-115.48" width="15.52" height="642.17" transform="translate(569.31 170.59) rotate(134.18)"/><rect class="cls-6" x="264.79" y="338.54" width="15.52" height="610.45" transform="translate(19.4 1295.41) rotate(-135.82)"/><rect class="cls-6" x="18.97" y="56.95" width="15.52" height="390.83" transform="translate(183.42 52.74) rotate(44.18)"/><rect class="cls-6" x="4.67" y="264.79" width="22" height="40.94" transform="translate(231.17 472.81) rotate(134.18)"/><polyline class="cls-6" points="227.49 255.37 245.31 237.04 246.44 213.05 308.98 273.81 285.03 275.63 267.21 293.97"/><path class="cls-7" d="M36.39,293.42l-7.13-6.91c-5.81,6.44.54,13.15.54,13.15s-6.73-6.49-13.12-.19l7.13,6.91L-43,375.1,210,621,413.76,411.26,296.9,297.72l-20.25,2.51-9.31-9,6.78-7c-5.49-5-11.43-.55-13,.7l-23-22.33s6.49-6.73.19-13.12l-6.78,7h0l-9.91-9.63,3.66-18.62-64.58-62.75Z"/><line class="cls-8" x1="423.21" y1="215.76" x2="551.03" y2="84.39"/><line class="cls-8" x1="473.79" y1="228.34" x2="409.25" y2="165.54"/><line class="cls-8" x1="455.48" y1="247.16" x2="390.94" y2="184.36"/><line class="cls-8" x1="492.11" y1="209.51" x2="427.57" y2="146.71"/><line class="cls-8" x1="510.21" y1="190.91" x2="445.67" y2="128.11"/><line class="cls-8" x1="528.53" y1="172.09" x2="463.98" y2="109.29"/><line class="cls-8" x1="528.53" y1="172.09" x2="463.98" y2="109.29"/><line class="cls-8" x1="546.84" y1="153.26" x2="482.3" y2="90.46"/><line class="cls-8" x1="565.16" y1="134.44" x2="500.61" y2="71.64"/><line class="cls-8" x1="583.26" y1="115.83" x2="518.72" y2="53.04"/><line class="cls-8" x1="532.85" y1="103" x2="660.67" y2="-28.37"/><line class="cls-8" x1="583.43" y1="115.58" x2="518.89" y2="52.78"/><line class="cls-8" x1="565.12" y1="134.4" x2="500.58" y2="71.6"/><line class="cls-8" x1="601.75" y1="96.75" x2="537.21" y2="33.95"/><line class="cls-8" x1="619.85" y1="78.15" x2="555.31" y2="15.35"/><line class="cls-8" x1="638.17" y1="59.32" x2="573.63" y2="-3.48"/><line class="cls-8" x1="638.17" y1="59.32" x2="573.63" y2="-3.48"/><line class="cls-8" x1="656.48" y1="40.5" x2="591.94" y2="-22.3"/><line class="cls-8" x1="674.8" y1="21.68" x2="610.26" y2="-41.12"/><line class="cls-8" x1="692.9" y1="3.07" x2="628.36" y2="-59.73"/><line class="cls-8" x1="306.76" y1="102.56" x2="434.58" y2="-28.81"/><line class="cls-8" x1="357.34" y1="115.14" x2="292.8" y2="52.34"/><line class="cls-8" x1="339.03" y1="133.96" x2="274.49" y2="71.16"/><line class="cls-8" x1="375.66" y1="96.32" x2="311.12" y2="33.52"/><line class="cls-8" x1="393.76" y1="77.71" x2="329.22" y2="14.91"/><line class="cls-8" x1="412.08" y1="58.89" x2="347.53" y2="-3.91"/><line class="cls-8" x1="412.08" y1="58.89" x2="347.53" y2="-3.91"/><line class="cls-8" x1="430.39" y1="40.06" x2="365.85" y2="-22.74"/><line class="cls-8" x1="448.71" y1="21.24" x2="384.16" y2="-41.56"/><line class="cls-8" x1="466.81" y1="2.64" x2="402.27" y2="-60.16"/><path class="cls-9" d="M408.83,135.26c.74-4.32,2.47-5.82,2.87-5.95a51.07,51.07,0,0,1,5.52.3c.67.08,17.29,3.2,18,3.28a44,44,0,0,1,4.56.64,5.63,5.63,0,0,1,3.77,2.44c1.14,1.56.66,4.75.55,5.38s-.72,3.8-2.32,4.89a5.63,5.63,0,0,1-4.37,1,44,44,0,0,1-4.51-.93c-.74-.18-17.44-2.81-18.1-3a51.07,51.07,0,0,1-5.3-1.57C409.21,141.56,408.09,139.57,408.83,135.26Z"/><path class="cls-10" d="M414.7,142.25s1.18-.21,8.49,1.05,6.84,1.69,10.05,2.5l-4.48-.71c-.9-.15-9.36-1.7-10.13-1.85A30.22,30.22,0,0,1,414.7,142.25Z"/><path class="cls-11" d="M431.41,145.55l.75.13a.29.29,0,0,0-.24.15.17.17,0,0,1,.15.21c0,.09-.14,1.06-.76,1.35s-.94.19-.92,0a10.36,10.36,0,0,1,.7-1.51.74.74,0,0,1,.29-.08Z"/><path class="cls-11" d="M433.55,133.13l.75.13a.29.29,0,0,1-.18-.22.17.17,0,0,0,.21-.15c0-.09.22-1.05-.26-1.53s-.82-.49-.86-.33a10.36,10.36,0,0,0,.16,1.66.74.74,0,0,0,.24.17Z"/><path class="cls-10" d="M436.49,140.05c.74-4.28.17-4.78-.26-5.47s-4.21-.81-4.86-.84-.89,0-.82.14c.55,1.42.08,4.13-.09,5.13s-.64,3.72-1.64,4.86c-.13.15.1.21.73.41s4.22,1.35,4.86.84S435.76,144.33,436.49,140.05Z"/><path class="cls-10" d="M416.7,130.63s1,.59,8.35,1.85,7,.7,10.31,1l-4.46-.83c-.9-.16-9.39-1.54-10.16-1.65A30.22,30.22,0,0,0,416.7,130.63Z"/><path class="cls-10" d="M411.63,135.74a11.28,11.28,0,0,1,1.28-3.87c.65-1,1.21-.81,1.41-.78l3.9.85c.13,0-.22.5-.46,1a27.67,27.67,0,0,0-1.29,7.49c.06.54.24,1.1.1,1.09l-4-.5c-.2,0-.8,0-1.07-1.2A11.28,11.28,0,0,1,411.63,135.74Z"/><path class="cls-9" d="M490.1-24.88c4.34-.59,6.29.61,6.54.95A51.07,51.07,0,0,1,498-18.57c.12.67,2.15,17.45,2.3,18.19a44,44,0,0,1,.76,4.54,5.63,5.63,0,0,1-1.19,4.33c-1.15,1.56-4.33,2.06-5,2.14s-3.84.45-5.36-.74A5.63,5.63,0,0,1,487.25,6a44,44,0,0,1-.47-4.58C486.73.7,484.21-16,484.15-16.7a51.07,51.07,0,0,1-.1-5.53C484.2-22.62,485.76-24.29,490.1-24.88Z"/><path class="cls-10" d="M485.19-17.18s.55,1.06,1.55,8.41.45,7,.64,10.34c0,.06-.54-3.59-.67-4.49s-1.19-9.44-1.28-10.21A30.22,30.22,0,0,1,485.19-17.18Z"/><path class="cls-11" d="M487.08-.25l.1.75A.29.29,0,0,0,487,.32a.17.17,0,0,1-.15.2c-.09,0-1.06.18-1.52-.32s-.46-.84-.3-.87a10.36,10.36,0,0,1,1.65.22.74.74,0,0,1,.16.25Z"/><path class="cls-10" d="M493.85,2.95c4.3-.58,4.61-1.27,5.14-1.89s-.49-4.26-.66-4.89-.22-.87-.38-.74c-1.18,1-3.91,1.32-4.92,1.46s-3.74.51-5.13-.1c-.18-.08-.17.16-.17.82s0,4.43.66,4.89S489.55,3.53,493.85,2.95Z"/><path class="cls-9" d="M497.58,197.63c-3.06,3.14-5.33,3.4-5.73,3.28a51.07,51.07,0,0,1-4.38-3.37c-.51-.45-12.45-12.42-13-12.91a44,44,0,0,1-3.4-3.1,5.63,5.63,0,0,1-1.73-4.14c-.06-1.93,2.14-4.29,2.59-4.75s2.74-2.72,4.68-2.72a5.63,5.63,0,0,1,4.19,1.62,44,44,0,0,1,3.19,3.31c.51.56,12.8,12.17,13.26,12.67a51.07,51.07,0,0,1,3.49,4.29C500.84,192.21,500.63,194.49,497.58,197.63Z"/><path class="cls-10" d="M496.69,188.54s-1.09-.49-6.41-5.67-4.69-5.26-6.88-7.75l3.29,3.12c.66.63,6.76,6.7,7.31,7.25A30.22,30.22,0,0,1,496.69,188.54Z"/><path class="cls-11" d="M484.77,176.37l-.54-.53a.29.29,0,0,0,.29,0,.17.17,0,0,1,0-.25c.06-.07.72-.8,1.39-.69s.88.38.77.5a10.36,10.36,0,0,1-1.43.85.74.74,0,0,1-.28-.1Z"/><path class="cls-11" d="M476,185.41l-.54-.53a.29.29,0,0,1,0,.29.17.17,0,0,0-.25,0c-.07.07-.78.74-.65,1.41s.4.87.52.76a10.36,10.36,0,0,0,.81-1.45.74.74,0,0,0-.11-.28Z"/><path class="cls-10" d="M477.47,178c-3,3.11-2.85,3.84-2.88,4.66s3,3,3.54,3.44.71.54.76.35c.34-1.48,2.26-3.45,3-4.18s2.63-2.7,4.1-3.09c.19-.05,0-.23-.37-.75s-2.72-3.5-3.54-3.44S480.5,174.93,477.47,178Z"/><path class="cls-10" d="M488.47,197s-.52-1.08-5.84-6.25-5.39-4.54-7.93-6.66l3.21,3.21c.65.64,6.88,6.58,7.45,7.11A30.22,30.22,0,0,0,488.47,197Z"/><path class="cls-10" d="M495.54,195.65a11.28,11.28,0,0,1-3.24,2.47c-1.12.49-1.46,0-1.6-.16s-2.64-2.8-2.73-2.91.47-.29.94-.56a27.67,27.67,0,0,0,5.3-5.45c.26-.48.43-1,.53-1s2.84,2.51,3,2.65.66.46.2,1.6A11.28,11.28,0,0,1,495.54,195.65Z"/><path class="cls-9" d="M499.47,126.89c-3.06,3.14-5.33,3.4-5.73,3.28a51.07,51.07,0,0,1-4.38-3.37c-.51-.45-12.45-12.42-13-12.91a44,44,0,0,1-3.4-3.1,5.63,5.63,0,0,1-1.73-4.14c-.06-1.93,2.14-4.29,2.59-4.75s2.74-2.72,4.68-2.72a5.63,5.63,0,0,1,4.19,1.62,44,44,0,0,1,3.19,3.31c.51.56,12.8,12.17,13.26,12.67a51.07,51.07,0,0,1,3.49,4.29C502.72,121.48,502.52,123.75,499.47,126.89Z"/><path class="cls-10" d="M498.58,117.81s-1.09-.49-6.41-5.67-4.69-5.26-6.88-7.75l3.29,3.12c.66.63,6.76,6.7,7.31,7.25A30.22,30.22,0,0,1,498.58,117.81Z"/><path class="cls-11" d="M486.66,105.64l-.54-.53a.29.29,0,0,0,.29,0,.17.17,0,0,1,0-.25c.06-.07.72-.8,1.39-.69s.88.38.77.5a10.36,10.36,0,0,1-1.43.85.74.74,0,0,1-.28-.1Z"/><path class="cls-11" d="M477.87,114.67l-.54-.53a.29.29,0,0,1,0,.29.17.17,0,0,0-.25,0c-.07.07-.78.74-.65,1.41s.4.87.52.76a10.36,10.36,0,0,0,.81-1.45.74.74,0,0,0-.11-.28Z"/><path class="cls-10" d="M479.36,107.3c-3,3.11-2.85,3.84-2.88,4.66s3,3,3.54,3.44.71.54.76.35c.34-1.48,2.26-3.45,3-4.18s2.63-2.7,4.1-3.09c.19-.05,0-.23-.37-.75s-2.72-3.5-3.54-3.44S482.38,104.19,479.36,107.3Z"/><path class="cls-10" d="M490.36,126.26s-.52-1.08-5.84-6.25-5.39-4.54-7.93-6.66l3.21,3.21c.65.64,6.88,6.58,7.45,7.11A30.22,30.22,0,0,0,490.36,126.26Z"/><path class="cls-10" d="M497.43,124.91a11.28,11.28,0,0,1-3.24,2.47c-1.12.49-1.46,0-1.6-.16s-2.64-2.8-2.73-2.91.47-.29.94-.56a27.67,27.67,0,0,0,5.3-5.45c.26-.48.43-1,.53-1s2.84,2.51,3,2.65.66.46.2,1.6A11.28,11.28,0,0,1,497.43,124.91Z"/><path class="cls-9" d="M417.49,47c-3.06,3.14-5.33,3.4-5.73,3.28a51.07,51.07,0,0,1-4.38-3.37c-.51-.45-12.45-12.42-13-12.91a44,44,0,0,1-3.4-3.1,5.63,5.63,0,0,1-1.73-4.14c-.06-1.93,2.14-4.29,2.59-4.75s2.74-2.72,4.68-2.72a5.63,5.63,0,0,1,4.19,1.62,44,44,0,0,1,3.19,3.31c.51.56,12.8,12.17,13.26,12.67a51.07,51.07,0,0,1,3.49,4.29C420.74,41.56,420.54,43.84,417.49,47Z"/><path class="cls-10" d="M416.6,37.89s-1.09-.49-6.41-5.67-4.69-5.26-6.88-7.75l3.29,3.12c.66.63,6.76,6.7,7.31,7.25A30.22,30.22,0,0,1,416.6,37.89Z"/><path class="cls-11" d="M404.68,25.72l-.54-.53a.29.29,0,0,0,.29,0,.17.17,0,0,1,0-.25c.06-.07.72-.8,1.39-.69s.88.38.77.5a10.36,10.36,0,0,1-1.43.85.74.74,0,0,1-.28-.1Z"/><path class="cls-11" d="M395.89,34.75l-.54-.53a.29.29,0,0,1,0,.29.17.17,0,0,0-.25,0c-.07.07-.78.74-.65,1.41s.4.87.52.76a10.36,10.36,0,0,0,.81-1.45.74.74,0,0,0-.11-.28Z"/><path class="cls-10" d="M397.38,27.38c-3,3.11-2.85,3.84-2.88,4.66s3,3,3.54,3.44.71.54.76.35c.34-1.48,2.26-3.45,3-4.18s2.63-2.7,4.1-3.09c.19-.05,0-.23-.37-.75s-2.72-3.5-3.54-3.44S400.41,24.27,397.38,27.38Z"/><path class="cls-10" d="M408.38,46.34s-.52-1.08-5.84-6.25-5.39-4.54-7.93-6.66l3.21,3.21c.65.64,6.88,6.58,7.45,7.11A30.22,30.22,0,0,0,408.38,46.34Z"/><path class="cls-10" d="M415.45,45a11.28,11.28,0,0,1-3.24,2.47c-1.12.49-1.46,0-1.6-.16s-2.64-2.8-2.73-2.91.47-.29.94-.56a27.67,27.67,0,0,0,5.3-5.45c.26-.48.43-1,.53-1s2.84,2.51,3,2.65.66.46.2,1.6A11.28,11.28,0,0,1,415.45,45Z"/><path class="cls-9" d="M570.45,120.65c-2.94,3.24-5.21,3.58-5.61,3.48a51.07,51.07,0,0,1-4.5-3.21c-.52-.43-12.87-12-13.46-12.45a44,44,0,0,1-3.5-3,5.63,5.63,0,0,1-1.88-4.08c-.12-1.93,2-4.36,2.43-4.84s2.65-2.82,4.58-2.88a5.63,5.63,0,0,1,4.24,1.47,44,44,0,0,1,3.31,3.2c.53.55,13.21,11.73,13.69,12.2a51.07,51.07,0,0,1,3.63,4.17C573.51,115.13,573.39,117.41,570.45,120.65Z"/><path class="cls-10" d="M569.25,111.6s-1.11-.45-6.6-5.44-4.87-5.1-7.14-7.51l3.4,3c.68.61,7,6.46,7.55,7A30.22,30.22,0,0,1,569.25,111.6Z"/><path class="cls-11" d="M556.91,99.85l-.56-.51a.29.29,0,0,0,.29,0,.17.17,0,0,1,0-.25c.06-.07.69-.82,1.37-.74s.89.35.79.47a10.36,10.36,0,0,1-1.4.89.74.74,0,0,1-.28-.09Z"/><path class="cls-11" d="M548.44,109.18l-.56-.51a.29.29,0,0,1,0,.28.17.17,0,0,0-.25,0c-.06.07-.75.77-.6,1.43s.43.85.55.74a10.36,10.36,0,0,0,.76-1.48.74.74,0,0,0-.12-.27Z"/><path class="cls-10" d="M549.68,101.76c-2.92,3.21-2.71,3.94-2.72,4.76s3.12,2.94,3.65,3.32.73.52.77.32c.29-1.49,2.14-3.53,2.83-4.28s2.53-2.79,4-3.23c.19-.06,0-.24-.4-.73s-2.84-3.4-3.65-3.32S552.59,98.55,549.68,101.76Z"/><path class="cls-10" d="M561.32,120.33s-.56-1.06-6.05-6-5.54-4.36-8.16-6.39l3.32,3.09c.67.62,7.1,6.34,7.69,6.85A30.22,30.22,0,0,0,561.32,120.33Z"/><path class="cls-10" d="M568.34,118.74a11.28,11.28,0,0,1-3.15,2.58c-1.11.53-1.45,0-1.6-.1s-2.73-2.71-2.83-2.81.46-.31.92-.59a27.67,27.67,0,0,0,5.11-5.62c.24-.49.39-1.06.5-1s2.92,2.41,3.07,2.54.67.44.25,1.59A11.28,11.28,0,0,1,568.34,118.74Z"/><path class="cls-9" d="M482.22,219.33c-3.06,3.14-5.33,3.4-5.73,3.28a51.07,51.07,0,0,1-4.38-3.37c-.51-.45-12.45-12.42-13-12.91a44,44,0,0,1-3.4-3.1,5.63,5.63,0,0,1-1.73-4.14c-.06-1.93,2.14-4.29,2.59-4.75s2.74-2.72,4.68-2.72a5.63,5.63,0,0,1,4.19,1.62,44,44,0,0,1,3.19,3.31c.51.56,12.8,12.17,13.26,12.67a51.07,51.07,0,0,1,3.49,4.29C485.47,213.91,485.27,216.19,482.22,219.33Z"/><path class="cls-10" d="M481.33,210.24s-1.09-.49-6.41-5.67-4.69-5.26-6.88-7.75l3.29,3.12c.66.63,6.76,6.7,7.31,7.25A30.22,30.22,0,0,1,481.33,210.24Z"/><path class="cls-11" d="M469.41,198.07l-.54-.53a.29.29,0,0,0,.29,0,.17.17,0,0,1,0-.25c.06-.07.72-.8,1.39-.69s.88.38.77.5a10.36,10.36,0,0,1-1.43.85.74.74,0,0,1-.28-.1Z"/><path class="cls-11" d="M460.62,207.1l-.54-.53a.29.29,0,0,1,0,.29.17.17,0,0,0-.25,0c-.07.07-.78.74-.65,1.41s.4.87.52.76a10.36,10.36,0,0,0,.81-1.45.74.74,0,0,0-.11-.28Z"/><path class="cls-10" d="M462.11,199.73c-3,3.11-2.85,3.84-2.88,4.66s3,3,3.54,3.44.71.54.76.35c.34-1.48,2.26-3.45,3-4.18s2.63-2.7,4.1-3.09c.19-.05,0-.23-.37-.75s-2.72-3.5-3.54-3.44S465.14,196.62,462.11,199.73Z"/><path class="cls-10" d="M473.11,218.69s-.52-1.08-5.84-6.25-5.39-4.54-7.93-6.66l3.21,3.21c.65.64,6.88,6.58,7.45,7.11A30.22,30.22,0,0,0,473.11,218.69Z"/><path class="cls-10" d="M480.18,217.34a11.28,11.28,0,0,1-3.24,2.47c-1.12.49-1.46,0-1.6-.16s-2.64-2.8-2.73-2.91.47-.29.94-.56a27.67,27.67,0,0,0,5.3-5.45c.26-.48.43-1,.53-1s2.84,2.51,3,2.65.66.46.2,1.6A11.28,11.28,0,0,1,480.18,217.34Z"/><path class="cls-9" d="M494.33,85.22c3-3.24,5.21-3.57,5.62-3.47A51.07,51.07,0,0,1,504.44,85c.52.43,12.85,12,13.44,12.48a44,44,0,0,1,3.5,3,5.63,5.63,0,0,1,1.87,4.09c.12,1.93-2,4.36-2.44,4.83s-2.65,2.81-4.59,2.87a5.63,5.63,0,0,1-4.24-1.48,44,44,0,0,1-3.3-3.21C508.16,107,495.5,95.79,495,95.31a51.07,51.07,0,0,1-3.62-4.17C491.26,90.74,491.38,88.46,494.33,85.22Z"/><path class="cls-10" d="M495.51,94.28s1.11.46,6.59,5.46,4.86,5.11,7.13,7.52l-3.39-3c-.68-.61-7-6.47-7.54-7A30.22,30.22,0,0,1,495.51,94.28Z"/><path class="cls-11" d="M507.82,106.05l.56.51a.29.29,0,0,0-.29,0,.17.17,0,0,1,0,.25c-.06.07-.69.82-1.37.73s-.89-.35-.79-.48a10.36,10.36,0,0,1,1.4-.89.74.74,0,0,1,.28.09Z"/><path class="cls-11" d="M516.32,96.74l.56.51a.29.29,0,0,1,0-.28.17.17,0,0,0,.25,0c.07-.07.75-.77.6-1.43s-.43-.85-.55-.74a10.36,10.36,0,0,0-.76,1.48.74.74,0,0,0,.12.27Z"/><path class="cls-10" d="M515.07,104.16c2.92-3.21,2.72-3.93,2.73-4.75s-3.11-2.95-3.65-3.32-.73-.52-.77-.32c-.3,1.49-2.15,3.53-2.84,4.28s-2.54,2.79-4,3.22c-.19.06,0,.24.39.73s2.83,3.41,3.65,3.32S512.14,107.36,515.07,104.16Z"/><path class="cls-10" d="M503.46,85.57s.56,1.06,6,6.06S515,96,517.64,98l-3.31-3.1c-.67-.62-7.09-6.35-7.67-6.86A30.22,30.22,0,0,0,503.46,85.57Z"/><path class="cls-10" d="M496.43,87.14a11.28,11.28,0,0,1,3.16-2.57c1.11-.53,1.45,0,1.6.1s2.73,2.72,2.82,2.82-.46.31-.92.59A27.67,27.67,0,0,0,498,93.69c-.24.49-.39,1.06-.5,1s-2.92-2.42-3.07-2.55-.67-.44-.25-1.59A11.28,11.28,0,0,1,496.43,87.14Z"/><path class="cls-12" d="M149.46,347.1l-13-12.64L196,273.23l7,6.78c5.81-6.44-.54-13.15-.54-13.15s6.73,6.49,13.12.19l-7-6.78,13.11-13.49-13.1,13.48"/><line class="cls-12" x1="175.28" y1="372.19" x2="162.99" y2="360.25"/><polyline class="cls-12" points="324.4 324.44 305.08 344.32 306.23 345.43"/><rect class="cls-13" x="130.21" y="349.34" width="30.66" height="30.66" transform="translate(508.5 514.42) rotate(134.18)"/><line class="cls-13" x1="145.23" y1="342.99" x2="145.85" y2="386.35"/><line class="cls-13" x1="123.86" y1="364.98" x2="167.22" y2="364.36"/><rect class="cls-13" x="156.03" y="374.43" width="30.66" height="30.66" transform="translate(570.31 538.47) rotate(134.18)"/><line class="cls-13" x1="171.05" y1="368.08" x2="171.67" y2="411.44"/><line class="cls-13" x1="149.68" y1="390.07" x2="193.04" y2="389.45"/><line class="cls-12" x1="117.3" y1="363.31" x2="172.87" y2="417.3"/><path class="cls-12" d="M201.39,204.92l-37,38h-3.61v0l.15,9.74c-9-.06-9.14-9.41-9.14-9.41s-.25,9.24-8.91,9.68l-.15-9.75v-.18h-3.2l-12.28,12.63"/><line class="cls-12" x1="66.06" y1="262.84" x2="94" y2="289.98"/><line class="cls-12" x1="105.68" y1="304.56" x2="136.16" y2="334.18"/><path class="cls-12" d="M102.94,307.38l28.21-29s6.88,6.63,13.27.33l-7-6.78,3.15-3.24,30.78,29.9"/><path class="cls-12" d="M103.22,307.1l7,6.78c-6.39,6.3-13.27-.33-13.27-.33l-24.5,25.21,35.34,34.34L141,338.9"/><line class="cls-12" x1="38.57" y1="291.13" x2="66.5" y2="318.28"/><line class="cls-12" x1="-15.08" y1="402.24" x2="42.95" y2="342.51"/><path class="cls-12" d="M66.24,318.55l4-4.13-7-6.78c6.39-6.3,13.12.19,13.12.19l.14.14,20.23-20.83h0l-7-6.78c6.39-6.3,13.27.33,13.27.33l24.23-24.94L99.34,228.59"/><rect class="cls-12" x="131.79" y="197.53" width="42.13" height="20.38" rx="8.39" ry="8.39" transform="translate(408.39 242.62) rotate(134.12)"/><rect class="cls-12" x="112.89" y="220.25" width="7.35" height="36.95" transform="translate(369 321.49) rotate(134.18)"/><rect class="cls-12" x="98.3" y="242.81" width="7.35" height="21.85" transform="translate(355.02 357.42) rotate(134.18)"/><path class="cls-12" d="M174.51,189.07a5.93,5.93,0,0,0-1.35-2.1,6.31,6.31,0,0,0-2.13-1.39"/><path class="cls-12" d="M173.24,190.18a7.58,7.58,0,0,0-1.39-1.79c-1-1-1.91-1.76-2.08-1.68a15.71,15.71,0,0,0-2.37,2.48c0,.33.46,1,1.4,2.08.6.65,1.49,1.37,1.84,1.34S173.1,191,173.24,190.18Z"/><path class="cls-12" d="M166.35,183a5.93,5.93,0,0,0-2.27-1,6.31,6.31,0,0,0-2.54,0"/><path class="cls-12" d="M165.88,184.66a7.58,7.58,0,0,0-2.13-.77,6.41,6.41,0,0,0-2.66-.29,15.71,15.71,0,0,0-.66,3.37,4.75,4.75,0,0,0,2.3,1,4.11,4.11,0,0,0,2.27.13C165.26,187.91,166.2,185.42,165.88,184.66Z"/><path class="cls-12" d="M156.08,182.47a5.93,5.93,0,0,0-2.45.49,6.31,6.31,0,0,0-2.08,1.47"/><path class="cls-12" d="M156.65,184.07a7.58,7.58,0,0,0-2.18.63,6.41,6.41,0,0,0-2.32,1.32,15.71,15.71,0,0,0,1.44,3.11,4.75,4.75,0,0,0,2.45-.54c.83-.32,1.82-.88,1.92-1.22S157.35,184.49,156.65,184.07Z"/><path class="cls-12" d="M177.16,193.54a5.93,5.93,0,0,1,1.11,2.24,6.31,6.31,0,0,1,.1,2.54"/><path class="cls-12" d="M175.55,194.06a7.58,7.58,0,0,1,.83,2.11,6.41,6.41,0,0,1,.37,2.65,15.71,15.71,0,0,1-3.35.75,4.75,4.75,0,0,1-1.06-2.27,4.11,4.11,0,0,1-.2-2.27C172.32,194.77,174.78,193.76,175.55,194.06Z"/><path class="cls-12" d="M178,203.79a5.93,5.93,0,0,1-.42,2.46,6.31,6.31,0,0,1-1.41,2.12"/><path class="cls-12" d="M176.41,203.27a7.58,7.58,0,0,1-.57,2.2,6.41,6.41,0,0,1-1.25,2.36,15.71,15.71,0,0,1-3.15-1.35,4.75,4.75,0,0,1,.47-2.47c.29-.84.83-1.85,1.17-2S176,202.58,176.41,203.27Z"/><path class="cls-12" d="M134.33,230.42a5.93,5.93,0,0,1-2.14-1.29,6.31,6.31,0,0,1-1.45-2.09"/><path class="cls-12" d="M135.41,229.11a7.58,7.58,0,0,1-1.83-1.33c-1-1-1.82-1.86-1.74-2a15.71,15.71,0,0,1,2.42-2.44c.33,0,1.06.43,2.12,1.34.67.58,1.41,1.45,1.39,1.8S136.22,229,135.41,229.11Z"/><path class="cls-12" d="M170.49,281.27a5.93,5.93,0,0,1-2.14-1.29,6.31,6.31,0,0,1-1.45-2.09"/><path class="cls-12" d="M171.57,280a7.58,7.58,0,0,1-1.83-1.33c-1-1-1.82-1.86-1.74-2a15.71,15.71,0,0,1,2.42-2.44c.33,0,1.06.43,2.12,1.34.67.58,1.41,1.45,1.39,1.8S172.38,279.81,171.57,280Z"/><path class="cls-12" d="M137.77,312.5a5.93,5.93,0,0,1-2.14-1.29,6.31,6.31,0,0,1-1.45-2.09"/><path class="cls-12" d="M138.85,311.2a7.58,7.58,0,0,1-1.83-1.33c-1-1-1.82-1.86-1.74-2a15.71,15.71,0,0,1,2.42-2.44c.33,0,1.06.43,2.12,1.34.67.58,1.41,1.45,1.39,1.8S139.65,311,138.85,311.2Z"/><path class="cls-12" d="M19.25,331.28A5.93,5.93,0,0,1,17.12,330a6.31,6.31,0,0,1-1.45-2.09"/><path class="cls-12" d="M20.33,330a7.58,7.58,0,0,1-1.83-1.33c-1-1-1.82-1.86-1.74-2a15.71,15.71,0,0,1,2.42-2.44c.33,0,1.06.43,2.12,1.34.67.58,1.41,1.45,1.39,1.8S21.14,329.82,20.33,330Z"/><path class="cls-12" d="M12,331.57a5.93,5.93,0,0,1,2.14,1.29,6.31,6.31,0,0,1,1.45,2.09"/><path class="cls-12" d="M10.89,332.87a7.58,7.58,0,0,1,1.83,1.33c1,1,1.82,1.86,1.74,2A15.71,15.71,0,0,1,12,338.68c-.33,0-1.06-.43-2.12-1.34-.67-.58-1.41-1.45-1.39-1.8S10.08,333,10.89,332.87Z"/><path class="cls-12" d="M107.62,244.31a5.93,5.93,0,0,1,2.14,1.29,6.31,6.31,0,0,1,1.45,2.09"/><path class="cls-12" d="M106.54,245.61a7.58,7.58,0,0,1,1.83,1.33c1,1,1.82,1.86,1.74,2a15.71,15.71,0,0,1-2.42,2.44c-.33,0-1.06-.43-2.12-1.34-.67-.58-1.41-1.45-1.39-1.8S105.73,245.77,106.54,245.61Z"/><path class="cls-12" d="M54,280.32a5.93,5.93,0,0,1,1.29-2.14,6.31,6.31,0,0,1,2.09-1.45"/><path class="cls-12" d="M55.29,281.4a7.58,7.58,0,0,1,1.33-1.83c1-1,1.86-1.82,2-1.74a15.71,15.71,0,0,1,2.44,2.42c0,.33-.43,1.06-1.34,2.12-.58.67-1.45,1.41-1.8,1.39S55.45,282.2,55.29,281.4Z"/><path class="cls-12" d="M128.07,222.43a5.93,5.93,0,0,1-1.11-2.24,6.31,6.31,0,0,1-.1-2.54"/><path class="cls-12" d="M129.68,221.91a7.58,7.58,0,0,1-.83-2.11,6.41,6.41,0,0,1-.37-2.65,15.71,15.71,0,0,1,3.35-.75,4.75,4.75,0,0,1,1.06,2.27,4.11,4.11,0,0,1,.2,2.27C132.91,221.2,130.45,222.21,129.68,221.91Z"/><path class="cls-12" d="M127.21,212.18a5.93,5.93,0,0,1,.42-2.46A6.31,6.31,0,0,1,129,207.6"/><path class="cls-12" d="M128.82,212.7a7.58,7.58,0,0,1,.57-2.2,6.41,6.41,0,0,1,1.25-2.36,15.71,15.71,0,0,1,3.15,1.35,4.75,4.75,0,0,1-.47,2.47c-.29.84-.83,1.85-1.17,2S129.27,213.39,128.82,212.7Z"/><path class="cls-12" d="M138.88,232.94a5.93,5.93,0,0,0,2.27,1,6.31,6.31,0,0,0,2.54,0"/><path class="cls-12" d="M139.36,231.31a7.58,7.58,0,0,0,2.13.77,6.41,6.41,0,0,0,2.66.29,15.71,15.71,0,0,0,.66-3.37,4.75,4.75,0,0,0-2.3-1,4.11,4.11,0,0,0-2.27-.13C140,228.06,139,230.55,139.36,231.31Z"/><path class="cls-12" d="M88.09,260.15A5.93,5.93,0,0,1,87,257.91a6.31,6.31,0,0,1-.1-2.54"/><path class="cls-12" d="M89.71,259.63a7.58,7.58,0,0,1-.83-2.11,6.41,6.41,0,0,1-.37-2.65,15.71,15.71,0,0,1,3.35-.75,4.75,4.75,0,0,1,1.06,2.27,4.11,4.11,0,0,1,.2,2.27C92.93,258.92,90.47,259.93,89.71,259.63Z"/><path class="cls-12" d="M96.06,267.88a5.93,5.93,0,0,0,2.27,1,6.31,6.31,0,0,0,2.54,0"/><path class="cls-12" d="M96.53,266.26a7.58,7.58,0,0,0,2.13.77,6.41,6.41,0,0,0,2.66.29,15.71,15.71,0,0,0,.66-3.37,4.75,4.75,0,0,0-2.3-1,4.11,4.11,0,0,0-2.27-.13C97.14,263,96.21,265.5,96.53,266.26Z"/><path class="cls-12" d="M69.41,298.61a5.93,5.93,0,0,1-2.24,1.11,6.31,6.31,0,0,1-2.54.1"/><path class="cls-12" d="M68.89,297a7.58,7.58,0,0,1-2.11.83,6.41,6.41,0,0,1-2.65.37,15.71,15.71,0,0,1-.75-3.35,4.75,4.75,0,0,1,2.27-1.06,4.11,4.11,0,0,1,2.27-.2C68.18,293.77,69.19,296.23,68.89,297Z"/><path class="cls-12" d="M77.15,290.65a5.93,5.93,0,0,0,1-2.27,6.31,6.31,0,0,0,0-2.54"/><path class="cls-12" d="M75.52,290.17a7.58,7.58,0,0,0,.77-2.13,6.41,6.41,0,0,0,.29-2.66,15.71,15.71,0,0,0-3.37-.66,4.75,4.75,0,0,0-1,2.3,4.11,4.11,0,0,0-.13,2.27C72.27,289.56,74.76,290.5,75.52,290.17Z"/><path class="cls-12" d="M157.37,296.68a5.93,5.93,0,0,1,1.11,2.24,6.31,6.31,0,0,1,.1,2.54"/><path class="cls-12" d="M155.76,297.19a7.58,7.58,0,0,1,.83,2.11A6.41,6.41,0,0,1,157,302a15.71,15.71,0,0,1-3.35.75,4.75,4.75,0,0,1-1.06-2.27,4.11,4.11,0,0,1-.2-2.27C152.53,297.9,155,296.89,155.76,297.19Z"/><path class="cls-12" d="M149.41,288.94a5.93,5.93,0,0,0-2.27-1,6.31,6.31,0,0,0-2.54,0"/><path class="cls-12" d="M148.94,290.57a7.58,7.58,0,0,0-2.13-.77,6.41,6.41,0,0,0-2.66-.29,15.71,15.71,0,0,0-.66,3.37,4.75,4.75,0,0,0,2.3,1,4.11,4.11,0,0,0,2.27.13C148.32,293.81,149.26,291.32,148.94,290.57Z"/><path class="cls-12" d="M99.47,324a5.93,5.93,0,0,1,2.24-1.11,6.31,6.31,0,0,1,2.54-.1"/><path class="cls-12" d="M100,325.64a7.58,7.58,0,0,1,2.11-.83,6.41,6.41,0,0,1,2.65-.37,15.71,15.71,0,0,1,.75,3.35,4.75,4.75,0,0,1-2.27,1.06,4.11,4.11,0,0,1-2.27.2C100.69,328.87,99.69,326.41,100,325.64Z"/><path class="cls-12" d="M91.73,332a5.93,5.93,0,0,0-1,2.27,6.31,6.31,0,0,0,0,2.54"/><path class="cls-12" d="M93.36,332.46a7.58,7.58,0,0,0-.77,2.13,6.41,6.41,0,0,0-.29,2.66,15.71,15.71,0,0,0,3.37.66,4.75,4.75,0,0,0,1-2.3,4.11,4.11,0,0,0,.13-2.27C96.6,333.08,94.12,332.14,93.36,332.46Z"/><path class="cls-12" d="M149.16,233.5a5.93,5.93,0,0,0,2.45-.49,6.31,6.31,0,0,0,2.08-1.47"/><path class="cls-12" d="M148.59,231.91a7.58,7.58,0,0,0,2.18-.63,6.41,6.41,0,0,0,2.32-1.32,15.71,15.71,0,0,0-1.44-3.11,4.75,4.75,0,0,0-2.45.54c-.83.32-1.82.88-1.92,1.22S147.88,231.48,148.59,231.91Z"/><path class="cls-12" d="M157.13,228.27a5.93,5.93,0,0,0,2.1-1.35,6.31,6.31,0,0,0,1.39-2.13"/><path class="cls-12" d="M156,227a7.58,7.58,0,0,0,1.79-1.39c1-1,1.76-1.91,1.68-2.08a15.71,15.71,0,0,0-2.48-2.37c-.33,0-1,.46-2.08,1.4-.65.6-1.37,1.49-1.34,1.84S155.2,226.86,156,227Z"/><path class="cls-12" d="M163.15,222.12a5.93,5.93,0,0,0,2.1-1.35,6.31,6.31,0,0,0,1.39-2.13"/><path class="cls-12" d="M162,220.84a7.58,7.58,0,0,0,1.79-1.39c1-1,1.76-1.91,1.68-2.08A15.71,15.71,0,0,0,163,215c-.33,0-1,.46-2.08,1.4-.65.6-1.37,1.49-1.34,1.84S161.22,220.7,162,220.84Z"/><path class="cls-12" d="M111.89,347.36A5.93,5.93,0,0,0,114,346a6.31,6.31,0,0,0,1.39-2.13"/><path class="cls-12" d="M110.78,346.08a7.58,7.58,0,0,0,1.79-1.39c1-1,1.76-1.91,1.68-2.08a15.71,15.71,0,0,0-2.48-2.37c-.33,0-1,.46-2.08,1.4-.65.6-1.37,1.49-1.34,1.84S110,345.95,110.78,346.08Z"/><path class="cls-12" d="M169.46,215.64a5.93,5.93,0,0,0,2.1-1.35,6.31,6.31,0,0,0,1.39-2.13"/><path class="cls-12" d="M168.34,214.37a7.58,7.58,0,0,0,1.79-1.39c1-1,1.76-1.91,1.68-2.08a15.71,15.71,0,0,0-2.48-2.37c-.33,0-1,.46-2.08,1.4-.65.6-1.37,1.49-1.34,1.84S167.53,214.23,168.34,214.37Z"/><path class="cls-12" d="M147.72,187.51a5.93,5.93,0,0,0-2.1,1.35,6.31,6.31,0,0,0-1.39,2.13"/><path class="cls-12" d="M148.83,188.79a7.58,7.58,0,0,0-1.79,1.39c-1,1-1.76,1.91-1.68,2.08a15.71,15.71,0,0,0,2.48,2.37c.33,0,1-.46,2.08-1.4.65-.6,1.37-1.49,1.34-1.84S149.65,188.93,148.83,188.79Z"/><path class="cls-12" d="M141.46,193.94a5.93,5.93,0,0,0-2.1,1.35,6.31,6.31,0,0,0-1.39,2.13"/><path class="cls-12" d="M142.57,195.22a7.58,7.58,0,0,0-1.79,1.39c-1,1-1.76,1.91-1.68,2.08a15.71,15.71,0,0,0,2.48,2.37c.33,0,1-.46,2.08-1.4.65-.6,1.37-1.49,1.34-1.84S143.39,195.35,142.57,195.22Z"/><path class="cls-12" d="M135.39,200.14a5.93,5.93,0,0,0-2.1,1.35,6.31,6.31,0,0,0-1.39,2.13"/><path class="cls-12" d="M136.51,201.42a7.58,7.58,0,0,0-1.79,1.39c-1,1-1.76,1.91-1.68,2.08a15.71,15.71,0,0,0,2.48,2.37c.33,0,1-.46,2.08-1.4.65-.6,1.37-1.49,1.34-1.84S137.32,201.55,136.51,201.42Z"/><rect class="cls-12" x="326.3" y="413.6" width="54.94" height="20.38" rx="9.58" ry="9.58" transform="translate(904.28 464.88) rotate(134.12)"/><path class="cls-12" d="M380.39,400a5.93,5.93,0,0,0-1.35-2.1,6.31,6.31,0,0,0-2.13-1.39"/><path class="cls-12" d="M379.12,401.15a7.58,7.58,0,0,0-1.39-1.79c-1-1-1.91-1.76-2.08-1.68a15.71,15.71,0,0,0-2.37,2.48c0,.33.46,1,1.4,2.08.6.65,1.49,1.37,1.84,1.34S379,402,379.12,401.15Z"/><path class="cls-12" d="M372.22,394a5.93,5.93,0,0,0-2.27-1,6.31,6.31,0,0,0-2.54,0"/><path class="cls-12" d="M371.75,395.63a7.58,7.58,0,0,0-2.13-.77,6.41,6.41,0,0,0-2.66-.29,15.71,15.71,0,0,0-.66,3.37,4.75,4.75,0,0,0,2.3,1,4.11,4.11,0,0,0,2.27.13C371.14,398.87,372.07,396.38,371.75,395.63Z"/><path class="cls-12" d="M362,393.43a5.93,5.93,0,0,0-2.45.49,6.31,6.31,0,0,0-2.08,1.47"/><path class="cls-12" d="M362.52,395a7.58,7.58,0,0,0-2.18.63A6.41,6.41,0,0,0,358,397a15.71,15.71,0,0,0,1.44,3.11,4.75,4.75,0,0,0,2.45-.54c.83-.32,1.82-.88,1.92-1.22S363.23,395.45,362.52,395Z"/><path class="cls-12" d="M383,404.51a5.93,5.93,0,0,1,1.11,2.24,6.31,6.31,0,0,1,.1,2.54"/><path class="cls-12" d="M381.43,405a7.58,7.58,0,0,1,.83,2.11,6.41,6.41,0,0,1,.37,2.65,15.71,15.71,0,0,1-3.35.75,4.75,4.75,0,0,1-1.06-2.27A4.11,4.11,0,0,1,378,406C378.2,405.73,380.66,404.72,381.43,405Z"/><path class="cls-12" d="M383.9,414.76a5.93,5.93,0,0,1-.42,2.46,6.31,6.31,0,0,1-1.41,2.12"/><path class="cls-12" d="M382.29,414.23a7.58,7.58,0,0,1-.57,2.2,6.41,6.41,0,0,1-1.25,2.36,15.71,15.71,0,0,1-3.15-1.35,4.75,4.75,0,0,1,.47-2.47c.29-.84.83-1.85,1.17-2S381.84,413.54,382.29,414.23Z"/><path class="cls-12" d="M330.79,451.08a5.93,5.93,0,0,1-2.14-1.29,6.31,6.31,0,0,1-1.45-2.09"/><path class="cls-12" d="M331.87,449.77a7.58,7.58,0,0,1-1.83-1.33c-1-1-1.82-1.86-1.74-2a15.71,15.71,0,0,1,2.42-2.44c.33,0,1.06.43,2.12,1.34.67.58,1.41,1.45,1.39,1.8S332.68,449.61,331.87,449.77Z"/><path class="cls-12" d="M324.52,443.09a5.93,5.93,0,0,1-1.11-2.24,6.31,6.31,0,0,1-.1-2.54"/><path class="cls-12" d="M326.14,442.57a7.58,7.58,0,0,1-.83-2.11,6.41,6.41,0,0,1-.37-2.65,15.71,15.71,0,0,1,3.35-.75,4.75,4.75,0,0,1,1.06,2.27,4.11,4.11,0,0,1,.2,2.27C329.36,441.86,326.9,442.87,326.14,442.57Z"/><path class="cls-12" d="M323.67,432.84a5.93,5.93,0,0,1,.42-2.46,6.31,6.31,0,0,1,1.41-2.12"/><path class="cls-12" d="M325.28,433.36a7.58,7.58,0,0,1,.57-2.2,6.41,6.41,0,0,1,1.25-2.36,15.71,15.71,0,0,1,3.15,1.35,4.75,4.75,0,0,1-.47,2.47c-.29.84-.83,1.85-1.17,2S325.72,434.05,325.28,433.36Z"/><path class="cls-12" d="M335.34,453.6a5.93,5.93,0,0,0,2.27,1,6.31,6.31,0,0,0,2.54,0"/><path class="cls-12" d="M335.81,452a7.58,7.58,0,0,0,2.13.77,6.41,6.41,0,0,0,2.66.29,15.71,15.71,0,0,0,.66-3.37,4.75,4.75,0,0,0-2.3-1,4.11,4.11,0,0,0-2.27-.13C336.43,448.72,335.49,451.21,335.81,452Z"/><path class="cls-12" d="M345.61,454.16a5.93,5.93,0,0,0,2.45-.49,6.31,6.31,0,0,0,2.08-1.47"/><path class="cls-12" d="M345,452.57a7.58,7.58,0,0,0,2.18-.63,6.41,6.41,0,0,0,2.32-1.32,15.71,15.71,0,0,0-1.44-3.11,4.75,4.75,0,0,0-2.45.54c-.83.32-1.82.88-1.92,1.22S344.34,452.14,345,452.57Z"/><path class="cls-12" d="M353.58,448.93a5.93,5.93,0,0,0,2.1-1.35,6.31,6.31,0,0,0,1.39-2.13"/><path class="cls-12" d="M352.47,447.65a7.58,7.58,0,0,0,1.79-1.39c1-1,1.76-1.91,1.68-2.08a15.71,15.71,0,0,0-2.48-2.37c-.33,0-1,.46-2.08,1.4-.65.6-1.37,1.49-1.34,1.84S351.65,447.52,352.47,447.65Z"/><path class="cls-12" d="M369.58,432.51a5.93,5.93,0,0,0,2.1-1.35,6.31,6.31,0,0,0,1.39-2.13"/><path class="cls-12" d="M368.47,431.23a7.58,7.58,0,0,0,1.79-1.39c1-1,1.76-1.91,1.68-2.08a15.71,15.71,0,0,0-2.48-2.37c-.33,0-1,.46-2.08,1.4-.65.6-1.37,1.49-1.34,1.84S367.65,431.1,368.47,431.23Z"/><path class="cls-12" d="M375.33,426.6a5.93,5.93,0,0,0,2.1-1.35,6.31,6.31,0,0,0,1.39-2.13"/><path class="cls-12" d="M374.22,425.33a7.58,7.58,0,0,0,1.79-1.39c1-1,1.76-1.91,1.68-2.08a15.71,15.71,0,0,0-2.48-2.37c-.33,0-1,.46-2.08,1.4-.65.6-1.37,1.49-1.34,1.84S373.4,425.19,374.22,425.33Z"/><path class="cls-12" d="M353.59,398.48a5.93,5.93,0,0,0-2.1,1.35,6.31,6.31,0,0,0-1.39,2.13"/><path class="cls-12" d="M354.71,399.75a7.58,7.58,0,0,0-1.79,1.39c-1,1-1.76,1.91-1.68,2.08a15.71,15.71,0,0,0,2.48,2.37c.33,0,1-.46,2.08-1.4.65-.6,1.37-1.49,1.34-1.84S355.52,399.89,354.71,399.75Z"/><path class="cls-12" d="M347.89,404.33a5.93,5.93,0,0,0-2.1,1.35,6.31,6.31,0,0,0-1.39,2.13"/><path class="cls-12" d="M349,405.61a7.58,7.58,0,0,0-1.79,1.39c-1,1-1.76,1.91-1.68,2.08a15.71,15.71,0,0,0,2.48,2.37c.33,0,1-.46,2.08-1.4.65-.6,1.37-1.49,1.34-1.84S349.82,405.75,349,405.61Z"/><path class="cls-12" d="M358.72,443.69a5.93,5.93,0,0,0,2.1-1.35,6.31,6.31,0,0,0,1.39-2.13"/><path class="cls-12" d="M357.6,442.42a7.58,7.58,0,0,0,1.79-1.39c1-1,1.76-1.91,1.68-2.08a15.71,15.71,0,0,0-2.48-2.37c-.33,0-1,.46-2.08,1.4-.65.6-1.37,1.49-1.34,1.84S356.79,442.28,357.6,442.42Z"/><path class="cls-12" d="M364.47,437.79a5.93,5.93,0,0,0,2.1-1.35A6.31,6.31,0,0,0,368,434.3"/><path class="cls-12" d="M363.35,436.51a7.58,7.58,0,0,0,1.79-1.39c1-1,1.76-1.91,1.68-2.08a15.71,15.71,0,0,0-2.48-2.37c-.33,0-1,.46-2.08,1.4-.65.6-1.37,1.49-1.34,1.84S362.54,436.38,363.35,436.51Z"/><path class="cls-12" d="M342.73,409.66a5.93,5.93,0,0,0-2.1,1.35,6.31,6.31,0,0,0-1.39,2.13"/><path class="cls-12" d="M343.84,410.94a7.58,7.58,0,0,0-1.79,1.39c-1,1-1.76,1.91-1.68,2.08a15.71,15.71,0,0,0,2.48,2.37c.33,0,1-.46,2.08-1.4.65-.6,1.37-1.49,1.34-1.84S344.66,411.07,343.84,410.94Z"/><path class="cls-12" d="M337,415.52a5.93,5.93,0,0,0-2.1,1.35,6.31,6.31,0,0,0-1.39,2.13"/><path class="cls-12" d="M338.14,416.79a7.58,7.58,0,0,0-1.79,1.39c-1,1-1.76,1.91-1.68,2.08a15.71,15.71,0,0,0,2.48,2.37c.33,0,1-.46,2.08-1.4.65-.6,1.37-1.49,1.34-1.84S339,416.93,338.14,416.79Z"/><path class="cls-12" d="M331.84,420.8a5.93,5.93,0,0,0-2.1,1.35,6.31,6.31,0,0,0-1.39,2.13"/><path class="cls-12" d="M333,422.08a7.58,7.58,0,0,0-1.79,1.39c-1,1-1.76,1.91-1.68,2.08a15.71,15.71,0,0,0,2.48,2.37c.33,0,1-.46,2.08-1.4.65-.6,1.37-1.49,1.34-1.84S333.77,422.21,333,422.08Z"/><rect class="cls-12" x="101.74" y="326.62" width="7.35" height="21.85" transform="translate(-54.21 653.09) rotate(-135.82)"/><rect class="cls-12" x="117.38" y="330.1" width="7.35" height="45.3" transform="translate(-37.94 690.09) rotate(-135.82)"/><rect class="cls-12" x="120.79" y="295.68" width="7.35" height="40.7" transform="translate(-188.93 185.07) rotate(-45.82)"/><rect class="cls-12" x="59.64" y="274.49" width="7.35" height="21.85" transform="translate(216.81 36.59) rotate(44.18)"/><path class="cls-12" d="M191,469.08,166.75,494s-6.88-6.63-13.27-.33l7,6.78h0l-5.63,5.8-7-6.8c-6.11,6.57.57,13.11.57,13.11l.14.14-24.26,25"/><rect class="cls-12" x="162.58" y="456.7" width="7.35" height="21.85" transform="translate(617.5 674.26) rotate(134.18)"/><path class="cls-12" d="M171.9,458.2a5.93,5.93,0,0,1,2.14,1.29,6.31,6.31,0,0,1,1.45,2.09"/><path class="cls-12" d="M170.82,459.51a7.58,7.58,0,0,1,1.83,1.33c1,1,1.82,1.86,1.74,2a15.71,15.71,0,0,1-2.42,2.44c-.33,0-1.06-.43-2.12-1.34-.67-.58-1.41-1.45-1.39-1.8S170,459.66,170.82,459.51Z"/><path class="cls-12" d="M152.37,474a5.93,5.93,0,0,1-1.11-2.24,6.31,6.31,0,0,1-.1-2.54"/><path class="cls-12" d="M154,473.52a7.58,7.58,0,0,1-.83-2.11,6.41,6.41,0,0,1-.37-2.65,15.71,15.71,0,0,1,3.35-.75,4.75,4.75,0,0,1,1.06,2.27,4.11,4.11,0,0,1,.2,2.27C157.21,472.81,154.75,473.82,154,473.52Z"/><path class="cls-12" d="M160.34,481.78a5.93,5.93,0,0,0,2.27,1,6.31,6.31,0,0,0,2.54,0"/><path class="cls-12" d="M160.81,480.15a7.58,7.58,0,0,0,2.13.77,6.41,6.41,0,0,0,2.66.29,15.71,15.71,0,0,0,.66-3.37,4.75,4.75,0,0,0-2.3-1,4.11,4.11,0,0,0-2.27-.13C161.42,476.9,160.49,479.39,160.81,480.15Z"/><path class="cls-12" d="M131.32,499.24a5.93,5.93,0,0,1,1.11,2.24,6.31,6.31,0,0,1,.1,2.54"/><path class="cls-12" d="M129.71,499.75a7.58,7.58,0,0,1,.83,2.11,6.41,6.41,0,0,1,.37,2.65,15.71,15.71,0,0,1-3.35.75,4.75,4.75,0,0,1-1.06-2.27,4.11,4.11,0,0,1-.2-2.27C126.48,500.46,128.94,499.45,129.71,499.75Z"/><path class="cls-12" d="M123.36,491.5a5.93,5.93,0,0,0-2.27-1,6.31,6.31,0,0,0-2.54,0"/><path class="cls-12" d="M122.88,493.13a7.58,7.58,0,0,0-2.13-.77,6.41,6.41,0,0,0-2.66-.29,15.71,15.71,0,0,0-.66,3.37,4.75,4.75,0,0,0,2.3,1,4.11,4.11,0,0,0,2.27.13C122.27,496.37,123.21,493.88,122.88,493.13Z"/><rect class="cls-12" x="114.45" y="494.4" width="7.35" height="21.85" transform="translate(-326.61 237.9) rotate(-45.82)"/><rect class="cls-12" x="139.96" y="291.92" width="7.35" height="21.85" transform="translate(-173.66 194.81) rotate(-45.82)"/><rect class="cls-12" x="172.93" y="260.44" width="7.35" height="21.85" transform="translate(-141.09 208.92) rotate(-45.82)"/><path class="cls-12" d="M230,434.07a5.93,5.93,0,0,1-2.42.6,6.31,6.31,0,0,1-2.5-.45"/><path class="cls-12" d="M229.83,432.39a7.58,7.58,0,0,1-2.24.35,6.41,6.41,0,0,1-2.66-.21,15.71,15.71,0,0,1,0-3.43,4.75,4.75,0,0,1,2.45-.55,4.11,4.11,0,0,1,2.26.29C229.83,429.08,230.29,431.7,229.83,432.39Z"/><rect class="cls-12" x="223.63" y="411.82" width="7.35" height="21.85" transform="translate(-192.13 656.1) rotate(-90.82)"/><path class="cls-12" d="M190,239.67s-3.35,3.24-3.32,4.32a7.39,7.39,0,0,0,1.66,2.55,7.87,7.87,0,0,0,2.59,1.7c1.43,0,4.45-3.33,4.45-3.33"/><path class="cls-12" d="M187.68,243.55a8.56,8.56,0,0,0,1.57,2c1.13,1.13,2.16,2,2.35,1.89a17.74,17.74,0,0,0,2.67-2.81c0-.37-.52-1.18-1.59-2.35-.68-.74-1.68-1.55-2.08-1.51S187.83,242.63,187.68,243.55Z"/><path class="cls-12" d="M210.1,229.72s3.35-3.24,3.32-4.32a7.39,7.39,0,0,0-1.66-2.55,7.87,7.87,0,0,0-2.59-1.7c-1.43,0-4.45,3.33-4.45,3.33"/><path class="cls-12" d="M212.4,225.84a8.56,8.56,0,0,0-1.57-2c-1.13-1.13-2.16-2-2.35-1.89a17.74,17.74,0,0,0-2.67,2.81c0,.37.52,1.18,1.59,2.35.68.74,1.68,1.55,2.08,1.51S212.24,226.76,212.4,225.84Z"/><path class="cls-12" d="M200.35,223.31s-3.17-3.42-4.93-2.71c0,0-2.12,1.89-4.81,4.59s-4.68,4.92-4.68,4.92c-.84,2.3,2.65,5.14,2.65,5.14"/><path class="cls-12" d="M196.36,221.14a59.86,59.86,0,0,0-5.06,4.61c-3,3-5.49,5.67-5.47,5.94s2.35,2.8,2.93,2.55,2.62-2,5.67-4.92c1.93-1.87,4.83-5,5.1-5.69S197.07,220.78,196.36,221.14Z"/><path class="cls-12" d="M199.62,245.92s3.17,3.42,4.93,2.71c0,0,2.12-1.89,4.81-4.59s4.68-4.92,4.68-4.92c.84-2.3-2.65-5.14-2.65-5.14"/><path class="cls-12" d="M203.62,248.09a59.86,59.86,0,0,0,5.06-4.61c3-3,5.49-5.67,5.47-5.94s-2.35-2.8-2.93-2.55-2.62,2-5.67,4.92c-1.93,1.87-4.73,4.92-5,5.63S202.82,248.45,203.62,248.09Z"/><rect class="cls-12" x="21.42" y="311.3" width="7.35" height="21.85" transform="translate(-223.5 115.67) rotate(-45.82)"/><rect class="cls-12" x="3.19" y="330.06" width="7.35" height="21.85" transform="translate(256.2 573.7) rotate(134.18)"/><path class="cls-12" d="M9.49,382.69A5.93,5.93,0,0,1,11.62,384a6.31,6.31,0,0,1,1.45,2.09"/><path class="cls-12" d="M8.41,384a7.58,7.58,0,0,1,1.83,1.33c1,1,1.82,1.86,1.74,2a15.71,15.71,0,0,1-2.42,2.44c-.33,0-1.06-.43-2.12-1.34C6.77,387.87,6,387,6,386.65S7.6,384.15,8.41,384Z"/><path class="cls-12" d="M17.09,390.07a5.93,5.93,0,0,1,2.14,1.29,6.31,6.31,0,0,1,1.45,2.09"/><path class="cls-12" d="M16,391.38a7.58,7.58,0,0,1,1.83,1.33c1,1,1.82,1.86,1.74,2a15.71,15.71,0,0,1-2.42,2.44c-.33,0-1.06-.43-2.12-1.34-.67-.58-1.41-1.45-1.39-1.8S15.2,391.54,16,391.38Z"/><rect class="cls-12" x="4.23" y="384.61" width="7.35" height="21.85" transform="translate(297.09 665.51) rotate(134.18)"/><path class="cls-12" d="M23.48,368.29a5.93,5.93,0,0,1,2.14,1.29,6.31,6.31,0,0,1,1.45,2.09"/><path class="cls-12" d="M22.4,369.59a7.58,7.58,0,0,1,1.83,1.33c1,1,1.82,1.86,1.74,2a15.71,15.71,0,0,1-2.42,2.44c-.33,0-1.06-.43-2.12-1.34-.67-.58-1.41-1.45-1.39-1.8S21.59,369.75,22.4,369.59Z"/><path class="cls-12" d="M31.08,375.67A5.93,5.93,0,0,1,33.22,377a6.31,6.31,0,0,1,1.45,2.09"/><path class="cls-12" d="M30,377a7.58,7.58,0,0,1,1.83,1.33c1,1,1.82,1.86,1.74,2a15.71,15.71,0,0,1-2.42,2.44c-.33,0-1.06-.43-2.12-1.34-.67-.58-1.41-1.45-1.39-1.8S29.19,377.14,30,377Z"/><rect class="cls-12" x="18.22" y="370.21" width="7.35" height="21.85" transform="translate(310.5 631.03) rotate(134.18)"/><path class="cls-12" d="M37.31,354a5.93,5.93,0,0,1,2.14,1.29,6.31,6.31,0,0,1,1.45,2.09"/><path class="cls-12" d="M36.23,355.35a7.58,7.58,0,0,1,1.83,1.33c1,1,1.82,1.86,1.74,2a15.71,15.71,0,0,1-2.42,2.44c-.33,0-1.06-.43-2.12-1.34-.67-.58-1.41-1.45-1.39-1.8S35.43,355.51,36.23,355.35Z"/><path class="cls-12" d="M44.92,361.43a5.93,5.93,0,0,1,2.14,1.29,6.31,6.31,0,0,1,1.45,2.09"/><path class="cls-12" d="M43.84,362.74a7.58,7.58,0,0,1,1.83,1.33c1,1,1.82,1.86,1.74,2A15.71,15.71,0,0,1,45,368.54c-.33,0-1.06-.43-2.12-1.34-.67-.58-1.41-1.45-1.39-1.8S43,362.9,43.84,362.74Z"/><rect class="cls-12" x="32.06" y="355.97" width="7.35" height="21.85" transform="translate(323.77 596.95) rotate(134.18)"/><path class="cls-12" d="M71,439.77a5.93,5.93,0,0,1-2.14-1.29,6.31,6.31,0,0,1-1.45-2.09"/><path class="cls-12" d="M72.09,438.47a7.58,7.58,0,0,1-1.83-1.33c-1-1-1.82-1.86-1.74-2a15.71,15.71,0,0,1,2.42-2.44c.33,0,1.06.43,2.12,1.34.67.58,1.41,1.45,1.39,1.8S72.9,438.31,72.09,438.47Z"/><path class="cls-12" d="M63.41,432.38a5.93,5.93,0,0,1-2.14-1.29A6.31,6.31,0,0,1,59.82,429"/><path class="cls-12" d="M64.49,431.08a7.58,7.58,0,0,1-1.83-1.33c-1-1-1.82-1.86-1.74-2a15.71,15.71,0,0,1,2.42-2.44c.33,0,1.06.43,2.12,1.34.67.58,1.41,1.45,1.39,1.8S65.29,430.92,64.49,431.08Z"/><path class="cls-12" d="M76.46,411.75A5.93,5.93,0,0,1,78.59,413,6.31,6.31,0,0,1,80,415.13"/><path class="cls-12" d="M75.38,413.05a7.58,7.58,0,0,1,1.83,1.33c1,1,1.82,1.86,1.74,2a15.71,15.71,0,0,1-2.42,2.44c-.33,0-1.06-.43-2.12-1.34-.67-.58-1.41-1.45-1.39-1.8S74.57,413.21,75.38,413.05Z"/><path class="cls-12" d="M84.06,419.13a5.93,5.93,0,0,1,2.14,1.29,6.31,6.31,0,0,1,1.45,2.09"/><path class="cls-12" d="M83,420.44a7.58,7.58,0,0,1,1.83,1.33c1,1,1.82,1.86,1.74,2a15.71,15.71,0,0,1-2.42,2.44c-.33,0-1.06-.43-2.12-1.34-.67-.58-1.41-1.45-1.39-1.8S82.17,420.6,83,420.44Z"/><rect class="cls-12" x="68.43" y="414.86" width="10.52" height="21.85" transform="translate(-283.03 181.92) rotate(-45.82)"/><path class="cls-12" d="M92.63,460.78a5.93,5.93,0,0,1-2.14-1.29A6.31,6.31,0,0,1,89,457.4"/><path class="cls-12" d="M93.71,459.48a7.58,7.58,0,0,1-1.83-1.33c-1-1-1.82-1.86-1.74-2a15.71,15.71,0,0,1,2.42-2.44c.33,0,1.06.43,2.12,1.34.67.58,1.41,1.45,1.39,1.8S94.52,459.32,93.71,459.48Z"/><path class="cls-12" d="M85,453.4a5.93,5.93,0,0,1-2.14-1.29A6.31,6.31,0,0,1,81.44,450"/><path class="cls-12" d="M86.11,452.09a7.58,7.58,0,0,1-1.83-1.33c-1-1-1.82-1.86-1.74-2A15.71,15.71,0,0,1,85,446.29c.33,0,1.06.43,2.12,1.34.67.58,1.41,1.45,1.39,1.8S86.92,451.93,86.11,452.09Z"/><path class="cls-12" d="M98.08,432.76a5.93,5.93,0,0,1,2.14,1.29,6.31,6.31,0,0,1,1.45,2.09"/><path class="cls-12" d="M97,434.07a7.58,7.58,0,0,1,1.83,1.33c1,1,1.82,1.86,1.74,2a15.71,15.71,0,0,1-2.42,2.44c-.33,0-1.06-.43-2.12-1.34-.67-.58-1.41-1.45-1.39-1.8S96.19,434.22,97,434.07Z"/><path class="cls-12" d="M105.68,440.15a5.93,5.93,0,0,1,2.14,1.29,6.31,6.31,0,0,1,1.45,2.09"/><path class="cls-12" d="M104.6,441.45a7.58,7.58,0,0,1,1.83,1.33c1,1,1.82,1.86,1.74,2a15.71,15.71,0,0,1-2.42,2.44c-.33,0-1.06-.43-2.12-1.34-.67-.58-1.41-1.45-1.39-1.8S103.79,441.61,104.6,441.45Z"/><rect class="cls-12" x="90.06" y="435.87" width="10.52" height="21.85" transform="translate(-291.55 203.8) rotate(-45.82)"/><path class="cls-12" d="M93.59,416.53a5.93,5.93,0,0,1-2.14-1.29A6.31,6.31,0,0,1,90,413.15"/><path class="cls-12" d="M94.67,415.22a7.58,7.58,0,0,1-1.83-1.33c-1-1-1.82-1.86-1.74-2a15.71,15.71,0,0,1,2.42-2.44c.33,0,1.06.43,2.12,1.34.67.58,1.41,1.45,1.39,1.8S95.48,415.06,94.67,415.22Z"/><path class="cls-12" d="M86,409.14a5.93,5.93,0,0,1-2.14-1.29,6.31,6.31,0,0,1-1.45-2.09"/><path class="cls-12" d="M87.07,407.84a7.58,7.58,0,0,1-1.83-1.33c-1-1-1.82-1.86-1.74-2A15.71,15.71,0,0,1,85.92,402c.33,0,1.06.43,2.12,1.34.67.58,1.41,1.45,1.39,1.8S87.88,407.68,87.07,407.84Z"/><path class="cls-12" d="M99,388.5a5.93,5.93,0,0,1,2.14,1.29,6.31,6.31,0,0,1,1.45,2.09"/><path class="cls-12" d="M98,389.81a7.58,7.58,0,0,1,1.83,1.33c1,1,1.82,1.86,1.74,2a15.71,15.71,0,0,1-2.42,2.44c-.33,0-1.06-.43-2.12-1.34-.67-.58-1.41-1.45-1.39-1.8S97.15,390,98,389.81Z"/><path class="cls-12" d="M106.64,395.89a5.93,5.93,0,0,1,2.14,1.29,6.31,6.31,0,0,1,1.45,2.09"/><path class="cls-12" d="M105.56,397.2a7.58,7.58,0,0,1,1.83,1.33c1,1,1.82,1.86,1.74,2a15.71,15.71,0,0,1-2.42,2.44c-.33,0-1.06-.43-2.12-1.34-.67-.58-1.41-1.45-1.39-1.8S104.75,397.36,105.56,397.2Z"/><rect class="cls-12" x="91.02" y="391.62" width="10.52" height="21.85" transform="translate(-259.52 191.07) rotate(-45.82)"/><path class="cls-12" d="M40.62,412.94a5.93,5.93,0,0,1,2.14,1.29,6.31,6.31,0,0,1,1.45,2.09"/><path class="cls-12" d="M39.54,414.24a7.58,7.58,0,0,1,1.83,1.33c1,1,1.82,1.86,1.74,2A15.71,15.71,0,0,1,40.69,420c-.33,0-1.06-.43-2.12-1.34-.67-.58-1.41-1.45-1.39-1.8S38.73,414.4,39.54,414.24Z"/><path class="cls-12" d="M48.22,420.32a5.93,5.93,0,0,1,2.14,1.29,6.31,6.31,0,0,1,1.45,2.09"/><path class="cls-12" d="M47.14,421.63A7.58,7.58,0,0,1,49,423c1,1,1.82,1.86,1.74,2a15.71,15.71,0,0,1-2.42,2.44c-.33,0-1.06-.43-2.12-1.34-.67-.58-1.41-1.45-1.39-1.8S46.33,421.79,47.14,421.63Z"/><rect class="cls-12" x="31.29" y="405.23" width="7.35" height="33.2" transform="translate(361.87 690.72) rotate(134.18)"/><path class="cls-12" d="M54.61,398.54a5.93,5.93,0,0,1,2.14,1.29,6.31,6.31,0,0,1,1.45,2.09"/><path class="cls-12" d="M53.53,399.84a7.58,7.58,0,0,1,1.83,1.33c1,1,1.82,1.86,1.74,2a15.71,15.71,0,0,1-2.42,2.44c-.33,0-1.06-.43-2.12-1.34-.67-.58-1.41-1.45-1.39-1.8S52.72,400,53.53,399.84Z"/><path class="cls-12" d="M62.21,405.92a5.93,5.93,0,0,1,2.14,1.29,6.31,6.31,0,0,1,1.45,2.09"/><path class="cls-12" d="M61.13,407.23A7.58,7.58,0,0,1,63,408.56c1,1,1.82,1.86,1.74,2A15.71,15.71,0,0,1,62.29,413c-.33,0-1.06-.43-2.12-1.34-.67-.58-1.41-1.45-1.39-1.8S60.33,407.39,61.13,407.23Z"/><rect class="cls-12" x="45.28" y="390.83" width="7.35" height="33.2" transform="translate(375.29 656.25) rotate(134.18)"/><path class="cls-12" d="M68.45,384.3a5.93,5.93,0,0,1,2.14,1.29A6.31,6.31,0,0,1,72,387.68"/><path class="cls-12" d="M67.37,385.6a7.58,7.58,0,0,1,1.83,1.33c1,1,1.82,1.86,1.74,2a15.71,15.71,0,0,1-2.42,2.44c-.33,0-1.06-.43-2.12-1.34-.67-.58-1.41-1.45-1.39-1.8S66.56,385.76,67.37,385.6Z"/><path class="cls-12" d="M32.68,405.22a5.93,5.93,0,0,1,2.14,1.29,6.31,6.31,0,0,1,1.45,2.09"/><path class="cls-12" d="M31.6,406.52a7.58,7.58,0,0,1,1.83,1.33c1,1,1.82,1.86,1.74,2a15.71,15.71,0,0,1-2.42,2.44c-.33,0-1.06-.43-2.12-1.34-.67-.58-1.41-1.45-1.39-1.8S30.79,406.68,31.6,406.52Z"/><path class="cls-12" d="M46.67,390.82a5.93,5.93,0,0,1,2.14,1.29,6.31,6.31,0,0,1,1.45,2.09"/><path class="cls-12" d="M45.59,392.12a7.58,7.58,0,0,1,1.83,1.33c1,1,1.82,1.86,1.74,2a15.71,15.71,0,0,1-2.42,2.44c-.33,0-1.06-.43-2.12-1.34-.67-.58-1.41-1.45-1.39-1.8S44.78,392.28,45.59,392.12Z"/><path class="cls-12" d="M60.5,376.58a5.93,5.93,0,0,1,2.14,1.29A6.31,6.31,0,0,1,64.09,380"/><path class="cls-12" d="M59.42,377.89a7.58,7.58,0,0,1,1.83,1.33c1,1,1.82,1.86,1.74,2a15.71,15.71,0,0,1-2.42,2.44c-.33,0-1.06-.43-2.12-1.34-.67-.58-1.41-1.45-1.39-1.8S58.62,378,59.42,377.89Z"/><path class="cls-12" d="M76,391.68A5.93,5.93,0,0,1,78.19,393a6.31,6.31,0,0,1,1.45,2.09"/><path class="cls-12" d="M75,393a7.58,7.58,0,0,1,1.83,1.33c1,1,1.82,1.86,1.74,2a15.71,15.71,0,0,1-2.42,2.44c-.33,0-1.06-.43-2.12-1.34-.67-.58-1.41-1.45-1.39-1.8S74.16,393.15,75,393Z"/><rect class="cls-12" x="59.12" y="376.59" width="7.35" height="33.2" transform="translate(388.55 622.16) rotate(134.18)"/><rect class="cls-12" x="125.68" y="402.07" width="7.35" height="40.21" transform="translate(-72.06 815.09) rotate(-135.82)"/><rect class="cls-12" x="-2.71" y="336.13" width="7.35" height="21.85" transform="translate(-248.61 105.9) rotate(-45.82)"/><rect class="cls-12" x="197.87" y="229.41" width="4.32" height="10.59" transform="translate(220.13 -73.02) rotate(44.18)"/><path class="cls-12" d="M264.72,341.28s-3.35,3.24-3.32,4.32a7.39,7.39,0,0,0,1.66,2.55,7.87,7.87,0,0,0,2.59,1.7c1.43,0,4.45-3.33,4.45-3.33"/><path class="cls-12" d="M262.43,345.16a8.56,8.56,0,0,0,1.57,2c1.13,1.13,2.16,2,2.35,1.89a17.74,17.74,0,0,0,2.67-2.81c0-.37-.52-1.18-1.59-2.35-.68-.74-1.68-1.55-2.08-1.51S262.58,344.24,262.43,345.16Z"/><path class="cls-12" d="M284.86,331.33s3.35-3.24,3.32-4.32a7.39,7.39,0,0,0-1.66-2.55,7.87,7.87,0,0,0-2.59-1.7c-1.43,0-4.45,3.33-4.45,3.33"/><path class="cls-12" d="M287.15,327.45a8.56,8.56,0,0,0-1.57-2c-1.13-1.13-2.16-2-2.35-1.89a17.74,17.74,0,0,0-2.67,2.81c0,.37.52,1.18,1.59,2.35.68.74,1.68,1.55,2.08,1.51S287,328.37,287.15,327.45Z"/><path class="cls-12" d="M275.1,324.92s-3.17-3.42-4.93-2.71c0,0-2.12,1.89-4.81,4.59s-4.68,4.92-4.68,4.92c-.84,2.3,2.65,5.14,2.65,5.14"/><path class="cls-12" d="M271.11,322.75a59.86,59.86,0,0,0-5.06,4.61c-3,3-5.49,5.67-5.47,5.94s2.35,2.8,2.93,2.55,2.62-2,5.67-4.92c1.93-1.87,4.83-5,5.1-5.69S271.82,322.39,271.11,322.75Z"/><path class="cls-12" d="M274.37,347.53s3.17,3.42,4.93,2.71c0,0,2.12-1.89,4.81-4.59s4.68-4.92,4.68-4.92c.84-2.3-2.65-5.14-2.65-5.14"/><path class="cls-12" d="M278.37,349.7a59.86,59.86,0,0,0,5.06-4.61c3-3,5.49-5.67,5.47-5.94s-2.35-2.8-2.93-2.55-2.62,2-5.67,4.92c-1.93,1.87-4.73,4.92-5,5.63S277.57,350.06,278.37,349.7Z"/><rect class="cls-12" x="272.62" y="331.02" width="4.32" height="10.59" transform="translate(312.08 -96.38) rotate(44.18)"/><path class="cls-12" d="M259.17,442.55S263,445.24,264,445a7.39,7.39,0,0,0,2.19-2.11,7.87,7.87,0,0,0,1.19-2.86c-.29-1.4-4.1-3.75-4.1-3.75"/><path class="cls-12" d="M263.41,444.08a8.56,8.56,0,0,0,1.7-1.92c.9-1.32,1.55-2.49,1.42-2.66a17.74,17.74,0,0,0-3.26-2.1c-.37.06-1.07.73-2,2-.6.8-1.21,1.94-1.09,2.33S262.48,444.1,263.41,444.08Z"/><path class="cls-12" d="M263.52,428s4.25-1.91,4.59-2.93a7.39,7.39,0,0,0-.7-3,7.87,7.87,0,0,0-1.86-2.48c-1.36-.46-5.32,1.63-5.32,1.63"/><path class="cls-12" d="M267,425.17a8.56,8.56,0,0,0-.79-2.44c-.68-1.44-1.36-2.6-1.57-2.58a17.74,17.74,0,0,0-3.46,1.74c-.14.35.08,1.29.7,2.75.39.92,1.06,2,1.45,2.13S266.53,426,267,425.17Z"/><path class="cls-12" d="M202.64,441.18s3.24,3.35,4.32,3.32a7.39,7.39,0,0,0,2.55-1.66,7.87,7.87,0,0,0,1.7-2.59c0-1.43-3.33-4.45-3.33-4.45"/><path class="cls-12" d="M206.52,443.48a8.56,8.56,0,0,0,2-1.57c1.13-1.13,2-2.16,1.89-2.35a17.74,17.74,0,0,0-2.81-2.67c-.37,0-1.18.52-2.35,1.59-.74.68-1.55,1.68-1.51,2.08S205.6,443.32,206.52,443.48Z"/><path class="cls-12" d="M196.11,424.38s-3.24-3.35-4.32-3.32a7.39,7.39,0,0,0-2.55,1.66,7.87,7.87,0,0,0-1.7,2.59c0,1.43,3.33,4.45,3.33,4.45"/><path class="cls-12" d="M192.23,422.08a8.56,8.56,0,0,0-2,1.57c-1.13,1.13-2,2.16-1.89,2.35a17.74,17.74,0,0,0,2.81,2.67c.37,0,1.18-.52,2.35-1.59.74-.68,1.55-1.68,1.51-2.08S193.15,422.24,192.23,422.08Z"/><path class="cls-12" d="M195.57,448.46s3.24,3.35,4.32,3.32a7.39,7.39,0,0,0,2.55-1.66,7.87,7.87,0,0,0,1.7-2.59c0-1.43-3.33-4.45-3.33-4.45"/><path class="cls-12" d="M199.45,450.75a8.56,8.56,0,0,0,2-1.57c1.13-1.13,2-2.16,1.89-2.35a17.74,17.74,0,0,0-2.81-2.67c-.37,0-1.18.52-2.35,1.59-.74.68-1.55,1.68-1.51,2.08S198.53,450.6,199.45,450.75Z"/><path class="cls-12" d="M189,431.66s-3.24-3.35-4.32-3.32a7.39,7.39,0,0,0-2.55,1.66,7.87,7.87,0,0,0-1.7,2.59c0,1.43,3.33,4.45,3.33,4.45"/><path class="cls-12" d="M185.16,429.36a8.56,8.56,0,0,0-2,1.57c-1.13,1.13-2,2.16-1.89,2.35a17.74,17.74,0,0,0,2.81,2.67c.37,0,1.18-.52,2.35-1.59.74-.68,1.55-1.68,1.51-2.08S186.07,429.52,185.16,429.36Z"/><rect class="cls-12" x="193.53" y="431.29" width="4.32" height="10.59" transform="translate(31.8 886.07) rotate(-135.82)"/><path class="cls-12" d="M179.58,308.55s-3.24-3.35-4.32-3.32a7.39,7.39,0,0,0-2.55,1.66,7.87,7.87,0,0,0-1.7,2.59c0,1.43,3.33,4.45,3.33,4.45"/><path class="cls-12" d="M175.7,306.26a8.56,8.56,0,0,0-2,1.57c-1.13,1.13-2,2.16-1.89,2.35a17.74,17.74,0,0,0,2.81,2.67c.37,0,1.18-.52,2.35-1.59.74-.68,1.55-1.68,1.51-2.08S176.62,306.42,175.7,306.26Z"/><path class="cls-12" d="M186.11,325.36s3.24,3.35,4.32,3.32A7.39,7.39,0,0,0,193,327a7.87,7.87,0,0,0,1.7-2.59c0-1.43-3.33-4.45-3.33-4.45"/><path class="cls-12" d="M190,327.65a8.56,8.56,0,0,0,2-1.57c1.13-1.13,2-2.16,1.89-2.35a17.74,17.74,0,0,0-2.81-2.67c-.37,0-1.18.52-2.35,1.59-.74.68-1.55,1.68-1.51,2.08S189.07,327.5,190,327.65Z"/><path class="cls-12" d="M186.65,301.28s-3.24-3.35-4.32-3.32a7.39,7.39,0,0,0-2.55,1.66,7.87,7.87,0,0,0-1.7,2.59c0,1.43,3.33,4.45,3.33,4.45"/><path class="cls-12" d="M182.77,299a8.56,8.56,0,0,0-2,1.57c-1.13,1.13-2,2.16-1.89,2.35a17.74,17.74,0,0,0,2.81,2.67c.37,0,1.18-.52,2.35-1.59.74-.68,1.55-1.68,1.51-2.08S183.69,299.14,182.77,299Z"/><path class="cls-12" d="M193.19,318.08s3.24,3.35,4.32,3.32a7.39,7.39,0,0,0,2.55-1.66,7.87,7.87,0,0,0,1.7-2.59c0-1.43-3.33-4.45-3.33-4.45"/><path class="cls-12" d="M197.06,320.37a8.56,8.56,0,0,0,2-1.57c1.13-1.13,2-2.16,1.89-2.35a17.74,17.74,0,0,0-2.81-2.67c-.37,0-1.18.52-2.35,1.59-.74.68-1.55,1.68-1.51,2.08S196.15,320.22,197.06,320.37Z"/><rect class="cls-12" x="184.37" y="307.86" width="4.32" height="10.59" transform="translate(270.98 -41.42) rotate(44.18)"/><circle class="cls-12" cx="267.11" cy="432.38" r="3.53" transform="translate(-229.13 322.64) rotate(-45.82)"/><path class="cls-12" d="M251.93,399,284.8,431,248.53,468.3l-21.2.29-.15-9.75c-8.66.44-8.91,9.68-8.91,9.68s-.17-9.35-9.14-9.41l.15,9.74-18.24.28-26.31-25.57L131.45,477.8l26.26,25.52"/><circle class="cls-7" cx="248.94" cy="273.04" r="8.84" transform="translate(-120.36 261.3) rotate(-45.82)"/><line class="cls-12" x1="255.1" y1="266.7" x2="242.78" y2="279.38"/><line class="cls-12" x1="242.6" y1="266.88" x2="255.28" y2="279.2"/><path class="cls-12" d="M196.59,392.89l-56.29,58.16,0,0s-6.81-6.57-13.2-.27l6.85,6.64.11.12L130.62,461l-6.95-6.77c-6.11,6.57.68,13.22.68,13.22L89.23,503.6"/><line class="cls-12" x1="122.52" y1="469.12" x2="131.45" y2="477.8"/><path class="cls-12" d="M33.56,449.5,35,448l6.95,6.77c6.11-6.57-.6-13.14-.6-13.14l58-59.88.08.08s6.76,6.52,13.15.22l-7-6.75h0l2.14-2.21"/><line class="cls-12" x1="51.47" y1="431.2" x2="90.44" y2="469.06"/><polyline class="cls-12" points="284.8 430.96 292.64 438.58 365.11 364"/><line class="cls-12" x1="329" y1="401.15" x2="297.56" y2="370.6"/><path class="cls-12" d="M306.24,345.42l6.64-6.85c6.3,6.39-.18,13.11-.18,13.11l1.69,1.61-33.33,34.3L279.39,386s-6.68,6.82-13.25.7l6.78-7-1.15-1.1L252,398.93l-15.77-.1-.15-9.75c-8.66.44-8.91,9.68-8.91,9.68s-.17-9.35-9.14-9.41l.15,9.74H203l-14.16-13.76"/><rect class="cls-12" x="272.46" y="397.67" width="7.35" height="35.85" transform="translate(-214.36 324.02) rotate(-45.82)"/><ellipse class="cls-12" cx="273.04" cy="412.58" rx="1.74" ry="2.46" transform="translate(-213.14 320.89) rotate(-45.82)"/><ellipse class="cls-12" cx="279.43" cy="418.79" rx="1.74" ry="2.46" transform="translate(-215.65 327.35) rotate(-45.82)"/><ellipse class="cls-12" cx="285.82" cy="425" rx="1.74" ry="2.46" transform="translate(-218.17 333.81) rotate(-45.82)"/><ellipse class="cls-12" cx="266.65" cy="406.38" rx="1.74" ry="2.46" transform="translate(-210.62 314.43) rotate(-45.82)"/><rect class="cls-12" x="337.92" y="330.31" width="7.35" height="35.85" transform="translate(-146.21 350.54) rotate(-45.82)"/><ellipse class="cls-12" cx="338.49" cy="345.22" rx="1.74" ry="2.46" transform="translate(-144.99 347.41) rotate(-45.82)"/><ellipse class="cls-12" cx="344.88" cy="351.43" rx="1.74" ry="2.46" transform="translate(-147.5 353.87) rotate(-45.82)"/><ellipse class="cls-12" cx="351.27" cy="357.64" rx="1.74" ry="2.46" transform="translate(-150.02 360.34) rotate(-45.82)"/><ellipse class="cls-12" cx="332.11" cy="339.02" rx="1.74" ry="2.46" transform="translate(-142.47 340.95) rotate(-45.82)"/><ellipse class="cls-12" cx="307.48" cy="369.2" rx="2.86" ry="2.14" transform="translate(-171.58 332.44) rotate(-45.82)"/><rect class="cls-12" x="325.92" y="328.03" width="2.62" height="5.36" transform="translate(792.45 326.48) rotate(134.18)"/><rect class="cls-12" x="302.59" y="370.04" width="2.62" height="5.68" transform="translate(783.11 414.78) rotate(134.18)"/><rect class="cls-12" x="358.21" y="359.4" width="2.62" height="5.36" transform="translate(869.74 356.56) rotate(134.18)"/><rect class="cls-12" x="257.14" y="398.81" width="2.62" height="5.36" transform="translate(726.51 495.93) rotate(134.18)"/><rect class="cls-12" x="289.43" y="430.19" width="2.62" height="5.36" transform="translate(803.8 526.01) rotate(134.18)"/><path class="cls-12" d="M314.38,353.29l1,1L309.81,360c5.8,5.41,11.25-.16,11.25-.16l1.14,1.11-16.78,17.27"/><ellipse class="cls-12" cx="315.44" cy="376.93" rx="2.86" ry="2.14" transform="translate(-174.71 340.49) rotate(-45.82)"/><rect class="cls-12" x="310.55" y="377.78" width="2.62" height="5.68" transform="translate(802.17 422.2) rotate(134.18)"/><path class="cls-12" d="M322.35,361l1,1-5.56,5.71c5.8,5.41,11.25-.16,11.25-.16l1.14,1.11-16.78,17.27"/><ellipse class="cls-12" cx="296.43" cy="380.57" rx="2.86" ry="2.14" transform="translate(-183.09 327.96) rotate(-45.82)"/><rect class="cls-12" x="298.7" y="374.04" width="2.62" height="5.68" transform="translate(-179.36 329.41) rotate(-45.82)"/><path class="cls-12" d="M280.73,387.93l1,1,5.54-5.72c5.57,5.64.16,11.25.16,11.25l1.14,1.11,16.78-17.27"/><ellipse class="cls-12" cx="304.39" cy="388.31" rx="2.86" ry="2.14" transform="translate(-186.22 336.01) rotate(-45.82)"/><rect class="cls-12" x="306.67" y="381.78" width="2.62" height="5.68" transform="translate(-182.49 337.47) rotate(-45.82)"/><ellipse class="cls-12" cx="314.84" cy="392.93" rx="1.1" ry="2.14" transform="translate(-186.37 344.91) rotate(-45.82)"/><rect class="cls-12" x="315.71" y="388.67" width="1.01" height="5.68" transform="translate(-184.93 345.47) rotate(-45.82)"/><ellipse class="cls-12" cx="322.8" cy="400.67" rx="1.1" ry="2.14" transform="translate(-189.51 352.96) rotate(-45.82)"/><rect class="cls-12" x="323.68" y="396.41" width="1.01" height="5.68" transform="translate(-188.07 353.52) rotate(-45.82)"/><path class="cls-12" d="M288.69,395.66l1,1,5.54-5.72c5.57,5.64.16,11.25.16,11.25l1.14,1.11L313.31,386"/><ellipse class="cls-12" cx="323.13" cy="384.4" rx="2.86" ry="2.14" transform="translate(-177.74 348.27) rotate(-45.82)"/><rect class="cls-12" x="318.24" y="385.25" width="2.62" height="5.68" transform="translate(820.56 429.36) rotate(134.18)"/><path class="cls-12" d="M330,368.49l1,1-5.56,5.71c5.8,5.41,11.25-.16,11.25-.16l1.14,1.11-16.78,17.27"/><ellipse class="cls-12" cx="331.09" cy="392.14" rx="2.86" ry="2.14" transform="translate(-180.88 356.32) rotate(-45.82)"/><rect class="cls-12" x="326.2" y="392.98" width="2.62" height="5.68" transform="translate(839.62 436.78) rotate(134.18)"/><path class="cls-12" d="M338,376.23l1,1-5.56,5.71c5.8,5.41,11.25-.16,11.25-.16l1.14,1.11L329,401.12"/><line class="cls-12" x1="341.29" y1="485.85" x2="322.92" y2="468"/><path class="cls-12" d="M292.64,438.58,310,455.41l-6.78,7c6.44,5.81,13.15-.54,13.15-.54s-6.49,6.73-.19,13.12l6.78-7,18.38,17.86"/><polyline class="cls-12" points="132.17 459.19 115.64 443.13 72.59 487.43"/><line class="cls-12" x1="115.64" y1="443.13" x2="156.34" y2="401.25"/><rect class="cls-12" x="123.23" y="421.25" width="9.05" height="5.2" rx="2.34" ry="2.34" transform="translate(520.76 627.6) rotate(134.18)"/><rect class="cls-12" x="140.9" y="395.52" width="11.57" height="11.57" transform="translate(536.72 575.77) rotate(134.18)"/><line class="cls-8" x1="545.15" y1="334.12" x2="673.2" y2="202.96"/><line class="cls-8" x1="595.71" y1="346.78" x2="531.28" y2="283.87"/><line class="cls-8" x1="577.37" y1="365.57" x2="512.93" y2="302.66"/><line class="cls-8" x1="614.06" y1="327.99" x2="549.62" y2="265.08"/><line class="cls-8" x1="632.19" y1="309.41" x2="567.76" y2="246.5"/><line class="cls-8" x1="650.54" y1="290.62" x2="586.1" y2="227.71"/><line class="cls-8" x1="650.54" y1="290.62" x2="586.1" y2="227.71"/><line class="cls-8" x1="668.89" y1="271.83" x2="604.45" y2="208.92"/><line class="cls-8" x1="687.23" y1="253.03" x2="622.8" y2="190.13"/><line class="cls-8" x1="705.37" y1="234.46" x2="640.93" y2="171.55"/><line class="cls-8" x1="655" y1="221.65" x2="783.05" y2="90.49"/><line class="cls-8" x1="705.56" y1="234.31" x2="641.13" y2="171.4"/><line class="cls-8" x1="687.22" y1="253.1" x2="622.78" y2="190.19"/><line class="cls-8" x1="723.91" y1="215.52" x2="659.47" y2="152.61"/><line class="cls-8" x1="742.04" y1="196.94" x2="677.61" y2="134.03"/><line class="cls-8" x1="760.39" y1="178.15" x2="695.95" y2="115.24"/><line class="cls-8" x1="760.39" y1="178.15" x2="695.95" y2="115.24"/><line class="cls-8" x1="778.74" y1="159.36" x2="714.3" y2="96.45"/><line class="cls-8" x1="797.08" y1="140.56" x2="732.65" y2="77.66"/><line class="cls-8" x1="815.22" y1="121.99" x2="750.78" y2="59.08"/><path class="cls-9" d="M586.76,284.55c-3.06,3.13-5.33,3.39-5.73,3.27a51.07,51.07,0,0,1-4.38-3.38c-.51-.45-12.43-12.44-13-12.93a44,44,0,0,1-3.39-3.11,5.63,5.63,0,0,1-1.73-4.15c-.05-1.93,2.15-4.29,2.6-4.74s2.75-2.72,4.68-2.71a5.63,5.63,0,0,1,4.19,1.63,44,44,0,0,1,3.19,3.32c.51.57,12.78,12.2,13.24,12.69a51.07,51.07,0,0,1,3.48,4.3C590,279.14,589.82,281.42,586.76,284.55Z"/><path class="cls-10" d="M585.89,275.46s-1.09-.49-6.4-5.68-4.68-5.27-6.87-7.76l3.29,3.13c.66.63,6.75,6.71,7.3,7.26A30.22,30.22,0,0,1,585.89,275.46Z"/><path class="cls-11" d="M574,263.28l-.54-.53a.29.29,0,0,0,.29,0,.17.17,0,0,1,0-.25c.06-.07.72-.8,1.39-.69s.88.38.77.5a10.36,10.36,0,0,1-1.43.84.74.74,0,0,1-.28-.1Z"/><path class="cls-11" d="M565.18,272.29l-.54-.53a.29.29,0,0,1,0,.29.17.17,0,0,0-.25,0c-.07.07-.78.74-.65,1.41s.4.87.52.76a10.36,10.36,0,0,0,.81-1.45.74.74,0,0,0-.11-.28Z"/><path class="cls-10" d="M566.68,264.92c-3,3.1-2.85,3.84-2.89,4.66s3,3.05,3.53,3.45.71.55.76.35c.35-1.48,2.27-3.45,3-4.18s2.63-2.7,4.11-3.08c.19-.05,0-.23-.37-.75s-2.71-3.5-3.53-3.45S569.71,261.82,566.68,264.92Z"/><path class="cls-10" d="M577.65,283.9s-.52-1.08-5.83-6.26-5.38-4.55-7.92-6.68l3.21,3.21c.65.64,6.87,6.59,7.43,7.12A30.22,30.22,0,0,0,577.65,283.9Z"/><path class="cls-10" d="M584.72,282.57a11.28,11.28,0,0,1-3.25,2.47c-1.12.49-1.46,0-1.6-.16s-2.64-2.81-2.73-2.91.47-.29.94-.56A27.67,27.67,0,0,0,583.4,276c.26-.48.43-1,.54-1s2.83,2.51,3,2.65.66.46.2,1.6A11.28,11.28,0,0,1,584.72,282.57Z"/><path class="cls-9" d="M554.33,322.4c-3.06,3.13-5.33,3.39-5.73,3.27a51.07,51.07,0,0,1-4.38-3.38c-.51-.45-12.43-12.44-13-12.93a44,44,0,0,1-3.39-3.11,5.63,5.63,0,0,1-1.73-4.15c-.05-1.93,2.15-4.29,2.6-4.74s2.75-2.72,4.68-2.71a5.63,5.63,0,0,1,4.19,1.63,44,44,0,0,1,3.19,3.32c.51.57,12.78,12.2,13.24,12.69a51.07,51.07,0,0,1,3.48,4.3C557.6,317,557.39,319.27,554.33,322.4Z"/><path class="cls-10" d="M553.46,313.31s-1.09-.49-6.4-5.68-4.68-5.27-6.87-7.76l3.29,3.13c.66.63,6.75,6.71,7.3,7.26A30.22,30.22,0,0,1,553.46,313.31Z"/><path class="cls-11" d="M541.56,301.13l-.54-.53a.29.29,0,0,0,.29,0,.17.17,0,0,1,0-.25c.06-.07.72-.8,1.39-.69s.88.38.77.5A10.36,10.36,0,0,1,542,301a.74.74,0,0,1-.28-.1Z"/><path class="cls-11" d="M532.76,310.14l-.54-.53a.29.29,0,0,1,0,.29.17.17,0,0,0-.25,0c-.07.07-.78.74-.65,1.41s.4.87.52.76a10.36,10.36,0,0,0,.81-1.45.74.74,0,0,0-.11-.28Z"/><path class="cls-10" d="M534.26,302.77c-3,3.1-2.85,3.84-2.89,4.66s3,3.05,3.53,3.45.71.55.76.35c.35-1.48,2.27-3.45,3-4.18s2.63-2.7,4.11-3.08c.19-.05,0-.23-.37-.75s-2.71-3.5-3.53-3.45S537.29,299.67,534.26,302.77Z"/><path class="cls-10" d="M545.23,321.75s-.52-1.08-5.83-6.26-5.38-4.55-7.92-6.68l3.21,3.21c.65.64,6.87,6.59,7.43,7.12A30.22,30.22,0,0,0,545.23,321.75Z"/><path class="cls-10" d="M552.3,320.42a11.28,11.28,0,0,1-3.25,2.47c-1.12.49-1.46,0-1.6-.16s-2.64-2.81-2.73-2.91.47-.29.94-.56a27.67,27.67,0,0,0,5.31-5.44c.26-.48.43-1,.54-1s2.83,2.51,3,2.65.66.46.2,1.6A11.28,11.28,0,0,1,552.3,320.42Z"/><path class="cls-9" d="M587.45,179.93c4.33-.65,6.3.51,6.55.85a51.07,51.07,0,0,1,1.45,5.33c.13.66,2.41,17.42,2.57,18.16a44,44,0,0,1,.83,4.53,5.63,5.63,0,0,1-1.12,4.35c-1.12,1.58-4.3,2.12-4.93,2.22s-3.83.51-5.37-.66a5.63,5.63,0,0,1-2.36-3.82,44,44,0,0,1-.54-4.57c-.06-.76-2.83-17.43-2.9-18.11a51.07,51.07,0,0,1-.18-5.52C581.58,182.27,583.12,180.58,587.45,179.93Z"/><path class="cls-10" d="M582.66,187.7s.57,1.05,1.68,8.39.55,7,.79,10.33c0,.06-.59-3.58-.73-4.48s-1.34-9.42-1.44-10.19A30.22,30.22,0,0,1,582.66,187.7Z"/><path class="cls-11" d="M584.8,204.6l.11.75a.29.29,0,0,0-.22-.18.17.17,0,0,1-.15.2c-.09,0-1.06.2-1.52-.29s-.47-.83-.31-.87a10.36,10.36,0,0,1,1.65.19.74.74,0,0,1,.16.25Z"/><path class="cls-11" d="M597.26,202.72l.11.75a.29.29,0,0,1,.16-.24.17.17,0,0,0,.2.15c.09,0,1.07-.12,1.37-.73s.2-.93,0-.92a10.36,10.36,0,0,0-1.52.67.74.74,0,0,0-.08.28Z"/><path class="cls-10" d="M591.62,207.69c4.29-.65,4.59-1.34,5.11-2s-.56-4.25-.74-4.88-.24-.86-.39-.74c-1.17,1-3.89,1.38-4.9,1.53s-3.73.56-5.13,0c-.19-.08-.17.16-.16.82s.05,4.43.74,4.88S587.33,208.34,591.62,207.69Z"/><path class="cls-10" d="M594.32,185.94s-.24,1.17.87,8.51,1.54,6.88,2.29,10.1c0,.05-.49-3.59-.62-4.5s-1.5-9.4-1.63-10.16A30.22,30.22,0,0,0,594.32,185.94Z"/><path class="cls-10" d="M587.87,182.74a11.28,11.28,0,0,1,4.08,0c1.19.29,1.15.89,1.18,1.09s.41,3.83.42,4-.55-.05-1.09-.12a27.67,27.67,0,0,0-7.51,1.13c-.5.23-1,.57-1,.44s-.74-3.71-.77-3.91-.25-.76.81-1.39A11.28,11.28,0,0,1,587.87,182.74Z"/><path class="cls-14" d="M339.91,134.82c-8.64,8.89-26.56,6.23-49.12-15.69l-.07-.07c-22.29-21.66-25-38.81-16.23-47.81Z"/><path class="cls-14" d="M455.92,247.55c-8.64,8.89-26.56,6.23-49.12-15.69l-.07-.07c-22.29-21.66-25-38.81-16.23-47.81Z"/><path class="cls-14" d="M578.25,366.41c-8.64,8.89-26.56,6.23-49.12-15.69l-.07-.07c-22.29-21.66-25-38.81-16.23-47.81Z"/><line class="cls-8" x1="673.08" y1="462.05" x2="801.13" y2="330.89"/><line class="cls-15" x1="723.65" y1="474.71" x2="659.21" y2="411.81"/><line class="cls-15" x1="705.3" y1="493.51" x2="640.86" y2="430.6"/><line class="cls-15" x1="741.99" y1="455.92" x2="677.56" y2="393.01"/><line class="cls-15" x1="760.13" y1="437.35" x2="695.69" y2="374.44"/><line class="cls-15" x1="778.47" y1="418.55" x2="714.04" y2="355.65"/><line class="cls-15" x1="778.47" y1="418.55" x2="714.04" y2="355.65"/><line class="cls-15" x1="796.82" y1="399.76" x2="732.39" y2="336.85"/><line class="cls-15" x1="815.17" y1="380.97" x2="750.73" y2="318.06"/><line class="cls-15" x1="833.3" y1="362.39" x2="768.87" y2="299.49"/><line class="cls-8" x1="782.93" y1="349.58" x2="910.98" y2="218.42"/><line class="cls-15" x1="833.5" y1="362.24" x2="769.06" y2="299.34"/><line class="cls-15" x1="815.15" y1="381.03" x2="750.71" y2="318.13"/><line class="cls-15" x1="851.84" y1="343.45" x2="787.41" y2="280.54"/><line class="cls-15" x1="869.98" y1="324.88" x2="805.54" y2="261.97"/><line class="cls-15" x1="888.32" y1="306.08" x2="823.89" y2="243.18"/><line class="cls-15" x1="888.32" y1="306.08" x2="823.89" y2="243.18"/><line class="cls-15" x1="906.67" y1="287.29" x2="842.24" y2="224.38"/><line class="cls-15" x1="925.02" y1="268.5" x2="860.58" y2="205.59"/><line class="cls-15" x1="943.15" y1="249.92" x2="878.72" y2="187.02"/><path class="cls-9" d="M714.69,412.49c-3.06,3.13-5.33,3.39-5.73,3.27a51.07,51.07,0,0,1-4.38-3.38c-.51-.45-12.43-12.44-13-12.93a44,44,0,0,1-3.39-3.11,5.63,5.63,0,0,1-1.73-4.15c-.05-1.93,2.15-4.29,2.6-4.74s2.75-2.72,4.68-2.71a5.63,5.63,0,0,1,4.19,1.63,44,44,0,0,1,3.19,3.32c.51.57,12.78,12.2,13.24,12.69a51.07,51.07,0,0,1,3.48,4.3C718,407.07,717.75,409.35,714.69,412.49Z"/><path class="cls-10" d="M713.82,403.4s-1.09-.49-6.4-5.68-4.68-5.27-6.87-7.76l3.29,3.13c.66.63,6.75,6.71,7.3,7.26A30.22,30.22,0,0,1,713.82,403.4Z"/><path class="cls-11" d="M701.92,391.21l-.54-.53a.29.29,0,0,0,.29,0,.17.17,0,0,1,0-.25c.06-.07.72-.8,1.39-.69s.88.38.77.5a10.36,10.36,0,0,1-1.43.84.74.74,0,0,1-.28-.1Z"/><path class="cls-11" d="M693.11,400.23l-.54-.53a.29.29,0,0,1,0,.29.17.17,0,0,0-.25,0c-.07.07-.78.74-.65,1.41s.4.87.52.76a10.36,10.36,0,0,0,.81-1.45.74.74,0,0,0-.11-.28Z"/><path class="cls-10" d="M694.62,392.86c-3,3.1-2.85,3.84-2.89,4.66s3,3.05,3.53,3.45.71.55.76.35c.35-1.48,2.27-3.45,3-4.18s2.63-2.7,4.11-3.08c.19-.05,0-.23-.37-.75s-2.71-3.5-3.53-3.45S697.65,389.75,694.62,392.86Z"/><path class="cls-10" d="M705.58,411.83s-.52-1.08-5.83-6.26-5.38-4.55-7.92-6.68l3.21,3.21c.65.64,6.87,6.59,7.43,7.12A30.22,30.22,0,0,0,705.58,411.83Z"/><path class="cls-10" d="M712.66,410.5a11.28,11.28,0,0,1-3.25,2.47c-1.12.49-1.46,0-1.6-.16s-2.64-2.81-2.73-2.91.47-.29.94-.56a27.67,27.67,0,0,0,5.31-5.44c.26-.48.43-1,.54-1s2.83,2.51,3,2.65.66.46.2,1.6A11.28,11.28,0,0,1,712.66,410.5Z"/><path class="cls-9" d="M731.56,461.91c-3.06,3.13-5.33,3.39-5.73,3.27a51.07,51.07,0,0,1-4.38-3.38c-.51-.45-12.43-12.44-13-12.93a44,44,0,0,1-3.39-3.11,5.63,5.63,0,0,1-1.73-4.15c-.05-1.93,2.15-4.29,2.6-4.74s2.75-2.72,4.68-2.71a5.63,5.63,0,0,1,4.19,1.63,44,44,0,0,1,3.19,3.32c.51.57,12.78,12.2,13.24,12.69a51.07,51.07,0,0,1,3.48,4.3C734.82,456.5,734.62,458.77,731.56,461.91Z"/><path class="cls-10" d="M730.69,452.82s-1.09-.49-6.4-5.68-4.68-5.27-6.87-7.76l3.29,3.13c.66.63,6.75,6.71,7.3,7.26A30.22,30.22,0,0,1,730.69,452.82Z"/><path class="cls-11" d="M718.79,440.63l-.54-.53a.29.29,0,0,0,.29,0,.17.17,0,0,1,0-.25c.06-.07.72-.8,1.39-.69s.88.38.77.5a10.36,10.36,0,0,1-1.43.84.74.74,0,0,1-.28-.1Z"/><path class="cls-11" d="M710,449.65l-.54-.53a.29.29,0,0,1,0,.29.17.17,0,0,0-.25,0c-.07.07-.78.74-.65,1.41s.4.87.52.76a10.36,10.36,0,0,0,.81-1.45.74.74,0,0,0-.11-.28Z"/><path class="cls-10" d="M711.49,442.28c-3,3.1-2.85,3.84-2.89,4.66s3,3.05,3.53,3.45.71.55.76.35c.35-1.48,2.27-3.45,3-4.18s2.63-2.7,4.11-3.08c.19-.05,0-.23-.37-.75s-2.71-3.5-3.53-3.45S714.52,439.18,711.49,442.28Z"/><path class="cls-10" d="M722.45,461.26s-.52-1.08-5.83-6.26-5.38-4.55-7.92-6.68l3.21,3.21c.65.64,6.87,6.59,7.43,7.12A30.22,30.22,0,0,0,722.45,461.26Z"/><path class="cls-10" d="M729.53,459.92a11.28,11.28,0,0,1-3.25,2.47c-1.12.49-1.46,0-1.6-.16s-2.64-2.81-2.73-2.91.47-.29.94-.56a27.67,27.67,0,0,0,5.31-5.44c.26-.48.43-1,.54-1s2.83,2.51,3,2.65.66.46.2,1.6A11.28,11.28,0,0,1,729.53,459.92Z"/><path class="cls-9" d="M710,479.85c-3.06,3.13-5.33,3.39-5.73,3.27a51.07,51.07,0,0,1-4.38-3.38c-.51-.45-12.43-12.44-13-12.93a44,44,0,0,1-3.39-3.11,5.63,5.63,0,0,1-1.73-4.15c-.05-1.93,2.15-4.29,2.6-4.74s2.75-2.72,4.68-2.71a5.63,5.63,0,0,1,4.19,1.63,44,44,0,0,1,3.19,3.32c.51.57,12.78,12.2,13.24,12.69a51.07,51.07,0,0,1,3.48,4.3C713.26,474.44,713.05,476.71,710,479.85Z"/><path class="cls-10" d="M709.12,470.76s-1.09-.49-6.4-5.68-4.68-5.27-6.87-7.76l3.29,3.13c.66.63,6.75,6.71,7.3,7.26A30.22,30.22,0,0,1,709.12,470.76Z"/><path class="cls-11" d="M697.22,458.57l-.54-.53a.29.29,0,0,0,.29,0,.17.17,0,0,1,0-.25c.06-.07.72-.8,1.39-.69s.88.38.77.5a10.36,10.36,0,0,1-1.43.84.74.74,0,0,1-.28-.1Z"/><path class="cls-11" d="M688.42,467.59l-.54-.53a.29.29,0,0,1,0,.29.17.17,0,0,0-.25,0c-.07.07-.78.74-.65,1.41s.4.87.52.76a10.36,10.36,0,0,0,.81-1.45.74.74,0,0,0-.11-.28Z"/><path class="cls-10" d="M689.92,460.22c-3,3.1-2.85,3.84-2.89,4.66s3,3.05,3.53,3.45.71.55.76.35c.35-1.48,2.27-3.45,3-4.18s2.63-2.7,4.11-3.08c.19-.05,0-.23-.37-.75s-2.71-3.5-3.53-3.45S693,457.12,689.92,460.22Z"/><path class="cls-10" d="M700.89,479.2s-.52-1.08-5.83-6.26-5.38-4.55-7.92-6.68l3.21,3.21c.65.64,6.87,6.59,7.43,7.12A30.22,30.22,0,0,0,700.89,479.2Z"/><path class="cls-10" d="M708,477.86a11.28,11.28,0,0,1-3.25,2.47c-1.12.49-1.46,0-1.6-.16s-2.64-2.81-2.73-2.91.47-.29.94-.56a27.67,27.67,0,0,0,5.31-5.44c.26-.48.43-1,.54-1s2.83,2.51,3,2.65.66.46.2,1.6A11.28,11.28,0,0,1,708,477.86Z"/><path class="cls-9" d="M840.73,402.33c1.44,4.14.66,6.29.37,6.59a51.07,51.07,0,0,1-5,2.41c-.63.25-16.67,5.58-17.37,5.88a44,44,0,0,1-4.3,1.65,5.63,5.63,0,0,1-4.48-.3c-1.76-.81-2.88-3.84-3.09-4.44s-1.21-3.67-.34-5.4a5.63,5.63,0,0,1,3.32-3,44,44,0,0,1,4.39-1.38c.73-.2,16.61-6,17.26-6.19a51.07,51.07,0,0,1,5.4-1.2C837.34,397,839.29,398.19,840.73,402.33Z"/><path class="cls-10" d="M832.21,399.05s-.93.75-7.93,3.2-6.8,1.84-10,2.68l4.27-1.55c.86-.3,9-3.05,9.75-3.29A30.22,30.22,0,0,1,832.21,399.05Z"/><path class="cls-11" d="M816,404.27l-.72.25a.29.29,0,0,0,.14-.25.17.17,0,0,1-.23-.11c0-.09-.39-1,0-1.55s.73-.62.79-.47a10.36,10.36,0,0,1,.12,1.66.74.74,0,0,1-.21.2Z"/><path class="cls-11" d="M820.14,416.17l-.72.25a.29.29,0,0,1,.26.11.17.17,0,0,0-.11.23c0,.09.32,1,1,1.21s1,0,.91-.13a10.36,10.36,0,0,0-.94-1.37.74.74,0,0,0-.29,0Z"/><path class="cls-10" d="M814.21,411.54c1.43,4.1,2.16,4.26,2.88,4.66s4.07-1.33,4.66-1.62.81-.39.65-.52c-1.17-1-2.08-3.57-2.41-4.53s-1.24-3.56-.93-5c0-.2-.19-.14-.83,0s-4.34.87-4.66,1.62S812.78,407.45,814.21,411.54Z"/><path class="cls-10" d="M836.09,410.19s-1.2,0-8.2,2.43-6.48,2.79-9.51,4.11l4.3-1.44c.86-.29,9-3.21,9.69-3.48A30.22,30.22,0,0,0,836.09,410.19Z"/><path class="cls-10" d="M838,403.26a11.28,11.28,0,0,1,.76,4c-.06,1.22-.66,1.29-.86,1.36l-3.82,1.14c-.13,0-.05-.55-.08-1.09a27.67,27.67,0,0,0-2.5-7.17c-.32-.44-.74-.85-.62-.9l3.7-1.48c.19-.07.7-.38,1.52.54A11.28,11.28,0,0,1,838,403.26Z"/><path class="cls-14" d="M706.18,494.34c-8.64,8.89-26.56,6.23-49.12-15.69l-.07-.07c-22.29-21.66-25-38.81-16.23-47.81Z"/><path class="cls-12" d="M22.66,307.61,50.6,334.75l-1.38,1.3-7-6.8c-6.11,6.57.71,13.25.71,13.25l-1.89,2,4.75,4.62h0L52.74,342c6.3,6.39-.19,13.12-.19,13.12s6.71-6.35,13.15-.54l-6.91,7.13,30.92,30"/><circle class="cls-16" cx="310.18" cy="292.86" r="10.81" transform="translate(-57.97 77.35) rotate(-13.01)"/><circle class="cls-17" cx="285.81" cy="277.44" r="1.34" transform="translate(-55.12 71.47) rotate(-13.01)"/><circle class="cls-17" cx="279.13" cy="284.12" r="1.34" transform="translate(-56.8 70.13) rotate(-13.01)"/><circle class="cls-17" cx="296.66" cy="276.44" r="1.34" transform="translate(-54.62 73.88) rotate(-13.01)"/><circle class="cls-17" cx="306.98" cy="275.66" r="1.34" transform="translate(-54.18 76.19) rotate(-13.01)"/><circle class="cls-16" cx="226.79" cy="212.63" r="10.81" transform="translate(-42.05 56.51) rotate(-13.01)"/><circle class="cls-16" cx="199.18" cy="185.93" r="10.81" transform="translate(-36.74 49.61) rotate(-13.01)"/><circle class="cls-16" cx="171.21" cy="158.54" r="10.81" transform="translate(-31.3 42.61) rotate(-13.01)"/><circle class="cls-16" cx="365.36" cy="346.73" r="10.81" transform="translate(-68.68 91.15) rotate(-13.01)"/><circle class="cls-16" cx="337.76" cy="320.03" r="10.81" transform="translate(-63.38 84.25) rotate(-13.01)"/><circle class="cls-16" cx="420.58" cy="400.71" r="10.81" transform="translate(-79.41 104.97) rotate(-13.01)"/><circle class="cls-16" cx="392.97" cy="374.01" r="10.81" transform="translate(-74.11 98.07) rotate(-13.01)"/><circle class="cls-17" cx="243.63" cy="236.27" r="1.34" transform="translate(-35.99 428.59) rotate(-78.64)"/><circle class="cls-17" cx="237.01" cy="243.17" r="1.34" transform="translate(-48.08 427.64) rotate(-78.64)"/><circle class="cls-17" cx="244.17" cy="225.43" r="1.34" transform="translate(-24.93 420.42) rotate(-78.64)"/><circle class="cls-17" cx="244.66" cy="215.09" r="1.34" transform="translate(-14.4 412.6) rotate(-78.64)"/></g></g></svg>