<svg id="Industrial_-_Panel_3" data-name="Industrial - Panel 3" xmlns="http://www.w3.org/2000/svg" xmlns:xlink="http://www.w3.org/1999/xlink" viewBox="0 0 1000 500"><defs><style>.cls-1{fill:url(#linear-gradient);}.cls-2{fill:#323c47;}.cls-3{fill:#d4dc39;stroke:#d4dc39;}.cls-3,.cls-4{stroke-miterlimit:10;}.cls-4{fill:none;stroke:#fff;}</style><linearGradient id="linear-gradient" x1="436.54" y1="-1440.71" x2="556.14" y2="-762.4" gradientTransform="matrix(1, 0, 0, -1, 0, -848.76)" gradientUnits="userSpaceOnUse"><stop offset="0.17" stop-color="#deede7"/><stop offset="0.39" stop-color="#e8f2ee"/><stop offset="0.72" stop-color="#fff"/></linearGradient></defs><title>industrial-panel-3</title><rect class="cls-1" x="-11.78" y="-7.3" width="1016.25" height="520.2"/><path class="cls-2" d="M-2.88,69c-.22-.78-.83-2.56,2.62-1.43S97.49,94.06,180.54,98s75.87,3.1,78.93,3.1,6.15.4,6.27-2.86,3.06-3.49,3.73.48,1.67,6.11,7.54,6.51-.77,3.85,5.18.93,10.09,2.83,11,2.86,1.79-1.4,7.33,2.74,3.07-1.76,10.18-.36,9.09.26,9.65,1.13-13.5,6.79-20.41,16.28,5.12,1.59,5.8,1.27,5.72-3.06,4.84-.4-2.1,3.87.08,3.78,9.49-1.68,16.12-6.16,8.38-10.08,13.1-8.73-5.52,2.94-5.8,6.43-.64,4.09,3.26,1.75,6.43,3.57,7.54,4.45,8.18,1.47,9.85-.32,2.94-3.06,8.58-3,5.52-4.15,5.68-.48,2.48,2.72,5.4,1.75,2.86,0,3.53,2.06,3.18,2.9,3.18,3.26-1.75,1.47-4.68,1.59-3.14.52-3.26,1.91-3.3-2.14-6.67-2-9.33,4.15-10.46,5.22-1.61.66-1.61-.3-3.54.48-5.36,3.16-8.61,16-7.56,17.09,8.35-11.48,9-10.84-6.73,16.85-5.48,32.75,5.36,21,7.62,21.08,11.26-5.6,10.6-16.91-8.75-15.13-2.14-31.8,12.51-15.68,13.26-15.32,15.6,1.55,15.8,13.66-7.31,12-3.89,15.48,4.17-7.31,8.89-6.83,6.11,10.68,7.07,13.58-6.75,17.43-7.15,19.85,1.75.44,3.1,1.75a10.44,10.44,0,0,0,5.88,2.62c1.83,0,10.2-2.18,11.51-3.81a22.58,22.58,0,0,1,11.12-8.58c7-2.54,14.41-13.66,14.45-14.69s-4-5.48-3.26-6,5.52-4.57,11.35-4.13,11.51-.36,13.82-3.26,3.41-4,3.65-13.82,10.83-16.56,21.12-15.72c1.47.12,19.69-6,20.88-6s.91-.87,1-2.22.4-2.38,2.78-2.38,6.27-7.36,5.56-16.36,2.5-20.19,4.65-20.25,2.14,2.38,3.57,2.38A6.29,6.29,0,0,0,530,83.94c.36-.48,1.75-2.36,2.86-2.06s5.24.64,7.07,8.22,3.69,13.18,5.08,13.82,2.46-1.15,2.86-.24,0,6.2,1.52,6.09.83-1.62,1.55-1.76,5,5.11,5.06,5.84-13,10-16.94,11.46,1.88,4.29-2.8,7.38S521,145.38,527.74,155.5c.71,1.07-3.48,4.11-3.16,5.24s5.75-1.67,8.22,5.48a2.3,2.3,0,0,0,3.87.12,2.37,2.37,0,0,0-1.49-3.87c-1.43-.21-.8-1.76.18-1.25s5.87,3,2.8,6.43-6.58,1.49-7.86,2.68-6.31,6-7.86,6.79S500.59,185.38,504,187.6c.86.57,15.87-6.16,16.32-5.9s-7.39,8.32-16.5,10.9c-2.1.6-9.12-.14-2,5.48,1.31,1,.52,10-1.43,12.78s-3.69,8.93-4.29,9.05-8.1-6.19-8.73-5.64,1.83,2.46,2.38,4.61,6.51,5.16,6.35,10.08-5.2,17-5.72,18.9-2.74-1.91-1.59-4.92,1.71-4.53.56-6.19-6.39-5.36-6.51-6.19-3.33-9.21-.4-14.45-2-1.91-3,.4-2.34,13.14,1.19,16.83,1.47,2.1-.24,1.75-6.91-3.65-8.81-1.59,1.51.79,4,1.67,8.18,3.22,8.18,5.88-2.58.08-3.18,0,.83,2.74,2.54,3.1,2.74,3.06.79,3.57-5.8-.21-6,.67,7.11,5.21,9.13,4.73,4.13-.87,4.76,3.1,1.11,6.35-1.59,8.1-1.79,2,1,1.91,8.38,1.15,6.59,4.13-4.33,5.28-7,5.32-1.75,5.4.56,5.4,2.54,3.49.87,3.81-13.3,2.48-15.56,13.82c-.28,1.39,1.07,2-6.27,3.81s-2.58,10.76-12.55,18.82-15.72,17.27-16,29.06,12.7,27.31,13.42,28.82-.6,2.42.16,4,15.32,20.17,16,33.27-2.78,15.4-4.76,16.44-7.25.06-11.59-7.7c-.56-1-3.77,0-4.53-1s-18.62-23.5-19-24.77,1.39-12.74,0-15.88-5.48-3.06-6.27-3.65-9-11.79-13.26-11.59-9.33,9.13-12.23,9.37-7.7-8.42-8.26-8.89-1.07,1.67-1.27,1.67-6.87-1.67-6.83-1.91,5.76-3.65-3.57-1.43-10.2,4.61-14.45,4.76-2.5-5.92-4.21-6.19-.32,4.8-1.27,5.08-8.81.28-11.35.71-5.64,3.61-7,3.57-4.51-2.72-6.83-2.54-4.65,3-2.74,3.93,6.13-1.49,6.79-.6-.83,2.44,1.07,2.62,1.67-1.37,2.5-1.31,2.86,1,.83,3.57-4.41,3-1.91,3.81,9.29,2.92,8.22,5-4.17,1-8.69-2.38-6.91-2.62-6.07-1.91,3.28,4,1.55,5.24-1.13-.48-3.1-1.43-2.56-.83-3.57,1.07-4.23,1.79-7.38-1.67-9.89-8.4-11.79-6.91-1.37,3.69.36,3.69,5.78,1.43.83,1.19-15-4.11-22.15-2.5-8.58,3.81-10.48,3.57-1.13-4.17-3-3.93-1.13,1.79-1.79,2-2.5-1-3-.36,2.62,2.32,2.86,3.81-.71,4.82-5.84,8.1-8.16,4.29-10.48,4.65-12.57,8.93-13.1,11.91a17.37,17.37,0,0,1-2.62,6.19c-.89,1.61.18,15.07,1.55,19.06s-1.49,3.87-3.22,2.62-1.79-3.22-4.17-3.1-13.22-2.08-16.32-5.84-5.42-9.47-5.36-12.27-1.67-1.43-2.86-2.14-4.17-6.13-7.38-12.51-8.64-20.78-19.18-19.89-9.11-.89-12.86,6.43-6.07,4.17-7.38,3.33-2.08-1.79-3.81-1.43-7.68-5.54-7.74-7-1.31-9.23-2.38-11.43-4.18-10.38-20.37-24.89c-1.73-1.55-.24-2-4.41-2s-16.91-1.75-17.35-1.31.52,5.28-.71,5.56-30.41-2.7-35.41-4.13-43.12-24.22-43.12-25,.71-2.74-.08-2.7S.73,318.54.77,317.9s.22-8.4-.44-9.77.24-1.79-5.72-8.1-4.65-.06-5.36-5.24-3.87-2-6-3.33-1.94-6-5.24-7.09-9.68-1.94-11-4.65,1.7-5.81,1.43-7.62-2-2.95-2.14-3.93,1.4-1.55.89-2.2-3.48-.8-5.42-7.56-3.93-6.19-3.45-10,3.22-2.2,3.22-5.3-5.27-2.05-5.36-7.5,1.46-9.11-1.49-11.91,1-3.16-3.22-9.05-2.53-12-2.5-12.92,1.67-4.38,1.67-5.42a14.55,14.55,0,0,0-2-7c-1.84-3.3-2.48-4.25,2.56-11.12s4-11.67,4-12.86.4-16.12,1-18,4.53-3.56,11.28-21.55,7.46-19.24,7.66-21,.22-.89,1.15-.79a37.41,37.41,0,0,0,4.49.4c0-.16-4.37-2-5.48-2.58s.54-2.56,1-3.1,1.51-1.49,1.35-2.06-.87-1.43-.87-1.95,0-4,0-10.52-1.95-11.47-.32-13.9.16,1.39,10.56,6.35S-5.34,82-8,84.85s-4.76,5.92-1.51,3.89S-4.71,82.23-4.39,83-4.95,87.79-9.23,91-7.57,93.31-6,92.16a4.91,4.91,0,0,0,2.3-3.73c.2-1.51,1.47-5.16,2.22-5.48S-.9,78.3-1.53,78s-2,1-3.1,0,.66-3.75,2.3-4.13,1.57-1.63,1.23-2.22S-2.76,69.4-2.88,69Z"/><circle class="cls-3" cx="214.86" cy="133.56" r="1.5"/><circle class="cls-3" cx="213.04" cy="172.06" r="1.5"/><circle class="cls-3" cx="157.3" cy="212.15" r="1.5"/><circle class="cls-3" cx="287.98" cy="160.87" r="1.5"/><circle class="cls-3" cx="330.05" cy="185.15" r="1.5"/><circle class="cls-3" cx="341.97" cy="183.44" r="1.5"/><circle class="cls-3" cx="347.72" cy="200.94" r="1.5"/><circle class="cls-3" cx="382.63" cy="188.44" r="1.5"/><circle class="cls-3" cx="394.97" cy="186.61" r="1.5"/><circle class="cls-3" cx="368.3" cy="232.27" r="1.5"/><circle class="cls-3" cx="403.38" cy="223.52" r="1.5"/><circle class="cls-3" cx="390.22" cy="234.77" r="1.5"/><circle class="cls-3" cx="388.05" cy="255.19" r="1.5"/><circle class="cls-3" cx="424.47" cy="245.94" r="1.5"/><circle class="cls-3" cx="468.47" cy="274.65" r="1.5"/><circle class="cls-3" cx="439.72" cy="305.58" r="1.5"/><circle class="cls-3" cx="408.13" cy="364.81" r="1.5"/><circle class="cls-3" cx="378.76" cy="339.77" r="1.5"/><circle class="cls-3" cx="331.63" cy="343.98" r="1.5"/><circle class="cls-3" cx="304.42" cy="310.02" r="1.5"/><circle class="cls-3" cx="298.63" cy="251.61" r="1.5"/><circle class="cls-3" cx="323.47" cy="248.36" r="1.5"/><circle class="cls-3" cx="330.87" cy="234.29" r="1.5"/><circle class="cls-3" cx="271.63" cy="246.86" r="1.5"/><circle class="cls-3" cx="262.13" cy="241.06" r="1.5"/><circle class="cls-3" cx="249.42" cy="225.9" r="1.5"/><circle class="cls-3" cx="241.17" cy="298.02" r="1.5"/><circle class="cls-3" cx="142.55" cy="292.15" r="1.5"/><circle class="cls-3" cx="64.8" cy="317.9" r="1.5"/><circle class="cls-3" cx="31.8" cy="273.44" r="1.5"/><circle class="cls-3" cx="2.47" cy="313.31" r="1.5"/><circle class="cls-3" cx="82.67" cy="210.52" r="1.5"/><circle class="cls-3" cx="42.55" cy="162.4" r="1.5"/><circle class="cls-3" cx="94.47" cy="126.81" r="1.5"/><circle class="cls-3" cx="-0.41" cy="82.86" r="1.5"/><circle class="cls-3" cx="161.55" cy="235.48" r="1.5"/><circle class="cls-3" cx="256.47" cy="345.7" r="1.5"/><circle class="cls-3" cx="237.13" cy="381.49" r="1.5"/><circle class="cls-3" cx="271.72" cy="385.4" r="1.5"/><circle class="cls-3" cx="320.63" cy="371.69" r="1.5"/><circle class="cls-3" cx="465.97" cy="421.45" r="1.5"/><circle class="cls-3" cx="398.84" cy="312.83" r="1.5"/><circle class="cls-3" cx="482.47" cy="224.19" r="1.5"/><circle class="cls-3" cx="487.47" cy="250.19" r="1.5"/><circle class="cls-3" cx="489.97" cy="219.69" r="1.5"/><circle class="cls-3" cx="496.13" cy="204.61" r="1.5"/><circle class="cls-3" cx="489.97" cy="202.11" r="1.5"/><circle class="cls-3" cx="468.47" cy="207.11" r="1.5"/><circle class="cls-3" cx="441.88" cy="175.19" r="1.5"/><circle class="cls-3" cx="496.13" cy="165.27" r="1.5"/><circle class="cls-3" cx="501.13" cy="186.27" r="1.5"/><circle class="cls-3" cx="510.57" cy="174.02" r="1.5"/><circle class="cls-3" cx="523.82" cy="171.52" r="1.5"/><circle class="cls-3" cx="526.32" cy="161.33" r="1.5"/><circle class="cls-3" cx="518.82" cy="149.65" r="1.5"/><circle class="cls-3" cx="528.82" cy="128.4" r="1.5"/><circle class="cls-3" cx="499.69" cy="134.96" r="1.5"/><circle class="cls-3" cx="412.72" cy="200.94" r="1.5"/><circle class="cls-3" cx="285.48" cy="207.77" r="1.5"/><circle class="cls-3" cx="282.98" cy="153.56" r="1.5"/><circle class="cls-3" cx="368.3" cy="232.27" r="1.43"/><circle class="cls-4" cx="368.3" cy="232.27" r="9.53"/><circle class="cls-4" cx="368.3" cy="232.27" r="23.82"/><circle class="cls-4" cx="368.3" cy="232.27" r="42.88"/><circle class="cls-4" cx="368.3" cy="232.27" r="66.7"/><circle class="cls-4" cx="368.3" cy="232.27" r="95.28"/><circle class="cls-4" cx="368.3" cy="232.27" r="128.63"/><circle class="cls-4" cx="368.3" cy="232.27" r="166.75"/><circle class="cls-4" cx="368.3" cy="232.27" r="209.63"/><circle class="cls-4" cx="368.3" cy="232.27" r="257.27"/><circle class="cls-4" cx="368.3" cy="232.27" r="309.68"/><circle class="cls-4" cx="368.3" cy="232.27" r="366.85"/></svg>