<svg xmlns="http://www.w3.org/2000/svg" xmlns:xlink="http://www.w3.org/1999/xlink" viewBox="0 0 1050.04 543.07"><defs><style>.cls-1{fill:#e5e5e5;}.cls-2{mask:url(#mask);}.cls-3{fill:#e6e7e8;}.cls-4{fill:url(#linear-gradient);}.cls-5{fill:none;stroke:#fff;}.cls-11,.cls-5,.cls-9{stroke-miterlimit:10;}.cls-6{fill:#323c47;}.cls-7{fill:#deede7;}.cls-8{fill:#576571;}.cls-9{fill:#d0e5ab;stroke:#d1d3d4;stroke-width:2px;}.cls-10{fill:#d1d3d4;}.cls-11,.cls-12{fill:#fff;}.cls-11{stroke:#58595b;}</style><mask id="mask" x="-239.8" y="-531.79" width="1578.02" height="1317.84" maskUnits="userSpaceOnUse"><rect class="cls-1" y="0.26" width="1050.04" height="542.81"/></mask><linearGradient id="linear-gradient" x1="-42.66" y1="-883.22" x2="238.31" y2="-845.73" gradientTransform="translate(270.2 2010.16) scale(3.81 2.18)" gradientUnits="userSpaceOnUse"><stop offset="0.31" stop-color="#fff"/><stop offset="0.39" stop-color="#fff" stop-opacity="0.86"/><stop offset="0.48" stop-color="#fff" stop-opacity="0.74"/><stop offset="0.52" stop-color="#fff" stop-opacity="0.7"/><stop offset="0.54" stop-color="#fff" stop-opacity="0.61"/><stop offset="0.56" stop-color="#fff" stop-opacity="0.47"/><stop offset="0.59" stop-color="#fff" stop-opacity="0.34"/><stop offset="0.62" stop-color="#fff" stop-opacity="0.23"/><stop offset="0.65" stop-color="#fff" stop-opacity="0.15"/><stop offset="0.69" stop-color="#fff" stop-opacity="0.08"/><stop offset="0.74" stop-color="#fff" stop-opacity="0.03"/><stop offset="0.81" stop-color="#fff" stop-opacity="0.01"/><stop offset="1" stop-color="#fff" stop-opacity="0"/></linearGradient></defs><title>retail-main_</title><g id="Industrial_-_Panel_1" data-name="Industrial - Panel 1"><g class="cls-2"><rect class="cls-3" x="-4.51" y="-6.33" width="1054.55" height="549.4"/><rect class="cls-4" x="228.43" y="-431.21" width="829.36" height="1116.67" transform="translate(1114.03 -328.93) rotate(124.74)"/><line class="cls-5" x1="208.43" y1="484.8" x2="216.32" y2="445.2"/><line class="cls-5" x1="185.46" y1="480.13" x2="193.36" y2="440.53"/><line class="cls-5" x1="162.76" y1="475.52" x2="170.66" y2="435.91"/><line class="cls-5" x1="139.8" y1="470.85" x2="147.69" y2="431.24"/><line class="cls-5" x1="139.8" y1="470.85" x2="147.69" y2="431.24"/><line class="cls-5" x1="116.83" y1="466.18" x2="124.72" y2="426.57"/><line class="cls-5" x1="93.86" y1="461.51" x2="101.76" y2="421.9"/><line class="cls-5" x1="71.16" y1="456.9" x2="79.06" y2="417.29"/><line class="cls-5" x1="345.65" y1="512.89" x2="353.55" y2="473.28"/><line class="cls-5" x1="322.68" y1="508.22" x2="330.58" y2="468.61"/><line class="cls-5" x1="299.99" y1="503.6" x2="307.88" y2="463.99"/><line class="cls-5" x1="277.02" y1="498.93" x2="284.92" y2="459.33"/><line class="cls-5" x1="277.02" y1="498.93" x2="284.92" y2="459.33"/><line class="cls-5" x1="254.05" y1="494.26" x2="261.95" y2="454.66"/><line class="cls-5" x1="231.09" y1="489.59" x2="238.98" y2="449.99"/><line class="cls-5" x1="208.39" y1="484.98" x2="216.28" y2="445.37"/><line class="cls-5" x1="482.88" y1="540.97" x2="490.77" y2="501.36"/><line class="cls-5" x1="459.91" y1="536.3" x2="467.8" y2="496.69"/><line class="cls-5" x1="437.21" y1="531.68" x2="445.11" y2="492.08"/><line class="cls-5" x1="414.24" y1="527.02" x2="422.14" y2="487.41"/><line class="cls-5" x1="414.24" y1="527.02" x2="422.14" y2="487.41"/><line class="cls-5" x1="391.28" y1="522.35" x2="399.17" y2="482.74"/><line class="cls-5" x1="368.31" y1="517.68" x2="376.21" y2="478.07"/><line class="cls-5" x1="345.61" y1="513.06" x2="353.51" y2="473.45"/><line class="cls-5" x1="620.1" y1="569.05" x2="628" y2="529.44"/><line class="cls-5" x1="597.13" y1="564.38" x2="605.03" y2="524.77"/><line class="cls-5" x1="574.44" y1="559.77" x2="582.33" y2="520.16"/><line class="cls-5" x1="551.47" y1="555.1" x2="559.36" y2="515.49"/><line class="cls-5" x1="551.47" y1="555.1" x2="559.36" y2="515.49"/><line class="cls-5" x1="528.5" y1="550.43" x2="536.4" y2="510.82"/><line class="cls-5" x1="505.54" y1="545.76" x2="513.43" y2="506.15"/><line class="cls-5" x1="482.84" y1="541.15" x2="490.73" y2="501.54"/><line class="cls-5" x1="665.73" y1="578.51" x2="673.62" y2="538.9"/><line class="cls-5" x1="642.76" y1="573.84" x2="650.66" y2="534.24"/><line class="cls-5" x1="620.06" y1="569.23" x2="627.96" y2="529.62"/><line class="cls-5" x1="71.2" y1="456.72" x2="79.1" y2="417.11"/><line class="cls-5" x1="48.24" y1="452.05" x2="56.13" y2="412.44"/><line class="cls-5" x1="25.54" y1="447.44" x2="33.43" y2="407.83"/><line class="cls-5" x1="2.57" y1="442.77" x2="10.47" y2="403.16"/><line class="cls-5" x1="2.57" y1="442.77" x2="10.47" y2="403.16"/><path class="cls-6" d="M41.44,261.68c2.81-2.72,3-4.74,2.94-5.1a45.57,45.57,0,0,0-3-3.92c-.4-.45-11-11.14-11.49-11.66a39.3,39.3,0,0,0-2.76-3,5,5,0,0,0-3.69-1.56c-1.73-.06-3.83,1.9-4.24,2.3s-2.44,2.44-2.44,4.17a5,5,0,0,0,1.44,3.74,39.3,39.3,0,0,0,2.95,2.86c.5.45,10.83,11.45,11.27,11.86a45.57,45.57,0,0,0,3.82,3.12C36.6,264.57,38.63,264.4,41.44,261.68Z"/><path class="cls-7" d="M33.33,260.87s-.44-1-5-5.73-4.68-4.2-6.9-6.16l2.78,2.95c.56.59,6,6.05,6.45,6.54A27,27,0,0,0,33.33,260.87Z"/><path class="cls-8" d="M22.5,250.2l-.47-.49a.26.26,0,0,1,0,.25.15.15,0,0,0-.23,0c-.06.06-.71.64-.62,1.24s.33.79.45.69a9.25,9.25,0,0,0,.76-1.28.66.66,0,0,0-.09-.25Z"/><path class="cls-8" d="M30.59,242.38l-.47-.49a.26.26,0,0,0,.25,0,.15.15,0,0,1,0-.23c.06-.06.66-.69,1.26-.58s.77.36.67.47a9.25,9.25,0,0,1-1.3.72.66.66,0,0,1-.25-.1Z"/><path class="cls-7" d="M24,243.69c2.78-2.69,3.44-2.53,4.17-2.56s2.71,2.7,3.06,3.16.48.64.31.68c-1.32.3-3.09,2-3.74,2.64S25.38,250,25,251.27c0,.17-.21,0-.67-.33s-3.11-2.44-3.06-3.16S21.22,246.38,24,243.69Z"/><path class="cls-7" d="M40.89,253.55s-1-.47-5.56-5.23-4-4.82-5.93-7.1l2.85,2.87c.57.58,5.85,6.16,6.32,6.66A27,27,0,0,1,40.89,253.55Z"/><path class="cls-7" d="M39.67,259.86A10.06,10.06,0,0,0,41.89,257c.44-1,0-1.3-.13-1.43s-2.5-2.36-2.59-2.44-.26.41-.5.84a24.69,24.69,0,0,1-4.87,4.71c-.43.23-.93.38-.85.47s2.23,2.54,2.36,2.67.41.59,1.42.18A10.06,10.06,0,0,0,39.67,259.86Z"/><path class="cls-6" d="M2.07,190.64c-.78,3.83.17,5.64.46,5.87a45.57,45.57,0,0,0,4.69,1.54c.59.15,15.41,2.94,16.06,3.12a39.3,39.3,0,0,0,4,.95,5,5,0,0,0,3.93-.8c1.46-.93,2.09-3.74,2.2-4.3s.63-3.39-.34-4.82a5,5,0,0,0-3.3-2.28,39.3,39.3,0,0,0-4-.69c-.67-.09-15.41-3.32-16-3.41a45.57,45.57,0,0,0-4.92-.42C4.42,185.52,2.85,186.81,2.07,190.64Z"/><path class="cls-7" d="M9.21,186.73s.91.56,7.4,1.88,6.24.81,9.17,1.18l-4-.86c-.8-.17-8.34-1.62-9-1.75A27,27,0,0,0,9.21,186.73Z"/><path class="cls-8" d="M24.17,189.41l.66.14a.26.26,0,0,1-.15-.2.15.15,0,0,0,.19-.13c0-.08.23-.93-.19-1.37s-.72-.46-.76-.32A9.25,9.25,0,0,0,24,189a.66.66,0,0,0,.21.16Z"/><path class="cls-8" d="M21.93,200.43l.66.14a.26.26,0,0,0-.22.13.15.15,0,0,1,.13.19c0,.08-.16.95-.71,1.19s-.84.14-.82,0a9.25,9.25,0,0,1,.67-1.33.66.66,0,0,1,.26-.06Z"/><path class="cls-7" d="M26.62,195.63c-.77,3.79-1.4,4-2,4.47s-3.76-.69-4.31-.88-.76-.25-.64-.38c.92-1,1.41-3.41,1.59-4.29s.67-3.3.22-4.57c-.06-.17.15-.15.74-.1s3.95.25,4.31.88S27.39,191.83,26.62,195.63Z"/><path class="cls-7" d="M7.11,197s1.06-.16,7.54,1.17,6.06,1.69,8.9,2.5l-4-.76c-.8-.16-8.31-1.77-9-1.92A27,27,0,0,1,7.11,197Z"/><path class="cls-7" d="M4.55,191.15a10.06,10.06,0,0,0-.19,3.63c.2,1.08.74,1.07.92,1.1l3.52.55c.12,0,0-.49-.06-1a24.69,24.69,0,0,1,1.35-6.64c.23-.43.55-.84.44-.87l-3.45-.87c-.18,0-.67-.26-1.28.65A10.06,10.06,0,0,0,4.55,191.15Z"/><path class="cls-6" d="M-29,135.16c-.91,3.8,0,5.64.25,5.89a45.57,45.57,0,0,0,4.63,1.7c.58.17,15.3,3.47,15.95,3.67a39.3,39.3,0,0,0,4,1.08,5,5,0,0,0,4-.67c1.49-.88,2.21-3.66,2.35-4.22s.75-3.37-.18-4.82a5,5,0,0,0-3.22-2.39,39.3,39.3,0,0,0-4-.83c-.67-.11-15.28-3.85-15.88-4a45.57,45.57,0,0,0-4.9-.59C-26.46,130.13-28.09,131.36-29,135.16Z"/><path class="cls-6" d="M114.86,429.92c-3.83-.78-5.64.17-5.87.46a45.57,45.57,0,0,0-1.54,4.69c-.15.59-2.94,15.41-3.12,16.06a39.3,39.3,0,0,0-.95,4,5,5,0,0,0,.8,3.93c.93,1.46,3.74,2.09,4.3,2.2s3.39.63,4.82-.34a5,5,0,0,0,2.28-3.3,39.3,39.3,0,0,0,.69-4c.09-.67,3.32-15.41,3.41-16a45.57,45.57,0,0,0,.42-4.92C120,432.28,118.69,430.7,114.86,429.92Z"/><path class="cls-7" d="M118.77,437.07s-.56.91-1.88,7.4-.81,6.24-1.18,9.17c0,0,.69-3.16.86-4s1.62-8.34,1.75-9A27,27,0,0,0,118.77,437.07Z"/><path class="cls-8" d="M116.09,452l-.14.66a.26.26,0,0,1,.2-.15.15.15,0,0,0,.13.19c.08,0,.93.23,1.37-.19s.46-.72.32-.76a9.25,9.25,0,0,0-1.48.1.66.66,0,0,0-.16.21Z"/><path class="cls-8" d="M105.07,449.79l-.14.66a.26.26,0,0,0-.13-.22.15.15,0,0,1-.19.13c-.08,0-.95-.16-1.19-.71s-.14-.84,0-.82a9.25,9.25,0,0,1,1.33.67.66.66,0,0,1,.06.26Z"/><path class="cls-7" d="M109.87,454.48c-3.79-.77-4-1.4-4.47-2s.69-3.76.88-4.31.25-.76.38-.64c1,.92,3.41,1.41,4.29,1.59s3.3.67,4.57.22c.17-.06.15.15.1.74s-.25,3.95-.88,4.31S113.67,455.25,109.87,454.48Z"/><path class="cls-7" d="M108.46,435s.16,1.06-1.17,7.54-1.69,6.06-2.5,8.9c0,0,.6-3.18.76-4s1.77-8.31,1.92-9A27,27,0,0,1,108.46,435Z"/><path class="cls-7" d="M114.35,432.41a10.06,10.06,0,0,0-3.63-.19c-1.08.2-1.07.74-1.1.92s-.54,3.39-.55,3.52.49,0,1-.06a24.69,24.69,0,0,1,6.64,1.35c.43.23.84.55.87.44s.83-3.27.87-3.45.26-.67-.65-1.28A10.06,10.06,0,0,0,114.35,432.41Z"/><path class="cls-6" d="M335.7,503.52c3.83.78,5.64-.17,5.87-.46a45.57,45.57,0,0,0,1.54-4.69c.15-.59,2.94-15.41,3.12-16.06a39.3,39.3,0,0,0,.95-4,5,5,0,0,0-.8-3.93c-.93-1.46-3.74-2.09-4.3-2.2s-3.39-.63-4.82.34a5,5,0,0,0-2.28,3.3,39.3,39.3,0,0,0-.69,4c-.09.67-3.32,15.41-3.41,16a45.57,45.57,0,0,0-.42,4.92C330.57,501.16,331.87,502.74,335.7,503.52Z"/><path class="cls-7" d="M331.78,496.38s.56-.91,1.88-7.4.81-6.24,1.18-9.17c0,0-.69,3.16-.86,4s-1.62,8.34-1.75,9A27,27,0,0,0,331.78,496.38Z"/><path class="cls-8" d="M334.46,481.41l.14-.66a.26.26,0,0,1-.2.15.15.15,0,0,0-.13-.19c-.08,0-.93-.23-1.37.19s-.46.72-.32.76a9.25,9.25,0,0,0,1.48-.1.66.66,0,0,0,.16-.21Z"/><path class="cls-8" d="M345.48,483.66l.14-.66a.26.26,0,0,0,.13.22.15.15,0,0,1,.19-.13c.08,0,.95.16,1.19.71s.14.84,0,.82a9.25,9.25,0,0,1-1.33-.67.66.66,0,0,1-.06-.26Z"/><path class="cls-7" d="M340.68,479c3.79.77,4,1.4,4.47,2s-.69,3.76-.88,4.31-.25.76-.38.64c-1-.92-3.41-1.41-4.29-1.59s-3.3-.67-4.57-.22c-.17.06-.15-.15-.1-.74s.25-3.95.88-4.31S336.88,478.2,340.68,479Z"/><path class="cls-7" d="M342.09,498.48s-.16-1.06,1.17-7.54,1.69-6.06,2.5-8.9c0,0-.6,3.18-.76,4s-1.77,8.31-1.92,9A27,27,0,0,1,342.09,498.48Z"/><path class="cls-7" d="M336.2,501a10.06,10.06,0,0,0,3.63.19c1.08-.2,1.07-.74,1.1-.92s.54-3.39.55-3.52-.49,0-1,.06a24.69,24.69,0,0,1-6.64-1.35c-.43-.23-.84-.55-.87-.44s-.83,3.27-.87,3.45-.26.67.65,1.28A10.06,10.06,0,0,0,336.2,501Z"/><path class="cls-6" d="M609.29,560.73c3.83.78,5.64-.17,5.87-.46a45.57,45.57,0,0,0,1.54-4.69c.15-.59,2.94-15.41,3.12-16.06a39.3,39.3,0,0,0,.95-4,5,5,0,0,0-.8-3.93c-.93-1.46-3.74-2.09-4.3-2.2s-3.39-.63-4.82.34a5,5,0,0,0-2.28,3.3,39.3,39.3,0,0,0-.69,4c-.09.67-3.32,15.41-3.41,16a45.57,45.57,0,0,0-.42,4.92C604.17,558.38,605.46,560,609.29,560.73Z"/><path class="cls-7" d="M605.38,553.59s.56-.91,1.88-7.4.81-6.24,1.18-9.17c0,0-.69,3.16-.86,4s-1.62,8.34-1.75,9A27,27,0,0,0,605.38,553.59Z"/><path class="cls-8" d="M608.05,538.63l.14-.66a.26.26,0,0,1-.2.15.15.15,0,0,0-.13-.19c-.08,0-.93-.23-1.37.19s-.46.72-.32.76a9.25,9.25,0,0,0,1.48-.1.66.66,0,0,0,.16-.21Z"/><path class="cls-8" d="M619.08,540.87l.14-.66a.26.26,0,0,0,.13.22.15.15,0,0,1,.19-.13c.08,0,.95.16,1.19.71s.14.84,0,.82a9.25,9.25,0,0,1-1.33-.67.66.66,0,0,1-.06-.26Z"/><path class="cls-7" d="M614.27,536.18c3.79.77,4,1.4,4.47,2s-.69,3.76-.88,4.31-.25.76-.38.64c-1-.92-3.41-1.41-4.29-1.59s-3.3-.67-4.57-.22c-.17.06-.15-.15-.1-.74s.25-3.95.88-4.31S610.48,535.41,614.27,536.18Z"/><path class="cls-7" d="M615.69,555.69s-.16-1.06,1.17-7.54,1.69-6.06,2.5-8.9c0,0-.6,3.18-.76,4s-1.77,8.31-1.92,9A27,27,0,0,1,615.69,555.69Z"/><path class="cls-6" d="M631.29,201.85c3.83.78,5.64-.17,5.87-.46a45.57,45.57,0,0,0,1.54-4.69c.15-.59,2.94-15.41,3.12-16.06a39.3,39.3,0,0,0,.95-4,5,5,0,0,0-.8-3.93c-.93-1.46-3.74-2.09-4.3-2.2s-3.39-.63-4.82.34a5,5,0,0,0-2.28,3.3,39.3,39.3,0,0,0-.69,4c-.09.67-3.32,15.41-3.41,16a45.57,45.57,0,0,0-.42,4.92C626.17,199.49,627.46,201.07,631.29,201.85Z"/><path class="cls-7" d="M627.38,194.7s.56-.91,1.88-7.4.81-6.24,1.18-9.17c0,0-.69,3.16-.86,4s-1.62,8.34-1.75,9A27,27,0,0,0,627.38,194.7Z"/><path class="cls-8" d="M630.06,179.74l.14-.66a.26.26,0,0,1-.2.15.15.15,0,0,0-.13-.19c-.08,0-.93-.23-1.37.19s-.46.72-.32.76a9.25,9.25,0,0,0,1.48-.1.66.66,0,0,0,.16-.21Z"/><path class="cls-8" d="M641.08,182l.14-.66a.26.26,0,0,0,.13.22.15.15,0,0,1,.19-.13c.08,0,.95.16,1.19.71s.14.84,0,.82a9.25,9.25,0,0,1-1.33-.67.66.66,0,0,1-.06-.26Z"/><path class="cls-7" d="M636.27,177.3c3.79.77,4,1.4,4.47,2s-.69,3.76-.88,4.31-.25.76-.38.64c-1-.92-3.41-1.41-4.29-1.59s-3.3-.67-4.57-.22c-.17.06-.15-.15-.1-.74s.25-3.95.88-4.31S632.48,176.53,636.27,177.3Z"/><path class="cls-7" d="M637.69,196.8s-.16-1.06,1.17-7.54,1.69-6.06,2.5-8.9c0,0-.6,3.18-.76,4s-1.77,8.31-1.92,9A27,27,0,0,1,637.69,196.8Z"/><path class="cls-7" d="M631.8,199.37a10.06,10.06,0,0,0,3.63.19c1.08-.2,1.07-.74,1.1-.92s.54-3.39.55-3.52-.49,0-1,.06a24.69,24.69,0,0,1-6.64-1.35c-.43-.23-.84-.55-.87-.44s-.83,3.27-.87,3.45-.26.67.65,1.28A10.06,10.06,0,0,0,631.8,199.37Z"/><path class="cls-6" d="M593.87,524.94c-3.83-.78-5.64.17-5.87.46a45.57,45.57,0,0,0-1.54,4.69c-.15.59-2.94,15.41-3.12,16.06a39.3,39.3,0,0,0-.95,4,5,5,0,0,0,.8,3.93c.93,1.46,3.74,2.09,4.3,2.2s3.39.63,4.82-.34a5,5,0,0,0,2.28-3.3,39.3,39.3,0,0,0,.69-4c.09-.67,3.32-15.41,3.41-16a45.57,45.57,0,0,0,.42-4.92C599,527.3,597.7,525.72,593.87,524.94Z"/><path class="cls-7" d="M597.79,532.09s-.56.91-1.88,7.4-.81,6.24-1.18,9.17c0,0,.69-3.16.86-4s1.62-8.34,1.75-9A27,27,0,0,0,597.79,532.09Z"/><path class="cls-7" d="M588.89,549.49c-3.79-.77-4-1.4-4.47-2s.69-3.76.88-4.31.25-.76.38-.64c1,.92,3.41,1.41,4.29,1.59s3.3.67,4.57.22c.17-.06.15.15.1.74s-.25,3.95-.88,4.31S592.68,550.27,588.89,549.49Z"/><path class="cls-7" d="M587.48,530s.16,1.06-1.17,7.54-1.69,6.06-2.5,8.9c0,0,.6-3.18.76-4s1.77-8.31,1.92-9A27,27,0,0,1,587.48,530Z"/><path class="cls-7" d="M593.37,527.43a10.06,10.06,0,0,0-3.63-.19c-1.08.2-1.07.74-1.1.92s-.54,3.39-.55,3.52.49,0,1-.06A24.69,24.69,0,0,1,595.7,533c.43.23.84.55.87.44s.83-3.27.87-3.45.26-.67-.65-1.28A10.06,10.06,0,0,0,593.37,527.43Z"/><path class="cls-6" d="M570.76,523.72c-3.83-.78-5.64.17-5.87.46a45.57,45.57,0,0,0-1.54,4.69c-.15.59-2.94,15.41-3.12,16.06a39.3,39.3,0,0,0-.95,4,5,5,0,0,0,.8,3.93c.93,1.46,3.74,2.09,4.3,2.2s3.39.63,4.82-.34a5,5,0,0,0,2.28-3.3,39.3,39.3,0,0,0,.69-4c.09-.67,3.32-15.41,3.41-16a45.57,45.57,0,0,0,.42-4.92C575.88,526.08,574.59,524.5,570.76,523.72Z"/><path class="cls-7" d="M574.67,530.86s-.56.91-1.88,7.4-.81,6.24-1.18,9.17c0,0,.69-3.16.86-4s1.62-8.34,1.75-9A27,27,0,0,0,574.67,530.86Z"/><path class="cls-8" d="M561,543.58l-.14.66a.26.26,0,0,0-.13-.22.15.15,0,0,1-.19.13c-.08,0-.95-.16-1.19-.71s-.14-.84,0-.82a9.25,9.25,0,0,1,1.33.67.66.66,0,0,1,.06.26Z"/><path class="cls-7" d="M565.77,548.27c-3.79-.77-4-1.4-4.47-2s.69-3.76.88-4.31.25-.76.38-.64c1,.92,3.41,1.41,4.29,1.59s3.3.67,4.57.22c.17-.06.15.15.1.74s-.25,3.95-.88,4.31S569.57,549,565.77,548.27Z"/><path class="cls-7" d="M564.36,528.76s.16,1.06-1.17,7.54-1.69,6.06-2.5,8.9c0,0,.6-3.18.76-4s1.77-8.31,1.92-9A27,27,0,0,1,564.36,528.76Z"/><path class="cls-7" d="M570.25,526.2a10.06,10.06,0,0,0-3.63-.19c-1.08.2-1.07.74-1.1.92s-.54,3.39-.55,3.52.49,0,1-.06a24.69,24.69,0,0,1,6.64,1.35c.43.23.84.55.87.44s.83-3.27.87-3.45.26-.67-.65-1.28A10.06,10.06,0,0,0,570.25,526.2Z"/><path class="cls-6" d="M427.9,230c.78-3.83-.17-5.64-.46-5.87a45.57,45.57,0,0,0-4.69-1.54c-.59-.15-15.41-2.94-16.06-3.12a39.3,39.3,0,0,0-4-.95,5,5,0,0,0-3.93.8c-1.46.93-2.09,3.74-2.2,4.3s-.63,3.39.34,4.82a5,5,0,0,0,3.3,2.28,39.3,39.3,0,0,0,4,.69c.67.09,15.41,3.32,16,3.41a45.57,45.57,0,0,0,4.92.42C425.54,235.14,427.12,233.85,427.9,230Z"/><path class="cls-7" d="M420.75,233.93s-.91-.56-7.4-1.88-6.24-.81-9.17-1.18l4,.86c.8.17,8.34,1.62,9,1.75A27,27,0,0,0,420.75,233.93Z"/><path class="cls-8" d="M405.79,231.25l-.66-.14a.26.26,0,0,1,.15.2.15.15,0,0,0-.19.13c0,.08-.23.93.19,1.37s.72.46.76.32a9.25,9.25,0,0,0-.1-1.48.66.66,0,0,0-.21-.16Z"/><path class="cls-8" d="M408,220.23l-.66-.14a.26.26,0,0,0,.22-.13.15.15,0,0,1-.13-.19c0-.08.16-.95.71-1.19s.84-.14.82,0a9.25,9.25,0,0,1-.67,1.33.66.66,0,0,1-.26.06Z"/><path class="cls-7" d="M403.35,225c.77-3.79,1.4-4,2-4.47s3.76.69,4.31.88.76.25.64.38c-.92,1-1.41,3.41-1.59,4.29s-.67,3.3-.22,4.57c.06.17-.15.15-.74.1s-3.95-.25-4.31-.88S402.57,228.83,403.35,225Z"/><path class="cls-7" d="M422.85,223.62s-1.06.16-7.54-1.17-6.06-1.69-8.9-2.5l4,.76c.8.16,8.31,1.77,9,1.92A27,27,0,0,1,422.85,223.62Z"/><path class="cls-7" d="M425.41,229.51a10.06,10.06,0,0,0,.19-3.63c-.2-1.08-.74-1.07-.92-1.1l-3.52-.55c-.12,0,0,.49.06,1a24.69,24.69,0,0,1-1.35,6.64c-.23.43-.55.84-.44.87l3.45.87c.18,0,.67.26,1.28-.65A10.06,10.06,0,0,0,425.41,229.51Z"/><path class="cls-6" d="M387.25,269.16c-.78,3.83.17,5.64.46,5.87a45.57,45.57,0,0,0,4.69,1.54c.59.15,15.41,2.94,16.06,3.12a39.3,39.3,0,0,0,4,.95,5,5,0,0,0,3.93-.8c1.46-.93,2.09-3.74,2.2-4.3s.63-3.39-.34-4.82a5,5,0,0,0-3.3-2.28,39.3,39.3,0,0,0-4-.69c-.67-.09-15.41-3.32-16-3.41a45.57,45.57,0,0,0-4.92-.42C389.61,264,388,265.33,387.25,269.16Z"/><path class="cls-7" d="M394.4,265.25s.91.56,7.4,1.88,6.24.81,9.17,1.18l-4-.86c-.8-.17-8.34-1.62-9-1.75A27,27,0,0,0,394.4,265.25Z"/><path class="cls-8" d="M409.36,267.93l.66.14a.26.26,0,0,1-.15-.2.15.15,0,0,0,.19-.13c0-.08.23-.93-.19-1.37s-.72-.46-.76-.32a9.25,9.25,0,0,0,.1,1.48.66.66,0,0,0,.21.16Z"/><path class="cls-8" d="M407.11,278.95l.66.14a.26.26,0,0,0-.22.13.15.15,0,0,1,.13.19c0,.08-.16.95-.71,1.19s-.84.14-.82,0a9.25,9.25,0,0,1,.67-1.33.66.66,0,0,1,.26-.06Z"/><path class="cls-7" d="M411.8,274.14c-.77,3.79-1.4,4-2,4.47s-3.76-.69-4.31-.88-.76-.25-.64-.38c.92-1,1.41-3.41,1.59-4.29s.67-3.3.22-4.57c-.06-.17.15-.15.74-.1s3.95.25,4.31.88S412.57,270.35,411.8,274.14Z"/><path class="cls-7" d="M392.3,275.56s1.06-.16,7.54,1.17,6.06,1.69,8.9,2.5l-4-.76c-.8-.16-8.31-1.77-9-1.92A27,27,0,0,1,392.3,275.56Z"/><path class="cls-7" d="M389.73,269.67a10.06,10.06,0,0,0-.19,3.63c.2,1.08.74,1.07.92,1.1L394,275c.12,0,0-.49-.06-1a24.69,24.69,0,0,1,1.35-6.64c.23-.43.55-.84.44-.87l-3.45-.87c-.18,0-.67-.26-1.28.65A10.06,10.06,0,0,0,389.73,269.67Z"/><path class="cls-6" d="M408.33,176.62c-.78,3.83.17,5.64.46,5.87a45.57,45.57,0,0,0,4.69,1.54c.59.15,15.41,2.94,16.06,3.12a39.3,39.3,0,0,0,4,.95,5,5,0,0,0,3.93-.8c1.46-.93,2.09-3.74,2.2-4.3s.63-3.39-.34-4.82a5,5,0,0,0-3.3-2.28,39.3,39.3,0,0,0-4-.69c-.67-.09-15.41-3.32-16-3.41a45.57,45.57,0,0,0-4.92-.42C410.68,171.5,409.11,172.79,408.33,176.62Z"/><path class="cls-7" d="M415.47,172.71s.91.56,7.4,1.88,6.24.81,9.17,1.18l-4-.86c-.8-.17-8.34-1.62-9-1.75A27,27,0,0,0,415.47,172.71Z"/><path class="cls-8" d="M430.43,175.39l.66.14a.26.26,0,0,1-.15-.2.15.15,0,0,0,.19-.13c0-.08.23-.93-.19-1.37s-.72-.46-.76-.32a9.25,9.25,0,0,0,.1,1.48.66.66,0,0,0,.21.16Z"/><path class="cls-8" d="M428.19,186.41l.66.14a.26.26,0,0,0-.22.13.15.15,0,0,1,.13.19c0,.08-.16.95-.71,1.19s-.84.14-.82,0a9.25,9.25,0,0,1,.67-1.33.66.66,0,0,1,.26-.06Z"/><path class="cls-7" d="M432.88,181.6c-.77,3.79-1.4,4-2,4.47s-3.76-.69-4.31-.88-.76-.25-.64-.38c.92-1,1.41-3.41,1.59-4.29s.67-3.3.22-4.57c-.06-.17.15-.15.74-.1s3.95.25,4.31.88S433.65,177.81,432.88,181.6Z"/><path class="cls-7" d="M413.37,183s1.06-.16,7.54,1.17,6.06,1.69,8.9,2.5l-4-.76c-.8-.16-8.31-1.77-9-1.92A27,27,0,0,1,413.37,183Z"/><path class="cls-7" d="M410.81,177.13a10.06,10.06,0,0,0-.19,3.63c.2,1.08.74,1.07.92,1.1l3.52.55c.12,0,0-.49-.06-1a24.69,24.69,0,0,1,1.35-6.64c.23-.43.55-.84.44-.87l-3.45-.87c-.18,0-.67-.26-1.28.65A10.06,10.06,0,0,0,410.81,177.13Z"/><path class="cls-6" d="M386,292.28c-.78,3.83.17,5.64.46,5.87a45.57,45.57,0,0,0,4.69,1.54c.59.15,15.41,2.94,16.06,3.12a39.3,39.3,0,0,0,4,.95,5,5,0,0,0,3.93-.8c1.46-.93,2.09-3.74,2.2-4.3s.63-3.39-.34-4.82a5,5,0,0,0-3.3-2.28,39.3,39.3,0,0,0-4-.69c-.67-.09-15.41-3.32-16-3.41a45.57,45.57,0,0,0-4.92-.42C388.38,287.15,386.8,288.45,386,292.28Z"/><path class="cls-7" d="M393.17,288.37s.91.56,7.4,1.88,6.24.81,9.17,1.18l-4-.86c-.8-.17-8.34-1.62-9-1.75A27,27,0,0,0,393.17,288.37Z"/><path class="cls-8" d="M408.13,291l.66.14a.26.26,0,0,1-.15-.2.15.15,0,0,0,.19-.13c0-.08.23-.93-.19-1.37s-.72-.46-.76-.32a9.25,9.25,0,0,0,.1,1.48.66.66,0,0,0,.21.16Z"/><path class="cls-8" d="M405.89,302.06l.66.14a.26.26,0,0,0-.22.13.15.15,0,0,1,.13.19c0,.08-.16.95-.71,1.19s-.84.14-.82,0a9.25,9.25,0,0,1,.67-1.33.66.66,0,0,1,.26-.06Z"/><path class="cls-7" d="M410.58,297.26c-.77,3.79-1.4,4-2,4.47s-3.76-.69-4.31-.88-.76-.25-.64-.38c.92-1,1.41-3.41,1.59-4.29s.67-3.3.22-4.57c-.06-.17.15-.15.74-.1s3.95.25,4.31.88S411.35,293.47,410.58,297.26Z"/><path class="cls-7" d="M391.07,298.67s1.06-.16,7.54,1.17,6.06,1.69,8.9,2.5l-4-.76c-.8-.16-8.31-1.77-9-1.92A27,27,0,0,1,391.07,298.67Z"/><path class="cls-7" d="M388.51,292.78a10.06,10.06,0,0,0-.19,3.63c.2,1.08.74,1.07.92,1.1l3.52.55c.12,0,0-.49-.06-1a24.69,24.69,0,0,1,1.35-6.64c.23-.43.55-.84.44-.87l-3.45-.87c-.18,0-.67-.26-1.28.65A10.06,10.06,0,0,0,388.51,292.78Z"/><path class="cls-6" d="M377.94,314.64c-.78,3.83.17,5.64.46,5.87a45.57,45.57,0,0,0,4.69,1.54c.59.15,15.41,2.94,16.06,3.12a39.3,39.3,0,0,0,4,.95,5,5,0,0,0,3.93-.8c1.46-.93,2.09-3.74,2.2-4.3s.63-3.39-.34-4.82a5,5,0,0,0-3.3-2.28,39.3,39.3,0,0,0-4-.69c-.67-.09-15.41-3.32-16-3.41a45.57,45.57,0,0,0-4.92-.42C380.3,309.52,378.72,310.81,377.94,314.64Z"/><path class="cls-7" d="M385.09,310.73s.91.56,7.4,1.88,6.24.81,9.17,1.18l-4-.86c-.8-.17-8.34-1.62-9-1.75A27,27,0,0,0,385.09,310.73Z"/><path class="cls-8" d="M400.05,313.41l.66.14a.26.26,0,0,1-.15-.2.15.15,0,0,0,.19-.13c0-.08.23-.93-.19-1.37s-.72-.46-.76-.32a9.25,9.25,0,0,0,.1,1.48.66.66,0,0,0,.21.16Z"/><path class="cls-8" d="M397.81,324.43l.66.14a.26.26,0,0,0-.22.13.15.15,0,0,1,.13.19c0,.08-.16.95-.71,1.19s-.84.14-.82,0a9.25,9.25,0,0,1,.67-1.33.66.66,0,0,1,.26-.06Z"/><path class="cls-7" d="M402.49,319.63c-.77,3.79-1.4,4-2,4.47s-3.76-.69-4.31-.88-.76-.25-.64-.38c.92-1,1.41-3.41,1.59-4.29s.67-3.3.22-4.57c-.06-.17.15-.15.74-.1s3.95.25,4.31.88S403.27,315.83,402.49,319.63Z"/><path class="cls-7" d="M383,321s1.06-.16,7.54,1.17,6.06,1.69,8.9,2.5l-4-.76c-.8-.16-8.31-1.77-9-1.92A27,27,0,0,1,383,321Z"/><path class="cls-7" d="M380.43,315.15a10.06,10.06,0,0,0-.19,3.63c.2,1.08.74,1.07.92,1.1l3.52.55c.12,0,0-.49-.06-1a24.69,24.69,0,0,1,1.35-6.64c.23-.43.55-.84.44-.87l-3.45-.87c-.18,0-.67-.26-1.28.65A10.06,10.06,0,0,0,380.43,315.15Z"/><path class="cls-6" d="M514.94,395.71c-.78,3.83.17,5.64.46,5.87a45.57,45.57,0,0,0,4.69,1.54c.59.15,15.41,2.94,16.06,3.12a39.3,39.3,0,0,0,4,.95,5,5,0,0,0,3.93-.8c1.46-.93,2.09-3.74,2.2-4.3s.63-3.39-.34-4.82a5,5,0,0,0-3.3-2.28,39.3,39.3,0,0,0-4-.69c-.67-.09-15.41-3.32-16-3.41a45.57,45.57,0,0,0-4.92-.42C517.3,390.59,515.72,391.88,514.94,395.71Z"/><path class="cls-7" d="M522.08,391.8s.91.56,7.4,1.88,6.24.81,9.17,1.18l-4-.86c-.8-.17-8.34-1.62-9-1.75A27,27,0,0,0,522.08,391.8Z"/><path class="cls-8" d="M537,394.48l.66.14a.26.26,0,0,1-.15-.2.15.15,0,0,0,.19-.13c0-.08.23-.93-.19-1.37s-.72-.46-.76-.32a9.25,9.25,0,0,0,.1,1.48.66.66,0,0,0,.21.16Z"/><path class="cls-8" d="M534.8,405.5l.66.14a.26.26,0,0,0-.22.13.15.15,0,0,1,.13.19c0,.08-.16.95-.71,1.19s-.84.14-.82,0a9.25,9.25,0,0,1,.67-1.33.66.66,0,0,1,.26-.06Z"/><path class="cls-7" d="M539.49,400.69c-.77,3.79-1.4,4-2,4.47s-3.76-.69-4.31-.88-.76-.25-.64-.38c.92-1,1.41-3.41,1.59-4.29s.67-3.3.22-4.57c-.06-.17.15-.15.74-.1s3.95.25,4.31.88S540.26,396.9,539.49,400.69Z"/><path class="cls-7" d="M520,402.11s1.06-.16,7.54,1.17,6.06,1.69,8.9,2.5l-4-.76c-.8-.16-8.31-1.77-9-1.92A27,27,0,0,1,520,402.11Z"/><path class="cls-7" d="M517.42,396.22a10.06,10.06,0,0,0-.19,3.63c.2,1.08.74,1.07.92,1.1l3.52.55c.12,0,0-.49-.06-1a24.69,24.69,0,0,1,1.35-6.64c.23-.43.55-.84.44-.87l-3.45-.87c-.18,0-.67-.26-1.28.65A10.06,10.06,0,0,0,517.42,396.22Z"/><path class="cls-6" d="M613.86,462.85c3.83.78,5.64-.17,5.87-.46a45.57,45.57,0,0,0,1.54-4.69c.15-.59,2.94-15.41,3.12-16.06a39.3,39.3,0,0,0,.95-4,5,5,0,0,0-.8-3.93c-.93-1.46-3.74-2.09-4.3-2.2s-3.39-.63-4.82.34a5,5,0,0,0-2.28,3.3,39.3,39.3,0,0,0-.69,4c-.09.67-3.32,15.41-3.41,16a45.57,45.57,0,0,0-.42,4.92C608.74,460.49,610,462.07,613.86,462.85Z"/><path class="cls-7" d="M609.95,455.7s.56-.91,1.88-7.4.81-6.24,1.18-9.17c0,0-.69,3.16-.86,4s-1.62,8.34-1.75,9A27,27,0,0,0,609.95,455.7Z"/><path class="cls-8" d="M612.62,440.74l.14-.66a.26.26,0,0,1-.2.15.15.15,0,0,0-.13-.19c-.08,0-.93-.23-1.37.19s-.46.72-.32.76a9.25,9.25,0,0,0,1.48-.1.66.66,0,0,0,.16-.21Z"/><path class="cls-8" d="M623.65,443l.14-.66a.26.26,0,0,0,.13.22.15.15,0,0,1,.19-.13c.08,0,.95.16,1.19.71s.14.84,0,.82a9.25,9.25,0,0,1-1.33-.67.66.66,0,0,1-.06-.26Z"/><path class="cls-7" d="M618.84,438.3c3.79.77,4,1.4,4.47,2s-.69,3.76-.88,4.31-.25.76-.38.64c-1-.92-3.41-1.41-4.29-1.59s-3.3-.67-4.57-.22c-.17.06-.15-.15-.1-.74s.25-3.95.88-4.31S615,437.52,618.84,438.3Z"/><path class="cls-7" d="M620.26,457.8s-.16-1.06,1.17-7.54,1.69-6.06,2.5-8.9c0,0-.6,3.18-.76,4s-1.77,8.31-1.92,9A27,27,0,0,1,620.26,457.8Z"/><path class="cls-7" d="M614.37,460.36a10.06,10.06,0,0,0,3.63.19c1.08-.2,1.07-.74,1.1-.92s.54-3.39.55-3.52-.49,0-1,.06a24.69,24.69,0,0,1-6.64-1.35c-.43-.23-.84-.55-.87-.44s-.83,3.27-.87,3.45-.26.67.65,1.28A10.06,10.06,0,0,0,614.37,460.36Z"/><path class="cls-6" d="M589.68,459.34c3.83.78,5.64-.17,5.87-.46a45.57,45.57,0,0,0,1.54-4.69c.15-.59,2.94-15.41,3.12-16.06a39.3,39.3,0,0,0,.95-4,5,5,0,0,0-.8-3.93c-.93-1.46-3.74-2.09-4.3-2.2s-3.39-.63-4.82.34a5,5,0,0,0-2.28,3.3,39.3,39.3,0,0,0-.69,4c-.09.67-3.32,15.41-3.41,16a45.57,45.57,0,0,0-.42,4.92C584.56,457,585.85,458.56,589.68,459.34Z"/><path class="cls-7" d="M585.77,452.2s.56-.91,1.88-7.4.81-6.24,1.18-9.17c0,0-.69,3.16-.86,4s-1.62,8.34-1.75,9A27,27,0,0,0,585.77,452.2Z"/><path class="cls-8" d="M588.45,437.24l.14-.66a.26.26,0,0,1-.2.15.15.15,0,0,0-.13-.19c-.08,0-.93-.23-1.37.19s-.46.72-.32.76a9.25,9.25,0,0,0,1.48-.1.66.66,0,0,0,.16-.21Z"/><path class="cls-8" d="M599.47,439.48l.14-.66a.26.26,0,0,0,.13.22.15.15,0,0,1,.19-.13c.08,0,.95.16,1.19.71s.14.84,0,.82a9.25,9.25,0,0,1-1.33-.67.66.66,0,0,1-.06-.26Z"/><path class="cls-7" d="M594.66,434.79c3.79.77,4,1.4,4.47,2s-.69,3.76-.88,4.31-.25.76-.38.64c-1-.92-3.41-1.41-4.29-1.59s-3.3-.67-4.57-.22c-.17.06-.15-.15-.1-.74s.25-3.95.88-4.31S590.87,434,594.66,434.79Z"/><path class="cls-7" d="M596.08,454.3s-.16-1.06,1.17-7.54,1.69-6.06,2.5-8.9c0,0-.6,3.18-.76,4s-1.77,8.31-1.92,9A27,27,0,0,1,596.08,454.3Z"/><path class="cls-7" d="M590.19,456.86a10.06,10.06,0,0,0,3.63.19c1.08-.2,1.07-.74,1.1-.92s.54-3.39.55-3.52-.49,0-1,.06a24.69,24.69,0,0,1-6.64-1.35c-.43-.23-.84-.55-.87-.44s-.83,3.27-.87,3.45-.26.67.65,1.28A10.06,10.06,0,0,0,590.19,456.86Z"/><path class="cls-6" d="M574.08,421.2c-3.83-.78-5.64.17-5.87.46a45.57,45.57,0,0,0-1.54,4.69c-.15.59-2.94,15.41-3.12,16.06a39.3,39.3,0,0,0-.95,4,5,5,0,0,0,.8,3.93c.93,1.46,3.74,2.09,4.3,2.2s3.39.63,4.82-.34a5,5,0,0,0,2.28-3.3,39.3,39.3,0,0,0,.69-4c.09-.67,3.32-15.41,3.41-16a45.57,45.57,0,0,0,.42-4.92C579.2,423.56,577.91,422,574.08,421.2Z"/><path class="cls-7" d="M578,428.35s-.56.91-1.88,7.4-.81,6.24-1.18,9.17c0,0,.69-3.16.86-4s1.62-8.34,1.75-9A27,27,0,0,0,578,428.35Z"/><path class="cls-8" d="M575.31,443.31l-.14.66a.26.26,0,0,1,.2-.15.15.15,0,0,0,.13.19c.08,0,.93.23,1.37-.19s.46-.72.32-.76a9.25,9.25,0,0,0-1.48.1.66.66,0,0,0-.16.21Z"/><path class="cls-8" d="M564.29,441.07l-.14.66a.26.26,0,0,0-.13-.22.15.15,0,0,1-.19.13c-.08,0-.95-.16-1.19-.71s-.14-.84,0-.82a9.25,9.25,0,0,1,1.33.67.66.66,0,0,1,.06.26Z"/><path class="cls-7" d="M569.1,445.75c-3.79-.77-4-1.4-4.47-2s.69-3.76.88-4.31.25-.76.38-.64c1,.92,3.41,1.41,4.29,1.59s3.3.67,4.57.22c.17-.06.15.15.1.74s-.25,3.95-.88,4.31S572.89,446.53,569.1,445.75Z"/><path class="cls-7" d="M567.68,426.25s.16,1.06-1.17,7.54-1.69,6.06-2.5,8.9c0,0,.6-3.18.76-4s1.77-8.31,1.92-9A27,27,0,0,1,567.68,426.25Z"/><path class="cls-7" d="M573.57,423.69a10.06,10.06,0,0,0-3.63-.19c-1.08.2-1.07.74-1.1.92s-.54,3.39-.55,3.52.49,0,1-.06a24.69,24.69,0,0,1,6.64,1.35c.43.23.84.55.87.44s.83-3.27.87-3.45.26-.67-.65-1.28A10.06,10.06,0,0,0,573.57,423.69Z"/><path class="cls-6" d="M522.28,374.19c-.78,3.83.17,5.64.46,5.87a45.57,45.57,0,0,0,4.69,1.54c.59.15,15.41,2.94,16.06,3.12a39.3,39.3,0,0,0,4,.95,5,5,0,0,0,3.93-.8c1.46-.93,2.09-3.74,2.2-4.3s.63-3.39-.34-4.82a5,5,0,0,0-3.3-2.28,39.3,39.3,0,0,0-4-.69c-.67-.09-15.41-3.32-16-3.41A45.57,45.57,0,0,0,525,369C524.64,369.07,523.06,370.36,522.28,374.19Z"/><path class="cls-7" d="M529.42,370.28s.91.56,7.4,1.88,6.24.81,9.17,1.18l-4-.86c-.8-.17-8.34-1.62-9-1.75A27,27,0,0,0,529.42,370.28Z"/><path class="cls-8" d="M544.39,373l.66.14a.26.26,0,0,1-.15-.2.15.15,0,0,0,.19-.13c0-.08.23-.93-.19-1.37s-.72-.46-.76-.32a9.25,9.25,0,0,0,.1,1.48.66.66,0,0,0,.21.16Z"/><path class="cls-8" d="M542.14,384l.66.14a.26.26,0,0,0-.22.13.15.15,0,0,1,.13.19c0,.08-.16.95-.71,1.19s-.84.14-.82,0a9.25,9.25,0,0,1,.67-1.33.66.66,0,0,1,.26-.06Z"/><path class="cls-7" d="M546.83,379.17c-.77,3.79-1.4,4-2,4.47s-3.76-.69-4.31-.88-.76-.25-.64-.38c.92-1,1.41-3.41,1.59-4.29s.67-3.3.22-4.57c-.06-.17.15-.15.74-.1s3.95.25,4.31.88S547.6,375.38,546.83,379.17Z"/><path class="cls-7" d="M527.32,380.59s1.06-.16,7.54,1.17,6.06,1.69,8.9,2.5l-4-.76c-.8-.16-8.31-1.77-9-1.92A27,27,0,0,1,527.32,380.59Z"/><path class="cls-7" d="M524.76,374.7a10.06,10.06,0,0,0-.19,3.63c.2,1.08.74,1.07.92,1.1L529,380c.12,0,0-.49-.06-1a24.69,24.69,0,0,1,1.35-6.64c.23-.43.55-.84.44-.87l-3.45-.87c-.18,0-.67-.26-1.28.65A10.06,10.06,0,0,0,524.76,374.7Z"/><path class="cls-6" d="M523.88,349.13c-.78,3.83.17,5.64.46,5.87a45.57,45.57,0,0,0,4.69,1.54c.59.15,15.41,2.94,16.06,3.12a39.3,39.3,0,0,0,4,.95,5,5,0,0,0,3.93-.8c1.46-.93,2.09-3.74,2.2-4.3s.63-3.39-.34-4.82a5,5,0,0,0-3.3-2.28,39.3,39.3,0,0,0-4-.69c-.67-.09-15.41-3.32-16-3.41a45.57,45.57,0,0,0-4.92-.42C526.24,344,524.66,345.3,523.88,349.13Z"/><path class="cls-7" d="M531,345.22s.91.56,7.4,1.88,6.24.81,9.17,1.18l-4-.86c-.8-.17-8.34-1.62-9-1.75A27,27,0,0,0,531,345.22Z"/><path class="cls-8" d="M546,347.89l.66.14a.26.26,0,0,1-.15-.2.15.15,0,0,0,.19-.13c0-.08.23-.93-.19-1.37s-.72-.46-.76-.32a9.25,9.25,0,0,0,.1,1.48.66.66,0,0,0,.21.16Z"/><path class="cls-8" d="M543.74,358.91l.66.14a.26.26,0,0,0-.22.13.15.15,0,0,1,.13.19c0,.08-.16.95-.71,1.19s-.84.14-.82,0a9.25,9.25,0,0,1,.67-1.33.66.66,0,0,1,.26-.06Z"/><path class="cls-7" d="M548.43,354.11c-.77,3.79-1.4,4-2,4.47s-3.76-.69-4.31-.88-.76-.25-.64-.38c.92-1,1.41-3.41,1.59-4.29s.67-3.3.22-4.57c-.06-.17.15-.15.74-.1s3.95.25,4.31.88S549.2,350.32,548.43,354.11Z"/><path class="cls-7" d="M528.92,355.52s1.06-.16,7.54,1.17,6.06,1.69,8.9,2.5l-4-.76c-.8-.16-8.31-1.77-9-1.92A27,27,0,0,1,528.92,355.52Z"/><path class="cls-7" d="M526.36,349.63a10.06,10.06,0,0,0-.19,3.63c.2,1.08.74,1.07.92,1.1l3.52.55c.12,0,0-.49-.06-1a24.69,24.69,0,0,1,1.35-6.64c.23-.43.55-.84.44-.87l-3.45-.87c-.18,0-.67-.26-1.28.65A10.06,10.06,0,0,0,526.36,349.63Z"/><path class="cls-6" d="M661.55,538.79c-3.83-.78-5.64.17-5.87.46a45.57,45.57,0,0,0-1.54,4.69c-.15.59-2.94,15.41-3.12,16.06a39.3,39.3,0,0,0-.95,4,5,5,0,0,0,.8,3.93c.93,1.46,3.74,2.09,4.3,2.2s3.39.63,4.82-.34a5,5,0,0,0,2.28-3.3,39.3,39.3,0,0,0,.69-4c.09-.67,3.32-15.41,3.41-16a45.57,45.57,0,0,0,.42-4.92C666.67,541.15,665.38,539.57,661.55,538.79Z"/><path class="cls-7" d="M661,541.28a10.06,10.06,0,0,0-3.63-.19c-1.08.2-1.07.74-1.1.92s-.54,3.39-.55,3.52.49,0,1-.06a24.69,24.69,0,0,1,6.64,1.35c.43.23.84.55.87.44s.83-3.27.87-3.45.26-.67-.65-1.28A10.06,10.06,0,0,0,661,541.28Z"/><path class="cls-6" d="M92.63,421.64c-3.83-.78-5.64.17-5.87.46a45.57,45.57,0,0,0-1.54,4.69c-.15.59-2.94,15.41-3.12,16.06a39.3,39.3,0,0,0-.95,4,5,5,0,0,0,.8,3.93c.93,1.46,3.74,2.09,4.3,2.2s3.39.63,4.82-.34a5,5,0,0,0,2.28-3.3,39.3,39.3,0,0,0,.69-4c.09-.67,3.32-15.41,3.41-16a45.57,45.57,0,0,0,.42-4.92C97.75,424,96.46,422.42,92.63,421.64Z"/><path class="cls-7" d="M96.54,428.79s-.56.91-1.88,7.4-.81,6.24-1.18,9.17c0,0,.69-3.16.86-4s1.62-8.34,1.75-9A27,27,0,0,0,96.54,428.79Z"/><path class="cls-8" d="M93.86,443.75l-.14.66a.26.26,0,0,1,.2-.15.15.15,0,0,0,.13.19c.08,0,.93.23,1.37-.19s.46-.72.32-.76a9.25,9.25,0,0,0-1.48.1.66.66,0,0,0-.16.21Z"/><path class="cls-8" d="M82.84,441.51l-.14.66a.26.26,0,0,0-.13-.22.15.15,0,0,1-.19.13c-.08,0-.95-.16-1.19-.71s-.14-.84,0-.82a9.25,9.25,0,0,1,1.33.67.66.66,0,0,1,.06.26Z"/><path class="cls-7" d="M87.64,446.19c-3.79-.77-4-1.4-4.47-2s.69-3.76.88-4.31.25-.76.38-.64c1,.92,3.41,1.41,4.29,1.59s3.3.67,4.57.22c.17-.06.15.15.1.74s-.25,3.95-.88,4.31S91.44,447,87.64,446.19Z"/><path class="cls-7" d="M86.23,426.69s.16,1.06-1.17,7.54-1.69,6.06-2.5,8.9c0,0,.6-3.18.76-4s1.77-8.31,1.92-9A27,27,0,0,1,86.23,426.69Z"/><path class="cls-7" d="M92.12,424.13a10.06,10.06,0,0,0-3.63-.19c-1.08.2-1.07.74-1.1.92s-.54,3.39-.55,3.52.49,0,1-.06a24.69,24.69,0,0,1,6.64,1.35c.43.23.84.55.87.44s.83-3.27.87-3.45.26-.67-.65-1.28A10.06,10.06,0,0,0,92.12,424.13Z"/><path class="cls-6" d="M126.34,363c3.83.78,5.64-.17,5.87-.46a45.57,45.57,0,0,0,1.54-4.69c.15-.59,2.94-15.41,3.12-16.06a39.3,39.3,0,0,0,.95-4,5,5,0,0,0-.8-3.93c-.93-1.46-3.74-2.09-4.3-2.2s-3.39-.63-4.82.34a5,5,0,0,0-2.28,3.3,39.3,39.3,0,0,0-.69,4c-.09.67-3.32,15.41-3.41,16a45.57,45.57,0,0,0-.42,4.92C121.22,360.68,122.51,362.25,126.34,363Z"/><path class="cls-7" d="M122.43,355.89s.56-.91,1.88-7.4.81-6.24,1.18-9.17c0,0-.69,3.16-.86,4s-1.62,8.34-1.75,9A27,27,0,0,0,122.43,355.89Z"/><path class="cls-8" d="M125.11,340.93l.14-.66a.26.26,0,0,1-.2.15.15.15,0,0,0-.13-.19c-.08,0-.93-.23-1.37.19s-.46.72-.32.76a9.25,9.25,0,0,0,1.48-.1.66.66,0,0,0,.16-.21Z"/><path class="cls-8" d="M136.13,343.17l.14-.66a.26.26,0,0,0,.13.22.15.15,0,0,1,.19-.13c.08,0,.95.16,1.19.71s.14.84,0,.82a9.25,9.25,0,0,1-1.33-.67.66.66,0,0,1-.06-.26Z"/><path class="cls-7" d="M131.32,338.48c3.79.77,4,1.4,4.47,2s-.69,3.76-.88,4.31-.25.76-.38.64c-1-.92-3.41-1.41-4.29-1.59s-3.3-.67-4.57-.22c-.17.06-.15-.15-.1-.74s.25-3.95.88-4.31S127.53,337.71,131.32,338.48Z"/><path class="cls-7" d="M132.74,358s-.16-1.06,1.17-7.54,1.69-6.06,2.5-8.9c0,0-.6,3.18-.76,4s-1.77,8.31-1.92,9A27,27,0,0,1,132.74,358Z"/><path class="cls-7" d="M126.85,360.55a10.06,10.06,0,0,0,3.63.19c1.08-.2,1.07-.74,1.1-.92s.54-3.39.55-3.52-.49,0-1,.06a24.69,24.69,0,0,1-6.64-1.35c-.43-.23-.84-.55-.87-.44s-.83,3.27-.87,3.45-.26.67.65,1.28A10.06,10.06,0,0,0,126.85,360.55Z"/><path class="cls-6" d="M35.37,173.49c.9-3.8,0-5.64-.27-5.89a45.57,45.57,0,0,0-4.63-1.69c-.58-.17-15.31-3.44-16-3.64a39.3,39.3,0,0,0-4-1.08,5,5,0,0,0-4,.68c-1.48.88-2.21,3.67-2.34,4.22s-.74,3.37.19,4.82a5,5,0,0,0,3.22,2.38,39.3,39.3,0,0,0,4,.82c.67.11,15.29,3.82,15.89,3.93a45.57,45.57,0,0,0,4.9.57C32.85,178.53,34.47,177.29,35.37,173.49Z"/><path class="cls-7" d="M28.1,177.17s-.89-.59-7.33-2.12-6.21-1-9.13-1.48l3.93,1c.79.19,8.28,1.89,9,2A27,27,0,0,0,28.1,177.17Z"/><path class="cls-8" d="M13.23,174l-.66-.16a.26.26,0,0,1,.15.21.15.15,0,0,0-.19.12c0,.08-.26.92.15,1.38s.7.48.75.34a9.25,9.25,0,0,0,0-1.48.66.66,0,0,0-.21-.16Z"/><path class="cls-8" d="M15.84,163.07l-.66-.16a.26.26,0,0,0,.22-.12.15.15,0,0,1-.12-.19c0-.08.19-.94.75-1.16s.85-.11.82,0a9.25,9.25,0,0,1-.71,1.3.66.66,0,0,1-.26.05Z"/><path class="cls-7" d="M11,167.71c.9-3.77,1.53-4,2.13-4.4s3.74.81,4.28,1,.75.27.63.4c-1,1-1.52,3.36-1.73,4.24s-.78,3.27-.36,4.57c.05.17-.16.14-.74.08s-3.94-.38-4.28-1S10.1,171.48,11,167.71Z"/><path class="cls-7" d="M30.54,166.93s-1.06.12-7.5-1.41-6-1.89-8.81-2.79l4,.89c.79.18,8.25,2,8.92,2.21A27,27,0,0,1,30.54,166.93Z"/><path class="cls-7" d="M32.9,172.9a10.06,10.06,0,0,0,.31-3.62c-.17-1.08-.71-1.09-.88-1.13l-3.5-.67c-.12,0,0,.49,0,1a26.3,26.3,0,0,1-.56,3.35,26.3,26.3,0,0,1-1,3.24c-.24.42-.58.82-.46.86l3.42,1c.18,0,.66.28,1.3-.61A10.06,10.06,0,0,0,32.9,172.9Z"/><path class="cls-6" d="M353.93,434.19c.9-3.8,0-5.64-.27-5.89a45.57,45.57,0,0,0-4.63-1.69c-.58-.17-15.31-3.44-16-3.64a39.3,39.3,0,0,0-4-1.08,5,5,0,0,0-4,.68c-1.48.88-2.21,3.67-2.34,4.22s-.74,3.37.19,4.82a5,5,0,0,0,3.22,2.38,39.3,39.3,0,0,0,4,.82c.67.11,15.29,3.82,15.89,3.93a45.57,45.57,0,0,0,4.9.57C351.41,439.23,353,438,353.93,434.19Z"/><path class="cls-7" d="M346.66,437.87s-.89-.59-7.33-2.12-6.21-1-9.13-1.48l3.93,1c.79.19,8.28,1.89,9,2A27,27,0,0,0,346.66,437.87Z"/><path class="cls-8" d="M331.8,434.71l-.66-.16a.26.26,0,0,1,.15.21.15.15,0,0,0-.19.12c0,.08-.26.92.15,1.38s.7.48.75.34a9.25,9.25,0,0,0,0-1.48.66.66,0,0,0-.21-.16Z"/><path class="cls-8" d="M334.4,423.77l-.66-.16a.26.26,0,0,0,.22-.12.15.15,0,0,1-.12-.19c0-.08.19-.94.75-1.16s.85-.11.82,0a9.25,9.25,0,0,1-.71,1.3.66.66,0,0,1-.26.05Z"/><path class="cls-7" d="M329.56,428.41c.9-3.77,1.53-4,2.13-4.4s3.74.81,4.28,1,.75.27.63.4c-1,1-1.52,3.36-1.73,4.24s-.78,3.27-.36,4.57c.05.17-.16.14-.74.08s-3.94-.38-4.28-1S328.66,432.18,329.56,428.41Z"/><path class="cls-7" d="M349.1,427.63s-1.06.12-7.5-1.41-6-1.89-8.81-2.79l4,.89c.79.18,8.25,2,8.92,2.21A27,27,0,0,1,349.1,427.63Z"/><path class="cls-7" d="M351.47,433.6a10.06,10.06,0,0,0,.31-3.62c-.17-1.08-.71-1.09-.88-1.13l-3.5-.67c-.12,0,0,.49,0,1a24.69,24.69,0,0,1-1.57,6.6c-.24.42-.58.82-.46.86l3.42,1c.18,0,.66.28,1.3-.61A10.06,10.06,0,0,0,351.47,433.6Z"/><path class="cls-6" d="M281.93,386.12c3.9.24,5.56-.94,5.76-1.26a45.57,45.57,0,0,0,.88-4.85c.07-.6.78-15.67.87-16.34a39.3,39.3,0,0,0,.38-4.09,5,5,0,0,0-1.34-3.78c-1.12-1.31-4-1.55-4.56-1.59s-3.45-.16-4.72,1a5,5,0,0,0-1.8,3.58,39.3,39.3,0,0,0-.13,4.1c0,.68-1.16,15.72-1.17,16.32a45.57,45.57,0,0,0,.27,4.93C276.53,384.49,278,385.88,281.93,386.12Z"/><path class="cls-7" d="M277.07,379.59s.43-1,.84-7.59-.06-6.29-.1-9.24c0,0-.25,3.23-.3,4S277,375.27,277,376A27,27,0,0,0,277.07,379.59Z"/><path class="cls-8" d="M277.65,364.4l0-.68a.26.26,0,0,1-.18.18.15.15,0,0,0-.15-.17c-.08,0-1-.1-1.33.38s-.35.78-.21.79a9.25,9.25,0,0,0,1.45-.3.66.66,0,0,0,.12-.23Z"/><path class="cls-8" d="M288.87,365.1l0-.68a.26.26,0,0,0,.16.2.15.15,0,0,1,.17-.15c.08,0,1,0,1.27.54s.26.81.11.81a9.25,9.25,0,0,1-1.4-.48.66.66,0,0,1-.09-.25Z"/><path class="cls-7" d="M283.47,361.12c3.86.24,4.19.83,4.7,1.35s-.16,3.82-.27,4.39-.14.79-.29.68c-1.12-.77-3.57-.93-4.47-1s-3.36-.21-4.56.42c-.16.08-.17-.13-.2-.72s-.3-3.94.27-4.39S279.6,360.88,283.47,361.12Z"/><path class="cls-7" d="M287.56,380.24s-.3-1,.11-7.63.84-6.23,1.25-9.16c0,0-.15,3.23-.2,4s-.6,8.47-.66,9.16A27,27,0,0,1,287.56,380.24Z"/><path class="cls-7" d="M282.09,383.59a10.06,10.06,0,0,0,3.62-.31c1-.35,1-.88,1-1.06s.06-3.44.06-3.56-.48.09-1,.19a24.69,24.69,0,0,1-6.77-.42c-.46-.17-.91-.43-.93-.31s-.37,3.36-.38,3.54-.16.7.82,1.17A10.06,10.06,0,0,0,282.09,383.59Z"/><path class="cls-6" d="M415.28,345.92c-.77,3.83.18,5.64.47,5.87a45.57,45.57,0,0,0,4.69,1.53c.59.15,15.42,2.92,16.07,3.09a39.3,39.3,0,0,0,4,.94,5,5,0,0,0,3.93-.81c1.45-.93,2.08-3.74,2.19-4.3s.63-3.39-.35-4.81a5,5,0,0,0-3.3-2.27,39.3,39.3,0,0,0-4-.69c-.67-.09-15.41-3.29-16-3.39a45.57,45.57,0,0,0-4.92-.41C417.63,340.79,416,342.09,415.28,345.92Z"/><path class="cls-7" d="M422.42,342s.91.55,7.4,1.87,6.24.8,9.17,1.16l-4-.85c-.8-.17-8.34-1.61-9-1.73A27,27,0,0,0,422.42,342Z"/><path class="cls-8" d="M437.38,344.65l.66.13a.26.26,0,0,1-.15-.2.15.15,0,0,0,.19-.13c0-.08.22-.93-.19-1.37s-.72-.46-.76-.32a9.25,9.25,0,0,0,.1,1.48.66.66,0,0,0,.21.16Z"/><path class="cls-8" d="M435.16,355.67l.66.13a.26.26,0,0,0-.22.13.15.15,0,0,1,.13.19c0,.08-.15.95-.71,1.19s-.84.14-.82,0a9.25,9.25,0,0,1,.67-1.33.66.66,0,0,1,.26-.06Z"/><path class="cls-7" d="M439.84,350.86c-.77,3.8-1.4,4-2,4.47s-3.76-.68-4.32-.87-.76-.25-.64-.38c.92-1,1.4-3.41,1.58-4.3s.67-3.3.21-4.57c-.06-.17.15-.15.74-.1s3.95.24,4.32.87S440.6,347.07,439.84,350.86Z"/><path class="cls-7" d="M420.33,352.31s1.06-.16,7.54,1.15,6.06,1.68,8.9,2.49l-4-.75c-.8-.16-8.31-1.75-9-1.9A27,27,0,0,1,420.33,352.31Z"/><path class="cls-7" d="M417.76,346.42a10.06,10.06,0,0,0-.19,3.63c.21,1.07.74,1.06.92,1.1l3.52.55c.12,0,0-.49-.06-1a24.69,24.69,0,0,1,1.34-6.65c.23-.43.55-.84.43-.87l-3.45-.86c-.18,0-.67-.25-1.28.66A10.06,10.06,0,0,0,417.76,346.42Z"/><path class="cls-6" d="M435,395.18c.77-3.83-.18-5.64-.47-5.87a45.57,45.57,0,0,0-4.69-1.53c-.59-.15-15.42-2.92-16.07-3.09a39.3,39.3,0,0,0-4-.94,5,5,0,0,0-3.93.81c-1.45.93-2.08,3.74-2.19,4.3s-.63,3.39.35,4.81a5,5,0,0,0,3.3,2.27,39.3,39.3,0,0,0,4,.69c.67.09,15.41,3.29,16,3.39a45.57,45.57,0,0,0,4.92.41C432.65,400.3,434.22,399,435,395.18Z"/><path class="cls-7" d="M427.86,399.1s-.91-.55-7.4-1.87-6.24-.8-9.17-1.16l4,.85c.8.17,8.34,1.61,9,1.73A27,27,0,0,0,427.86,399.1Z"/><path class="cls-8" d="M412.89,396.45l-.66-.13a.26.26,0,0,1,.15.2.15.15,0,0,0-.19.13c0,.08-.22.93.19,1.37s.72.46.76.32a9.25,9.25,0,0,0-.1-1.48.66.66,0,0,0-.21-.16Z"/><path class="cls-8" d="M415.12,385.42l-.66-.13a.26.26,0,0,0,.22-.13.15.15,0,0,1-.13-.19c0-.08.15-.95.71-1.19s.84-.14.82,0a9.25,9.25,0,0,1-.67,1.33.66.66,0,0,1-.26.06Z"/><path class="cls-7" d="M410.44,390.24c.77-3.8,1.4-4,2-4.47s3.76.68,4.32.87.76.25.64.38c-.92,1-1.4,3.41-1.58,4.3s-.67,3.3-.21,4.57c.06.17-.15.15-.74.1s-3.95-.24-4.32-.87S409.67,394,410.44,390.24Z"/><path class="cls-7" d="M429.94,388.79s-1.06.16-7.54-1.15-6.06-1.68-8.9-2.49l4,.75c.8.16,8.31,1.75,9,1.9A27,27,0,0,1,429.94,388.79Z"/><path class="cls-7" d="M432.51,394.67a10.06,10.06,0,0,0,.19-3.63c-.21-1.07-.74-1.06-.92-1.1l-3.52-.55c-.12,0,0,.49.06,1A24.69,24.69,0,0,1,427,397c-.23.43-.55.84-.43.87l3.45.86c.18,0,.67.25,1.28-.66A10.06,10.06,0,0,0,432.51,394.67Z"/><path class="cls-6" d="M493.13,286.23c-2.57-2.95-4.58-3.29-4.94-3.21a45.57,45.57,0,0,0-4.07,2.79c-.47.38-11.7,10.45-12.24,10.86a39.3,39.3,0,0,0-3.18,2.6,5,5,0,0,0-1.75,3.61c-.15,1.72,1.7,3.93,2.08,4.36s2.31,2.56,4,2.65a5,5,0,0,0,3.81-1.24,39.3,39.3,0,0,0,3-2.79c.48-.48,12-10.22,12.43-10.64a45.57,45.57,0,0,0,3.32-3.65C495.77,291.22,495.7,289.18,493.13,286.23Z"/><path class="cls-7" d="M491.9,294.29s-1,.38-6,4.73-4.44,4.46-6.51,6.57l3.09-2.62c.62-.53,6.35-5.64,6.87-6.1A27,27,0,0,0,491.9,294.29Z"/><path class="cls-8" d="M480.68,304.55l-.51.44a.26.26,0,0,1,.26,0,.15.15,0,0,0,0,.23c.05.06.6.75,1.21.68s.8-.29.71-.41a9.25,9.25,0,0,0-1.23-.82.66.66,0,0,0-.25.07Z"/><path class="cls-8" d="M473.29,296.07l-.51.44a.26.26,0,0,0,0-.25.15.15,0,0,1-.23,0c-.06-.06-.66-.7-.51-1.29s.4-.75.5-.65a9.25,9.25,0,0,1,.65,1.34.66.66,0,0,1-.11.24Z"/><path class="cls-7" d="M474.26,302.71c-2.54-2.92-2.35-3.56-2.34-4.29s2.83-2.57,3.32-2.89.66-.45.69-.27c.23,1.34,1.85,3.19,2.44,3.87s2.21,2.54,3.5,3c.17.05,0,.21-.37.65s-2.59,3-3.32,2.89S476.8,305.63,474.26,302.71Z"/><path class="cls-7" d="M485,286.36s-.52.93-5.51,5.28-5,3.79-7.4,5.55l3-2.7c.61-.54,6.45-5.52,7-6A27,27,0,0,1,485,286.36Z"/><path class="cls-7" d="M491.22,287.9a10.06,10.06,0,0,0-2.77-2.36c-1-.49-1.3-.06-1.43.06s-2.49,2.37-2.57,2.46.4.28.81.54a24.69,24.69,0,0,1,4.45,5.11c.2.44.33,1,.43.88s2.65-2.1,2.79-2.21.61-.38.26-1.41A10.06,10.06,0,0,0,491.22,287.9Z"/><line class="cls-5" x1="580.56" y1="154.79" x2="740.83" y2="187.44"/><line class="cls-5" x1="603.52" y1="159.47" x2="595.5" y2="198.84"/><line class="cls-5" x1="580.56" y1="154.79" x2="572.54" y2="194.16"/><line class="cls-5" x1="626.49" y1="164.15" x2="618.47" y2="203.52"/><line class="cls-5" x1="649.18" y1="168.77" x2="641.16" y2="208.14"/><line class="cls-5" x1="672.15" y1="173.45" x2="664.13" y2="212.82"/><line class="cls-5" x1="672.15" y1="173.45" x2="664.13" y2="212.82"/><line class="cls-5" x1="695.11" y1="178.13" x2="687.09" y2="217.5"/><line class="cls-5" x1="718.08" y1="182.81" x2="710.06" y2="222.18"/><line class="cls-5" x1="740.77" y1="187.43" x2="732.75" y2="226.8"/><path class="cls-9" d="M580.69,154.12c-10.83-2.22-21.42,2.43-24.28,16.41v0c-2.82,13.82,5,21.85,16,24.09Z"/><path class="cls-9" d="M740.89,186.91c10.83,2.22,18.75,10.65,15.88,24.63v0c-2.83,13.81-13.21,18.12-24.18,15.87Z"/><line class="cls-5" x1="397.64" y1="402.13" x2="430.02" y2="241.81"/><line class="cls-5" x1="362.9" y1="371.21" x2="441.66" y2="387.11"/><line class="cls-5" x1="358.26" y1="394.18" x2="437.02" y2="410.09"/><line class="cls-5" x1="367.54" y1="348.23" x2="446.3" y2="364.14"/><line class="cls-5" x1="372.12" y1="325.53" x2="450.89" y2="341.44"/><line class="cls-5" x1="376.76" y1="302.56" x2="455.53" y2="318.47"/><line class="cls-5" x1="376.76" y1="302.56" x2="455.53" y2="318.47"/><line class="cls-5" x1="381.4" y1="279.59" x2="460.17" y2="295.49"/><line class="cls-5" x1="386.04" y1="256.61" x2="464.81" y2="272.52"/><line class="cls-5" x1="390.63" y1="233.91" x2="469.4" y2="249.82"/><line class="cls-5" x1="420.92" y1="287.82" x2="453.3" y2="127.5"/><line class="cls-5" x1="386.18" y1="256.9" x2="464.94" y2="272.8"/><line class="cls-5" x1="381.54" y1="279.87" x2="460.3" y2="295.78"/><line class="cls-5" x1="390.82" y1="233.92" x2="469.58" y2="249.83"/><line class="cls-5" x1="395.4" y1="211.22" x2="474.17" y2="227.13"/><line class="cls-5" x1="400.04" y1="188.25" x2="478.81" y2="204.16"/><line class="cls-5" x1="400.04" y1="188.25" x2="478.81" y2="204.16"/><line class="cls-5" x1="404.68" y1="165.28" x2="483.45" y2="181.18"/><line class="cls-5" x1="409.32" y1="142.3" x2="488.09" y2="158.21"/><line class="cls-5" x1="413.91" y1="119.6" x2="492.68" y2="135.51"/><path class="cls-9" d="M357.2,393.95c-2.21,10.83,8.76,22.72,36.25,28.34l.09,0c27.18,5.56,41.17-1.08,43.41-12.05Z"/><line class="cls-5" x1="-29.76" y1="314.67" x2="2.62" y2="154.34"/><line class="cls-5" x1="-64.5" y1="283.74" x2="14.26" y2="299.65"/><line class="cls-5" x1="-69.14" y1="306.71" x2="9.62" y2="322.62"/><line class="cls-5" x1="-59.86" y1="260.77" x2="18.9" y2="276.68"/><line class="cls-5" x1="-55.28" y1="238.06" x2="23.49" y2="253.97"/><line class="cls-5" x1="-50.64" y1="215.09" x2="28.13" y2="231"/><line class="cls-5" x1="-50.64" y1="215.09" x2="28.13" y2="231"/><line class="cls-5" x1="-46" y1="192.12" x2="32.77" y2="208.03"/><line class="cls-5" x1="-41.36" y1="169.15" x2="37.41" y2="185.06"/><line class="cls-5" x1="-36.77" y1="146.44" x2="41.99" y2="162.35"/><line class="cls-5" x1="-6.48" y1="200.35" x2="25.9" y2="40.03"/><line class="cls-5" x1="-41.22" y1="169.43" x2="37.54" y2="185.34"/><line class="cls-5" x1="-45.86" y1="192.4" x2="32.9" y2="208.31"/><line class="cls-5" x1="-36.58" y1="146.46" x2="42.18" y2="162.37"/><line class="cls-5" x1="-32" y1="123.75" x2="46.77" y2="139.66"/><line class="cls-5" x1="-27.36" y1="100.78" x2="51.41" y2="116.69"/><line class="cls-5" x1="-27.36" y1="100.78" x2="51.41" y2="116.69"/><line class="cls-5" x1="-22.72" y1="77.81" x2="56.05" y2="93.72"/><line class="cls-5" x1="-18.08" y1="54.84" x2="60.69" y2="70.75"/><line class="cls-5" x1="-13.49" y1="32.13" x2="65.27" y2="48.04"/><path class="cls-9" d="M-70.2,306.48c-2.21,10.83,8.76,22.72,36.25,28.34l.09,0c27.18,5.56,41.17-1.08,43.41-12.05Z"/><path class="cls-9" d="M750,311.83c1.63-8-3.93-24.67-22.43-28.46-5.46-1.12-135.64-9.85-135.64-9.85L565.71,401.68l158.5,32.44Z"/><line class="cls-5" x1="692.2" y1="483.24" x2="700.1" y2="443.63"/><line class="cls-5" x1="713.83" y1="487.67" x2="721.73" y2="448.06"/><line class="cls-5" x1="669.23" y1="478.57" x2="677.13" y2="438.96"/><line class="cls-5" x1="652.42" y1="444.91" x2="663.91" y2="437.15"/><line class="cls-5" x1="650.26" y1="454.46" x2="673.08" y2="439.18"/><line class="cls-5" x1="648.71" y1="463.61" x2="676.03" y2="445.34"/><line class="cls-5" x1="646.98" y1="472.87" x2="674.11" y2="454.74"/><line class="cls-5" x1="655.42" y1="475.38" x2="672.19" y2="464.13"/><line class="cls-5" x1="664.96" y1="477.17" x2="670.27" y2="473.52"/><line class="cls-5" x1="646.54" y1="473.96" x2="654.43" y2="434.35"/><line class="cls-5" x1="623.57" y1="469.29" x2="631.47" y2="429.68"/><line class="cls-5" x1="623.57" y1="469.29" x2="631.47" y2="429.68"/><line class="cls-5" x1="600.6" y1="464.62" x2="608.5" y2="425.01"/><line class="cls-5" x1="577.64" y1="459.95" x2="585.53" y2="420.34"/><line class="cls-5" x1="554.94" y1="455.33" x2="562.83" y2="415.73"/><rect class="cls-5" x="631.9" y="452.91" width="11.04" height="11.04" rx="1.1" ry="1.1" transform="translate(104.85 -118.49) rotate(11.57)"/><rect class="cls-5" x="678.23" y="462.39" width="11.04" height="11.04" rx="1.1" ry="1.1" transform="translate(107.7 -127.59) rotate(11.57)"/><rect class="cls-10" x="631.87" y="337.46" width="13.85" height="172.97" transform="translate(1182.44 -116.64) rotate(101.59)"/><rect class="cls-10" x="561.72" y="258.01" width="13.85" height="198.07" transform="translate(1053.96 821.07) rotate(-168.41)"/><line class="cls-5" x1="511.17" y1="405.18" x2="550.42" y2="413.11"/><line class="cls-5" x1="506.53" y1="428.15" x2="545.78" y2="436.08"/><line class="cls-5" x1="515.81" y1="382.21" x2="555.06" y2="390.13"/><line class="cls-5" x1="520.39" y1="359.5" x2="559.65" y2="367.43"/><line class="cls-5" x1="525.03" y1="336.53" x2="564.29" y2="344.46"/><line class="cls-5" x1="525.03" y1="336.53" x2="564.29" y2="344.46"/><line class="cls-5" x1="529.67" y1="313.56" x2="568.92" y2="321.49"/><line class="cls-5" x1="534.31" y1="290.59" x2="573.56" y2="298.51"/><line class="cls-5" x1="538.9" y1="267.88" x2="578.15" y2="275.81"/><polygon class="cls-11" points="648.77 391.54 645.13 409.02 630.69 406.07 628.86 414.81 594.88 407.86 596.6 399.09 583.21 396.35 607.43 277.99 592.84 274.51 600.09 238.14 650.78 248.51 647.2 266.92 727.58 283.37 722.96 305.95 736.01 308.97 716.27 405.43 648.77 391.54"/><polyline class="cls-11" points="614.17 366.73 632.84 275.52 700.01 289.26 680.63 380.33"/><path class="cls-9" d="M505.61,427.32l39.88,8.15-3.34,16.33C515,446.16,503.82,436.07,505.61,427.32Z"/><path class="cls-9" d="M538.28,267.64l39.88,8.17,3.34-16.33C554.33,254,540.08,258.89,538.28,267.64Z"/><polygon class="cls-12" points="387.02 135.61 389.11 125.41 393.64 126.34 390.32 116.35 383.33 124.23 387.87 125.16 385.78 135.36 387.02 135.61"/><path class="cls-9" d="M279.49,220.38c1.63-8-2.32-11.27-9.8-12.8l-145.3-29.73L98.16,306l144.5,29.57L265.31,224.9Z"/><path class="cls-5" d="M123.73,125.11l150,30.69c20.62,4.22,32.88,12,37.14,18.07"/><path class="cls-5" d="M128.59,101.36l188.17,38.51"/><line class="cls-5" x1="228.31" y1="387.63" x2="236.21" y2="348.02"/><line class="cls-5" x1="205.35" y1="382.96" x2="213.24" y2="343.35"/><line class="cls-5" x1="188.53" y1="349.29" x2="200.03" y2="341.54"/><line class="cls-5" x1="186.38" y1="358.84" x2="209.2" y2="343.57"/><line class="cls-5" x1="184.82" y1="367.99" x2="212.15" y2="349.73"/><line class="cls-5" x1="183.09" y1="377.26" x2="210.22" y2="359.12"/><line class="cls-5" x1="191.54" y1="379.77" x2="208.3" y2="368.52"/><line class="cls-5" x1="201.07" y1="381.56" x2="206.38" y2="377.91"/><line class="cls-5" x1="182.65" y1="378.34" x2="190.54" y2="338.73"/><line class="cls-5" x1="159.68" y1="373.67" x2="167.58" y2="334.07"/><line class="cls-5" x1="159.68" y1="373.67" x2="167.58" y2="334.07"/><line class="cls-5" x1="136.72" y1="369" x2="144.61" y2="329.4"/><line class="cls-5" x1="113.75" y1="364.33" x2="121.65" y2="324.73"/><line class="cls-5" x1="91.05" y1="359.72" x2="98.95" y2="320.11"/><rect class="cls-5" x="168.01" y="357.3" width="11.04" height="11.04" rx="1.1" ry="1.1" transform="translate(76.27 -27.43) rotate(11.57)"/><rect class="cls-5" x="214.35" y="366.78" width="11.04" height="11.04" rx="1.1" ry="1.1" transform="translate(79.11 -36.52) rotate(11.57)"/><path class="cls-9" d="M90.82,360.35,99,320.48,82.49,317.1C77,344.28,82,358.54,90.82,360.35Z"/><path class="cls-9" d="M228.15,388.46l8.15-39.88,16.33,3.34C247,379.06,236.91,390.25,228.15,388.46Z"/><rect class="cls-10" x="154.66" y="312.72" width="32.79" height="9.82" transform="translate(67.16 -27.85) rotate(11.57)"/><rect class="cls-10" x="164.22" y="249.84" width="13.85" height="156.38" transform="translate(526.88 226.29) rotate(101.59)"/><rect class="cls-10" x="257.71" y="208.99" width="13.85" height="29.57" transform="translate(537.01 9.5) rotate(101.59)"/><rect class="cls-10" x="253.26" y="217.2" width="13.85" height="134.77" transform="translate(457.89 615.63) rotate(-168.41)"/><rect class="cls-10" x="312.88" y="167.29" width="2.28" height="195.07" transform="translate(568.44 587.34) rotate(-168.41)"/><rect class="cls-10" x="96.24" y="174.1" width="13.85" height="145.62" transform="translate(154.61 509.5) rotate(-168.41)"/><path class="cls-6" d="M221.44,180.05c.77-3.83-.18-5.64-.47-5.87a45.57,45.57,0,0,0-4.69-1.53c-.59-.15-15.42-2.92-16.07-3.09a39.3,39.3,0,0,0-4-.94,5,5,0,0,0-3.93.81c-1.45.93-2.08,3.74-2.19,4.3s-.63,3.39.35,4.81a5,5,0,0,0,3.3,2.27,39.3,39.3,0,0,0,4,.69c.67.09,15.41,3.29,16,3.39a45.57,45.57,0,0,0,4.92.41C219.09,185.18,220.67,183.88,221.44,180.05Z"/><path class="cls-7" d="M214.31,184s-.91-.55-7.4-1.87-6.24-.8-9.17-1.16l4,.85c.8.17,8.34,1.61,9,1.73A27,27,0,0,0,214.31,184Z"/><path class="cls-8" d="M199.34,181.32l-.66-.13a.26.26,0,0,1,.15.2.15.15,0,0,0-.19.13c0,.08-.22.93.19,1.37s.72.46.76.32a9.25,9.25,0,0,0-.1-1.48.66.66,0,0,0-.21-.16Z"/><path class="cls-8" d="M201.56,170.3l-.66-.13a.26.26,0,0,0,.22-.13.15.15,0,0,1-.13-.19c0-.08.15-.95.71-1.19s.84-.14.82,0a9.25,9.25,0,0,1-.67,1.33.66.66,0,0,1-.26.06Z"/><path class="cls-7" d="M196.88,175.11c.77-3.8,1.4-4,2-4.47s3.76.68,4.32.87.76.25.64.38c-.92,1-1.4,3.41-1.58,4.3s-.67,3.3-.21,4.57c.06.17-.15.15-.74.1s-3.95-.24-4.32-.87S196.12,178.9,196.88,175.11Z"/><path class="cls-7" d="M216.39,173.66s-1.06.16-7.54-1.15-6.06-1.68-8.9-2.49l4,.75c.8.16,8.31,1.75,9,1.9A27,27,0,0,1,216.39,173.66Z"/><path class="cls-7" d="M219,179.55a10.06,10.06,0,0,0,.19-3.63c-.21-1.07-.74-1.06-.92-1.1l-3.52-.55c-.12,0,0,.49.06,1a24.69,24.69,0,0,1-1.34,6.65c-.23.43-.55.84-.43.87l3.45.86c.18,0,.67.25,1.28-.66A10.06,10.06,0,0,0,219,179.55Z"/><path class="cls-9" d="M333.91,169.13l4.72-23a1.28,1.28,0,0,0-1-1.51l-21.19-4.34a1.28,1.28,0,0,0-1.29,2c7.5,10.34,10.64,15.84,16.35,27.18A1.28,1.28,0,0,0,333.91,169.13Z"/><path class="cls-5" d="M273.4,356.71,302.77,213.2C306.29,196,291.91,183,272.35,179L119.12,147.62"/><polygon class="cls-11" points="155.01 183.07 169.84 110.64 209.34 118.72 194.52 191.15 194.52 191.15 253.73 203.27 230.45 317.05 193.31 309.45 191.79 316.87 152.29 308.78 153.81 301.37 116.67 293.77 139.95 179.99 155.01 183.07 155.01 183.07"/><polyline class="cls-11" points="153.81 301.37 178.51 281.43 193.33 309.35"/><line class="cls-11" x1="178.51" y1="281.43" x2="172.08" y2="312.83"/><polygon class="cls-11" points="209.02 118.5 184.71 138.52 170.28 110.68 209.02 118.5"/><polyline class="cls-11" points="194.58 191.06 169.88 211 155.06 183.08"/><line class="cls-11" x1="169.88" y1="211" x2="189.66" y2="114.31"/><line class="cls-11" x1="230.45" y1="317.05" x2="139.95" y2="179.99"/><line class="cls-11" x1="116.67" y1="293.77" x2="253.73" y2="203.27"/><path class="cls-9" d="M131.75,73.36c1.77-8.66,1.77-16.38,73.32-1.9l72.8,14.9c72.42,14.84,68.25,21.67,66.43,30.55Z"/><polygon class="cls-12" points="299.33 288.71 301.42 278.51 305.95 279.44 302.62 269.45 295.64 277.33 300.18 278.25 298.09 288.45 299.33 288.71"/><polygon class="cls-12" points="336.13 128.97 325.93 126.88 326.86 122.34 316.88 125.67 324.75 132.65 325.68 128.12 335.88 130.21 336.13 128.97"/><polygon class="cls-12" points="190.31 99.12 180.11 97.03 181.04 92.5 171.06 95.83 178.93 102.81 179.86 98.28 190.06 100.37 190.31 99.12"/><polygon class="cls-12" points="278.02 284.35 280.11 274.15 284.64 275.07 281.32 265.09 274.33 272.97 278.87 273.89 276.78 284.09 278.02 284.35"/><polygon class="cls-12" points="368.39 111.87 366.3 122.07 361.76 121.14 365.09 131.12 372.07 123.25 367.54 122.32 369.63 112.12 368.39 111.87"/><polygon class="cls-12" points="109.73 78.86 111.82 68.66 116.35 69.59 113.03 59.61 106.04 67.48 110.58 68.41 108.49 78.61 109.73 78.86"/><polygon class="cls-12" points="91.09 55.12 89.01 65.32 84.47 64.39 87.8 74.38 94.78 66.5 90.25 65.57 92.34 55.37 91.09 55.12"/><rect class="cls-10" x="214.64" y="74.65" width="81.3" height="994.13" transform="translate(866.64 436.49) rotate(101.59)"/><rect class="cls-9" x="-228.65" y="497.46" width="988.39" height="75.57" transform="translate(112.7 -42.37) rotate(11.57)"/><polygon class="cls-12" points="171.47 392.64 161.27 390.56 162.2 386.02 152.22 389.35 160.09 396.33 161.02 391.8 171.22 393.89 171.47 392.64"/><polygon class="cls-12" points="147.73 411.28 157.93 413.37 157 417.9 166.99 414.58 159.11 407.59 158.19 412.13 147.98 410.04 147.73 411.28"/></g></g></svg>