<svg id="Layer_1" data-name="Layer 1" xmlns="http://www.w3.org/2000/svg" viewBox="0 0 200 200"><defs><style>.cls-1{fill:#ddebe6;}</style></defs><title>pattern-02-01</title><rect class="cls-1" x="-56.92" y="53.15" width="120.5" height="25.8" rx="2.94" ry="2.94" transform="translate(-45.73 21.7) rotate(-45)"/><rect class="cls-1" x="-74.79" y="120.6" width="120.5" height="25.8" rx="2.94" ry="2.94" transform="translate(-98.66 28.82) rotate(-45)"/><rect class="cls-1" x="21.09" y="74.3" width="120.5" height="25.8" rx="2.94" ry="2.94" transform="translate(-37.83 83.06) rotate(-45)"/><rect class="cls-1" x="-71.32" y="166.72" width="120.5" height="25.8" rx="2.94" ry="2.94" transform="translate(-130.25 44.78) rotate(-45)"/><rect class="cls-1" x="-25.21" y="170.18" width="120.5" height="25.8" rx="2.94" ry="2.94" transform="translate(-119.19 78.4) rotate(-45)"/><rect class="cls-1" x="70.68" y="123.88" width="120.5" height="25.8" rx="2.94" ry="2.94" transform="translate(-58.37 132.64) rotate(-45)"/><rect class="cls-1" x="-21.74" y="216.3" width="120.5" height="25.8" rx="2.94" ry="2.94" transform="translate(-150.79 94.36) rotate(-45)"/><rect class="cls-1" x="38.59" y="205.54" width="120.5" height="25.8" rx="2.94" ry="2.94" transform="translate(-125.51 133.88) rotate(-45)"/><rect class="cls-1" x="23.62" y="-67.59" width="200.93" height="25.8" rx="3.8" ry="3.8" transform="translate(75.02 71.73) rotate(-45)"/><rect class="cls-1" x="5.76" y="-0.15" width="200.93" height="25.8" rx="3.8" ry="3.8" transform="translate(22.09 78.85) rotate(-45)"/><rect class="cls-1" x="101.64" y="-46.45" width="200.93" height="25.8" rx="3.8" ry="3.8" transform="translate(82.92 133.09) rotate(-45)"/><rect class="cls-1" x="120.82" y="174.03" width="120.5" height="25.8" rx="2.94" ry="2.94" transform="translate(-79.14 182.79) rotate(-45)"/><rect class="cls-1" x="-53.85" y="-0.65" width="120.5" height="25.8" rx="2.94" ry="2.94" transform="translate(-6.79 8.11) rotate(-45)"/><rect class="cls-1" x="55.34" y="49.43" width="200.93" height="25.8" rx="3.8" ry="3.8" transform="translate(1.56 128.43) rotate(-45)"/><rect class="cls-1" x="155.64" y="149.74" width="200.93" height="25.8" rx="3.8" ry="3.8" transform="translate(-39.99 228.73) rotate(-45)"/><rect class="cls-1" x="-69.76" y="-75.67" width="200.93" height="25.8" rx="3.8" ry="3.8" transform="translate(53.38 3.33) rotate(-45)"/><rect class="cls-1" x="151.22" y="3.13" width="200.93" height="25.8" rx="3.8" ry="3.8" transform="translate(62.38 182.67) rotate(-45)"/><rect class="cls-1" x="119.14" y="84.8" width="200.93" height="25.8" rx="3.8" ry="3.8" transform="translate(-4.76 183.9) rotate(-45)"/></svg>