<svg id="Layer_1" data-name="Layer 1" xmlns="http://www.w3.org/2000/svg" viewBox="0 0 200 210"><defs><style>.cls-1{fill:#ddebe6;}</style></defs><title>pattern-02</title><rect class="cls-1" x="-53.63" y="49.91" width="123.43" height="26.43" rx="3.02" ry="3.02" transform="translate(-42.27 24.21) rotate(-45)"/><rect class="cls-1" x="-71.93" y="118.99" width="123.43" height="26.43" rx="3.02" ry="3.02" transform="translate(-96.48 31.5) rotate(-45)"/><rect class="cls-1" x="26.29" y="71.57" width="123.43" height="26.43" rx="3.02" ry="3.02" transform="translate(-34.18 87.06) rotate(-45)"/><rect class="cls-1" x="-68.38" y="166.23" width="123.43" height="26.43" rx="3.02" ry="3.02" transform="translate(-128.84 47.85) rotate(-45)"/><rect class="cls-1" x="-21.14" y="169.78" width="123.43" height="26.43" rx="3.02" ry="3.02" transform="translate(-117.51 82.29) rotate(-45)"/><rect class="cls-1" x="77.07" y="122.36" width="123.43" height="26.43" rx="3.02" ry="3.02" transform="translate(-55.21 137.85) rotate(-45)"/><rect class="cls-1" x="-17.59" y="217.02" width="123.43" height="26.43" rx="3.02" ry="3.02" transform="translate(-149.88 98.63) rotate(-45)"/><rect class="cls-1" x="44.21" y="206" width="123.43" height="26.43" rx="3.02" ry="3.02" transform="translate(-123.99 139.11) rotate(-45)"/><rect class="cls-1" x="28.88" y="-73.77" width="205.82" height="26.43" rx="3.89" ry="3.89" transform="translate(81.42 75.45) rotate(-45)"/><rect class="cls-1" x="10.58" y="-4.69" width="205.82" height="26.43" rx="3.89" ry="3.89" transform="translate(27.21 82.75) rotate(-45)"/><rect class="cls-1" x="108.79" y="-52.11" width="205.82" height="26.43" rx="3.89" ry="3.89" transform="translate(89.51 138.3) rotate(-45)"/><rect class="cls-1" x="128.44" y="173.72" width="123.43" height="26.43" rx="3.02" ry="3.02" transform="translate(-76.49 189.21) rotate(-45)"/><rect class="cls-1" x="-50.48" y="-5.2" width="123.43" height="26.43" rx="3.02" ry="3.02" transform="translate(-2.38 10.29) rotate(-45)"/><rect class="cls-1" x="61.37" y="46.1" width="205.82" height="26.43" rx="3.89" ry="3.89" transform="translate(6.17 133.53) rotate(-45)"/><rect class="cls-1" x="164.11" y="148.84" width="205.82" height="26.43" rx="3.89" ry="3.89" transform="translate(-36.38 236.27) rotate(-45)"/><rect class="cls-1" x="-66.78" y="-82.04" width="205.82" height="26.43" rx="3.89" ry="3.89" transform="translate(59.25 5.39) rotate(-45)"/><rect class="cls-1" x="159.58" y="-1.33" width="205.82" height="26.43" rx="3.89" ry="3.89" transform="translate(68.47 189.09) rotate(-45)"/><rect class="cls-1" x="126.72" y="82.32" width="205.82" height="26.43" rx="3.89" ry="3.89" transform="translate(-0.3 190.35) rotate(-45)"/></svg>