<svg id="Layer_1" data-name="Layer 1" xmlns="http://www.w3.org/2000/svg" viewBox="0 0 200 210"><defs><style>.cls-1{fill:#ddebe6;}</style></defs><title>pattern-01</title><rect class="cls-1" x="-9.86" y="4.9" width="119.86" height="25.67" rx="2.93" ry="2.93"/><rect class="cls-1" x="-69.86" y="39.78" width="119.86" height="25.67" rx="2.93" ry="2.93"/><rect class="cls-1" x="30.14" y="74.65" width="119.86" height="25.67" rx="2.93" ry="2.93"/><rect class="cls-1" x="-99.86" y="74.65" width="119.86" height="25.67" rx="2.93" ry="2.93"/><rect class="cls-1" x="-69.86" y="109.52" width="119.86" height="25.67" rx="2.93" ry="2.93"/><rect class="cls-1" x="30.14" y="144.39" width="119.86" height="25.67" rx="2.93" ry="2.93"/><rect class="cls-1" x="-99.86" y="144.39" width="119.86" height="25.67" rx="2.93" ry="2.93"/><rect class="cls-1" x="-49.86" y="179.26" width="119.86" height="25.67" rx="2.93" ry="2.93"/><rect class="cls-1" x="120" y="4.92" width="199.86" height="25.67" rx="3.78" ry="3.78"/><rect class="cls-1" x="60" y="39.79" width="199.86" height="25.67" rx="3.78" ry="3.78"/><rect class="cls-1" x="160" y="74.66" width="199.86" height="25.67" rx="3.78" ry="3.78"/><rect class="cls-1" x="60" y="109.53" width="199.86" height="25.67" rx="3.78" ry="3.78"/><rect class="cls-1" x="160" y="144.4" width="199.86" height="25.67" rx="3.78" ry="3.78"/><rect class="cls-1" x="80" y="179.27" width="199.86" height="25.67" rx="3.78" ry="3.78"/></svg>