<svg id="Layer_1" data-name="Layer 1" xmlns="http://www.w3.org/2000/svg" viewBox="0 0 216 216"><defs><style>.cls-1{fill:#73cbcb;opacity:0.6;}.cls-2{fill:none;stroke:#576571;stroke-linecap:round;stroke-miterlimit:10;stroke-width:4px;}</style></defs><title>icon-</title><path class="cls-1" d="M176.9,74.63C168.4,76,94,175.05,96.63,177.4c6.44,5.71,84.49-89.36,86.92-92.29S182.52,73.73,176.9,74.63Z"/><path class="cls-2" d="M163.16,116.77v75.35c0,8.8-3.57,12.13-9.75,12.13H25.49c-6.18,0-9.75-3.33-9.75-12.13V23.78c0-8.8,3.57-12.13,9.75-12.13H153.41c6.18,0,9.75,3.33,9.75,12.13V80.16"/><path class="cls-2" d="M163.15,116.77l26.3-31.58c.69-.83-2.69-3.93-3.47-3l-72.39,86.93c-4.7,5.65-17,12.66-17.73,12.05s3.94-14,8.64-19.62L176.9,74.63c2.37-2.85,5-.17,6.68,1.21,1.27,1.06,3.28,2.67,5.34.19s9.49-9.07,5-12.13c-3.73-2.52-9.69,6.24-9.69,6.24"/><line class="cls-2" x1="52.11" y1="31.15" x2="126.79" y2="31.15"/><path class="cls-2" d="M43.7,185.69c1.84-1.84,9.15-1.73,10.88,0s9.54,2.46,12,0,9.05-1.45,10.5,0,10.36,2.06,12.38,0"/></svg>