<svg id="Layer_1" data-name="Layer 1" xmlns="http://www.w3.org/2000/svg" viewBox="0 0 216 216"><defs><style>.cls-1{fill:#73cbcb;opacity:0.6;}.cls-2{fill:none;stroke:#576571;stroke-linecap:round;stroke-miterlimit:10;stroke-width:4px;}</style></defs><title>icon-</title><path class="cls-1" d="M96.13,98.64c-.75,1.26-3.59,78.85,0,78.85s68.93-27.23,70.37-28.93,2.88-80.83,0-83.1S97.65,96.09,96.13,98.64Z"/><path class="cls-2" d="M100.88,96.94c.57-.57,67.24-30.55,66.58-31.77S101.28,34.91,100,34.91s-66.18,31.39-66.18,32,60.7,31.29,61.83,32.52,1.51,80.84,1.51,81.69S33.78,145.9,33.78,145.9c-1.32-2.27-1.3-72.85-1.3-72.85"/><path class="cls-2" d="M66.69,108s-.14-24.11,1.13-24.53c3.15-1,62.3-29.14,62.3-29.14"/><path class="cls-2" d="M170.22,71.13s.28,72.47,0,74-66.65,34.32-66.65,34.32"/></svg>