<svg id="Layer_1" data-name="Layer 1" xmlns="http://www.w3.org/2000/svg" viewBox="0 0 216 216"><defs><style>.cls-1{fill:#73cbcb;opacity:0.6;}.cls-2{fill:none;stroke:#576571;stroke-linecap:round;stroke-miterlimit:10;stroke-width:4px;}</style></defs><title>icon-computer</title><path class="cls-1" d="M18.78,148.38H183.61c7.76,0,12.16-.95,12.16-3.79V42c0-2.76-.63-4.48-8.39-4.48H27.58c-6.08,0-8.81,1.29-8.81,4.82v96.78"/><rect class="cls-1" x="66.74" y="206.44" width="84.21" height="5.13" rx="2.54" ry="2.54"/><path class="cls-2" d="M127.14,160.14h-109c-10.23,0-14.1-4.15-14.1-11.33V74.46c0-12.44,0-32.26,0-39.45s3.87-11.33,14.1-11.33h179.4c10.23,0,14.1,4.15,14.1,11.33V148.8c0,7.19-1.54,11.33-11.77,11.33-1.56,0-1.3-2.18-1.34-3.73s-.7-114.67-.7-117-.68-3.49-3.29-3.49H20.06c-1.65,0-2.52,1.94-2.52,4.46V145.23c0,2.25,1.07,1.91,1.91,1.91H189.52c2.23,0,2,1.54,2,2.34v7.65c0,1.07.22,3.29-2.18,3.29H133.51"/><path class="cls-2" d="M127.14,160.14c4.26,34.39,21.77,46.3,23.81,46.3,2.35,0,2.51,5.13,0,5.13H64.77c-2.51,0-2.35-5.13,0-5.13,2,0,19.91-13.39,23.2-40.72"/></svg>