<svg id="Layer_1" data-name="Layer 1" xmlns="http://www.w3.org/2000/svg" viewBox="0 0 216 216"><defs><style>.cls-1{fill:#73cbcb;opacity:0.6;}.cls-2{fill:none;stroke:#576571;stroke-linecap:round;stroke-miterlimit:10;stroke-width:4px;}</style></defs><title>icon-</title><path class="cls-1" d="M77.28,142.21H56c-3.08,0-2.53.87-2.53,2.07v34.58c0,1.55,3.3,1.58,7.85,1.58H79c3.54,0,3.69-.62,3.69-1.21v-37"/><path class="cls-1" d="M159.78,142.21H138.53c-3.08,0-2.53.87-2.53,2.07v34.58c0,1.55,3.3,1.58,7.85,1.58h17.67c3.54,0,3.69-.62,3.69-1.21v-37"/><path class="cls-1" d="M98.43,40a16.39,16.39,0,0,0,1.84-9.75c-.64-5.75,3.91-10.39,7.72-10.39s8.37,4.64,7.72,10.39A16.39,16.39,0,0,0,117.56,40"/><path class="cls-2" d="M137.24,120.71v-3.89c0-2.61-1.26-2.29-3-2.29H84.08c-2.24,0-2.29,1.34-2.29,3.18v7.17c0,1.44.9,1.5,1.76,1.5h53.68"/><path class="cls-2" d="M77.28,142.6H56c-3.08,0-2.53.87-2.53,2.07v34.58c0,1.55,3.3,1.58,7.85,1.58H79c3.54,0,3.69-.62,3.69-1.21v-37"/><path class="cls-2" d="M159,142.6H137.77c-3.08,0-2.53.87-2.53,2.07v34.58c0,1.55,3.3,1.58,7.85,1.58h17.67c3.54,0,3.69-.62,3.69-1.21v-37"/><path class="cls-2" d="M117.4,51.17s-6.48-3.91-7.91-5-1.66-1.79-3.17-.46c-2.74,2.41-72.78,54.4-75.57,56.75s3.42,3.52,5.1,3.49h-1c5.26.37,5.06,3.35,5.16,6.25.18,5.33,6.07,87.53,6.25,92.31s-.33,5.88,8.13,5.88H162.55c8.46,0,7.91-1.47,8.09-6.25s6.07-87,6.25-92.31c.1-2.91-.1-5.89,5.16-6.25,1.69,0,7.89-1.15,5.1-3.49S128.25,57,125.58,54.49s-2.21-3.22-2.21-8.83V38.31c0-2.94-.46-12,3.13-12s7-.74,3.13-4.6S110.32,4.28,108.48,4.28,90.09,17.89,86.22,21.75s-.46,4.6,3.13,4.6,3.13,9,3.13,12V48.5"/><path class="cls-2" d="M86.13,205v-4.41c0-2.3,3.39-1.84,5.38-1.84l36.8,0c4.48,0,3.33,4.43,3.33,6.29"/><path class="cls-2" d="M91.27,193.33v-52c0-4.51,2.21-3.86,3.86-3.86h28.71c1.59,0,2.79.55,2.79,2.79v25c0,6.35-10.52,9.47-10.52,2,0-5.66,10.52-3.5,10.52,4.73v21.42"/><path class="cls-2" d="M99.39,39a16.39,16.39,0,0,0,1.84-9.75c-.64-5.75,3.91-10.39,7.72-10.39s8.37,4.64,7.72,10.39A16.39,16.39,0,0,0,118.52,39"/><circle class="cls-2" cx="107.9" cy="83.76" r="15.91"/></svg>