<svg id="Layer_1" data-name="Layer 1" xmlns="http://www.w3.org/2000/svg" viewBox="0 0 216 216"><defs><style>.cls-1{fill:#73cbcb;opacity:0.6;}.cls-2{fill:none;stroke:#576571;stroke-linecap:round;stroke-miterlimit:10;stroke-width:4px;}</style></defs><title>icon-</title><path class="cls-1" d="M35.67,14.65c-1.64-4.53,134.67-5.67,139,0s1.25,8.92-2.63,11.84S112.37,82.83,108.9,86,39.17,24.32,35.67,14.65Z"/><circle class="cls-1" cx="103.55" cy="118.52" r="7.94"/><path class="cls-2" d="M179.14,17.55c0-4.91-1.56-5.84-7.75-5.84H39.48c-6.18,0-7.75,1.33-7.75,10.12V194.17c0,8.8,1.56,10.12,7.75,10.12H171.39c6.18,0,7.75-1.33,7.75-10.12V23c0-6-64.27,66.16-73.71,66.16s-68.6-68-68.6-68"/><circle class="cls-2" cx="105.43" cy="118.52" r="7.1"/><circle class="cls-2" cx="105.43" cy="62.83" r="7.1"/><line class="cls-2" x1="101.14" y1="68.78" x2="109.29" y2="112.55"/><path class="cls-2" d="M98,117.44s-8.85,3-12.22,18.85"/><line class="cls-2" x1="111.21" y1="66.95" x2="101.14" y2="112.86"/></svg>