<svg id="Layer_1" data-name="Layer 1" xmlns="http://www.w3.org/2000/svg" viewBox="0 0 216 216"><defs><style>.cls-1{fill:#73cbcb;opacity:0.6;}.cls-2{fill:none;stroke:#576571;stroke-linecap:round;stroke-miterlimit:10;stroke-width:4px;}</style></defs><title>icon-</title><path class="cls-1" d="M104.21,62.26c-.55.89,20.05,33.26,22.51,33.45s64.16-4.81,66-7c1-1.21-18.46-32.11-20.23-33C171.45,55.19,107.21,57.44,104.21,62.26Z"/><path class="cls-1" d="M45.79,58.65C43.18,59.38,26.08,86.16,27.64,87s39.46,10.46,47.95,8.85S90.13,63.34,89.33,62.34C88.34,61.09,46.93,58.33,45.79,58.65Z"/><path class="cls-2" d="M93.15,67.36S79.26,95,78.69,95.9s-55.5-5.67-56.16-6.81,20.33-33,21.18-33.85,51.9,2.46,53.7,2.46,75.16-6.05,76.39-5.11S196.49,88,196.12,88.9,124.64,96.62,123.51,96,99.59,63.85,99.11,64.51s-3.55,98.87-2.69,98.94,74.67-6.81,75-7.09.94-58.71.94-58.71"/><path class="cls-2" d="M48.62,99.14s-.21,52.52.26,53.18,40.44,9.38,40.44,9.38"/></svg>