<svg id="Layer_1" data-name="Layer 1" xmlns="http://www.w3.org/2000/svg" viewBox="0 0 216 216"><defs><style>.cls-1{fill:#73cbcb;opacity:0.6;}.cls-2{fill:none;stroke:#576571;stroke-linecap:round;stroke-miterlimit:10;stroke-width:4px;}</style></defs><title>icon-</title><path class="cls-1" d="M140.75,83S112.14,129,116,130.77s50,52.06,56.63,51.78,22.45-9.64,11.74-27.62S145,83,140.75,83Z"/><path class="cls-1" d="M114.76,67.83S89.5,115.72,86,113.32,15.89,96.44,12.77,90.56s-3-24.25,17.92-24.07S112.61,64.16,114.76,67.83Z"/><path class="cls-2" d="M87.66,167.91c2.49-1.9,4.94-3.63,6.7-6.54,2.88-4.76,12.65-21.24,15.12-26s4.8-5,6.48-4.59,3.94,1.82,10,5.39,46.83,49.59,50.56,48.91c9.17-1.69,15.36-16.71,14.35-19S145.56,90.32,143.28,85.7s-1.31-7.22.57-10.57,12.1-19.58,21.05-35.58,6.93-27.06-.2-31-17.61.08-26.56,16.08S120.7,57.79,118.82,61.14s-3.58,5.54-8.71,6-90.9,1.19-93.38,1.52S4.7,82.14,8.06,90.84C9.42,94.37,70,105.06,76.19,108.33S84.77,112.79,86,114s2.25,3.31-.52,7.92-11.7,21.55-14.25,26.5-1.8,13.46-3.13,14.29S44,159.56,41.58,161.49s-9.6,12-8,14.57S54.71,189.6,61.31,193.3s26.21,14.59,29.2,14.62,7.86-11.36,8.23-14.45-14.95-20.39-14.93-22"/></svg>