<svg id="Layer_1" data-name="Layer 1" xmlns="http://www.w3.org/2000/svg" viewBox="0 0 216 216"><defs><style>.cls-1{fill:#73cbcb;opacity:0.6;}.cls-2{fill:none;stroke:#576571;stroke-linecap:round;stroke-miterlimit:10;stroke-width:4px;}</style></defs><title>icon-</title><path class="cls-1" d="M13.08,46c-1.42,1.48-1.45,76.21,0,78.1s112.93-3.56,114.37-4.67,6-67.42.89-73.43S15.64,43.37,13.08,46Z"/><circle class="cls-2" cx="47.57" cy="150.62" r="12.46"/><circle class="cls-2" cx="174.87" cy="150.62" r="12.46"/><path class="cls-2" d="M144.75,62.84c1.55,0,23.76-.12,24.1.1s20.64,32.32,19.47,34.42-42,1.48-42,1.48c-5.5,0-6.32-.41-6.48-3.46-.1-1.91-.82-34.77-.82-36.29s.33-3.46,1.8-3.5c0,0,32.29-1,33.18,0s37.49,65.31,37.6,66.75,1.11,29.48,0,29.82-17.58,1.67-17.36.89,2.23-22.92-19.8-22.92-19.25,23.65-20.08,23.16-85.86,0-86.95,0S69.63,130.54,48,130.54s-18.94,22.78-19.86,22.78S3,153.73,3,153.31c0-.06,0-6.66,0-10.33,0-.62,5.91.25,5.91-.76,0-28.34-.39-98.91.05-100C9.52,40.81,132,41,132.57,42.2s.06,79.49-.28,80.58-114.65.92-114.65.92"/></svg>