<svg id="Layer_1" data-name="Layer 1" xmlns="http://www.w3.org/2000/svg" viewBox="0 0 216 216"><defs><style>.cls-1{fill:#73cbcb;opacity:0.6;}.cls-2{fill:none;stroke:#576571;stroke-linecap:round;stroke-miterlimit:10;stroke-width:4px;}</style></defs><title>icon-</title><path class="cls-1" d="M154.58,32.78H62.72c-3.71,0-5.52-1.33-1.93-6.13,4.08-5.44,3.48-5.82,7.12-5.82h76c2.22,0,6.7,6.05,6.7,6.05"/><path class="cls-1" d="M125.52,196.39c-1.18,2.65-35.57,2.37-37.65,0s-2.14-27.92,0-30.66,35.57-2.28,37.65,0S126.7,193.74,125.52,196.39Z"/><path class="cls-2" d="M125.56,192.63V164.79c0-2.19-.05-3.77-2.71-3.77H110.28c-2.06,0-3.55-.38-3.55,2.72v28.89"/><path class="cls-2" d="M100.79,161H87.13c-.95,0-2,.5-2,3.41v28.21"/><path class="cls-2" d="M47.25,189.77H36.77c-2.67,0-2.77,0-2.77,2.77s-1.09,5.73,2.37,5.73H172.57c3.06,0,4-1.38,4-4.25s.49-4.25-2.17-4.25H162.29c-2.37,0-3.36-.89-3.36-4V41.23c0-5.93.15-5.56-5.56-5.56H54.86c-2.82,0-2.67,1.41-2.67,6.75V189.77"/><path class="cls-2" d="M154.58,29.66H62.72c-3.71,0-5.52-1.29-1.93-5.93,4.08-5.26,3.48-5.63,7.12-5.63h76c2.22,0,6.7,5.86,6.7,5.86"/><path class="cls-2" d="M71,139.8V47.94c0-2.52,1.77-2.77,6.13-2.77s7.77-.69,7.77,2.77v92.22c0,2.52,1.77,2.77,6.13,2.77s7.77.69,7.77-2.77V48.31c0-2.52,1.77-2.77,6.13-2.77s7.77-.69,7.77,2.77v91.85c0,2.52,1.77,2.77,6.13,2.77s7.77.69,7.77-2.77V48.31c0-2.52,1.77-2.77,6.13-2.77s7.77-.69,7.77,2.77V143"/></svg>