<svg id="Layer_1" data-name="Layer 1" xmlns="http://www.w3.org/2000/svg" viewBox="0 0 216 216"><defs><style>.cls-1{fill:#73cbcb;opacity:0.6;}.cls-2{fill:none;stroke:#576571;stroke-linecap:round;stroke-miterlimit:10;stroke-width:4px;}</style></defs><title>icon-</title><path class="cls-1" d="M154.35,91.81v34.92a2.88,2.88,0,0,1-3,3.06H139.63c-1,0-2.25.24-2.25-2.82V89.82c0-2,.25-4.11,2.46-4.11,2,0,13.68-3.32,14.51,0,.16.65,0,5.3,0,6.1"/><path class="cls-1" d="M66.93,35.1h89c5.09,0,7.8,2.61,7.8,5.75s0,20.12,0,22.1.6,4.25-7.19,4.25H61.86c-5.09,0-10.49-.48-10.49-4.65,0-3.83-2.85-26,5.61-27.58,1.65-.31,7.91.13,9.94.13"/><path class="cls-2" d="M180.44,39.54V186.28c0,8.8-3.57,12.13-9.75,12.13H42.77c-6.18,0-9.75-3.33-9.75-12.13V32c0-8.8,3.57-12.13,9.75-12.13H170.69c6.18,0,9.75,3.33,9.75,12.13,0,1.34-1.88,1.12-3.21,1.15s-123.66.6-125.66.6-3,.58-3,2.83v28c0,1.42,1.67,2.17,3.83,2.17H162.61c1.94,0,1.65-.92,1.65-1.65V38.21"/><path class="cls-2" d="M154.35,83.15H139.84c-2.2,0-2.46,2.12-2.46,4.11V124.4c0,3.06,1.2,2.82,2.25,2.82h11.68a2.88,2.88,0,0,0,3-3.06V89.25"/><path class="cls-2" d="M154.35,136.6h-15.7c-1.22,0-1.27.83-1.27,1.62v14.62c0,1.2,1.2,1.11,2.25,1.11h11.68c1.66,0,3-.42,3-1.2V143"/><path class="cls-2" d="M154.35,163.33h-15.7c-1.22,0-1.27.83-1.27,1.62v14.62c0,1.2,1.2,1.11,2.25,1.11h11.68c1.66,0,3-.42,3-1.2v-9.72"/><path class="cls-2" d="M76.08,136.6H60.38c-1.22,0-1.27.83-1.27,1.62v14.62c0,1.2,1.2,1.11,2.25,1.11H73c1.66,0,3-.42,3-1.2V143"/><path class="cls-2" d="M76.08,163.33H60.38c-1.22,0-1.27.83-1.27,1.62v14.62c0,1.2,1.2,1.11,2.25,1.11H73c1.66,0,3-.42,3-1.2v-9.72"/><path class="cls-2" d="M76.08,83.15H60.38c-1.22,0-1.27.83-1.27,1.62V99.39c0,1.2,1.2,1.11,2.25,1.11H73c1.66,0,3-.42,3-1.2V89.57"/><path class="cls-2" d="M76.08,109.88H60.38c-1.22,0-1.27.83-1.27,1.62v14.62c0,1.2,1.2,1.11,2.25,1.11H73c1.66,0,3-.42,3-1.2V116.3"/><path class="cls-2" d="M102.42,136.6H86.72c-1.22,0-1.27.83-1.27,1.62v14.62c0,1.2,1.2,1.11,2.25,1.11H99.38c1.66,0,3-.42,3-1.2V143"/><path class="cls-2" d="M102.42,163.33H86.72c-1.22,0-1.27.83-1.27,1.62v14.62c0,1.2,1.2,1.11,2.25,1.11H99.38c1.66,0,3-.42,3-1.2v-9.72"/><path class="cls-2" d="M102.42,83.15H86.72c-1.22,0-1.27.83-1.27,1.62V99.39c0,1.2,1.2,1.11,2.25,1.11H99.38c1.66,0,3-.42,3-1.2V89.57"/><path class="cls-2" d="M102.42,109.88H86.72c-1.22,0-1.27.83-1.27,1.62v14.62c0,1.2,1.2,1.11,2.25,1.11H99.38c1.66,0,3-.42,3-1.2V116.3"/><path class="cls-2" d="M128.52,136.6h-15.7c-1.22,0-1.27.83-1.27,1.62v14.62c0,1.2,1.2,1.11,2.25,1.11h11.68c1.66,0,3-.42,3-1.2V143"/><path class="cls-2" d="M128.52,163.33h-15.7c-1.22,0-1.27.83-1.27,1.62v14.62c0,1.2,1.2,1.11,2.25,1.11h11.68c1.66,0,3-.42,3-1.2v-9.72"/><path class="cls-2" d="M128.52,83.15h-15.7c-1.22,0-1.27.83-1.27,1.62V99.39c0,1.2,1.2,1.11,2.25,1.11h11.68c1.66,0,3-.42,3-1.2V89.57"/><path class="cls-2" d="M128.52,109.88h-15.7c-1.22,0-1.27.83-1.27,1.62v14.62c0,1.2,1.2,1.11,2.25,1.11h11.68c1.66,0,3-.42,3-1.2V116.3"/></svg>