<svg id="Layer_1" data-name="Layer 1" xmlns="http://www.w3.org/2000/svg" viewBox="0 0 216 216"><defs><style>.cls-1{fill:#73cbcb;opacity:0.6;}.cls-2{fill:none;stroke:#576571;stroke-linecap:round;stroke-miterlimit:10;stroke-width:4px;}</style></defs><title>icon-</title><path class="cls-1" d="M133.5,59.82c-.54.63-4.44,47.83-3.5,53.17s19.08,3.25,20.17,2.83,5-56.17,3.18-57.67S136.69,56.12,133.5,59.82Z"/><path class="cls-1" d="M9,158c.15,1.1,13,6.64,22.5,4.43s7.18-15.4,4.33-21.39-10.91-7.74-12.16-4.79S8.75,156.2,9,158Z"/><path class="cls-2" d="M194.38,148.34c.08,6.06-6.75,15.51-20.33,15.43-19.39-.11-19.13-15.05-19.9-16.58s-41.8-1.66-42.44-1S106,164.93,89.39,164.93s-22.19-16.2-22.19-24,8.61-20.15,23.47-20.15,20.09,19,20.54,19.64,42.05,1,42.25.64,2-12.28,13.29-16.84c4.85-2,11.08-1.33,13.82-.64a19.89,19.89,0,0,1,9,5c4.75,4.81,4.22,14.08,4.56,14.31s18,2.46,18.78-.22c.56-1.92,2.37-27.34-4-32.28-21-16.21-49-14.95-49.62-14.56-1.21.77.84,27.68-.5,28s-50.45-.51-51,.13-.88-25.48-.5-26.5-12-.24-11.33-.62-55.6,60.43-54.83,61-.21-21.37-13.83-26.5c-.55-.21-24.25,27.17-24.37,27.75s19.31,9.94,34.31,1.81c0,0,5.25-20.44,5.44-22.69s26.5-33.56,27.63-35.75,1.38,13,1.38,13"/><path class="cls-2" d="M161.52,50.56c-1.19.08-41.31,1.54-42.37,3.4s-9.44,31.94-9.62,33.73,16.31,17.48,16.88,20.31-.5,9.87,2.75,10.19,23.44,1,23.5,0,1-62,.63-62.29-22.75.4-22.62,1.13S128,98.94,128,98.94"/></svg>