<svg id="Layer_1" data-name="Layer 1" xmlns="http://www.w3.org/2000/svg" viewBox="0 0 216 216"><defs><style>.cls-1{fill:#73cbcb;opacity:0.6;}.cls-2{fill:none;stroke:#576571;stroke-linecap:round;stroke-miterlimit:10;stroke-width:4px;}</style></defs><title>icon-</title><path class="cls-1" d="M17.17,89.13c-.7,5.12-5.5,15.42,4.67,16.67s26.83,2.08,28.5,1.33-.83-11.5,1.5-13.83,22.83-3.83,24.17.5,1.17,12.83,3,12.83,57.83.42,60-.33,1.17-10.83,3.33-12.5S162,90.71,165.17,94s.67,10.58,3.33,11.67,22.67,1.42,26.33.67,4.08-1.08,4.67-3.83a33.06,33.06,0,0,0-2.67-18c-3.33-6.75-15.42-30.33-20.5-30.33s-24.58,1-25.17,3.33.27,15.69-2.75,17.75c-2.46,1.67-22.08.33-22.92-.58s-1.5-19.25-3.5-19-27.67-.92-28.5-.17.17,14.92-1.33,18-23.75,2.25-25,.33-1.83-15.67-2-17.67-26-.29-28.5.17S17.48,86.87,17.17,89.13Z"/><path class="cls-2" d="M52.88,111V95.88c0-3.75,2.06-3.53,4.5-3.53H71.65c2.84,0,3.65,1.84,3.65,3.65v8.75c0,2.82.7,3.25,3.07,3.25h61.77c3.89,0,3.27-.22,3.27-2.25V96c0-2.69.69-3.28,3.28-3.28h14.18c3.53,0,3.88,2.34,3.88,3.75v6.25c0,4.78,0,5.31,3,5.31h29.59c4.42,0,4.31-2.25,4.35-4.35.06-2.77,0-11.58,0-13.77S201.25,87,199.38,84s-15.82-24.39-17.58-27.25c-1.21-2-1.12-2.62-5.46-2.62H151c-2.17,0-2.33,1.83-2.33,4.17V70.13c0,2.75-.83,4.17-3.5,4.17H129.33c-2.83,0-4-.42-4-2.67V57.46c0-2.67-.58-3.33-4.5-3.33H95.17c-3.92,0-4.5.67-4.5,3.33V71.63c0,2.25-1.17,2.67-4,2.67H70.83c-2.67,0-3.5-1.42-3.5-4.17V58.29c0-2.33-.17-4.17-2.33-4.17H39.67c-4.33,0-4.25.67-5.46,2.63C32.44,59.61,18.5,81,16.63,84s-2.31,3.69-2.31,5.88-.06,11,0,13.77c0,2.1-.06,4.35,4.35,4.35H46.25c1.45,0,2.13,10.66,0,10.66H18.67c-4.42,0-4.31,2.25-4.35,4.35-.06,2.77,0,53.17,0,55.36,0,.22,0,2.59,5.18,2.59,26.47,0,146.07.14,175.6.14,6.62,0,6.59-2.41,6.59-2.65,0-2.19.06-52.67,0-55.44,0-2.1.06-4.35-4.35-4.35H167.74c-3,0-3,.53-3,5.31v6.25c0,1.41-.34,3.75-3.87,3.75H146.69c-2.59,0-3.28-.59-3.28-3.28v-9.78c0-2,.63-2.25-3.27-2.25H78.37c-2.37,0-3.07.43-3.07,3.25v8.75c0,1.81-.81,3.65-3.65,3.65H57.38c-2.44,0-4.5.22-4.5-3.53V115.66"/><path class="cls-2" d="M137.62,67.29V50c0-5.25-5.39-15.5-29.31-15.5S79,44.71,79,50V67.29"/></svg>