<svg id="Layer_1" data-name="Layer 1" xmlns="http://www.w3.org/2000/svg" viewBox="0 0 467 216"><defs><style>.cls-1{fill:#73cbcb;opacity:0.6;}.cls-2,.cls-3{fill:none;stroke:#576571;stroke-linecap:round;stroke-miterlimit:10;}.cls-2{stroke-width:4px;}.cls-3{stroke-width:2px;}</style></defs><title>icon-</title><path class="cls-1" d="M16.42,75.74c-.53.61,1.57,42.25,2.48,47.44s9.9-9.76,11-10.17S64.35,76.61,62.55,75.16,19.52,72.14,16.42,75.74Z"/><path class="cls-2" d="M59.18,79.32s-37.25,42.76-39.52,45.5-3.73,2.74-3.73-1.07.08-46.93,0-48.15.2-1.34,1.86-1.3,45.88,0,45.88,0"/><path class="cls-2" d="M43.89,111.82s43,39.44,44.06,40.41a3.64,3.64,0,0,0,3.24.57c.31-.16.45-.26.45-1.78V75.59c0-1.46-.24-1.3-.93-1.3-1.64,0-11.83-.28-12.85-.28s-30.24,34.27-30.24,34.27"/><path class="cls-2" d="M74,153.49s-55.49,0-57.15,0c-.8,0-1,0-1-1s-.14-5.64-.14-6.76,19.6-23,20.44-24.13a1.43,1.43,0,0,1,2.16,0c.49.64,30.23,27.07,30.23,27.07"/><path class="cls-2" d="M115.63,115.56V79.93c0-1.34-.18-2.13,2.13-2.13s24.62-2.25,24.62,10.27-22.13,13.05-22.13,11.47,10.09-.73,13.21,3.65S141.57,116,141.57,116"/><path class="cls-2" d="M338.54,115.56V79.93c0-1.34-.18-2.13,2.13-2.13s24.62-2.25,24.62,10.27-22.13,13.05-22.13,11.47,10.09-.73,13.21,3.65S364.48,116,364.48,116"/><path class="cls-2" d="M159.64,78.13V114c0,1.52,0,1.53,2.31,1.53H186"/><line class="cls-2" x1="163.94" y1="79.67" x2="185.42" y2="79.67"/><line class="cls-2" x1="164.06" y1="96.83" x2="182.04" y2="96.83"/><path class="cls-2" d="M427.79,78.13V114c0,1.52,0,1.53,2.31,1.53h24.07"/><line class="cls-2" x1="432.08" y1="79.67" x2="453.56" y2="79.67"/><line class="cls-2" x1="432.2" y1="96.83" x2="450.18" y2="96.83"/><path class="cls-2" d="M221.57,81.8c-1.13-.61-22.1-10.67-22.21,5.84-.08,12.16,23.79,4.86,23.91,18.56s-22.25,9.52-25.86,4.3"/><path class="cls-2" d="M265.59,80.11c-1.74-.79-25.94-10.23-27.4,16-1.38,24.84,24.43,20.83,29.26,16.59,4.3-3.77,11.79-15.89,2.59-28.18"/><path class="cls-2" d="M290.63,77.4v24.4c0,4,2.72,14.46,14.75,14.46s14.27-9.23,14.27-14.54V77.4"/><path class="cls-2" d="M411.09,82.79a19.45,19.45,0,0,0-12-4.46c-6.65,0-18.32,3.73-18.32,18s9.28,19,16.62,19,10-1.69,14.91-5.54"/><path class="cls-3" d="M204.81,149.69V136.05c0-.51-.07-.81.81-.81s9.43-.86,9.43,3.93-8.47,5-8.47,4.39,3.86-.28,5.06,1.4,3.1,4.9,3.1,4.9"/><path class="cls-3" d="M289.43,149.69V136.05c0-.51-.07-.81.81-.81s9.43-.86,9.43,3.93-8.47,5-8.47,4.39,3.86-.28,5.06,1.4,3.1,4.9,3.1,4.9"/><line class="cls-3" x1="190.28" y1="135.95" x2="198.51" y2="135.95"/><path class="cls-3" d="M188.64,135.36v13.73c0,.58,0,.59.88.59h9.22"/><line class="cls-3" x1="190.33" y1="142.52" x2="197.21" y2="142.52"/><line class="cls-3" x1="308.42" y1="135.95" x2="316.65" y2="135.95"/><path class="cls-3" d="M306.78,135.36v13.73c0,.58,0,.59.88.59h9.22"/><line class="cls-3" x1="308.47" y1="142.52" x2="315.35" y2="142.52"/><line class="cls-3" x1="366.93" y1="135.95" x2="375.16" y2="135.95"/><path class="cls-3" d="M365.29,135.36v13.73c0,.58,0,.59.88.59h9.22"/><line class="cls-3" x1="366.98" y1="142.52" x2="373.86" y2="142.52"/><line class="cls-3" x1="444.47" y1="135.95" x2="452.69" y2="135.95"/><path class="cls-3" d="M442.82,135.36v13.73c0,.58,0,.59.88.59h9.22"/><line class="cls-3" x1="444.51" y1="142.52" x2="451.4" y2="142.52"/><path class="cls-3" d="M389.48,136.74c-.44-.23-8.5-4.1-8.54,2.24,0,4.68,9.15,1.87,9.2,7.14s-8.56,3.66-9.95,1.65"/><path class="cls-3" d="M137.85,135.95c-.65-.31-9.64-4-10.18,6.28-.51,9.77,9.08,8.19,10.88,6.52a8.56,8.56,0,0,0,1-11.08"/><path class="cls-3" d="M120.77,137.3a7.23,7.23,0,0,0-4.46-1.66c-2.47,0-6.81,1.39-6.81,6.69s3.45,7.06,6.18,7.06a7.34,7.34,0,0,0,5.54-2.06"/><path class="cls-3" d="M233.42,137.3a7.23,7.23,0,0,0-4.46-1.66c-2.47,0-6.81,1.39-6.81,6.69s3.45,7.06,6.18,7.06a7.34,7.34,0,0,0,5.54-2.06"/><path class="cls-3" d="M147.36,149.87V135.51c0-.71.43-.23,1.09.81s5.17,7.52,5.47,8,.43,0,.63-.24,5.87-8.36,6-8.53.38-.35.38.18v14.19"/><path class="cls-3" d="M168,149.87V135.51c0-.71.43-.23,1.09.81s5.17,7.52,5.47,8,.43,0,.63-.24,5.87-8.36,6-8.53.38-.35.38.18v14.19"/><line class="cls-3" x1="240.01" y1="134.85" x2="240.01" y2="150.19"/><path class="cls-3" d="M266.21,135.12v14.32c0,.4.27.49.67.49h8.85"/><path class="cls-3" d="M246.18,150s6.37-13.94,6.75-14.56.55-.27.79.3S260.29,150,260.29,150"/><line class="cls-3" x1="248.89" y1="145.16" x2="257.43" y2="145.16"/><path class="cls-3" d="M341.62,135.12v14.32c0,.4.27.49.67.49h8.85"/><path class="cls-3" d="M321.59,150S328,136,328.34,135.4s.55-.27.79.3S335.69,150,335.69,150"/><line class="cls-3" x1="324.29" y1="145.16" x2="332.84" y2="145.16"/><path class="cls-3" d="M408.68,150S415,136,415.42,135.4s.55-.27.79.3S422.78,150,422.78,150"/><line class="cls-3" x1="411.38" y1="145.16" x2="419.92" y2="145.16"/><line class="cls-3" x1="394.71" y1="135.2" x2="406.47" y2="135.2"/><line class="cls-3" x1="400.59" y1="135.2" x2="400.59" y2="149.84"/><line class="cls-3" x1="425.35" y1="135.2" x2="437.11" y2="135.2"/><line class="cls-3" x1="431.23" y1="135.2" x2="431.23" y2="149.84"/></svg>