<svg id="Layer_1" data-name="Layer 1" xmlns="http://www.w3.org/2000/svg" viewBox="0 0 216 216"><defs><style>.cls-1{fill:#73cbcb;opacity:0.6;}.cls-2{fill:none;stroke:#576571;stroke-linecap:round;stroke-miterlimit:10;stroke-width:4px;}</style></defs><title>icon-</title><circle class="cls-1" cx="87.79" cy="57.83" r="5.78"/><circle class="cls-1" cx="138.38" cy="57.83" r="5.78"/><path class="cls-2" d="M48.33,193.1S53.75,57.92,53.75,54.73s0-4.69,1.38-5.87,2.25-3.62,2.25.63-3,146.06-3,150.87,2,8.19-3.37,4.88-11.5-6.44-13.37-7.75-2.12-1.31-2.12-5.12,7.83-138.5,7.83-141.58,1.23-2.48,3.1-2.17a30.44,30.44,0,0,0,3.31.38"/><path class="cls-2" d="M61.53,46.12c.67,0,108,1.92,109,1.92s1.38.44,1.38,2.13,6.56,143.94,6.56,145.69.71,2.17-2.83,2.5-116.29,8.88-116.29,8.88"/><path class="cls-2" d="M85.94,55.54c-1,.79-1,5,2.4,5S91,58.14,89.75,53.1,94.33,9.69,112,9.69s26.42,30.87,26.42,43.92c0,1.83-2.95,2-2.92,4.06S137,61.29,138.42,61s3.15-.72,2.77-4.06"/><path class="cls-2" d="M79.85,41.79c.38-1.69,8.4-30.56,24.4-30.56,13.69,0,22.38,14,22.38,31.07"/><path class="cls-1" d="M82.75,95.35c13.76.53,68.4.27,70.75,2.07,1.76,1.35,4.33,25.48.45,25.55-10,.19-68,3.69-71,3.84S77.52,95.15,82.75,95.35Z"/></svg>