<svg id="Layer_1" data-name="Layer 1" xmlns="http://www.w3.org/2000/svg" viewBox="0 0 216 216"><defs><style>.cls-1{fill:#73cbcb;opacity:0.6;}.cls-2{fill:none;stroke:#576571;stroke-linecap:round;stroke-miterlimit:10;stroke-width:4px;}</style></defs><title>icon-</title><path class="cls-1" d="M47.17,106.22c2.9,0,5.17-.73,4.17,7.44s-1.43,79.42-2,79.83-4.54,1.25-4.62-2.67S45.71,106.23,47.17,106.22Z"/><path class="cls-1" d="M179.38,107.26c2.89-.11,5.14-.87,4.37,7.32s.74,79.43.21,79.86-4.5,1.37-4.69-2.54S177.92,107.32,179.38,107.26Z"/><path class="cls-1" d="M146.92,80.32c1.63,0,10.44-.75,10.93.5s-12.09,16.08-12.09,16.08S146.2,80.33,146.92,80.32Z"/><path class="cls-2" d="M24.13,194.32c1.25-1.12,1.87-10.68,1.56-11.65s3.57,2.08,4.13,5.21c.33,1.84,3.33-2.41,2.59-7.66-.3-2.11,4.46,1.62,5.18,5.16,1.06,5.21-.42,8.9-.09,8.94s6.5.52,6.5,0V31.15C44,22.49,46,23,50.25,23H171.5c2,0,4.75.38,4.75,5.26s2.92,163.4,2.92,166.32c0,1.72,4.63,1.74,4.69.93s1-7.79-.58-12.37c-.72-2.12,6.8,1.17,6.22,9.75-.18,2.62,1.17-8,6.39-8.83,2.67-.45-2.34,6,.08,12.75"/><path class="cls-2" d="M159.29,83.1s-15.52,17.79-15.5,17.58,0-18.15,0-20-.52-2.46,1.75-2.46h23c1.13,0,2.17.27,2.17,2.21v23.67c0,1.19.27,2.13-1.21,2.13H50.06"/><line class="cls-2" x1="155.84" y1="94.43" x2="164.26" y2="101.89"/><line class="cls-2" x1="141.97" y1="40.64" x2="154.54" y2="40.64"/><path class="cls-2" d="M139.46,39.74v21c0,.89,0,.89,1.35.89h14.08"/><line class="cls-2" x1="142.04" y1="50.68" x2="152.56" y2="50.68"/><path class="cls-2" d="M80,41.85c-.67-.36-13-6.27-13.05,3.43,0,7.14,14,2.86,14.05,10.91s-13.07,5.6-15.19,2.52"/><path class="cls-2" d="M117.36,39.37V61.25c0,.6.42.74,1,.74H131.9"/><path class="cls-2" d="M88.25,62.05S98,40.76,98.56,39.81s.84-.42,1.21.46,10,21.78,10,21.78"/><line class="cls-2" x1="92.38" y1="54.72" x2="105.43" y2="54.72"/></svg>