<svg id="Layer_1" data-name="Layer 1" xmlns="http://www.w3.org/2000/svg" viewBox="0 0 216 216"><defs><style>.cls-1{fill:#73cbcb;opacity:0.6;}.cls-2{fill:none;stroke:#576571;stroke-linecap:round;stroke-miterlimit:10;stroke-width:4px;}</style></defs><title>icon-</title><path class="cls-1" d="M88.59,86.27C127.35,104,189.17,133,202.14,140.36s-11.95,5.52-21.29,2.17S74.57,94.46,73.63,92.78,77.79,81.33,88.59,86.27Z"/><path class="cls-1" d="M16,160.93c12-3.54,55.43-2.55,60.66-1.05s9.18,9,7.05,11.59-75.06,1.33-76.4-.9S12.64,161.92,16,160.93Z"/><path class="cls-2" d="M87.16,174.2H6.43c-3.56,0,2.67-17,4.6-17H78.3c2.2,0,5.51,6.37,5.51,6.37.77,2.42-.34,2.12-7.37,2.12H15.89"/><path class="cls-2" d="M183.93,143.26c-1.78-.62-80.65-38-86.43-40.62s-26.69-9.13-27.89-9-1.8,4.14-1.85,4.83-7.55-1.13-7.86-.72,1.51,8.9,1.58,12-10.41,8.83-24.26,1.91c-13.33-6.14-17.66-17.54-15.3-19.51S31.88,86,32,85.48s-6.19-5-5.71-5.44a46,46,0,0,0,2.42-4.57c1-1.92,1.64-3,3.72-7.52S35,62.1,35.79,60.06a46,46,0,0,0,1.81-4.85c0-.69,7.56,1.06,7.86.65s-1.59-8.89-1.69-12,11.3-7.4,24.75-1.51c14.37,5.76,17,17.43,14.68,19.41s-9.9,6.27-10,6.77,6.24,4.9,5.76,5.39-3.06,3.59-2.38,4.59,18.78,12,24.6,14.62,86.26,36.45,92.76,39.69c4.05,2,14.46,8.49,11.22,13.92-3,5-13.66-.68-16.48-1.28"/></svg>