<svg id="Layer_1" data-name="Layer 1" xmlns="http://www.w3.org/2000/svg" viewBox="0 0 216 216"><defs><style>.cls-1{fill:#73cbcb;opacity:0.6;}.cls-2{fill:none;stroke:#576571;stroke-linecap:round;stroke-miterlimit:10;stroke-width:4px;}</style></defs><title>icon-</title><path class="cls-1" d="M82.59,145.19h42.57c2,0,3.14-.6,3.14-2.38V78.25c0-1.73-.16-2.82-2.17-2.82H84.87c-1.57,0-2.27.81-2.27,3v60.88"/><path class="cls-2" d="M83,145.66h42.57c2,0,3.14-.6,3.14-2.38V78.72c0-1.73-.16-2.82-2.17-2.82H85.32c-1.57,0-2.27.81-2.27,3v60.88"/><path class="cls-2" d="M134,149.94V66.26c0-7.91-6.44-8.12-7.38-8.12H85.88c-6.39,0-8.12,5.15-8.12,7.26v89.72c0,5.05,5.45,7.37,7.33,7.37H125.9c3.47,0,8.14-3.64,8.14-7.89"/><circle class="cls-2" cx="105.9" cy="153.39" r="2.89"/><line class="cls-2" x1="100.94" y1="68.48" x2="110.85" y2="68.48"/></svg>