<svg xmlns="http://www.w3.org/2000/svg" xmlns:xlink="http://www.w3.org/1999/xlink" viewBox="0 0 1000 500"><defs><style>.cls-1{fill:#fff;stroke:#231f20;}.cls-1,.cls-10,.cls-11,.cls-6{stroke-miterlimit:10;}.cls-2{mask:url(#mask);}.cls-3{fill:url(#linear-gradient);}.cls-4,.cls-5,.cls-7,.cls-8,.cls-9{fill:#a4baa0;}.cls-5{opacity:0.78;}.cls-10,.cls-11,.cls-6{fill:none;}.cls-11,.cls-6{stroke:#b6b6b6;}.cls-10,.cls-6{stroke-width:2px;}.cls-7{opacity:0.7;}.cls-8{opacity:0.54;}.cls-9{opacity:0.16;}.cls-10{stroke:#deede7;}.cls-11{stroke-width:4px;}</style><mask id="mask" x="-259.17" y="-514.65" width="1522.3" height="1520.03" maskUnits="userSpaceOnUse"><rect class="cls-1" width="1000" height="500"/></mask><linearGradient id="linear-gradient" x1="-210.72" y1="514.5" x2="70.25" y2="551.99" gradientTransform="translate(844.83 -890.71) scale(4.88 2.13)" gradientUnits="userSpaceOnUse"><stop offset="0.18" stop-color="#d0e5ab"/><stop offset="0.28" stop-color="#d8eaba" stop-opacity="0.82"/><stop offset="0.42" stop-color="#e4f0cf" stop-opacity="0.57"/><stop offset="0.56" stop-color="#eef5e0" stop-opacity="0.37"/><stop offset="0.69" stop-color="#f5faee" stop-opacity="0.21"/><stop offset="0.81" stop-color="#fbfdf7" stop-opacity="0.09"/><stop offset="0.92" stop-color="#fefefd" stop-opacity="0.02"/><stop offset="1" stop-color="#fff" stop-opacity="0"/></linearGradient></defs><title>Land Graphic</title><g id="Land"><g class="cls-2"><rect class="cls-3" x="-29.09" y="-300.73" width="1062.13" height="1092.18" transform="translate(-16.06 454.71) rotate(-48.05)"/><path class="cls-4" d="M-1.67,332.56H95c7.67,0,12.47-1.31,26.32,15.75s21.13,20.56,26.43,45.62c1.25,5.91,3.63,56,2.75,63.51s.19,17.44-22,25.11C121.43,485,113,456.9,91,456.9c-6.66,0-20.67,11.65-20.67,25.67l.17,22c-16.12-.25-74.48,0-74.48,0Z"/><path class="cls-4" d="M346.73,360.18S267,313.82,208.16,279.52c-23.69-13.82-23.87-10.21-23.87-30.2V79.23H346.73Z"/><polygon class="cls-5" points="306.5 -4.1 306.5 76.4 350 76.4 350 162.15 510 162.15 510 -8 306.5 -4.1"/><line class="cls-6" x1="108.5" y1="329.91" x2="-22.5" y2="329.91"/><path class="cls-7" d="M583.33,257.56h182v27.58s-46.67,44.76-63.58,65c-13.35,16-33.25,41.75-39.75,48.25s-14.58,26-78.67,41.5Z"/><path class="cls-8" d="M321.88,354.27c-4.87-2.75-19-8.94-28.5,7.5s-80.62,142.38-80.62,142.38H408.5V404.4Z"/><path class="cls-9" d="M847.67,207.9H931s-1.67,34.67-6.33,73.33-16.33,117-16.33,117h-178V328.56s49.08-49.67,61.17-56.33,27.83-13.67,40-32.83S847.67,207.9,847.67,207.9Z"/><path class="cls-10" d="M488.5,508.91c7.5-7.53,42.25-53.53,49.5-57s34.5-5.5,60.5-12.5,49-13.5,77-52,98.75-111.25,119.5-121,38.75-22.75,56.5-77.5,28-62.43,30.5-95.59S893-72.1,893-72.1"/><line class="cls-11" x1="168" y1="-63" x2="169.67" y2="508.91"/><line class="cls-11" x1="180.02" y1="-63" x2="181.69" y2="508.91"/><path class="cls-11" d="M-17.42,150.9S275.33,323.56,365.33,374.23s240,134.68,240,134.68"/><path class="cls-11" d="M168-17.1c0,13.25-6,109.5-7.5,138.5s-13,48.25-27.5,74S106.5,240,98.25,254.9s-8.75,46.87,17.25,68.5,44.75,51.25,48,79.25,3.83,106.27,3.83,106.27"/><path class="cls-11" d="M180.86,278.23c0,24.67,1.58,85.14,12.18,110.3,10,23.62,51,30.54,68,9.7s37-62.6,37-62.6"/><path class="cls-11" d="M322.82,350c-15.23-8.78-27.45-1.31-32.32,7.94s-17.38,29.19-23.44,39.52c-5.75,9.81-26.31,31.1-40.31,45.23s-34.87,41.53-37,66.27"/><path class="cls-11" d="M128.31,203.65c-4,6.91-14.52,24.45-51.32,2.82L74.49,205c21.12,12.4,37.05,26.46,27.81,42.78"/><path class="cls-6" d="M59.26,196s-4.07,7.42-6,12-1.44,12.56,8.63,18.25,20.94,11.63,22.5,15.25,5.06,9.31-3.25,22-9.06,22.25-3.37,34.63,8.13,7.77,30.75,31.76,41.25,39.24,44,76.49,2.38,50.88,2.5,58.75.69,10.88-5.37,13.88-23.25,11.25-23.25,11.25"/><path class="cls-6" d="M346.73,363.68s23.77-35.9,26.52-43S387.63,278,397,272.9s17.38-7.25,30.75-6,32-4.75,32-4.75"/><path class="cls-6" d="M893,502.9s33.27-167.67,40.79-284.49c4.36-67.75,12.21-246,12.21-246"/></g></g></svg>