<svg xmlns="http://www.w3.org/2000/svg" xmlns:xlink="http://www.w3.org/1999/xlink" viewBox="0 0 1000 500"><defs><style>.cls-1{fill:#e5e5e5;}.cls-2{fill:url(#linear-gradient);}.cls-3{fill:#bcbec0;}.cls-4,.cls-9{fill:#deede7;}.cls-12,.cls-14,.cls-4{stroke:#939598;}.cls-12,.cls-14,.cls-16,.cls-17,.cls-18,.cls-4{stroke-miterlimit:10;}.cls-14,.cls-4{stroke-width:0.66px;}.cls-5{fill:#e6e7e8;}.cls-6{fill:#d1d3d4;}.cls-7{fill:#323c47;}.cls-8{fill:#576571;}.cls-10{fill:#434f5c;}.cls-11{fill:#b6b6b6;}.cls-12,.cls-14,.cls-16,.cls-17,.cls-18{fill:none;}.cls-12,.cls-16,.cls-17{stroke-linecap:round;}.cls-12{stroke-width:0.48px;}.cls-13{fill:#939598;}.cls-15{fill:#a7a9ac;}.cls-16{stroke:#576571;stroke-width:0.43px;}.cls-17,.cls-18{stroke:#fff;}.cls-17{stroke-width:1.52px;}.cls-18{stroke-width:1.73px;}</style><linearGradient id="linear-gradient" x1="352.27" y1="-131.12" x2="636.43" y2="649.61" gradientUnits="userSpaceOnUse"><stop offset="0.24" stop-color="#d1d3d4"/><stop offset="0.54" stop-color="#f2f2f3"/><stop offset="0.72" stop-color="#fff"/></linearGradient></defs><title>industrial-panel-1_Industrial - Panel 1</title><g id="Industrial_-_Panel_3" data-name="Industrial - Panel 3"><rect class="cls-1" x="-1.66" y="-1.03" width="1001.66" height="501.03"/></g><g id="Industrial_-_Panel_1" data-name="Industrial - Panel 1"><path class="cls-2" d="M-9.81.66,1020-1V510H441.51S475.46,386.72,481,366.22l-49-13.48,6.07-21.88,48.78,13.65c.45-1.64,3.2-12,4.81-17.77,2.69-9.71-.48-19.16-9.9-21.77L28.7,179.22c-3-.85-19.84-3.7-25.2,15.76-12,43.65-41.64,150.35-41.64,150.35l-62.93-17.47Z"/><rect class="cls-3" x="223.57" y="220.19" width="17.3" height="13.74" transform="translate(513.12 64.03) rotate(105.51)"/><rect class="cls-3" x="233.37" y="210.15" width="3.23" height="13.74" transform="translate(506.95 48.65) rotate(105.51)"/><rect class="cls-3" x="234.26" y="206.89" width="3.23" height="13.74" transform="translate(504.94 43.65) rotate(105.51)"/><rect class="cls-3" x="235.16" y="203.63" width="3.23" height="13.74" transform="translate(502.94 38.66) rotate(105.51)"/><path class="cls-4" d="M28.39,179.46l197.45,54.81,2.42-8.72c7.9,2.19,5.7,11,5.7,11l214,59.41-10.53,37.95,8.53,2.37c-2.42,7.68-10.78,5.74-10.78,5.74s8.36,2.34,6.31,10.42L433,350,400.41,468.09-19.18,351.62Z"/><rect class="cls-5" x="268.29" y="302.68" width="1.01" height="10.03" transform="translate(445.5 676.07) rotate(-164.49)"/><rect class="cls-5" x="271.67" y="303.62" width="1.01" height="10.03" transform="translate(451.88 678.81) rotate(-164.49)"/><rect class="cls-5" x="264.91" y="301.74" width="1.01" height="10.03" transform="translate(439.11 673.33) rotate(-164.49)"/><rect class="cls-6" x="267.13" y="306.84" width="1.01" height="10.03" transform="translate(-104.43 486.33) rotate(-74.49)"/><rect class="cls-6" x="267.52" y="305.45" width="1.01" height="10.03" transform="translate(-102.82 485.69) rotate(-74.49)"/><rect class="cls-6" x="267.9" y="304.07" width="1.01" height="10.03" transform="translate(-101.2 485.04) rotate(-74.49)"/><rect class="cls-6" x="268.29" y="302.68" width="1.01" height="10.03" transform="translate(-99.58 484.4) rotate(-74.49)"/><rect class="cls-6" x="268.67" y="301.3" width="1.01" height="10.03" transform="translate(-97.97 483.75) rotate(-74.49)"/><rect class="cls-6" x="269.06" y="299.91" width="1.01" height="10.03" transform="translate(-96.35 483.11) rotate(-74.49)"/><rect class="cls-6" x="269.46" y="298.47" width="1.01" height="10.03" transform="translate(-94.67 482.44) rotate(-74.49)"/><rect class="cls-5" x="257.48" y="299.68" width="1.01" height="10.03" transform="translate(425.08 667.29) rotate(-164.49)"/><rect class="cls-5" x="260.86" y="300.62" width="1.01" height="10.03" transform="translate(431.47 670.04) rotate(-164.49)"/><rect class="cls-5" x="254.1" y="298.74" width="1.01" height="10.03" transform="translate(418.7 664.55) rotate(-164.49)"/><rect class="cls-6" x="256.33" y="303.84" width="1.01" height="10.03" transform="translate(-109.46 473.72) rotate(-74.49)"/><rect class="cls-6" x="256.71" y="302.45" width="1.01" height="10.03" transform="translate(-107.84 473.08) rotate(-74.49)"/><rect class="cls-6" x="257.1" y="301.07" width="1.01" height="10.03" transform="translate(-106.23 472.43) rotate(-74.49)"/><rect class="cls-6" x="257.48" y="299.68" width="1.01" height="10.03" transform="translate(-104.61 471.79) rotate(-74.49)"/><rect class="cls-6" x="257.87" y="298.3" width="1.01" height="10.03" transform="translate(-102.99 471.15) rotate(-74.49)"/><rect class="cls-6" x="258.25" y="296.91" width="1.01" height="10.03" transform="translate(-101.37 470.5) rotate(-74.49)"/><rect class="cls-6" x="258.65" y="295.47" width="1.01" height="10.03" transform="translate(-99.69 469.83) rotate(-74.49)"/><rect class="cls-5" x="246.68" y="296.68" width="1.01" height="10.03" transform="matrix(-0.96, -0.27, 0.27, -0.96, 404.67, 658.51)"/><rect class="cls-5" x="250.06" y="297.62" width="1.01" height="10.03" transform="translate(411.05 661.26) rotate(-164.49)"/><rect class="cls-5" x="243.3" y="295.75" width="1.01" height="10.03" transform="translate(398.29 655.77) rotate(-164.49)"/><rect class="cls-6" x="245.53" y="300.84" width="1.01" height="10.03" transform="translate(-114.48 461.12) rotate(-74.49)"/><rect class="cls-6" x="245.91" y="299.45" width="1.01" height="10.03" transform="translate(-112.87 460.47) rotate(-74.49)"/><rect class="cls-6" x="246.29" y="298.07" width="1.01" height="10.03" transform="translate(-111.25 459.83) rotate(-74.49)"/><rect class="cls-6" x="246.68" y="296.68" width="1.01" height="10.03" transform="translate(-109.63 459.18) rotate(-74.49)"/><rect class="cls-6" x="247.06" y="295.3" width="1.01" height="10.03" transform="translate(-108.02 458.54) rotate(-74.49)"/><rect class="cls-6" x="247.45" y="293.91" width="1.01" height="10.03" transform="translate(-106.4 457.89) rotate(-74.49)"/><rect class="cls-6" x="247.85" y="292.47" width="1.01" height="10.03" transform="translate(-104.72 457.22) rotate(-74.49)"/><rect class="cls-5" x="235.88" y="293.68" width="1.01" height="10.03" transform="matrix(-0.96, -0.27, 0.27, -0.96, 384.26, 649.74)"/><rect class="cls-5" x="239.25" y="294.62" width="1.01" height="10.03" transform="translate(390.64 652.48) rotate(-164.49)"/><rect class="cls-5" x="232.5" y="292.75" width="1.01" height="10.03" transform="translate(377.88 646.99) rotate(-164.49)"/><rect class="cls-6" x="234.72" y="297.84" width="1.01" height="10.03" transform="translate(-119.51 448.51) rotate(-74.49)"/><rect class="cls-6" x="235.11" y="296.46" width="1.01" height="10.03" transform="translate(-117.89 447.86) rotate(-74.49)"/><rect class="cls-6" x="235.49" y="295.07" width="1.01" height="10.03" transform="translate(-116.27 447.22) rotate(-74.49)"/><rect class="cls-6" x="235.88" y="293.68" width="1.01" height="10.03" transform="translate(-114.66 446.58) rotate(-74.49)"/><rect class="cls-6" x="236.26" y="292.3" width="1.01" height="10.03" transform="translate(-113.04 445.93) rotate(-74.49)"/><rect class="cls-6" x="236.64" y="290.91" width="1.01" height="10.03" transform="translate(-111.42 445.29) rotate(-74.49)"/><rect class="cls-6" x="237.04" y="289.47" width="1.01" height="10.03" transform="translate(-109.74 444.62) rotate(-74.49)"/><rect class="cls-5" x="265.15" y="314" width="1.01" height="10.03" transform="matrix(-0.96, -0.27, 0.27, -0.96, 436.3, 697.45)"/><rect class="cls-5" x="268.52" y="314.94" width="1.01" height="10.03" transform="translate(442.68 700.2) rotate(-164.49)"/><rect class="cls-5" x="261.77" y="313.06" width="1.01" height="10.03" transform="translate(429.92 694.71) rotate(-164.49)"/><rect class="cls-6" x="263.99" y="318.16" width="1.01" height="10.03" transform="translate(-117.64 491.59) rotate(-74.49)"/><rect class="cls-6" x="264.38" y="316.77" width="1.01" height="10.03" transform="translate(-116.02 490.95) rotate(-74.49)"/><rect class="cls-6" x="264.76" y="315.38" width="1.01" height="10.03" transform="translate(-114.41 490.31) rotate(-74.49)"/><rect class="cls-6" x="265.15" y="314" width="1.01" height="10.03" transform="translate(-112.79 489.66) rotate(-74.49)"/><rect class="cls-6" x="265.53" y="312.61" width="1.01" height="10.03" transform="translate(-111.17 489.02) rotate(-74.49)"/><rect class="cls-6" x="265.91" y="311.23" width="1.01" height="10.03" transform="translate(-109.56 488.37) rotate(-74.49)"/><rect class="cls-6" x="266.31" y="309.79" width="1.01" height="10.03" transform="translate(-107.88 487.7) rotate(-74.49)"/><rect class="cls-5" x="254.34" y="311" width="1.01" height="10.03" transform="translate(415.89 688.68) rotate(-164.49)"/><rect class="cls-5" x="257.72" y="311.94" width="1.01" height="10.03" transform="translate(422.27 691.42) rotate(-164.49)"/><rect class="cls-5" x="250.96" y="310.06" width="1.01" height="10.03" transform="translate(409.5 685.93) rotate(-164.49)"/><rect class="cls-6" x="253.19" y="315.16" width="1.01" height="10.03" transform="translate(-122.67 478.99) rotate(-74.49)"/><rect class="cls-6" x="253.57" y="313.77" width="1.01" height="10.03" transform="translate(-121.05 478.34) rotate(-74.49)"/><rect class="cls-6" x="253.96" y="312.39" width="1.01" height="10.03" transform="translate(-119.43 477.7) rotate(-74.49)"/><rect class="cls-6" x="254.34" y="311" width="1.01" height="10.03" transform="translate(-117.82 477.05) rotate(-74.49)"/><rect class="cls-6" x="254.73" y="309.62" width="1.01" height="10.03" transform="translate(-116.2 476.41) rotate(-74.49)"/><rect class="cls-6" x="255.11" y="308.23" width="1.01" height="10.03" transform="translate(-114.58 475.77) rotate(-74.49)"/><rect class="cls-6" x="255.51" y="306.79" width="1.01" height="10.03" transform="translate(-112.9 475.1) rotate(-74.49)"/><rect class="cls-5" x="243.54" y="308" width="1.01" height="10.03" transform="translate(395.47 679.9) rotate(-164.49)"/><rect class="cls-5" x="246.92" y="308.94" width="1.01" height="10.03" transform="translate(401.86 682.64) rotate(-164.49)"/><rect class="cls-5" x="240.16" y="307.06" width="1.01" height="10.03" transform="translate(389.09 677.15) rotate(-164.49)"/><rect class="cls-6" x="242.38" y="312.16" width="1.01" height="10.03" transform="translate(-127.69 466.38) rotate(-74.49)"/><rect class="cls-6" x="242.77" y="310.77" width="1.01" height="10.03" transform="translate(-126.07 465.74) rotate(-74.49)"/><rect class="cls-6" x="243.15" y="309.39" width="1.01" height="10.03" transform="translate(-124.46 465.09) rotate(-74.49)"/><rect class="cls-6" x="243.54" y="308" width="1.01" height="10.03" transform="translate(-122.84 464.45) rotate(-74.49)"/><rect class="cls-6" x="243.92" y="306.62" width="1.01" height="10.03" transform="translate(-121.22 463.8) rotate(-74.49)"/><rect class="cls-6" x="244.31" y="305.23" width="1.01" height="10.03" transform="translate(-119.61 463.16) rotate(-74.49)"/><rect class="cls-6" x="244.71" y="303.79" width="1.01" height="10.03" transform="translate(-117.93 462.49) rotate(-74.49)"/><rect class="cls-5" x="232.73" y="305" width="1.01" height="10.03" transform="translate(375.06 671.12) rotate(-164.49)"/><rect class="cls-5" x="236.11" y="305.94" width="1.01" height="10.03" transform="translate(381.45 673.86) rotate(-164.49)"/><rect class="cls-5" x="229.36" y="304.07" width="1.01" height="10.03" transform="translate(368.68 668.38) rotate(-164.49)"/><rect class="cls-6" x="231.58" y="309.16" width="1.01" height="10.03" transform="translate(-132.72 453.77) rotate(-74.49)"/><rect class="cls-6" x="231.96" y="307.77" width="1.01" height="10.03" transform="translate(-131.1 453.13) rotate(-74.49)"/><rect class="cls-6" x="232.35" y="306.39" width="1.01" height="10.03" transform="translate(-129.48 452.48) rotate(-74.49)"/><rect class="cls-6" x="232.73" y="305" width="1.01" height="10.03" transform="translate(-127.87 451.84) rotate(-74.49)"/><rect class="cls-6" x="233.12" y="303.62" width="1.01" height="10.03" transform="translate(-126.25 451.2) rotate(-74.49)"/><rect class="cls-6" x="233.5" y="302.23" width="1.01" height="10.03" transform="translate(-124.63 450.55) rotate(-74.49)"/><rect class="cls-6" x="233.9" y="300.79" width="1.01" height="10.03" transform="translate(-122.95 449.88) rotate(-74.49)"/><rect class="cls-5" x="213.74" y="287.54" width="1.01" height="10.03" transform="matrix(-0.96, -0.27, 0.27, -0.96, 342.44, 631.75)"/><rect class="cls-5" x="217.12" y="288.48" width="1.01" height="10.03" transform="translate(348.82 634.5) rotate(-164.49)"/><rect class="cls-5" x="210.36" y="286.6" width="1.01" height="10.03" transform="translate(336.06 629.01) rotate(-164.49)"/><rect class="cls-6" x="212.59" y="291.7" width="1.01" height="10.03" transform="translate(-129.8 422.68) rotate(-74.49)"/><rect class="cls-6" x="212.97" y="290.31" width="1.01" height="10.03" transform="translate(-128.19 422.04) rotate(-74.49)"/><rect class="cls-6" x="213.36" y="288.93" width="1.01" height="10.03" transform="translate(-126.57 421.39) rotate(-74.49)"/><rect class="cls-6" x="213.74" y="287.54" width="1.01" height="10.03" transform="translate(-124.95 420.75) rotate(-74.49)"/><rect class="cls-6" x="214.13" y="286.15" width="1.01" height="10.03" transform="translate(-123.34 420.1) rotate(-74.49)"/><rect class="cls-6" x="214.51" y="284.77" width="1.01" height="10.03" transform="translate(-121.72 419.46) rotate(-74.49)"/><rect class="cls-6" x="214.91" y="283.33" width="1.01" height="10.03" transform="translate(-120.04 418.79) rotate(-74.49)"/><rect class="cls-5" x="202.94" y="284.54" width="1.01" height="10.03" transform="translate(322.03 622.97) rotate(-164.49)"/><rect class="cls-5" x="206.32" y="285.48" width="1.01" height="10.03" transform="translate(328.41 625.72) rotate(-164.49)"/><rect class="cls-5" x="199.56" y="283.6" width="1.01" height="10.03" transform="translate(315.64 620.23) rotate(-164.49)"/><rect class="cls-6" x="201.78" y="288.7" width="1.01" height="10.03" transform="translate(-134.83 410.07) rotate(-74.49)"/><rect class="cls-6" x="202.17" y="287.31" width="1.01" height="10.03" transform="translate(-133.21 409.43) rotate(-74.49)"/><rect class="cls-6" x="202.55" y="285.93" width="1.01" height="10.03" transform="translate(-131.59 408.78) rotate(-74.49)"/><rect class="cls-6" x="202.94" y="284.54" width="1.01" height="10.03" transform="translate(-129.98 408.14) rotate(-74.49)"/><rect class="cls-6" x="203.32" y="283.16" width="1.01" height="10.03" transform="translate(-128.36 407.5) rotate(-74.49)"/><rect class="cls-6" x="203.71" y="281.77" width="1.01" height="10.03" transform="translate(-126.74 406.85) rotate(-74.49)"/><rect class="cls-6" x="204.11" y="280.33" width="1.01" height="10.03" transform="translate(-125.06 406.18) rotate(-74.49)"/><rect class="cls-5" x="192.13" y="281.54" width="1.01" height="10.03" transform="translate(301.62 614.19) rotate(-164.49)"/><rect class="cls-5" x="195.51" y="282.48" width="1.01" height="10.03" transform="translate(308 616.94) rotate(-164.49)"/><rect class="cls-5" x="188.75" y="280.6" width="1.01" height="10.03" transform="translate(295.23 611.45) rotate(-164.49)"/><rect class="cls-6" x="190.98" y="285.7" width="1.01" height="10.03" transform="translate(-139.85 397.47) rotate(-74.49)"/><rect class="cls-6" x="191.36" y="284.31" width="1.01" height="10.03" transform="translate(-138.23 396.82) rotate(-74.49)"/><rect class="cls-6" x="191.75" y="282.93" width="1.01" height="10.03" transform="translate(-136.62 396.18) rotate(-74.49)"/><rect class="cls-6" x="192.13" y="281.54" width="1.01" height="10.03" transform="translate(-135 395.53) rotate(-74.49)"/><rect class="cls-6" x="192.52" y="280.16" width="1.01" height="10.03" transform="translate(-133.38 394.89) rotate(-74.49)"/><rect class="cls-6" x="192.9" y="278.77" width="1.01" height="10.03" transform="translate(-131.77 394.24) rotate(-74.49)"/><rect class="cls-6" x="193.3" y="277.33" width="1.01" height="10.03" transform="translate(-130.09 393.57) rotate(-74.49)"/><rect class="cls-5" x="181.33" y="278.54" width="1.01" height="10.03" transform="matrix(-0.96, -0.27, 0.27, -0.96, 281.2, 605.42)"/><rect class="cls-5" x="184.71" y="279.48" width="1.01" height="10.03" transform="translate(287.59 608.16) rotate(-164.49)"/><rect class="cls-5" x="177.95" y="277.61" width="1.01" height="10.03" transform="translate(274.82 602.67) rotate(-164.49)"/><rect class="cls-6" x="180.18" y="282.7" width="1.01" height="10.03" transform="translate(-144.88 384.86) rotate(-74.49)"/><rect class="cls-6" x="180.56" y="281.31" width="1.01" height="10.03" transform="translate(-143.26 384.21) rotate(-74.49)"/><rect class="cls-6" x="180.94" y="279.93" width="1.01" height="10.03" transform="translate(-141.64 383.57) rotate(-74.49)"/><rect class="cls-6" x="181.33" y="278.54" width="1.01" height="10.03" transform="translate(-140.03 382.93) rotate(-74.49)"/><rect class="cls-6" x="181.71" y="277.16" width="1.01" height="10.03" transform="translate(-138.41 382.28) rotate(-74.49)"/><rect class="cls-6" x="182.1" y="275.77" width="1.01" height="10.03" transform="translate(-136.79 381.64) rotate(-74.49)"/><rect class="cls-6" x="182.5" y="274.33" width="1.01" height="10.03" transform="translate(-135.11 380.97) rotate(-74.49)"/><rect class="cls-5" x="210.6" y="298.86" width="1.01" height="10.03" transform="translate(333.24 653.14) rotate(-164.49)"/><rect class="cls-5" x="213.98" y="299.8" width="1.01" height="10.03" transform="matrix(-0.96, -0.27, 0.27, -0.96, 339.63, 655.88)"/><rect class="cls-5" x="207.22" y="297.92" width="1.01" height="10.03" transform="matrix(-0.96, -0.27, 0.27, -0.96, 326.86, 650.39)"/><rect class="cls-6" x="209.45" y="303.02" width="1.01" height="10.03" transform="translate(-143.01 427.94) rotate(-74.49)"/><rect class="cls-6" x="209.83" y="301.63" width="1.01" height="10.03" transform="translate(-141.39 427.3) rotate(-74.49)"/><rect class="cls-6" x="210.21" y="300.24" width="1.01" height="10.03" transform="translate(-139.78 426.66) rotate(-74.49)"/><rect class="cls-6" x="210.6" y="298.86" width="1.01" height="10.03" transform="translate(-138.16 426.01) rotate(-74.49)"/><rect class="cls-6" x="210.98" y="297.47" width="1.01" height="10.03" transform="translate(-136.54 425.37) rotate(-74.49)"/><rect class="cls-6" x="211.37" y="296.09" width="1.01" height="10.03" transform="translate(-134.93 424.72) rotate(-74.49)"/><rect class="cls-6" x="211.77" y="294.65" width="1.01" height="10.03" transform="translate(-133.24 424.05) rotate(-74.49)"/><rect class="cls-5" x="199.8" y="295.86" width="1.01" height="10.03" transform="translate(312.83 644.36) rotate(-164.49)"/><rect class="cls-5" x="203.17" y="296.8" width="1.01" height="10.03" transform="translate(319.21 647.1) rotate(-164.49)"/><rect class="cls-5" x="196.42" y="294.92" width="1.01" height="10.03" transform="matrix(-0.96, -0.27, 0.27, -0.96, 306.45, 641.61)"/><rect class="cls-6" x="198.64" y="300.02" width="1.01" height="10.03" transform="translate(-148.03 415.34) rotate(-74.49)"/><rect class="cls-6" x="199.03" y="298.63" width="1.01" height="10.03" transform="translate(-146.42 414.69) rotate(-74.49)"/><rect class="cls-6" x="199.41" y="297.25" width="1.01" height="10.03" transform="translate(-144.8 414.05) rotate(-74.49)"/><rect class="cls-6" x="199.8" y="295.86" width="1.01" height="10.03" transform="translate(-143.18 413.4) rotate(-74.49)"/><rect class="cls-6" x="200.18" y="294.47" width="1.01" height="10.03" transform="translate(-141.57 412.76) rotate(-74.49)"/><rect class="cls-6" x="200.56" y="293.09" width="1.01" height="10.03" transform="translate(-139.95 412.11) rotate(-74.49)"/><rect class="cls-6" x="200.96" y="291.65" width="1.01" height="10.03" transform="translate(-138.27 411.44) rotate(-74.49)"/><rect class="cls-5" x="188.99" y="292.86" width="1.01" height="10.03" transform="translate(292.42 635.58) rotate(-164.49)"/><rect class="cls-5" x="192.37" y="293.8" width="1.01" height="10.03" transform="translate(298.8 638.32) rotate(-164.49)"/><rect class="cls-5" x="185.61" y="291.92" width="1.01" height="10.03" transform="translate(286.04 632.83) rotate(-164.49)"/><rect class="cls-6" x="187.84" y="297.02" width="1.01" height="10.03" transform="translate(-153.06 402.73) rotate(-74.49)"/><rect class="cls-6" x="188.22" y="295.63" width="1.01" height="10.03" transform="translate(-151.44 402.09) rotate(-74.49)"/><rect class="cls-6" x="188.61" y="294.25" width="1.01" height="10.03" transform="translate(-149.83 401.44) rotate(-74.49)"/><rect class="cls-6" x="188.99" y="292.86" width="1.01" height="10.03" transform="translate(-148.21 400.8) rotate(-74.49)"/><rect class="cls-6" x="189.38" y="291.48" width="1.01" height="10.03" transform="translate(-146.59 400.15) rotate(-74.49)"/><rect class="cls-6" x="189.76" y="290.09" width="1.01" height="10.03" transform="translate(-144.98 399.51) rotate(-74.49)"/><rect class="cls-6" x="190.16" y="288.65" width="1.01" height="10.03" transform="translate(-143.29 398.84) rotate(-74.49)"/><rect class="cls-5" x="178.19" y="289.86" width="1.01" height="10.03" transform="translate(272.01 626.8) rotate(-164.49)"/><rect class="cls-5" x="181.57" y="290.8" width="1.01" height="10.03" transform="translate(278.39 629.55) rotate(-164.49)"/><rect class="cls-5" x="174.81" y="288.92" width="1.01" height="10.03" transform="translate(265.62 624.06) rotate(-164.49)"/><rect class="cls-6" x="177.03" y="294.02" width="1.01" height="10.03" transform="translate(-158.08 390.12) rotate(-74.49)"/><rect class="cls-6" x="177.42" y="292.63" width="1.01" height="10.03" transform="translate(-156.47 389.48) rotate(-74.49)"/><rect class="cls-6" x="177.8" y="291.25" width="1.01" height="10.03" transform="translate(-154.85 388.83) rotate(-74.49)"/><rect class="cls-6" x="178.19" y="289.86" width="1.01" height="10.03" transform="translate(-153.23 388.19) rotate(-74.49)"/><rect class="cls-6" x="178.57" y="288.48" width="1.01" height="10.03" transform="translate(-151.62 387.55) rotate(-74.49)"/><rect class="cls-6" x="178.96" y="287.09" width="1.01" height="10.03" transform="translate(-150 386.9) rotate(-74.49)"/><rect class="cls-6" x="179.36" y="285.65" width="1.01" height="10.03" transform="translate(-148.32 386.23) rotate(-74.49)"/><rect class="cls-7" x="91.91" y="53.05" width="14.2" height="16.66" transform="translate(184.64 -17.61) rotate(105.51)"/><path class="cls-8" d="M96.71,55.7a4.37,4.37,0,0,0-4.77,1.89,19.55,19.55,0,0,1-3.33.83L99.42,20c.16-.58,2.37-4.66,6.14-3.76s7.41,1.91,11.11,3.08,3.49,5.81,3.32,6.39l-10.54,38.5.12,0a19.55,19.55,0,0,1-2.43-2.43A4.37,4.37,0,0,0,104,57.73Z"/><path class="cls-9" d="M104.63,43.89c-.18.56-.61,1.41.39,1.69s4.77,3.39,5.23,3.92,1.13,1.13,1.51-.25.12-1.45-.6-2.13a39.45,39.45,0,0,0-5-4.06C105,42.43,104.77,43.43,104.63,43.89Z"/><path class="cls-10" d="M106.67,33.79c-4.44-1.23-7.12-.75-7.11-1,.09-1.41,7.16-14.95,7.47-15.12s3.09.58,3.9.8,3.58,1,3.75,1.32-.75,15.55-1.4,16.81C113.16,36.82,111.11,35,106.67,33.79Z"/><path class="cls-9" d="M103.22,43.5c-.14.57-.2,1.52-1.2,1.24s-5.83.45-6.5.66-1.55.39-1.17-1S95,43.11,96,42.89a39.45,39.45,0,0,1,6.35-.91C103.69,42.07,103.33,43,103.22,43.5Z"/><rect class="cls-8" x="20.71" y="114.7" width="120.56" height="23.21" transform="translate(224.36 82.05) rotate(105.51)"/><path class="cls-7" d="M118.5,41.45c.31-1.12.09-1.71-.46-1.86a1.38,1.38,0,0,0-.91,0l-3-1.11-.19.69,2.84,1a2.17,2.17,0,0,0-.17.76A7.65,7.65,0,0,0,118.5,41.45Z"/><path class="cls-7" d="M92.34,34.19c.31-1.12.81-1.51,1.36-1.36a1.38,1.38,0,0,1,.77.49l3.16.6-.19.69L94.49,34a2.17,2.17,0,0,1-.25.74A7.65,7.65,0,0,1,92.34,34.19Z"/><rect class="cls-7" x="143" y="67.23" width="14.2" height="16.66" transform="matrix(-0.27, 0.96, -0.96, -0.27, 263.06, -48.87)"/><path class="cls-8" d="M147.8,69.88A4.37,4.37,0,0,0,143,71.77a19.55,19.55,0,0,1-3.33.83l10.81-38.43c.16-.58,2.37-4.66,6.14-3.76s7.41,1.91,11.11,3.08,3.49,5.81,3.32,6.39l-10.54,38.5.12,0A19.55,19.55,0,0,1,158.24,76a4.37,4.37,0,0,0-3.12-4.08Z"/><path class="cls-9" d="M155.72,58.07c-.18.56-.61,1.41.39,1.69s4.77,3.39,5.23,3.92,1.13,1.13,1.51-.25.12-1.45-.6-2.13a39.45,39.45,0,0,0-5-4.06C156,56.61,155.86,57.61,155.72,58.07Z"/><path class="cls-10" d="M157.76,48c-4.44-1.23-7.12-.75-7.11-1,.09-1.41,7.16-14.95,7.47-15.12s3.09.58,3.9.8,3.58,1,3.75,1.32-.75,15.55-1.4,16.81C164.26,51,162.21,49.2,157.76,48Z"/><path class="cls-9" d="M154.31,57.68c-.14.57-.2,1.52-1.2,1.24s-5.83.45-6.5.66-1.55.39-1.17-1,.64-1.3,1.61-1.52a39.45,39.45,0,0,1,6.35-.91C154.78,56.26,154.42,57.21,154.31,57.68Z"/><rect class="cls-8" x="71.8" y="128.88" width="120.56" height="23.21" transform="translate(302.78 50.79) rotate(105.51)"/><path class="cls-7" d="M169.6,55.63c.31-1.12.09-1.71-.46-1.86a1.38,1.38,0,0,0-.91,0l-3-1.11-.19.69,2.84,1a2.17,2.17,0,0,0-.17.76A7.65,7.65,0,0,0,169.6,55.63Z"/><path class="cls-7" d="M143.43,48.37c.31-1.12.81-1.51,1.36-1.36a1.38,1.38,0,0,1,.77.49l3.16.6-.19.69-2.94-.63a2.17,2.17,0,0,1-.25.74A7.65,7.65,0,0,1,143.43,48.37Z"/><rect class="cls-7" x="194.07" y="81.41" width="14.2" height="16.66" transform="translate(341.44 -80.11) rotate(105.51)"/><path class="cls-8" d="M198.87,84.05a4.37,4.37,0,0,0-4.77,1.89,19.55,19.55,0,0,1-3.33.83l10.81-38.43c.16-.58,2.37-4.66,6.14-3.76s7.41,1.91,11.11,3.08,3.49,5.81,3.32,6.39l-10.54,38.5.12,0a19.55,19.55,0,0,1-2.43-2.43,4.37,4.37,0,0,0-3.12-4.08Z"/><path class="cls-9" d="M206.78,72.24c-.18.56-.61,1.41.39,1.69s4.77,3.39,5.23,3.92,1.13,1.13,1.51-.25.12-1.45-.6-2.13a39.45,39.45,0,0,0-5-4.06C207.12,70.78,206.93,71.78,206.78,72.24Z"/><path class="cls-10" d="M208.83,62.14c-4.44-1.23-7.12-.75-7.11-1,.09-1.41,7.16-14.95,7.47-15.12s3.09.58,3.9.8,3.58,1,3.75,1.32-.75,15.55-1.4,16.81C215.32,65.17,213.27,63.38,208.83,62.14Z"/><path class="cls-9" d="M205.38,71.85c-.14.57-.2,1.52-1.2,1.24s-5.83.45-6.5.66-1.55.39-1.17-1,.64-1.3,1.61-1.52a39.45,39.45,0,0,1,6.35-.91C205.85,70.43,205.49,71.38,205.38,71.85Z"/><rect class="cls-8" x="122.87" y="143.06" width="120.56" height="23.21" transform="translate(381.16 19.55) rotate(105.51)"/><path class="cls-7" d="M220.66,69.8c.31-1.12.09-1.71-.46-1.86a1.38,1.38,0,0,0-.91,0l-3-1.11-.19.69,2.84,1a2.17,2.17,0,0,0-.17.76A7.65,7.65,0,0,0,220.66,69.8Z"/><path class="cls-7" d="M194.5,62.54c.31-1.12.81-1.51,1.36-1.36a1.38,1.38,0,0,1,.77.49l3.16.6-.19.69-2.94-.63a2.17,2.17,0,0,1-.25.74A7.65,7.65,0,0,1,194.5,62.54Z"/><rect class="cls-8" x="113.95" y="308.21" width="11.28" height="46.36" transform="translate(146.18 682.7) rotate(-164.49)"/><rect class="cls-8" x="102.89" y="305.14" width="11.28" height="46.36" transform="translate(125.29 673.71) rotate(-164.49)"/><rect class="cls-8" x="56.14" y="292.17" width="11.28" height="46.36" transform="translate(36.96 635.73) rotate(-164.49)"/><rect class="cls-8" x="45.08" y="289.1" width="11.28" height="46.36" transform="translate(16.07 626.74) rotate(-164.49)"/><rect class="cls-5" x="48.77" y="312.49" width="1.01" height="10.03" transform="translate(-269.84 280.06) rotate(-74.49)"/><rect class="cls-5" x="47.83" y="315.86" width="1.01" height="10.03" transform="translate(-273.78 281.63) rotate(-74.49)"/><rect class="cls-5" x="49.7" y="309.11" width="1.01" height="10.03" transform="translate(-265.9 278.49) rotate(-74.49)"/><rect class="cls-6" x="44.61" y="311.33" width="1.01" height="10.03" transform="translate(86.25 -0.54) rotate(15.51)"/><rect class="cls-6" x="46" y="311.72" width="1.01" height="10.03" transform="translate(86.41 -0.9) rotate(15.51)"/><rect class="cls-6" x="47.38" y="312.1" width="1.01" height="10.03" transform="translate(86.56 -1.25) rotate(15.51)"/><rect class="cls-6" x="48.77" y="312.49" width="1.01" height="10.03" transform="translate(86.71 -1.61) rotate(15.51)"/><rect class="cls-6" x="50.15" y="312.87" width="1.01" height="10.03" transform="translate(86.87 -1.97) rotate(15.51)"/><rect class="cls-6" x="51.54" y="313.25" width="1.01" height="10.03" transform="translate(87.02 -2.32) rotate(15.51)"/><rect class="cls-6" x="52.98" y="313.65" width="1.01" height="10.03" transform="translate(87.18 -2.7) rotate(15.51)"/><rect class="cls-5" x="51.67" y="302.04" width="1.01" height="10.03" transform="translate(-257.65 275.2) rotate(-74.49)"/><rect class="cls-5" x="50.73" y="305.42" width="1.01" height="10.03" transform="translate(-261.59 276.77) rotate(-74.49)"/><rect class="cls-5" x="52.6" y="298.66" width="1.01" height="10.03" transform="translate(-253.71 273.63) rotate(-74.49)"/><rect class="cls-6" x="47.51" y="300.89" width="1.01" height="10.03" transform="translate(83.57 -1.7) rotate(15.51)"/><rect class="cls-6" x="48.89" y="301.27" width="1.01" height="10.03" transform="translate(83.72 -2.05) rotate(15.51)"/><rect class="cls-6" x="50.28" y="301.66" width="1.01" height="10.03" transform="translate(83.87 -2.41) rotate(15.51)"/><rect class="cls-6" x="51.67" y="302.04" width="1.01" height="10.03" transform="translate(84.03 -2.77) rotate(15.51)"/><rect class="cls-6" x="53.05" y="302.43" width="1.01" height="10.03" transform="translate(84.18 -3.12) rotate(15.51)"/><rect class="cls-6" x="54.44" y="302.81" width="1.01" height="10.03" transform="translate(84.33 -3.48) rotate(15.51)"/><rect class="cls-6" x="55.88" y="303.21" width="1.01" height="10.03" transform="translate(84.49 -3.85) rotate(15.51)"/><path class="cls-11" d="M162,249.83l-.91-2.52,1.22-.63a6.83,6.83,0,0,0-.48-.88,6.57,6.57,0,0,0-1.26,1c-.16.3-.28,0-.67.06a13.63,13.63,0,0,0-1.4.18,2.77,2.77,0,0,1-1.07-.47,12.7,12.7,0,0,0-.57-1.65,12.17,12.17,0,0,0-1.78-.56c-.14.06-1,.22-1,.33s1,2.9,1,3-.28.15-.47.21l-8.74,3a1.44,1.44,0,0,0-.55.64,2.9,2.9,0,0,0,.85.38l9-3.1a.35.35,0,0,1,.49.23l.89,2.59.89,2.59a.35.35,0,0,1-.24.48l-9,3.1a2.9,2.9,0,0,0-.44.82,1.44,1.44,0,0,0,.83.16l8.74-3c.19-.06.45-.21.5-.12s1,2.9,1,3,.82-.29,1-.33a12.17,12.17,0,0,0,1.05-1.54,12.7,12.7,0,0,0-.57-1.65,2.77,2.77,0,0,1,.56-1,13.63,13.63,0,0,0,1.22-.73c.32-.22.25-.51.56-.37a6.57,6.57,0,0,0,1.63,0,6.83,6.83,0,0,0-.16-1l-1.35.25Z"/><path class="cls-7" d="M163.26,249.41c-1.1-3.2-1.22-3.68-2-3.4s-1,0-1.29-.92-.22-1.19.54-1.45l20-7c.78-.27,1.2.06,1.38.57l1.8,5.2,1.8,5.2c.18.52.05,1-.73,1.3l-20.08,6.78c-.77.26-1,.08-1.32-.81s-.34-1.25.45-1.52S164.37,252.61,163.26,249.41Z"/><path class="cls-12" d="M184.2,248.21s-11.53,3.91-12.46,4.13-6.58,1.26-6.58,1.26"/><path class="cls-12" d="M180.48,237.44s-11.49,4-12.36,4.43-6,3.07-6,3.07"/><rect class="cls-13" x="171.45" y="239.3" width="9.84" height="11.29" transform="translate(422.98 418.98) rotate(160.97)"/><path class="cls-11" d="M53.49,209.34l2.59.69-.17,1.36a6.83,6.83,0,0,0,1,.11,6.57,6.57,0,0,0-.13-1.62c-.16-.3.14-.25.34-.58a13.63,13.63,0,0,0,.65-1.26,2.77,2.77,0,0,1,1-.61,12.7,12.7,0,0,0,1.68.47,12.17,12.17,0,0,0,1.47-1.14c0-.15.39-.94.28-1s-3-.82-3.06-.86,0-.31.09-.5l2.49-8.9a1.44,1.44,0,0,0-.21-.82,2.9,2.9,0,0,0-.79.49l-2.56,9.14a.35.35,0,0,1-.47.27L55,203.84l-2.64-.74a.35.35,0,0,1-.26-.47l2.56-9.14a2.9,2.9,0,0,0-.42-.83,1.44,1.44,0,0,0-.61.59l-2.49,8.9c-.05.19-.08.49-.18.48s-2.95-.83-3.06-.86-.23.84-.28,1a12.17,12.17,0,0,0,.66,1.74A12.7,12.7,0,0,0,50,205a2.77,2.77,0,0,1,.53,1,13.63,13.63,0,0,0-.1,1.41c0,.39.27.5,0,.67a6.57,6.57,0,0,0-1,1.32,6.83,6.83,0,0,0,.9.43l.56-1.25Z"/><path class="cls-7" d="M53.12,210.63c3.26.91,3.72,1.09,3.94.29s.59-.8,1.49-.54,1.11.49.89,1.27-5.36,19.64-5.59,20.44-.73,1-1.26.81l-5.3-1.49L42,229.92c-.53-.15-.88-.54-.65-1.34S47,209,47.19,208.21s.51-.88,1.42-.63,1.22.43,1,1.24S49.86,209.71,53.12,210.63Z"/><path class="cls-12" d="M42.18,228.52s3.35-11.7,3.7-12.6,2.71-6.12,2.71-6.12"/><path class="cls-12" d="M53.16,231.59s3.22-11.74,3.39-12.68.87-6.64.87-6.64"/><rect class="cls-13" x="44.41" y="218.3" width="9.84" height="11.29" transform="translate(-179.62 210.99) rotate(-74.34)"/><rect class="cls-5" x="56.03" y="193.48" width="1.01" height="10.03" transform="translate(55.68 -7.89) rotate(15.66)"/><rect class="cls-5" x="52.65" y="192.54" width="1.01" height="10.03" transform="translate(55.3 -7.02) rotate(15.66)"/><rect class="cls-5" x="59.4" y="194.43" width="1.01" height="10.03" transform="translate(56.06 -8.77) rotate(15.66)"/><rect class="cls-6" x="57.19" y="189.33" width="1.01" height="10.03" transform="translate(260.4 191.25) rotate(105.66)"/><rect class="cls-6" x="56.8" y="190.72" width="1.01" height="10.03" transform="translate(261.24 193.38) rotate(105.66)"/><rect class="cls-6" x="56.42" y="192.1" width="1.01" height="10.03" transform="translate(262.08 195.51) rotate(105.66)"/><rect class="cls-6" x="56.03" y="193.48" width="1.01" height="10.03" transform="translate(262.92 197.64) rotate(105.66)"/><rect class="cls-6" x="55.64" y="194.87" width="1.01" height="10.03" transform="translate(263.76 199.77) rotate(105.66)"/><rect class="cls-6" x="55.25" y="196.25" width="1.01" height="10.03" transform="translate(264.6 201.9) rotate(105.66)"/><rect class="cls-6" x="54.85" y="197.69" width="1.01" height="10.03" transform="translate(265.48 204.12) rotate(105.66)"/><path class="cls-14" d="M295.09,374.67l19.84,5.51s2.45-8.52,10.42-6.31L323,382.41l10.57,2.93-16.48,59.52-38.45-10.67Z"/><path class="cls-14" d="M256.64,364l19.84,5.51s2.45-8.52,10.42-6.31l-2.37,8.55,10.57,2.93-16.48,59.52-38.45-10.67Z"/><path class="cls-14" d="M341.4,357.1l39.51,11s2.45-8.52,10.42-6.31L389,370.31l35.69,9.91L400.33,468l-83.25-23.11Z"/><path class="cls-14" d="M364.77,272.87l-11,39.51s8.52,2.45,6.31,10.42l-8.55-2.37L341.39,357.1"/><path class="cls-7" d="M305.26,195.15c.31-1.12.09-1.71-.46-1.86a1.38,1.38,0,0,0-.91,0l-3-1.11-.19.69,2.84,1a2.17,2.17,0,0,0-.17.76A7.65,7.65,0,0,0,305.26,195.15Z"/><path class="cls-7" d="M279.1,187.89c.31-1.12.81-1.51,1.36-1.36a1.38,1.38,0,0,1,.77.49l3.16.6-.19.69-2.94-.63a2.17,2.17,0,0,1-.25.74A7.65,7.65,0,0,1,279.1,187.89Z"/><rect class="cls-7" x="280.35" y="194.03" width="19.56" height="9.76" transform="translate(63.77 -70.35) rotate(15.51)"/><rect class="cls-8" x="259.32" y="212.38" width="47.69" height="23.21" rx="1.31" ry="1.31" transform="translate(574.73 11.05) rotate(105.51)"/><path class="cls-8" d="M297.09,174c-3.85-1.07-7-1.73-10.28-.28s-3.9,6.44-4.45,8.45a3,3,0,0,0,.84,3.15L280.5,195l10,2.77-.06,0,10,2.77,2.69-9.69a3,3,0,0,0,2.34-2.26c.56-2,2.57-6.62.54-9.54s-5.1-4-9-5.06"/><path class="cls-9" d="M294.07,184.66c.61.17-5-1.45-6.67-1.22s-2.13,3.3-2,3.41,6.41,1.53,7.57,1.85,7.28,2.35,7.44,2.32,1.38-2.87,0-4S293.47,184.49,294.07,184.66Z"/><path class="cls-10" d="M294.35,183.69,288,181.93s2.88-6.35,3.74-7.12,3.88,0,5,.27,4.09,1.25,4.43,2.35-.47,8-.47,8Z"/><path class="cls-7" d="M355.39,134.67c0-1.16-.43-1.66-1-1.64a1.38,1.38,0,0,0-.86.3l-3.21-.16,0,.71,3,.08a2.17,2.17,0,0,0,.07.78A7.65,7.65,0,0,0,355.39,134.67Z"/><path class="cls-7" d="M328.26,135.57c0-1.16.32-1.68.89-1.7a1.38,1.38,0,0,1,.88.24l3.19-.37,0,.71-3,.28a2.17,2.17,0,0,1,0,.78A7.65,7.65,0,0,1,328.26,135.57Z"/><rect class="cls-7" x="332.3" y="137.9" width="19.56" height="9.76" transform="translate(-4.53 11.38) rotate(-1.89)"/><path class="cls-8" d="M341.25,116.89c-4,.13-7.23.45-9.89,2.81s-1.79,7.31-1.72,9.4a3,3,0,0,0,1.74,2.75l.33,10,10.35-.34H342l10.35-.34-.33-10a3,3,0,0,0,1.56-2.86c-.07-2.09.47-7.09-2.34-9.26s-6.06-2.28-10.06-2.15"/><path class="cls-9" d="M341.58,128c.63,0-5.16.1-6.73.83s-1.05,3.78-.9,3.85,6.57-.46,7.77-.5,7.65.07,7.79,0,.46-3.15-1.15-3.78S341,128,341.58,128Z"/><path class="cls-10" d="M341.56,127l-6.59.22s.85-6.93,1.44-7.91,3.68-1.2,4.86-1.24,4.28,0,4.93.92,2,7.8,2,7.8Z"/><rect class="cls-8" x="316.53" y="156.19" width="47.69" height="23.21" rx="1.31" ry="1.31" transform="translate(535.38 -157.75) rotate(94.68)"/><rect class="cls-6" x="98.91" y="339.49" width="10.27" height="10.27" transform="translate(112.13 704.52) rotate(-164.49)"/><polygon class="cls-15" points="100.01 347.63 100.01 347.64 105.95 349.29 105.96 349.27 103.81 345.48 100.01 347.63"/><polygon class="cls-15" points="104.28 343.77 108.08 341.62 108.09 341.61 102.14 339.96 102.14 339.97 104.28 343.77"/><polygon class="cls-15" points="101.05 340.59 99.4 346.53 103.19 344.39 101.05 340.59"/><polygon class="cls-15" points="107.05 348.66 108.7 342.71 104.9 344.86 107.05 348.66"/><rect class="cls-6" x="109.94" y="342.52" width="10.27" height="10.27" transform="translate(132.97 713.42) rotate(-164.49)"/><polygon class="cls-15" points="111.04 350.66 111.03 350.67 116.98 352.32 116.98 352.31 114.84 348.51 111.04 350.66"/><polygon class="cls-15" points="115.31 346.8 119.11 344.65 119.11 344.64 113.17 342.99 113.16 343 115.31 346.8"/><polygon class="cls-15" points="112.07 343.62 110.42 349.57 114.22 347.42 112.07 343.62"/><polygon class="cls-15" points="118.07 351.69 119.72 345.75 115.93 347.89 118.07 351.69"/><rect class="cls-8" x="172.18" y="324.23" width="11.28" height="46.36" transform="translate(256.24 729.72) rotate(-164.49)"/><rect class="cls-8" x="161.12" y="321.16" width="11.28" height="46.36" transform="translate(235.35 720.74) rotate(-164.49)"/><rect class="cls-5" x="182" y="325.51" width="1.01" height="10.03" transform="translate(-184.79 417.98) rotate(-74.49)"/><rect class="cls-5" x="181.06" y="328.89" width="1.01" height="10.03" transform="translate(-188.73 419.55) rotate(-74.49)"/><rect class="cls-5" x="182.94" y="322.13" width="1.01" height="10.03" transform="translate(-180.85 416.41) rotate(-74.49)"/><rect class="cls-6" x="177.84" y="324.36" width="1.01" height="10.03" transform="translate(94.59 -35.7) rotate(15.51)"/><rect class="cls-6" x="179.23" y="324.74" width="1.01" height="10.03" transform="translate(94.74 -36.06) rotate(15.51)"/><rect class="cls-6" x="180.62" y="325.13" width="1.01" height="10.03" transform="translate(94.9 -36.42) rotate(15.51)"/><rect class="cls-6" x="182" y="325.51" width="1.01" height="10.03" transform="translate(95.05 -36.77) rotate(15.51)"/><rect class="cls-6" x="183.39" y="325.89" width="1.01" height="10.03" transform="translate(95.2 -37.13) rotate(15.51)"/><rect class="cls-6" x="184.77" y="326.28" width="1.01" height="10.03" transform="translate(95.36 -37.49) rotate(15.51)"/><rect class="cls-6" x="186.21" y="326.68" width="1.01" height="10.03" transform="translate(95.52 -37.86) rotate(15.51)"/><path class="cls-11" d="M196.53,368l.68-2.59,1.36.17a6.83,6.83,0,0,0,.1-1,6.57,6.57,0,0,0-1.62.13c-.3.16-.25-.14-.58-.33a13.63,13.63,0,0,0-1.26-.65,2.77,2.77,0,0,1-.62-1,12.7,12.7,0,0,0,.47-1.68,12.17,12.17,0,0,0-1.15-1.47c-.15,0-.94-.39-1-.27s-.81,3-.85,3.07-.31,0-.5-.09l-8.9-2.47a1.44,1.44,0,0,0-.82.22,2.9,2.9,0,0,0,.49.79l9.15,2.54a.35.35,0,0,1,.27.47l-.73,2.64-.73,2.64a.35.35,0,0,1-.47.26l-9.15-2.54a2.9,2.9,0,0,0-.83.43,1.44,1.44,0,0,0,.59.61l8.9,2.47c.19.05.49.08.48.18s-.83,2.95-.85,3.07.84.22,1,.27a12.17,12.17,0,0,0,1.74-.67,12.7,12.7,0,0,0,.47-1.68,2.77,2.77,0,0,1,1-.53,13.63,13.63,0,0,0,1.41.09c.39,0,.5-.27.67,0a6.57,6.57,0,0,0,1.32.95,6.83,6.83,0,0,0,.42-.91l-1.25-.56Z"/><path class="cls-7" d="M197.81,368.36c.91-3.26,1.08-3.72.28-3.94s-.8-.58-.55-1.49.49-1.11,1.27-.89l20.45,5.54c.8.22,1,.73.81,1.25l-1.47,5.3-1.47,5.3c-.15.53-.54.88-1.34.66l-20.38-5.8c-.78-.22-.88-.51-.63-1.42s.43-1.22,1.24-1S196.91,371.62,197.81,368.36Z"/><path class="cls-12" d="M215.73,379.24s-11.71-3.32-12.61-3.66-6.13-2.69-6.13-2.69"/><path class="cls-12" d="M218.78,368.26s-11.75-3.19-12.69-3.36-6.64-.85-6.64-.85"/><rect class="cls-13" x="206.23" y="366.47" width="9.84" height="11.29" transform="translate(315.07 787.14) rotate(-164.49)"/><rect class="cls-5" x="185.17" y="359.96" width="1.01" height="10.03" transform="translate(-215.66 446.27) rotate(-74.49)"/><rect class="cls-5" x="184.23" y="363.34" width="1.01" height="10.03" transform="translate(-219.6 447.84) rotate(-74.49)"/><rect class="cls-5" x="186.11" y="356.58" width="1.01" height="10.03" transform="translate(-211.72 444.7) rotate(-74.49)"/><rect class="cls-6" x="181.02" y="358.8" width="1.01" height="10.03" transform="translate(103.92 -35.3) rotate(15.51)"/><rect class="cls-6" x="182.4" y="359.19" width="1.01" height="10.03" transform="translate(104.07 -35.65) rotate(15.51)"/><rect class="cls-6" x="183.79" y="359.57" width="1.01" height="10.03" transform="translate(104.23 -36.01) rotate(15.51)"/><rect class="cls-6" x="185.17" y="359.96" width="1.01" height="10.03" transform="translate(104.38 -36.37) rotate(15.51)"/><rect class="cls-6" x="186.56" y="360.34" width="1.01" height="10.03" transform="translate(104.53 -36.72) rotate(15.51)"/><rect class="cls-6" x="187.94" y="360.73" width="1.01" height="10.03" transform="translate(104.69 -37.08) rotate(15.51)"/><rect class="cls-6" x="189.38" y="361.13" width="1.01" height="10.03" transform="translate(104.85 -37.45) rotate(15.51)"/><rect class="cls-6" x="174.23" y="336.68" width="10.27" height="10.27" transform="translate(260.78 719.16) rotate(-164.49)"/><polygon class="cls-15" points="175.34 344.82 175.33 344.83 181.28 346.48 181.28 346.47 179.13 342.67 175.34 344.82"/><polygon class="cls-15" points="179.61 340.96 183.41 338.82 183.41 338.8 177.47 337.15 177.46 337.17 179.61 340.96"/><polygon class="cls-15" points="176.37 337.79 174.72 343.73 178.52 341.58 176.37 337.79"/><polygon class="cls-15" points="182.37 345.85 184.02 339.91 180.22 342.06 182.37 345.85"/><rect class="cls-6" x="327.39" y="266.03" width="10.27" height="10.27" transform="matrix(-0.27, 0.96, -0.96, -0.27, 682.75, 23.29)"/><polygon class="cls-15" points="335.52 275.2 335.54 275.21 337.19 269.26 337.17 269.26 333.38 271.41 335.52 275.2"/><polygon class="cls-15" points="331.67 270.93 329.52 267.13 329.51 267.13 327.86 273.07 327.87 273.08 331.67 270.93"/><polygon class="cls-15" points="328.49 274.17 334.43 275.82 332.29 272.02 328.49 274.17"/><polygon class="cls-15" points="336.56 268.17 330.61 266.52 332.76 270.31 336.56 268.17"/><rect class="cls-6" x="338.27" y="269.05" width="10.27" height="10.27" transform="translate(699.46 16.63) rotate(105.51)"/><polygon class="cls-15" points="346.41 278.22 346.42 278.23 348.07 272.28 348.06 272.28 344.26 274.43 346.41 278.22"/><polygon class="cls-15" points="342.55 273.95 340.41 270.16 340.39 270.15 338.74 276.1 338.76 276.1 342.55 273.95"/><polygon class="cls-15" points="339.37 277.19 345.32 278.84 343.17 275.04 339.37 277.19"/><polygon class="cls-15" points="347.44 271.19 341.5 269.54 343.64 273.34 347.44 271.19"/><rect class="cls-6" x="349.07" y="272.05" width="10.27" height="10.27" transform="translate(716.04 10.02) rotate(105.51)"/><polygon class="cls-15" points="357.21 281.22 357.23 281.23 358.88 275.28 358.86 275.28 355.07 277.43 357.21 281.22"/><polygon class="cls-15" points="353.36 276.95 351.21 273.15 351.2 273.15 349.55 279.1 349.56 279.1 353.36 276.95"/><polygon class="cls-15" points="350.18 280.19 356.12 281.84 353.97 278.04 350.18 280.19"/><polygon class="cls-15" points="358.25 274.19 352.3 272.54 354.45 276.33 358.25 274.19"/><rect class="cls-6" x="335.15" y="280.29" width="10.27" height="10.27" transform="translate(706.33 33.88) rotate(105.51)"/><polygon class="cls-15" points="343.29 289.46 343.3 289.47 344.95 283.52 344.94 283.52 341.14 285.67 343.29 289.46"/><polygon class="cls-15" points="339.43 285.19 337.29 281.39 337.27 281.39 335.62 287.33 335.64 287.34 339.43 285.19"/><polygon class="cls-15" points="336.25 288.43 342.2 290.08 340.05 286.28 336.25 288.43"/><polygon class="cls-15" points="344.32 282.43 338.38 280.78 340.52 284.57 344.32 282.43"/><rect class="cls-6" x="345.96" y="283.29" width="10.27" height="10.27" transform="translate(722.92 27.27) rotate(105.51)"/><polygon class="cls-15" points="354.09 292.46 354.11 292.47 355.76 286.52 355.74 286.52 351.95 288.67 354.09 292.46"/><polygon class="cls-15" points="350.24 288.19 348.09 284.39 348.08 284.39 346.43 290.33 346.44 290.34 350.24 288.19"/><polygon class="cls-15" points="347.06 291.43 353 293.08 350.86 289.28 347.06 291.43"/><polygon class="cls-15" points="355.13 285.43 349.18 283.78 351.33 287.57 355.13 285.43"/><rect class="cls-3" x="263.53" y="93.88" width="2.78" height="148.12" transform="translate(475.27 400.61) rotate(-164.49)"/><rect class="cls-3" x="47.9" y="34.11" width="2.78" height="148.12" transform="translate(67.85 225.58) rotate(-164.49)"/><line class="cls-16" x1="236.02" y1="236.44" x2="243.34" y2="209.82"/><line class="cls-16" x1="224.19" y1="233.19" x2="231.52" y2="206.57"/><line class="cls-17" x1="569.06" y1="243.72" x2="630.22" y2="21.32"/><line class="cls-18" x1="523.19" y1="196.83" x2="632.45" y2="226.88"/><line class="cls-18" x1="514.43" y1="228.69" x2="623.69" y2="258.75"/><line class="cls-18" x1="531.95" y1="164.96" x2="641.22" y2="195.01"/><line class="cls-18" x1="540.62" y1="133.47" x2="649.88" y2="163.52"/><line class="cls-18" x1="549.38" y1="101.6" x2="658.64" y2="131.65"/><line class="cls-18" x1="549.38" y1="101.6" x2="658.64" y2="131.65"/><line class="cls-18" x1="558.15" y1="69.74" x2="667.41" y2="99.79"/><line class="cls-18" x1="566.91" y1="37.87" x2="676.17" y2="67.92"/><line class="cls-18" x1="575.57" y1="6.37" x2="684.83" y2="36.42"/><line class="cls-17" x1="814.87" y1="309.31" x2="876.04" y2="86.91"/><line class="cls-18" x1="769" y1="262.42" x2="878.26" y2="292.47"/><line class="cls-18" x1="760.24" y1="294.28" x2="869.5" y2="324.33"/><line class="cls-18" x1="777.77" y1="230.55" x2="887.03" y2="260.6"/><line class="cls-18" x1="786.43" y1="199.06" x2="895.69" y2="229.11"/><line class="cls-18" x1="795.19" y1="167.19" x2="904.45" y2="197.24"/><line class="cls-18" x1="795.19" y1="167.19" x2="904.45" y2="197.24"/><line class="cls-18" x1="803.96" y1="135.32" x2="913.22" y2="165.37"/><line class="cls-18" x1="812.72" y1="103.46" x2="921.98" y2="133.51"/><line class="cls-18" x1="821.38" y1="71.96" x2="930.65" y2="102.01"/><path class="cls-7" d="M665.58,208c4.21-3.56,4.74-6.39,4.63-6.9a64.26,64.26,0,0,0-3.84-5.8c-.52-.68-14.49-16.72-15.05-17.49a55.43,55.43,0,0,0-3.6-4.54,7.08,7.08,0,0,0-5-2.54c-2.42-.24-5.57,2.31-6.19,2.83s-3.66,3.2-3.83,5.63a7.08,7.08,0,0,0,1.66,5.4,55.43,55.43,0,0,0,3.87,4.3c.66.69,14.15,17.14,14.73,17.76a64.26,64.26,0,0,0,5.08,4.76C658.5,211.66,661.37,211.61,665.58,208Z"/><path class="cls-9" d="M654.26,206.14s-.52-1.41-6.55-8.54-6.19-6.35-9.12-9.32c0,0,2.89,3.53,3.63,4.41s7.81,9.08,8.45,9.81A38,38,0,0,0,654.26,206.14Z"/><path class="cls-8" d="M640,190.1l-.62-.73a.37.37,0,0,1,0,.36.21.21,0,0,0-.32,0c-.09.08-1.06.83-1,1.68s.4,1.14.56,1a13,13,0,0,0,1.19-1.72.94.94,0,0,0-.1-.36Z"/><path class="cls-8" d="M652.15,179.86l-.62-.73a.37.37,0,0,0,.36,0,.21.21,0,0,1,0-.32c.09-.08,1-.91,1.83-.69s1.05.58.9.72a13,13,0,0,1-1.9.88.94.94,0,0,1-.34-.16Z"/><path class="cls-9" d="M642.76,181.08c4.17-3.52,5.08-3.23,6.1-3.2s3.56,4.05,4,4.74.62.94.37,1c-1.89.3-4.54,2.54-5.51,3.36s-3.62,3.06-4.24,4.87c-.08.24-.3,0-.9-.53s-4.15-3.72-4-4.74S638.59,184.6,642.76,181.08Z"/><path class="cls-9" d="M665.59,196.56s-1.3-.75-7.33-7.88-5.23-7.17-7.66-10.55c0-.06,3,3.44,3.74,4.31s7.65,9.22,8.27,10A38,38,0,0,1,665.59,196.56Z"/><path class="cls-9" d="M663.28,205.32a14.19,14.19,0,0,0,3.39-3.85c.71-1.37.11-1.83-.05-2s-3.29-3.56-3.41-3.68-.41.56-.79,1.13a34.82,34.82,0,0,1-7.3,6.17c-.63.28-1.35.45-1.25.59s2.9,3.78,3.06,4,.52.87,2,.39A14.19,14.19,0,0,0,663.28,205.32Z"/><path class="cls-7" d="M817.11,23.84c-2.13-5.09-4.66-6.44-5.19-6.49a64.26,64.26,0,0,0-6.69,1.92c-.8.29-20.31,8.79-21.21,9.09a55.43,55.43,0,0,0-5.41,2.06,7.08,7.08,0,0,0-3.94,4.05c-1,2.24.53,6,.84,6.76s2,4.45,4.22,5.34a7.08,7.08,0,0,0,5.65,0,55.43,55.43,0,0,0,5.27-2.4c.85-.43,20.6-8.34,21.37-8.71a64.26,64.26,0,0,0,6.06-3.41C818.42,31.68,819.24,28.93,817.11,23.84Z"/><path class="cls-9" d="M811.88,34.07s-1.5.07-10.12,3.67-7.92,4-11.63,5.89l5.3-2.13c1.06-.44,11-4.72,11.9-5.11A38,38,0,0,0,811.88,34.07Z"/><path class="cls-8" d="M792.31,42.81l-.88.37a.37.37,0,0,1,.34.12.21.21,0,0,0-.12.3c0,.11.47,1.27,1.31,1.45s1.2,0,1.13-.23a13,13,0,0,0-1.29-1.65.94.94,0,0,0-.37,0Z"/><path class="cls-8" d="M786.19,28.17l-.88.37a.37.37,0,0,0,.15-.32.21.21,0,0,1-.3-.12c0-.11-.57-1.23-.11-1.95s.87-.83,1-.64a13,13,0,0,1,.27,2.07.94.94,0,0,1-.25.27Z"/><path class="cls-9" d="M784.53,37.49c-2.11-5-1.56-5.81-1.22-6.79s4.93-2.18,5.73-2.39,1.08-.31,1-.06c-.28,1.89,1.06,5.09,1.55,6.27S793.46,38.9,795,40c.2.15-.06.29-.78.7s-4.8,2.84-5.73,2.39S786.63,42.53,784.53,37.49Z"/><path class="cls-9" d="M806.16,20.38s-1.11,1-9.72,4.62-8.41,2.83-12.36,4.14l5.24-2.27c1.06-.45,11.09-4.52,12-4.88A38,38,0,0,1,806.16,20.38Z"/><path class="cls-9" d="M813.81,25.22a14.19,14.19,0,0,0-2.65-4.39c-1.09-1.09-1.71-.65-1.94-.56s-4.39,2.06-4.54,2.14.41.56.84,1.09a34.82,34.82,0,0,1,3.69,8.82c.08.68,0,1.42.18,1.36s4.48-1.63,4.71-1.72,1-.23,1-1.78A14.19,14.19,0,0,0,813.81,25.22Z"/><path class="cls-7" d="M541.37,151.45c-1.46,5.32-.3,7.95.08,8.31a64.26,64.26,0,0,0,6.45,2.61c.81.26,21.4,5.6,22.31,5.92a55.43,55.43,0,0,0,5.53,1.71,7.08,7.08,0,0,0,5.6-.76c2.14-1.17,3.29-5.06,3.5-5.84s1.21-4.71,0-6.81a7.08,7.08,0,0,0-4.43-3.52,55.43,55.43,0,0,0-5.63-1.36c-.94-.19-21.36-6.13-22.19-6.32a64.26,64.26,0,0,0-6.88-1.05C545.17,144.47,542.83,146.14,541.37,151.45Z"/><path class="cls-9" d="M551.79,146.63S553,147.5,562,150s8.7,1.74,12.79,2.53l-5.49-1.58c-1.1-.31-11.58-3.07-12.52-3.32A38,38,0,0,0,551.79,146.63Z"/><path class="cls-8" d="M572.59,151.82l.92.25a.37.37,0,0,1-.19-.3.21.21,0,0,0,.28-.16c0-.11.41-1.29-.14-1.95s-1-.71-1-.52a13,13,0,0,0,0,2.09.94.94,0,0,0,.28.24Z"/><path class="cls-8" d="M568.39,167.11l.92.25a.37.37,0,0,0-.32.16.21.21,0,0,1,.16.28c0,.12-.31,1.32-1.11,1.6s-1.2.12-1.15-.08a13,13,0,0,1,1.07-1.8.94.94,0,0,1,.37-.06Z"/><path class="cls-9" d="M575.44,160.8c-1.45,5.26-2.36,5.54-3.22,6.09s-5.23-1.33-6-1.65-1-.42-.86-.6c1.39-1.32,2.31-4.66,2.65-5.89s1.26-4.57.74-6.42c-.07-.24.23-.19,1-.07s5.53.72,6,1.65S576.89,155.53,575.44,160.8Z"/><path class="cls-9" d="M547.86,160.93s1.5-.12,10.5,2.36,8.36,3,12.29,4.37l-5.52-1.44c-1.11-.3-11.52-3.28-12.46-3.55A38,38,0,0,1,547.86,160.93Z"/><path class="cls-9" d="M544.82,152.4a14.19,14.19,0,0,0-.62,5.09c.18,1.53.94,1.57,1.19,1.64s4.72,1.08,4.89,1.11,0-.69,0-1.38a34.82,34.82,0,0,1,2.54-9.22c.36-.58.86-1.13.7-1.19s-4.53-1.48-4.77-1.55-.92-.42-1.86.8A14.19,14.19,0,0,0,544.82,152.4Z"/><path class="cls-7" d="M616.94,104.36c-1.46,5.32-.3,7.95.08,8.31a64.26,64.26,0,0,0,6.45,2.61c.81.26,21.4,5.6,22.31,5.92a55.43,55.43,0,0,0,5.53,1.71,7.08,7.08,0,0,0,5.6-.76c2.14-1.17,3.29-5.06,3.5-5.84s1.21-4.71,0-6.81A7.08,7.08,0,0,0,656,106a55.43,55.43,0,0,0-5.63-1.36c-.94-.19-21.36-6.13-22.19-6.32a64.26,64.26,0,0,0-6.88-1.05C620.74,97.37,618.4,99,616.94,104.36Z"/><path class="cls-9" d="M627.36,99.53s1.23.87,10.23,3.35,8.7,1.74,12.79,2.53l-5.49-1.58c-1.1-.31-11.58-3.07-12.52-3.32A38,38,0,0,0,627.36,99.53Z"/><path class="cls-8" d="M648.16,104.72l.92.25a.37.37,0,0,1-.19-.3.21.21,0,0,0,.28-.16c0-.11.41-1.29-.14-1.95s-1-.71-1-.52a13,13,0,0,0,0,2.09.94.94,0,0,0,.28.24Z"/><path class="cls-8" d="M644,120l.92.25a.37.37,0,0,0-.32.16.21.21,0,0,1,.16.28c0,.12-.31,1.32-1.11,1.6s-1.2.12-1.15-.08a13,13,0,0,1,1.07-1.8.94.94,0,0,1,.37-.06Z"/><path class="cls-9" d="M651,113.7c-1.45,5.26-2.36,5.54-3.22,6.09s-5.23-1.33-6-1.65-1-.42-.86-.6c1.39-1.32,2.31-4.66,2.65-5.89s1.26-4.57.74-6.42c-.07-.24.23-.19,1-.07s5.53.72,6,1.65S652.46,108.44,651,113.7Z"/><path class="cls-9" d="M623.43,113.84s1.5-.12,10.5,2.36,8.36,3,12.29,4.37l-5.52-1.44c-1.11-.3-11.52-3.28-12.46-3.55A38,38,0,0,1,623.43,113.84Z"/><path class="cls-9" d="M620.39,105.31a14.19,14.19,0,0,0-.62,5.09c.18,1.53.94,1.57,1.19,1.64s4.72,1.08,4.89,1.11,0-.69,0-1.38a34.82,34.82,0,0,1,2.54-9.22c.36-.58.86-1.13.7-1.19s-4.53-1.48-4.77-1.55-.92-.42-1.86.8A14.19,14.19,0,0,0,620.39,105.31Z"/><path class="cls-7" d="M804.68,153.73c-1.46,5.32-.3,7.95.08,8.31a64.26,64.26,0,0,0,6.45,2.61c.81.26,21.4,5.6,22.31,5.92a55.43,55.43,0,0,0,5.53,1.71,7.08,7.08,0,0,0,5.6-.76c2.14-1.17,3.29-5.06,3.5-5.84s1.21-4.71,0-6.81a7.08,7.08,0,0,0-4.43-3.52,55.43,55.43,0,0,0-5.63-1.36c-.94-.19-21.36-6.13-22.19-6.32a64.26,64.26,0,0,0-6.88-1.05C808.48,146.75,806.14,148.41,804.68,153.73Z"/><path class="cls-9" d="M815.1,148.9s1.23.87,10.23,3.35,8.7,1.74,12.79,2.53l-5.49-1.58c-1.1-.31-11.58-3.07-12.52-3.32A38,38,0,0,0,815.1,148.9Z"/><path class="cls-8" d="M835.9,154.09l.92.25a.37.37,0,0,1-.19-.3.21.21,0,0,0,.28-.16c0-.11.41-1.29-.14-1.95s-1-.71-1-.52a13,13,0,0,0,0,2.09.94.94,0,0,0,.28.24Z"/><path class="cls-8" d="M831.69,169.39l.92.25a.37.37,0,0,0-.32.16.21.21,0,0,1,.16.28c0,.12-.31,1.32-1.11,1.6s-1.2.12-1.15-.08a13,13,0,0,1,1.07-1.8.94.94,0,0,1,.37-.06Z"/><path class="cls-9" d="M838.75,163.07c-1.45,5.26-2.36,5.54-3.22,6.09s-5.23-1.33-6-1.65-1-.42-.86-.6c1.39-1.32,2.31-4.66,2.65-5.89s1.26-4.57.74-6.42c-.07-.24.23-.19,1-.07s5.53.72,6,1.65S840.19,157.81,838.75,163.07Z"/><path class="cls-9" d="M811.17,163.21s1.5-.12,10.5,2.36,8.36,3,12.29,4.37l-5.52-1.44c-1.11-.3-11.52-3.28-12.46-3.55A38,38,0,0,1,811.17,163.21Z"/><path class="cls-9" d="M808.12,154.68a14.19,14.19,0,0,0-.62,5.09c.18,1.53.94,1.57,1.19,1.64s4.72,1.08,4.89,1.11,0-.69,0-1.38a34.82,34.82,0,0,1,2.54-9.22c.36-.58.86-1.13.7-1.19s-4.53-1.48-4.77-1.55-.92-.42-1.86.8A14.19,14.19,0,0,0,808.12,154.68Z"/><path class="cls-7" d="M578.5,23.35c-1.64,5.26-.57,7.93-.2,8.31a64.26,64.26,0,0,0,6.35,2.83c.8.29,21.2,6.34,22.09,6.68a55.43,55.43,0,0,0,5.47,1.9,7.08,7.08,0,0,0,5.63-.56c2.17-1.1,3.46-4.94,3.7-5.71s1.37-4.67.21-6.8a7.08,7.08,0,0,0-4.3-3.67,55.43,55.43,0,0,0-5.58-1.55c-.93-.22-21.14-6.87-22-7.08a64.26,64.26,0,0,0-6.84-1.29C582.55,16.5,580.15,18.09,578.5,23.35Z"/><path class="cls-9" d="M589.09,18.88s1.2.91,10.11,3.7,8.63,2,12.7,3l-5.43-1.77c-1.09-.35-11.46-3.47-12.4-3.75A38,38,0,0,0,589.09,18.88Z"/><path class="cls-8" d="M609.7,24.79l.91.28a.37.37,0,0,1-.18-.31.21.21,0,0,0,.28-.15c0-.11.45-1.27-.07-2s-.94-.75-1-.55a13,13,0,0,0-.08,2.09.94.94,0,0,0,.28.25Z"/><path class="cls-8" d="M605,39.93l.91.28a.37.37,0,0,0-.33.15.21.21,0,0,1,.15.28c0,.11-.35,1.3-1.17,1.56s-1.2.08-1.15-.12a13,13,0,0,1,1.13-1.76.94.94,0,0,1,.37,0Z"/><path class="cls-9" d="M612.23,33.86c-1.63,5.21-2.55,5.45-3.43,6s-5.18-1.51-5.93-1.85-1-.46-.84-.63c1.43-1.27,2.47-4.58,2.85-5.8s1.42-4.53,1-6.39c-.06-.25.24-.18,1,0s5.5.92,5.93,1.85S613.86,28.65,612.23,33.86Z"/><path class="cls-9" d="M584.66,33s1.5-.07,10.41,2.72,8.26,3.24,12.13,4.79l-5.47-1.63c-1.1-.34-11.4-3.67-12.33-4A38,38,0,0,1,584.66,33Z"/><path class="cls-9" d="M581.92,24.41a14.19,14.19,0,0,0-.79,5.07c.13,1.54.89,1.6,1.13,1.68s4.68,1.24,4.85,1.28,0-.69.06-1.38A34.82,34.82,0,0,1,590,21.94c.38-.57.9-1.1.74-1.16s-4.48-1.64-4.72-1.71-.9-.45-1.88.73A14.19,14.19,0,0,0,581.92,24.41Z"/><path class="cls-7" d="M527.61,181.95c-1.46,5.32-.3,7.95.08,8.31a64.26,64.26,0,0,0,6.45,2.61c.81.26,21.4,5.6,22.31,5.92A55.43,55.43,0,0,0,562,200.5a7.08,7.08,0,0,0,5.6-.76c2.14-1.17,3.29-5.06,3.5-5.84s1.21-4.71,0-6.81a7.08,7.08,0,0,0-4.43-3.52,55.43,55.43,0,0,0-5.63-1.36c-.94-.19-21.36-6.13-22.19-6.32a64.26,64.26,0,0,0-6.88-1.05C531.41,175,529.07,176.63,527.61,181.95Z"/><path class="cls-9" d="M538,177.12s1.23.87,10.23,3.35,8.7,1.74,12.79,2.53l-5.49-1.58c-1.1-.31-11.58-3.07-12.52-3.32A38,38,0,0,0,538,177.12Z"/><path class="cls-8" d="M558.83,182.31l.92.25a.37.37,0,0,1-.19-.3.21.21,0,0,0,.28-.16c0-.11.41-1.29-.14-1.95s-1-.71-1-.52a13,13,0,0,0,0,2.09.94.94,0,0,0,.28.24Z"/><path class="cls-8" d="M554.62,197.6l.92.25a.37.37,0,0,0-.32.16.21.21,0,0,1,.16.28c0,.12-.31,1.32-1.11,1.6s-1.2.12-1.15-.08a13,13,0,0,1,1.07-1.8.94.94,0,0,1,.37-.06Z"/><path class="cls-9" d="M561.68,191.29c-1.45,5.26-2.36,5.54-3.22,6.09s-5.23-1.33-6-1.65-1-.42-.86-.6c1.39-1.32,2.31-4.66,2.65-5.89s1.26-4.57.74-6.42c-.07-.24.23-.19,1-.07s5.53.72,6,1.65S563.12,186,561.68,191.29Z"/><path class="cls-9" d="M534.1,191.42s1.5-.12,10.5,2.36,8.36,3,12.29,4.37l-5.52-1.44c-1.11-.3-11.52-3.28-12.46-3.55A38,38,0,0,1,534.1,191.42Z"/><path class="cls-9" d="M531.05,182.89a14.19,14.19,0,0,0-.62,5.09c.18,1.53.94,1.57,1.19,1.64s4.72,1.08,4.89,1.11,0-.69,0-1.38a34.82,34.82,0,0,1,2.54-9.22c.36-.58.86-1.13.7-1.19s-4.53-1.48-4.77-1.55-.92-.42-1.86.8A14.19,14.19,0,0,0,531.05,182.89Z"/><path class="cls-7" d="M921.28,108c1.46-5.32.3-7.95-.08-8.31a64.26,64.26,0,0,0-6.45-2.61c-.81-.26-21.4-5.6-22.31-5.92a55.43,55.43,0,0,0-5.53-1.71,7.08,7.08,0,0,0-5.6.76c-2.14,1.17-3.29,5.06-3.5,5.84s-1.21,4.71,0,6.81a7.08,7.08,0,0,0,4.43,3.52,55.43,55.43,0,0,0,5.63,1.36c.94.19,21.36,6.13,22.19,6.32a64.26,64.26,0,0,0,6.88,1.05C917.48,115,919.82,113.33,921.28,108Z"/><path class="cls-9" d="M910.86,112.84s-1.23-.87-10.23-3.35-8.7-1.74-12.79-2.53l5.49,1.58c1.1.31,11.58,3.07,12.52,3.32A38,38,0,0,0,910.86,112.84Z"/><path class="cls-8" d="M890.06,107.65l-.92-.25a.37.37,0,0,1,.19.3.21.21,0,0,0-.28.16c0,.11-.41,1.29.14,1.95s1,.71,1,.52a13,13,0,0,0,0-2.09.94.94,0,0,0-.28-.24Z"/><path class="cls-8" d="M894.26,92.36l-.92-.25a.37.37,0,0,0,.32-.16.21.21,0,0,1-.16-.28c0-.12.31-1.32,1.11-1.6s1.2-.12,1.15.08a13,13,0,0,1-1.07,1.8.94.94,0,0,1-.37.06Z"/><path class="cls-9" d="M887.21,98.67c1.45-5.26,2.36-5.54,3.22-6.09s5.23,1.33,6,1.65,1,.42.86.6c-1.39,1.32-2.31,4.66-2.65,5.89s-1.26,4.57-.74,6.42c.07.24-.23.19-1,.07s-5.53-.72-6-1.65S885.76,103.94,887.21,98.67Z"/><path class="cls-9" d="M914.79,98.54s-1.5.12-10.5-2.36-8.36-3-12.29-4.37l5.52,1.44c1.11.3,11.52,3.28,12.46,3.55A38,38,0,0,1,914.79,98.54Z"/><path class="cls-9" d="M917.83,107.07a14.19,14.19,0,0,0,.62-5.09c-.18-1.53-.94-1.57-1.19-1.64s-4.72-1.08-4.89-1.11,0,.69,0,1.38a34.82,34.82,0,0,1-2.54,9.22c-.36.58-.86,1.13-.7,1.19s4.53,1.48,4.77,1.55.92.42,1.86-.8A14.19,14.19,0,0,0,917.83,107.07Z"/><path class="cls-7" d="M665.43,83.39c1.63-5.27.56-7.93.19-8.31a64.26,64.26,0,0,0-6.36-2.82c-.8-.29-21.21-6.29-22.1-6.64a55.43,55.43,0,0,0-5.47-1.89,7.08,7.08,0,0,0-5.62.58c-2.17,1.1-3.45,4.95-3.69,5.72s-1.36,4.67-.19,6.8a7.08,7.08,0,0,0,4.31,3.66A55.43,55.43,0,0,0,632.06,82c.93.22,21.15,6.82,22,7a64.26,64.26,0,0,0,6.84,1.27C661.4,90.24,663.8,88.65,665.43,83.39Z"/><path class="cls-9" d="M654.85,87.87s-1.2-.91-10.12-3.68-8.64-2-12.7-2.94L637.47,83c1.09.35,11.47,3.45,12.41,3.72A38,38,0,0,0,654.85,87.87Z"/><path class="cls-8" d="M634.23,82l-.91-.28a.37.37,0,0,1,.18.31.21.21,0,0,0-.28.15c0,.11-.45,1.28.08,2s.95.74,1,.55a13,13,0,0,0,.07-2.09.94.94,0,0,0-.28-.25Z"/><path class="cls-8" d="M638.93,66.86l-.91-.28a.37.37,0,0,0,.33-.15.21.21,0,0,1-.15-.28c0-.11.35-1.3,1.17-1.57s1.2-.08,1.15.12a13,13,0,0,1-1.12,1.77.94.94,0,0,1-.37,0Z"/><path class="cls-9" d="M631.68,72.95c1.62-5.21,2.54-5.46,3.42-6s5.18,1.5,5.93,1.84,1,.46.84.63c-1.43,1.27-2.46,4.58-2.84,5.8s-1.41,4.53-.95,6.39c.06.25-.24.18-1,0s-5.5-.9-5.93-1.84S630.06,78.16,631.68,72.95Z"/><path class="cls-9" d="M659.25,73.7s-1.5.07-10.42-2.7-8.26-3.22-12.14-4.76l5.47,1.62c1.1.33,11.41,3.65,12.33,4A38,38,0,0,1,659.25,73.7Z"/><path class="cls-9" d="M662,82.33a14.19,14.19,0,0,0,.78-5.07c-.13-1.54-.89-1.6-1.13-1.67s-4.69-1.23-4.86-1.27,0,.69-.05,1.38a34.82,34.82,0,0,1-2.83,9.13c-.38.57-.9,1.1-.74,1.16s4.48,1.63,4.72,1.7.9.45,1.88-.74A14.19,14.19,0,0,0,662,82.33Z"/></g></svg>