<svg xmlns="http://www.w3.org/2000/svg" xmlns:xlink="http://www.w3.org/1999/xlink" viewBox="0 0 1000 500"><defs><style>.cls-1{fill:#d1d3d4;}.cls-2{fill:url(#linear-gradient);}.cls-3{fill:url(#linear-gradient-2);}.cls-4{font-size:40px;}.cls-4,.cls-5,.cls-6,.cls-7{fill:#fff;font-family:Gotham-Bold, Gotham;font-weight:700;}.cls-5{font-size:29.35px;}.cls-6{font-size:20.12px;}.cls-7{font-size:14.02px;}</style><linearGradient id="linear-gradient" x1="1544.47" y1="500.6" x2="1544.47" y2="293.91" gradientTransform="matrix(-1.02, 0.25, -0.42, -1.72, 2210.97, 367.69)" gradientUnits="userSpaceOnUse"><stop offset="0.65" stop-color="#fff"/><stop offset="1" stop-color="#fff" stop-opacity="0"/></linearGradient><linearGradient id="linear-gradient-2" x1="535.23" y1="520.5" x2="535.23" y2="404.19" gradientTransform="matrix(1, -0.11, 0.22, 2.02, -126.06, -440.97)" gradientUnits="userSpaceOnUse"><stop offset="0.46" stop-color="#fff"/><stop offset="1" stop-color="#fff" stop-opacity="0"/></linearGradient></defs><title>industrial-panel-2</title><g id="Industrial_-_Panel_2" data-name="Industrial - Panel 2"><path class="cls-1" d="M69.9,129.64l-18.12,72L-5.89,187.15l-.18.72,57.66,14.51-18.12,72L-5,264.73l-.18.72,38.48,9.68-18.12,72-18.07-4.55-.18.72L15,347.88l-23,91.59.72.18,23-91.59,71.73,18.05L69.34,438,2.61,421.24l-.18.72,66.73,16.79L49.38,517.36l.72.18,19.78-78.61,72,18.12-19.78,78.61.72.18,19.78-78.61,72,18.12L194.87,554l.72.18,19.78-78.61,72,18.12-19.78,78.61.72.18,19.78-78.61L360,511.95l-19.78,78.61.72.18,19.78-78.61,72,18.12L413,608.86l.72.18,19.78-78.61,72,18.12-19.78,78.61.72.18,19.78-78.61,72,18.12-19.78,78.61.72.18L579,567l71.92,18.1-19.78,78.61.72.18,19.78-78.61,72,18.12-19.78,78.61.72.18,19.78-78.61,72,18.12-19.78,78.61.72.18,19.78-78.61L869.05,640l-19.78,78.61.72.18,19.78-78.61,72,18.12L922,737l.72.18,19.78-78.61,22.64,5.7.18-.72-22.64-5.7,18.1-71.92,20.83,5.24.18-.72L961,585.15l18.12-72,19,4.79.18-.72-19-4.79,18.12-72,15.88,4,.18-.72-15.88-4,18.12-72,6.63,1.67.18-.72-6.63-1.67,5.87-23.32-.72-.18-5.87,23.32-72-18.12,18.1-71.92,46.38,11.67.18-.72L961.43,276l18.12-72,36.71,9.24.18-.72-36.71-9.24,18.12-72,18,4.54.18-.72-18-4.54,22.17-88.09-.72-.18-3.83,15.22-71.92-18.1,16.34-64.94-.72-.18L943,39.14,871,21l16.34-64.94-.72-.18L870.27,20.84l-72-18.12,15.62-62.06-.72-.18L797.52,2.53,725.6-15.57,741.94-80.5l-.72-.18L724.88-15.75,669.53-29.67l-.18.72L724.7-15,706.54,57.13,634.52,39l19.11-75.93-.72-.18L633.8,38.82l-72-18.12,10.33-41.07-.72-.18L561.05,20.52,489,2.39l6.09-24.21L494.4-22,488.3,2.21l-71.92-18.1,2.73-10.83-.72-.18-2.73,10.83L325.74-38.7l-.18.72,89.92,22.63-18.12,72-72-18.12,16.2-64.4-.72-.18-16.2,64.4-72-18.12,11.27-44.78-.72-.18L251.87,20.07l-72-18.12,8.05-32-.72-.18-8.05,32L109.55-15.75l-.18.72L178.94,2.48l-18.12,72L89.08,56.45l21.82-86.69-.72-.18L88.36,56.27,16.62,38.22,33.89-30.41l-.72-.18L15.9,38l-20.26-5.1-.18.72,20.26,5.1-18.1,71.92-3.94-1-.18.72,3.94,1L-18,172.73l.72.18,15.43-61.32ZM88.18,57l-18.1,71.92L-1.66,110.87l18.1-71.92Zm72.46,18.23-18.1,71.92L70.8,129.1,88.9,57.18Zm599.8,382.11-72-18.12,18.12-72,72,18.12Zm18.85-71.84,72,18.12-18.12,72-72-18.12Zm35.86-145.57L797,311.85l-72-18.12,18.1-71.92ZM743.3,221.08l18.12-72,72,18.12-18.12,72ZM361.31,203l71.92,18.1-18.12,72L343.19,275Zm-18.85,71.84-72-18.12,18.12-72,72,18.12ZM434,221.25l72,18.12-18.12,72-72-18.12ZM633.35,348l-72-18.12,18.12-72,72,18.12Zm18.85-71.84,71.92,18.1-18.12,72-71.92-18.1ZM560.6,329.7l-72-18.12,18.12-72,72,18.12ZM434.14,220.53l18.1-71.92,72,18.12-18.1,71.92ZM525,166.91,597,185,578.91,257l-72-18.12Zm72.75,18.31,72,18.12-18.1,71.92-72-18.12Zm72.75,18.31,71.92,18.1-18.1,71.92-71.92-18.1Zm126.39,109-18.12,72-72-18.12,18.12-72ZM687.69,439l-71.92-18.1,18.12-72L705.81,367ZM615,420.75l-72-18.12,18.12-72,72,18.12ZM542.3,402.45l-72-18.12,18.12-72,72,18.12Zm-72.75-18.31-72-18.12,18.12-72,72,18.12ZM396.8,365.84l-71.92-18.1,18.12-72,71.92,18.1Zm-72.64-18.28-72-18.12,18.12-72,72,18.12Zm-72.75-18.31-72-18.12,18.12-72,72,18.12ZM197.7,238.38l18.12-72,72,18.12-18.12,72ZM216,165.64l18.1-71.92,72,18.12L288,183.76ZM306.85,112l72,18.12-18.1,71.92-72-18.12Zm72.75,18.31,71.92,18.1-18.1,71.92-71.92-18.1Zm.18-.72,18.12-72,71.92,18.1-18.12,72Zm90.77-53.74,72,18.12-18.12,72-72-18.12Zm72.75,18.31,72,18.12-18.12,72-72-18.12ZM616,112.47l72,18.12-18.12,72-72-18.12Zm72.75,18.31,71.92,18.1-18.12,72-71.92-18.1Zm.18-.72,18.12-72L779,76.13l-18.12,72Zm90.77-53.74,72,18.12-18.12,72-72-18.12Zm72.75,18.31,72,18.12-18.12,72-72-18.12Zm53.72,90.87-18.12,72-72-18.12,18.12-72Zm-18.31,72.75-18.1,71.92-72-18.12,18.1-71.92ZM869.6,330.87l-18.12,72-72-18.12,18.12-72Zm.72.18,71.92,18.1-18.12,72-71.92-18.1Zm53.62,90.84-18.12,72-71.92-18.1,18.12-72Zm-18.31,72.75-18.12,72-71.92-18.1,18.12-72Zm-90.77,53.74-72-18.12,18.12-72,72,18.12Zm-72.75-18.31L670.1,512l18.12-72,72,18.12Zm-72.75-18.31-71.92-18.1,18.12-72,71.92,18.1ZM596.74,493.5l-72-18.12,18.12-72,72,18.12ZM524,475.19l-72-18.12,18.12-72,72,18.12Zm-72.75-18.31-72-18.12,18.12-72,72,18.12ZM378.5,438.58l-71.92-18.1,18.12-72,71.92,18.1ZM305.86,420.3l-72-18.12,18.12-72,72,18.12ZM233.11,402l-72-18.12,18.12-72,72,18.12Zm-72.75-18.31-72-18.12,18.12-72,72,18.12Zm-53.72-90.87,18.12-72,72,18.12-18.12,72ZM125,220.08l18.12-72,72,18.12L197,238.2Zm18.31-72.75,18.1-71.92,72,18.12-18.1,71.92ZM251.68,20.79l-18.12,72-72-18.12,18.12-72Zm72.75,18.31-18.12,72L234.28,93l18.12-72ZM397.17,57.4l-18.12,72L307,111.3l18.12-72ZM488.12,2.93,470,75l-71.92-18.1,18.12-72Zm72.75,18.31-18.12,72-72-18.12,18.12-72Zm72.75,18.31-18.12,72-72-18.12,18.12-72Zm72.75,18.31-18.12,72-72-18.12,18.12-72Zm91-54.59L779.19,75.41l-71.92-18.1,18.16-72.15Zm72.75,18.31L851.93,93.71l-72-18.12L798.06,3.44Zm72.75,18.31L924.68,112l-72-18.12,18.16-72.15Zm54.49,90.43L925.4,112.2,943.56,40l71.92,18.1ZM979,203l-71.92-18.1,18.12-72L997.14,131Zm-18.31,72.74-71.92-18.1,18.12-72,71.92,18.1Zm-18.28,72.64-71.92-18.1,18.1-71.92,71.92,18.1Zm54.44,91.05-72-18.12,18.12-72,72,18.12Zm-18.3,72.75-72-18.12,18.12-72,72,18.12ZM960.26,585l-72-18.12,18.12-72,72,18.12ZM870,639.49l18.1-71.92,72,18.12L942,657.62Zm-72.64-18.28,18.1-71.92,71.92,18.1-18.1,71.92Zm-72.75-18.31L742.67,531l72,18.12L796.59,621ZM651.82,584.6l18.1-71.92,72,18.12-18.1,71.92Zm-72.64-18.28,18.1-71.92,71.92,18.1-18.1,71.92ZM506.43,548l18.1-71.92,72,18.12-18.1,71.92Zm-72.75-18.31,18.1-71.92,72,18.12-18.1,71.92Zm-72.75-18.31L379,439.49l72,18.12L433,529.53ZM288.3,493.13l18.1-71.92,71.92,18.1-18.1,71.92Zm-72.75-18.31,18.1-71.92,72,18.12-18.1,71.92Zm-72.75-18.31,18.1-71.92,72,18.12-18.1,71.92ZM88.16,366.29l72,18.12-18.1,71.92-72-18.12ZM34,275.31l71.73,18.05-18.12,72L15.88,347.34Zm18.31-72.75L124,220.62l-18.12,72L34.19,274.59Zm18.31-72.75,71.73,18.05-18.12,72L52.49,201.84Z"/><polygon class="cls-2" points="-0.17 -0.69 998.38 0 998.04 130.48 3.86 373.39 -0.17 -0.69"/><polygon class="cls-3" points="1000 500 -0.72 500 -14.6 373.47 1008.83 261.16 1000 500"/><text class="cls-4" transform="translate(848.16 312.17) rotate(71.76)">3.4 M</text><text class="cls-4" transform="translate(569.35 429.86) rotate(71.76)">6%</text><text class="cls-5" transform="translate(604.55 209.95) rotate(36.97)">3.4 M</text><text class="cls-5" transform="translate(485.79 397.61) rotate(36.97)">6%</text><text class="cls-6" transform="translate(413.28 264.91) rotate(-0.13)">3.4 M</text><text class="cls-6" transform="translate(425.94 416.61) rotate(-0.13)">6%</text><text class="cls-7" transform="translate(328.07 377.2) rotate(-34.48)">3.4 M</text><text class="cls-7" transform="translate(394.97 459.47) rotate(-34.48)">6%</text></g></svg>