<?xml version="1.0" encoding="utf-8"?>
<!-- Generator: Adobe Illustrator 20.0.0, SVG Export Plug-In . SVG Version: 6.00 Build 0)  -->
<svg version="1.1" id="Layer_1" xmlns="http://www.w3.org/2000/svg" xmlns:xlink="http://www.w3.org/1999/xlink" x="0px" y="0px"
	 viewBox="0 0 710.1 546" style="enable-background:new 0 0 710.1 546;" xml:space="preserve">
<style type="text/css">
	.st0{fill:#73CBCB;stroke:#FFFFFF;stroke-width:1.68;stroke-miterlimit:10;}
	.st1{fill:#DEEDE7;}
	.st2{fill:#576571;}
	.st3{fill:#73CBCB;stroke:#FFFFFF;stroke-width:2.42;stroke-miterlimit:10;}
	.st4{fill:#73CBCB;stroke:#FFFFFF;stroke-width:3.23;stroke-miterlimit:10;}
	.st5{fill:#FFFFFF;}
	.st6{font-family:'Gotham-Bold';}
	.st7{font-size:40px;}
	.st8{font-size:29.35px;}
	.st9{font-size:20.12px;}
	.st10{font-size:14.02px;}
</style>
<title>industrial-panel-2_Industrial - Panel 2 -3</title>
<g id="Industrial_-_Panel_2">
	<polygon class="st0" points="158.7,549.7 0,426.4 101.7,357 	"/>
	<polygon class="st1" points="159,549.5 31.3,450 112.7,394.4 	"/>
	<polygon class="st2" points="159,549.5 85.8,492.5 132.5,460.6 	"/>
	<polygon class="st3" points="160.8,549.7 75.7,272.2 253.4,274.6 	"/>
	<polygon class="st1" points="161.2,549.7 93.3,326.1 235.2,328 	"/>
	<polygon class="st2" points="161.2,549.7 122.3,421.5 203.6,422.6 	"/>
	<polygon class="st3" points="156.5,549.3 287.5,166.7 486,314.9 	"/>
	<polygon class="st1" points="157,549.7 263.1,241.7 422,360.3 	"/>
	<polygon class="st2" points="157,549.7 217.8,373.2 308.9,441.1 	"/>
	<polygon class="st4" points="161.1,548.9 606.7,228.2 710.1,548.2 	"/>
	<polygon class="st1" points="161.3,549.7 520.8,292.1 603.5,548.2 	"/>
	<polygon class="st2" points="161.3,549.7 367.4,402 414.8,548.8 	"/>
	<circle class="st5" cx="160.9" cy="544.5" r="22.6"/>
	<text transform="matrix(0.3122 0.95 -0.95 0.3122 446.0401 399.56)" class="st2 st6 st7">2.4 M</text>
	<text transform="matrix(0.8 0.6 -0.6 0.8 268.72 332.6799)" class="st2 st6 st8">2.4 M</text>
	<text transform="matrix(1 -1.396263e-03 1.396263e-03 1 135.17 376.47)" class="st2 st6 st9">2.4 M</text>
	<text transform="matrix(0.8249 -0.5653 0.5653 0.8249 75.4801 460.7799)" class="st2 st6 st10">2.4 M</text>
	<text transform="matrix(0.313 0.9498 -0.9498 0.313 569.6096 358.17)" class="st5 st6 st7">3.4 M</text>
	<text transform="matrix(0.313 0.9498 -0.9498 0.313 290.8 475.86)" class="st5 st6 st7">6%</text>
	<text transform="matrix(0.799 0.6014 -0.6014 0.799 326.0001 255.95)" class="st5 st6 st8">3.4 M</text>
	<text transform="matrix(0.799 0.6014 -0.6014 0.799 207.2399 443.6101)" class="st5 st6 st8">6%</text>
	<text transform="matrix(1 -2.268926e-03 2.268926e-03 1 134.73 310.91)" class="st5 st6 st9">3.4 M</text>
	<text transform="matrix(1 -2.268926e-03 2.268926e-03 1 147.39 462.61)" class="st5 st6 st9">6%</text>
	<text transform="matrix(0.8243 -0.5661 0.5661 0.8243 49.5199 423.2001)" class="st5 st6 st10">3.4 M</text>
	<text transform="matrix(0.8243 -0.5661 0.5661 0.8243 116.4201 505.4701)" class="st5 st6 st10">6%</text>
</g>
</svg>
