<svg id="Layer_1" data-name="Layer 1" xmlns="http://www.w3.org/2000/svg" viewBox="0 0 239.5 145.5"><defs><style>.cls-1{fill:#fff;}</style></defs><title>best-place-words-01</title><path class="cls-1" d="M34.08,35.87c-.11,0-2.85,4.66-3,5.13-2,5.17-4.26,8.24-5.92,8.42-2.39.25-3.14-8.81-7.77-11.85a12.82,12.82,0,0,0-3.54-1.48l-.33,2.13a6.41,6.41,0,0,1-.36,1.45,15.61,15.61,0,0,0-.61,4.69c-.07,1.41-.22,2.86-.36,4.27a9.81,9.81,0,0,1-.08,1.08c-.07.62-.14,1.23-.18,1.84,0,.22-.1.29-.25.4s-.22,0-.29-.11c-1.23.44-4-.94-4-1.15a39.19,39.19,0,0,1-.47-7.88c0-4.91-.32-9.86.18-14.74.15-1.27.36-2.5.51-3.76l.21-2.13a19.34,19.34,0,0,1,.73-3.8c.54-1.22,4.15-2.53,4.15.76a22.48,22.48,0,0,0,.4,2.75l.43,1.84.11.65a3,3,0,0,0,.18.58.14.14,0,0,0,.11,0,.34.34,0,0,1,.07-.15c1.05-2.2,6.36-6.47,9.83-3.25a3,3,0,0,1,.91,1.08,4.66,4.66,0,0,1,.39,1,6.49,6.49,0,0,1-.32,4.66,13.69,13.69,0,0,1-3.91,5.17,2.13,2.13,0,0,1-.39.25A13.33,13.33,0,0,1,17,35.22a.56.56,0,0,1-.21.11c.43.25.83.51,1.19.76s.9.72,1.37,1.12c.29.25.58.58.87.87a.15.15,0,0,1,.07,0,10.27,10.27,0,0,1,1.74,3c.1.36.25.72.36,1.09a1,1,0,0,1,0,.28l.29,1.05c.18.58,1.09,4.23,1.41,4.48.15.15.33.29.51.44.61.83,1.69.1,2.27-.55a10.45,10.45,0,0,0,1.81-2.81C30,42.12,34.08,35.22,34.08,35.87ZM16.56,34c.83-.39,1.66-.5,2.24-1.23s1.12-1.55,1.66-2.34a1.87,1.87,0,0,0,.32-1L21,26.33c0-.18,0-.36.07-.54a7.92,7.92,0,0,0,.18-2.2,3.67,3.67,0,0,0-.54-2.13.61.61,0,0,0-.65-.26,5,5,0,0,0-.83.22c-.47.18-.94.4-1.38.58-2.78,1.26-3.94,2.85-3.68,6.43a.59.59,0,0,0-.08.36A17.81,17.81,0,0,1,14,31.61a17.8,17.8,0,0,1-.07,2.06A6.89,6.89,0,0,0,14,35.15l.22,0C15,34.72,15.8,34.35,16.56,34Z"/><path class="cls-1" d="M51.82,45.27a22.58,22.58,0,0,1-2.2,2.6c-2.75,2.78-9,3.36-12.43,1.52A6.6,6.6,0,0,1,34,46.28,11.79,11.79,0,0,1,33,42.23a11.59,11.59,0,0,1,.36-3.32,4.32,4.32,0,0,1,.54-1.12,8.72,8.72,0,0,1,1.77-2.42,12.76,12.76,0,0,1,1.74-1.27c.07,0,1-.29,1.44-.4-.22-.14-.36-.25-.5-.32a7.21,7.21,0,0,1-2.86-2.75,5.72,5.72,0,0,1-.65-3.1,7.11,7.11,0,0,1,1.63-4.27,11.41,11.41,0,0,1,.83-1c.54-.54,2-2.38,6.61-3a6.31,6.31,0,0,1,2.49-.76c6.29-.21,5.57,1.52,6,1.77a.48.48,0,0,1,.1.15,3.78,3.78,0,0,1,.51,1.05,1.67,1.67,0,0,1-.18,1.37,4.88,4.88,0,0,1-.9,1.08,7.59,7.59,0,0,1-3.29,1.59A4.57,4.57,0,0,1,45,24.24c-.72-1-1-1-1.26-.87-.08.36-.51.69-.91,1.08s-.54.84-.86,1.2c-1.45,1.73-1.38,5,.5,6.39,3.47,2.64,3.9,1.48,4.19,1.59s.73.22.62.54-1.63.87-2,.76a1.48,1.48,0,0,0-1.16.22A6,6,0,0,0,42,37a12.6,12.6,0,0,0-1.19,3,8.11,8.11,0,0,0-.62,3.32,5.59,5.59,0,0,0,2.32,4.3,6.47,6.47,0,0,0,5.06.5c1.91-.68,3-2.34,4.3-3.9A14.11,14.11,0,0,0,55.5,35.4C56.84,34.72,55.72,39.67,51.82,45.27Zm-5.1-20.56a3,3,0,0,0,1.78.11c3.72-.4,5.23-5.32-1.74-4.23-.25,0-4.3,1.73-.76,3.61C46.25,24.38,46.47,24.56,46.72,24.71Z"/><path class="cls-1" d="M71.73,46.86c-.11.25-.18.54-.29.83A3.33,3.33,0,0,1,71,48.88c-.22.36-.47.72-.69,1.12l-.25.36-.36.36c-2.39,2.93-8.64,2.78-9.4,2.78a9.44,9.44,0,0,1-3.18-.43L56,52.64a11.41,11.41,0,0,1-1-.58,3.51,3.51,0,0,1-1.85-2.64,3.79,3.79,0,0,1,0-1.08,7.27,7.27,0,0,1,.36-1.05,7.93,7.93,0,0,1,1.27-2.06,11.19,11.19,0,0,1,1.77-1.73,9.77,9.77,0,0,1,1.62-1.09L60,41.54c.47-.21.91-.39,1.34-.61s.9-.4,1.34-.61c.07,0,.11,0,.11,0l.1-.07c0-.07,0-.18,0-.22-.29-.5-.54-1-.8-1.52a16.7,16.7,0,0,0-3.18-4.12c-.94-1-1.84-2.09-2.74-3.14-1.34-1.52-2.93-3-3.18-5.13a8,8,0,0,1,.18-2.82,13.17,13.17,0,0,1,1-3,12.3,12.3,0,0,1,6.29-4.41,38.94,38.94,0,0,1,6.11-.5,10.35,10.35,0,0,1,3,.4,5.56,5.56,0,0,1,2.09,1c.44.33,1.12.62,1.12,1.23,0,.8-2-.61-3.79-.61a5.78,5.78,0,0,0-.72,0c-.8.11-1.63.25-2.42.44-.33.07-.69.21-1.09.32a10.13,10.13,0,0,0-2.46,1.05,4.86,4.86,0,0,0-1,.87,5,5,0,0,0-.9.94,2.4,2.4,0,0,0-.43.86,9,9,0,0,0-.22,1.48,18.88,18.88,0,0,0,0,2A3,3,0,0,0,60,26.44a7,7,0,0,0,1.12,1.66C62.59,30.16,64.36,32,66,34c.72.87.79,1.37,1.55,2.17a7.31,7.31,0,0,1,1.23,1.55l.14.22a1.82,1.82,0,0,1,.19.29A17.08,17.08,0,0,0,72.63,37c.65-.33,1.3-.69,2-1.09.11,0,1.23-.65,1.37-.72a2,2,0,0,1,.26-.14c.86-.47,1.19-.69.86,0A37.3,37.3,0,0,0,73.46,37c-.61.36-2.38.91-3.76,1.7l1.63,3.9a5.31,5.31,0,0,1,.14.76c.08.22.11.47.18.72a6.4,6.4,0,0,1,.08.87c0,.29,0,.58.07.83V46A1.73,1.73,0,0,1,71.73,46.86Zm-6.9-1.81a5.29,5.29,0,0,0-.62-1.63c-.25-.5-.87-2.06-1.08-2.63a.09.09,0,0,1-.07,0s-.08,0-.15,0a.21.21,0,0,0-.14.07c-.51.22-.65.29-1.12.47s-.94.47-1.45.68c-.25.11-.51.29-.79.4-3.51,1.19-8.13,7.34-3.47,8.85a6,6,0,0,0,1.59.55,1.74,1.74,0,0,0,.65.14,3.55,3.55,0,0,0,.68.07,3.82,3.82,0,0,0,1.7-.18,8.55,8.55,0,0,0,1.59-.68,6.87,6.87,0,0,0,1.66-1.34,4.4,4.4,0,0,0,.91-2A7,7,0,0,0,65,46.46,3.93,3.93,0,0,0,64.83,45.05Z"/><path class="cls-1" d="M92.86,45.7a5.82,5.82,0,0,1-3.36-3.29A16.86,16.86,0,0,1,88.24,38c-.11-.69-.25-1.41-.36-2.13s-.11-3.8-.08-4.63a9.9,9.9,0,0,0,0-1.55,15.77,15.77,0,0,1,.25-3.4,16.29,16.29,0,0,1,.8-2.71,4.2,4.2,0,0,1,1.26-1.77c.33-.29.65-.61,1-.87a4.36,4.36,0,0,1,2.78-.47c3.51,0,4,4.23,3.8,10.88A49.54,49.54,0,0,1,95.86,42a.42.42,0,0,1,0,.19c-.15.47,0,0,.21,1.48.94,4.4,7-1.3,10.19-8.06a2.08,2.08,0,0,1,0,.5c-.14.4-.29.76-.47,1.16a17.16,17.16,0,0,1-5,6.83,11.57,11.57,0,0,1-2.64,1.55,12,12,0,0,1-3.18.62c-.18,0-.61-.07-.72.07-3.07,2.64-1.37,2-3.94,3.83a6.23,6.23,0,0,1-2.89,1.08c-.47,0-.94.08-1.41.15-3,.36-7-.8-8.56-3.47a11.73,11.73,0,0,1-1.12-2.71,27.73,27.73,0,0,1-1-4.15,13.58,13.58,0,0,1,.07-3.37c.08-.54.11-1.08.18-1.62.18-1.05.36-4.3.58-5.35a22.27,22.27,0,0,1,.58-2.6,9.42,9.42,0,0,1,1.16-2.78A3.82,3.82,0,0,0,78,25a19.77,19.77,0,0,1,1.56-2.61,10.24,10.24,0,0,1,3.25-3.1c3-1.85,7.3-2.28,10.08-2.28a.48.48,0,0,1,.58,0,1.36,1.36,0,0,0,.4.25.32.32,0,0,1,.18.4.75.75,0,0,1-.29.36c-.44.25-4.12-.54-7.37,4.62l-.15.22A1.39,1.39,0,0,0,85.71,24a.57.57,0,0,1-.07.22,4.88,4.88,0,0,0-.36,1.66,1.85,1.85,0,0,1-.08.47c-.25.76-.47,1.52-.68,2.24a5.38,5.38,0,0,0-.18.87c-.4,1.88-.73,5.93-1,7.81a23.75,23.75,0,0,0-.22,5,9.46,9.46,0,0,0,1.12,4.2.46.46,0,0,1,.07.25,5,5,0,0,0,2.61,3c1.91,1,4.91-1.74,6.17-3.94C93,45.74,92.94,45.7,92.86,45.7Zm2-3.83c.21-.72.47-1.45.65-2.17,1-3.14,1.59-11.31,1-14.56-.72-3.79-3.72-4.77-4.22.29a28.11,28.11,0,0,0,0,3.18c.1,1.84.21,3.65.54,7.62a9,9,0,0,0,.25,2,22.63,22.63,0,0,0,.72,2.2,6,6,0,0,0,.26.66,11.67,11.67,0,0,0,.54,1.19h.11A1.62,1.62,0,0,0,94.89,41.87Z"/><path class="cls-1" d="M110.71,44.33c.83-1,1.66-2.17,2.46-3.29s1.66-2.46,2.46-3.69a2.59,2.59,0,0,0,.32-.72l.65-3c.07-.4.11-.8.15-1.2,0-.14.61-3.25.68-3.72a9.52,9.52,0,0,0,.54-2.27c0-3,6.29-8,6.29-2.71,0,.14,0,.32,0,.47a1.37,1.37,0,0,0,.19,1.12c.14.14.1.32.07.5a52.35,52.35,0,0,0-1,8.2c-.29,2.64-.55,5.31-.84,7.95-.17,1.56-.36,3.11-.68,4.63-.22,1.19-.54,2.35-.83,3.54a5.49,5.49,0,0,0-.18,2.42l.11.47c.14.47,1.08.65,1.51.4,2.21-1.3,3.8-4.59,4.84-6.8a85,85,0,0,0,3.29-8.23c.36-1,.83-3.15,1.56-2.68-2.17,6-4.16,12.39-8.53,17.38-5.93,6.76-10.55,1.92-9.18-5.85a18.16,18.16,0,0,0,.29-2.46,20.15,20.15,0,0,1,.4-2.53c.07-.69.14-1.34.18-2a1.49,1.49,0,0,0-.11-.61c-.11.14-.22.22-.25.33-.36.5-.69,1-1,1.58-.22.37-.43.69-.69,1.05-4.22,6.18-9.21,7.74-10.33,6.72a3.69,3.69,0,0,1-1.08-2.78c0-.4-.08-.83-.08-1.23a7.65,7.65,0,0,1,0-.83l.22-1.55a1.83,1.83,0,0,0,.07-.65,13.45,13.45,0,0,1,.33-3c.11-.79.21-1.59.36-2.38a14.18,14.18,0,0,0,.32-1.88,34.57,34.57,0,0,1,1-5.46c.28-1.33.5-2.63.68-3.93a10.19,10.19,0,0,0,.25-3c-.18-1.12-.57-2.28.66-2.32.54,0,1.77.08,2.13.58a.26.26,0,0,0,.14.15,1.53,1.53,0,0,1,.69,1.08c0,.18.11.33.14.47a5.11,5.11,0,0,1,.15,1.45,38.65,38.65,0,0,1,0,5.38c-.29,3.58-1.52,7-2.24,10.52-.25,1.15-.51,2.27-.72,3.43-.11.76-.4,3.72.32,4C107.39,47.83,110.21,45,110.71,44.33Z"/><path class="cls-1" d="M156.6,35.87c-.11,0-2.86,4.66-3,5.13-2,5.17-4.26,8.24-5.92,8.42-2.39.25-3.15-8.81-7.77-11.85a12.82,12.82,0,0,0-3.54-1.48L136,38.22a6.41,6.41,0,0,1-.36,1.45,15.61,15.61,0,0,0-.61,4.69c-.07,1.41-.22,2.86-.36,4.27a9.81,9.81,0,0,1-.08,1.08c-.07.62-.14,1.23-.18,1.84,0,.22-.11.29-.25.4s-.22,0-.29-.11c-1.23.44-4-.94-4-1.15a37.77,37.77,0,0,1-.47-7.88c0-4.91-.32-9.86.18-14.74.15-1.27.36-2.5.51-3.76l.21-2.13a19.34,19.34,0,0,1,.73-3.8c.54-1.22,4.15-2.53,4.15.76a22.48,22.48,0,0,0,.4,2.75l.43,1.84.11.65a3,3,0,0,0,.18.58.13.13,0,0,0,.11,0,.34.34,0,0,1,.07-.15c1.05-2.2,6.36-6.47,9.83-3.25a2.84,2.84,0,0,1,.9,1.08,4.69,4.69,0,0,1,.4,1,6.49,6.49,0,0,1-.32,4.66,13.69,13.69,0,0,1-3.91,5.17,2.13,2.13,0,0,1-.39.25,13.33,13.33,0,0,1-3.51,1.48.54.54,0,0,1-.22.11c.44.25.84.51,1.2.76s.9.72,1.37,1.12c.29.25.58.58.87.87a.15.15,0,0,1,.07,0,10,10,0,0,1,1.73,3c.11.36.26.72.37,1.09a1,1,0,0,1,0,.28l.29,1.05c.18.58,1.08,4.23,1.41,4.48a5.79,5.79,0,0,0,.51.44c.61.83,1.69.1,2.27-.55a10.45,10.45,0,0,0,1.81-2.81C152.48,42.12,156.6,35.22,156.6,35.87ZM139.07,34c.84-.39,1.67-.5,2.24-1.23s1.12-1.55,1.67-2.34a1.87,1.87,0,0,0,.32-1l.25-3.11c0-.18,0-.36.08-.54a7.92,7.92,0,0,0,.18-2.2,3.75,3.75,0,0,0-.54-2.13.61.61,0,0,0-.65-.26,5.44,5.44,0,0,0-.84.22c-.47.18-.94.4-1.37.58-2.78,1.26-3.94,2.85-3.68,6.43a.59.59,0,0,0-.08.36,17.81,17.81,0,0,1-.18,2.82,20.35,20.35,0,0,1-.07,2.06,6.89,6.89,0,0,0,.11,1.48l.22,0C137.52,34.72,138.32,34.35,139.07,34Z"/><path class="cls-1" d="M169.89,28.54l-.25-.51a8.76,8.76,0,0,0,.72-2.78,5.62,5.62,0,0,0-.14-1.92c-.33-1.37-2.1-.57-2.78,0a6.4,6.4,0,0,0-1.16,1.73A37.31,37.31,0,0,0,164.4,29c-.4,1-.76,2-1.19,2.93a27.63,27.63,0,0,0-1,2.82c-.5,2-1.19,4-1.51,6.07-.11.75-.22,1.59-.29,2.34-.08,1.12.11,2.17.07,3.26a1.8,1.8,0,0,0,1.44,1.84,5.72,5.72,0,0,0,3.29-.4,10.58,10.58,0,0,0,2.39-1.73,27.34,27.34,0,0,0,3.1-2.68,21.2,21.2,0,0,0,3.18-3.65c.65-1.12,2.32-3.93,2.79-4a1.19,1.19,0,0,0,0,.33c0,.07-.14.18-.11.25.11.44-.18.76-.36,1.09a9.65,9.65,0,0,1-.65,1c-1,1.48-2.57,3.21-3.72,4.59-2.78,3.21-5.39,6.25-9.36,7.87a8,8,0,0,1-3.07.33c-1.7,0-4.55-2-5-5.82-.51-4,.25-8,1.19-11.89.36-1.51.72-3,1.23-4.44,1-2.82,2-5.46,4.26-7.52a8.9,8.9,0,0,1,3.43-1.88c5-1.44,7.45,2.17,7.63,2.79a5,5,0,0,1,.14,1,10.13,10.13,0,0,1,.07,1.09,5.43,5.43,0,0,1-.14,1,6.11,6.11,0,0,1-.69,2.1l-.21.36a7.9,7.9,0,0,1-.62.86l-.58-.18A.53.53,0,0,1,169.89,28.54Z"/><path class="cls-1" d="M194.68,45.27a22.58,22.58,0,0,1-2.2,2.6c-2.75,2.78-9,3.36-12.43,1.52a6.6,6.6,0,0,1-3.15-3.11,11.79,11.79,0,0,1-1.08-4.05,11.59,11.59,0,0,1,.36-3.32,4.32,4.32,0,0,1,.54-1.12,8.72,8.72,0,0,1,1.77-2.42,12.76,12.76,0,0,1,1.74-1.27c.07,0,1-.29,1.44-.4a5.46,5.46,0,0,0-.5-.32,7.21,7.21,0,0,1-2.86-2.75,5.72,5.72,0,0,1-.65-3.1,7.11,7.11,0,0,1,1.63-4.27,11.41,11.41,0,0,1,.83-1c.54-.54,2-2.38,6.61-3a6.31,6.31,0,0,1,2.49-.76c6.29-.21,5.57,1.52,6,1.77a.48.48,0,0,1,.1.15,3.78,3.78,0,0,1,.51,1.05,1.67,1.67,0,0,1-.18,1.37,4.88,4.88,0,0,1-.9,1.08,7.59,7.59,0,0,1-3.29,1.59,4.57,4.57,0,0,1-3.58-1.26c-.72-1-1-1-1.26-.87-.08.36-.51.69-.91,1.08s-.54.84-.86,1.2c-1.45,1.73-1.38,5,.5,6.39,3.47,2.64,3.9,1.48,4.19,1.59s.73.22.62.54-1.63.87-2,.76a1.48,1.48,0,0,0-1.16.22A6,6,0,0,0,184.85,37a12.6,12.6,0,0,0-1.19,3,8.11,8.11,0,0,0-.62,3.32,5.59,5.59,0,0,0,2.32,4.3,6.47,6.47,0,0,0,5.06.5c1.91-.68,3-2.34,4.3-3.9a14.23,14.23,0,0,0,3.65-8.78C199.7,34.72,198.58,39.67,194.68,45.27Zm-5.1-20.56a3,3,0,0,0,1.78.11c3.72-.4,5.23-5.32-1.74-4.23-.25,0-4.3,1.73-.76,3.61C189.12,24.38,189.33,24.56,189.58,24.71Z"/><path class="cls-1" d="M210.92,39.46c.12-.2.14-.33.12-.35s0,.2,0,.3-.07.27-.1.37-.39.93-.45,1l-.64,1.32a7.63,7.63,0,0,1-2.65,3.38c-.35.2-1.93.67-2.65.12-.93-.25-1.1-2.52-1.1-3.22,0-.4,0-.83,0-1.25a14.33,14.33,0,0,1,.07-2.07c.05-.35.08-.7.13-1.05a5.68,5.68,0,0,1,.15-1c.1-.3.2-.57.3-.9.52-.75.82-1.12,2-.5a.4.4,0,0,1,.25.2c0,.15.13.23.2.4a.52.52,0,0,1,.08.23,5.08,5.08,0,0,0,.07.67,11.27,11.27,0,0,1,0,1.3,1.2,1.2,0,0,1,0,.53,1,1,0,0,0,0,.3,1.66,1.66,0,0,1,0,.7,5.29,5.29,0,0,0-.07.92v.32s0,0,0,.06a3.12,3.12,0,0,1-.05.82.38.38,0,0,1,0,.15,1.05,1.05,0,0,1,.05.45,1.53,1.53,0,0,0,0,.47,2.8,2.8,0,0,1,0,.8c.08.65.13.78.65.93.75.22,1.4-.65,2.35-2.48l.78-1.5.47-1A1.88,1.88,0,0,0,210.92,39.46Zm-5.78-6.53c2.33-.62,1.5,1,1.23,1.18a2.07,2.07,0,0,1-1.58.15,1,1,0,0,1-.25-.33.64.64,0,0,1-.17-.52c0-.13-.13-.48.4-.48A1.52,1.52,0,0,0,205.14,32.93Z"/><path class="cls-1" d="M215.44,41.15c-.12.08-.1.15,0,.28a11.84,11.84,0,0,0,1.32,1.37,1.16,1.16,0,0,0,.13.2,3.93,3.93,0,0,1,.5,1,1.32,1.32,0,0,1,.05.52.86.86,0,0,0,.07.5,5.17,5.17,0,0,1-.12,3.25c-.33,1.05-2.55,1.55-3.32,2.25a3,3,0,0,1-2,.53,2.69,2.69,0,0,1-1.75-.93.26.26,0,0,0-.15-.12,1.06,1.06,0,0,1-.28-.28.76.76,0,0,0-.2-.2.43.43,0,0,1-.15-.27,5,5,0,0,1,1.13-3.78,3,3,0,0,0,.32-.45c.15-.15.28-.32.43-.5.35-.37.72-.72,1.05-1.12a1,1,0,0,1,.2-.2,5.38,5.38,0,0,0-.53-.6l-1.27-1.23a7.29,7.29,0,0,1-1-1,11.29,11.29,0,0,1-1.25-1.72,4.31,4.31,0,0,1-.42-1.57,2,2,0,0,1,.07-.55,3.15,3.15,0,0,1,.78-1.58c.22-.3,1.4-2.25,3.55-.42a8,8,0,0,1,1.37,1c.23.15.2.3,0,.4s-1-.42-1.28-.4l-.25.13a1.49,1.49,0,0,0-.42.62,1.75,1.75,0,0,1-.13.28,1,1,0,0,0-.05.65.92.92,0,0,0,.23.42.12.12,0,0,1,0,0,4.78,4.78,0,0,0,.6.78l.25.22c.45.43,1,.8,1.43,1.25.25.25.85,1,.94,1.07.16-.07.58-.15.78-.22a7.75,7.75,0,0,0,1.2-.43c.42-.1,1.47-1.22,1.6-1.27.55-.22.17,0,.32,0L218,40C217,40.88,215.67,40.93,215.44,41.15Zm-1.55,5.48a4.67,4.67,0,0,0-.2-1.58l-.05-.2a6.27,6.27,0,0,0-.75-1.37s0,0-.07,0-.58.55-.93.87-.57.65-.5.6a4.45,4.45,0,0,0-.8,1,2.82,2.82,0,0,0-.45.8c-.12.12-.07.12-.12.3s-.15.42-.2.62a4.36,4.36,0,0,0,0,1.25c.13,1.18,1.65,2.15,3.33,1.35C214.49,49.63,213.92,47,213.89,46.63Z"/><path class="cls-1" d="M223.62,42.78a1.51,1.51,0,0,1-1.45-.63,1.32,1.32,0,0,1-.25-.55,3.37,3.37,0,0,1,0-1.67c0-.25.07-.5.12-.75l.23-.75c.1-.3.22-.6.3-.9a4.32,4.32,0,0,1,.87-1.62,4.6,4.6,0,0,1,1.88-1.43,3.17,3.17,0,0,1,2.42.2c1.12.53-.5.58-1.15.58-2.47,0-3,2.5-3.4,3.5-.52,1.7-.4,4.22,1.93,3.44,1-.32.82-1.64,1.12-2.17a4.74,4.74,0,0,0,.15-.57,4.78,4.78,0,0,1,.15-.6c.08-.3.2-.6.3-.9s.22-.63.3-1c.28-.88,4-4.08,3.27-.28l.08.15c.05.25-.18.48-.05.73a2.29,2.29,0,0,1,0,.37,11,11,0,0,1-.3,1.78c-.1.59-.1,1-.2,1.59,0,.2-.1.38-.13.58-.1.7-1.22,4.07,0,3.72,2.13-.62,4.1-6.59,4.23-6.62s.17,0,.15.15a1.56,1.56,0,0,1-.1.45,17.36,17.36,0,0,0-.85,1.87c-.65,1.5-1.83,3.88-3.48,4.48-3.34,1.22-4,.2-4-2.48a12.78,12.78,0,0,1,.12-1.4v-.22l-.2.17A3.69,3.69,0,0,1,223.62,42.78Z"/><path class="cls-1" d="M62,85.05a1.54,1.54,0,0,0-.33,1.26,10.06,10.06,0,0,1,0,3,6.63,6.63,0,0,0-.11.76c0,.18,0,.36-.18.43s-.07.18-.11.29a13.89,13.89,0,0,1-.79,2.06c-.29.47-.65.94-1,1.41-.11.18-.21.4-.36.62a4.78,4.78,0,0,1-1.59,1.51,15.47,15.47,0,0,0-1.37,1.12,3.85,3.85,0,0,1-1.45.87,5.09,5.09,0,0,1-1.59.4.59.59,0,0,0-.25.07,3.31,3.31,0,0,1-1.19.36.89.89,0,0,1-.62,0,9.29,9.29,0,0,0-1.77-.39c-.39,0-2.42-3.07-.5-4.88A19.46,19.46,0,0,1,52,91.23c1.63-1,3.22-2,4.84-3.08,0,0,.08-.07.11-.07.54-.18.62-.61.58-1.12,0-5.35-6.72-12.75-10.37-11.38-.07,0-.11.18-.15.29a5.1,5.1,0,0,0-.14.72c0,.72.07,5.2-.14,6.65a2.17,2.17,0,0,0,0,.72c.1.8,2.13,9.18-3.8,5.82,0,0-.07,0-.11,0s-1.19-.28-1.3-.94a8.37,8.37,0,0,1-.14-3A6.06,6.06,0,0,0,41.62,84a162.19,162.19,0,0,1-.72-16.3c0-.07,0-.15,0-.22-.39-4.23,0-5.13.11-6.07a2.46,2.46,0,0,0,0-.54c.87-.47,5-.54,5.64.25a2.08,2.08,0,0,1,.32,1,1.93,1.93,0,0,0,.11.62,40.88,40.88,0,0,1,.51,6.61c-.19,1.34-.26,2.68-.4,4l-.11.83c.07,0,.11.08.14.08A16.42,16.42,0,0,0,49.64,74a8.5,8.5,0,0,0,3.11-1.73,3.35,3.35,0,0,0,.9-1.45c0-.11,0-.22.11-.29a2.72,2.72,0,0,0,.54-1.44,4,4,0,0,1,.22-.87,6,6,0,0,0,.33-1.34,4.48,4.48,0,0,0-.55-2.56,3.85,3.85,0,0,0-2.24-1.74c-.76-.18-1.55-.4-2.35-.54s-4.29-1.88-1.4-2.85a17.39,17.39,0,0,1,1.91,0c.61,0,1.23.15,1.88.22a8.06,8.06,0,0,1,3.58,1.37,5.91,5.91,0,0,1,1.91,1.88c.22.36.47.72.69,1.12a2.46,2.46,0,0,1,.14.58,6.8,6.8,0,0,1,.08,1.19,7.68,7.68,0,0,0,0,1.59,7,7,0,0,1-.69,2.67A15.66,15.66,0,0,1,57,71.39a26.13,26.13,0,0,1-4.09,3.68,2,2,0,0,0-.21.26l.25.14c.8.33,1.55.65,2.35.94a7.41,7.41,0,0,1,3.32,2.64A11.79,11.79,0,0,1,60,81.14c.26.55.44,1.09.65,1.63l.44,1,.43,1a1.79,1.79,0,0,0,.33-.18c3.75-3.07,2.74-1.84,5.63-4.26,1.59-1.31,1.92-2.06,1.92-1C64.49,83.13,69.41,79.37,62,85.05Zm-6.91,4.69c-.83.55-1.62,1.12-2.42,1.7l-2,1.27c-.36.25-.68.54-1,.79a4.43,4.43,0,0,0-1,3.65s.4.47.4.51a1.43,1.43,0,0,0,1.44.54,12.68,12.68,0,0,0,2-1A6.39,6.39,0,0,0,55,94.91c.18-.32.33-.65.54-1,.47-.76.76-1.59,1.23-2.35C59.07,87.76,57.48,88.15,55.13,89.74Z"/><path class="cls-1" d="M82.52,79.3a.66.66,0,0,1-.14.29,4.87,4.87,0,0,0-.69,1.19.26.26,0,0,0-.07.15c0,.43-.33.72-.44,1.08s-.32.62-.54.91c-1.08,1.33-1.62,3-3.1,4a8.88,8.88,0,0,1-3.8,1.84c-3.25.55-3.58-.61-4.12-.75,0,.21-.07,0-.14-.08a4.29,4.29,0,0,1-1.16-1,4.14,4.14,0,0,1-.72-2.24,17.22,17.22,0,0,1,.07-2.78c.07-.58.15-1.19.18-1.77a1.87,1.87,0,0,1,.07-.4c.15-.58.26-1.15.37-1.77A15.47,15.47,0,0,1,69,75.83a2.57,2.57,0,0,1,.15-.29,2.06,2.06,0,0,0,.43-.72s0-.07,0-.11a2.89,2.89,0,0,1,.9-1.3c.07-.07.18-.11.25-.18C72.73,71.32,74.54,72,75.55,72c2.78,0,4.51,3.47,1.77,6.18a1.9,1.9,0,0,0-.54.4.21.21,0,0,1-.18.11A3.49,3.49,0,0,1,76,79a4.28,4.28,0,0,1-1.23.39c-3.47,0-2.06,8.93.4,8.42,3.5-.65,6.36-6.68,7.11-8.74A1.38,1.38,0,0,0,82.52,79.3ZM77.9,74.17a.21.21,0,0,0-.11-.18c-.36-.36-1.16-1-1.7-.9a1,1,0,0,0-.83.65,4.54,4.54,0,0,0-.4,1.26.63.63,0,0,1-.11.36,9.06,9.06,0,0,0-.25,1.7,3.59,3.59,0,0,1-.18.9.9.9,0,0,0-.07.62c.61-.07,1.15.22,1.7,0a2,2,0,0,0,.86-.72A5.28,5.28,0,0,0,78,76a.27.27,0,0,0,0-.29.83.83,0,0,1,.07-.51l.11-.36A1.93,1.93,0,0,1,77.9,74.17Z"/><path class="cls-1" d="M88.77,82.08c-.18.11-.14.22,0,.4a16.59,16.59,0,0,0,1.92,2,1.83,1.83,0,0,0,.18.29,5.64,5.64,0,0,1,.72,1.48,1.79,1.79,0,0,1,.07.76,1.3,1.3,0,0,0,.11.72c.65,1.34.18,3.36-.18,4.7-.47,1.52-3.69,2.24-4.81,3.25a4.35,4.35,0,0,1-2.89.76,3.93,3.93,0,0,1-2.53-1.34.35.35,0,0,0-.21-.18,1.38,1.38,0,0,1-.4-.4,1.33,1.33,0,0,0-.29-.29.65.65,0,0,1-.22-.39,7.18,7.18,0,0,1,1.63-5.46,3.85,3.85,0,0,0,.47-.65c.22-.22.4-.47.61-.72.51-.54,1-1,1.52-1.63a2,2,0,0,1,.29-.29,8.16,8.16,0,0,0-.76-.86l-1.84-1.77a11.78,11.78,0,0,1-1.48-1.52,17.88,17.88,0,0,1-1.81-2.5,6.23,6.23,0,0,1-.61-2.27,2.8,2.8,0,0,1,.11-.8,4.47,4.47,0,0,1,1.12-2.27c.32-.44,2-3.26,5.13-.62a11.48,11.48,0,0,1,2,1.48c.33.22.29.44,0,.58s-1.48-.61-1.84-.58a2.1,2.1,0,0,0-.37.18,2.16,2.16,0,0,0-.61.91,2.76,2.76,0,0,1-.18.4,1.31,1.31,0,0,0-.07.94,1.44,1.44,0,0,0,.32.61s0,0,0,.07a6,6,0,0,0,.87,1.12l.36.33c.65.61,1.41,1.15,2.06,1.8.36.36,1.22,1.41,1.37,1.56.22-.11.83-.22,1.12-.33a12.12,12.12,0,0,0,1.73-.61c.62-.15,2.14-1.77,2.32-1.85.79-.32.25,0,.47,0l-1.74,1.34C91,81.69,89.1,81.76,88.77,82.08ZM86.53,90a6.75,6.75,0,0,0-.29-2.28l-.07-.29a10,10,0,0,0-1.08-2s0,0-.11-.07-.83.8-1.34,1.27-.83.94-.72.86A6.64,6.64,0,0,0,81.76,89a3.91,3.91,0,0,0-.65,1.15c-.18.18-.11.18-.18.44s-.22.61-.29.9a6.11,6.11,0,0,0,0,1.81c.18,1.69,2.38,3.1,4.8,1.95C87.4,94.33,86.57,90.5,86.53,90Z"/><path class="cls-1" d="M94.19,65.72c-.4-.11-3.21-1-3.72-1a5.79,5.79,0,0,1-.62-.22c-3.36-2.28.55-1,1.23-.9.33,0,2,.21,2.24.18a6,6,0,0,1,1.2,0,.74.74,0,0,0,.39,0,.42.42,0,0,0,.11-.32c.11-.58.22-1.16.29-1.73,0-4.7,3.65-.73,3.65.21a5.71,5.71,0,0,0,.14,1v.18a.91.91,0,0,1,0,.33.51.51,0,0,0,.37.51c6.61-.33,6.14,0,5.45.61-.25.11-.54.22-.79.36H104a1.67,1.67,0,0,0-.58.25c-.07,0-.14,0-.22.08a.88.88,0,0,0-.28.18c-1.38.07-1.52.11-1.63.11s0,0,0,0a1.35,1.35,0,0,1-.76.07,5.54,5.54,0,0,1-.72,0h-.5a5.21,5.21,0,0,0,0,.79c0,.47,0,1.56,0,2.1v.61a.89.89,0,0,0,0,.51c.33,4.26-.25,14.7-.25,19,0,1.09-1,8.13,8.46-8.41a2.92,2.92,0,0,0,.43-.8c.11-.18.9-1,.4,0l-.08.08c0,.07-.1.14-.1.18a1.3,1.3,0,0,1-.15.36,5.21,5.21,0,0,0-.32.58c-.47.79-.87,1.41-1.41,2.2-1.63,2.28-1.85,3.79-3.65,6.47-.94,1.44-6.87,9.25-8.57,1a5.11,5.11,0,0,1-.32-1.55L93.54,88a1.11,1.11,0,0,0,0-.36c0-.33-.07-.65-.07-1V85.08c0-.36,0-.79,0-1.15a3.76,3.76,0,0,0,0-.58c0-.29,0-.58,0-.87l.11-2a1.57,1.57,0,0,0,0-.43A14.91,14.91,0,0,1,94,77.86c0-.47.08-7.16.11-7.66.15-.83.18-1.7.36-2.53.08-.4.11-.83.15-1.2,0-.18,0-.28.07-.54A1.82,1.82,0,0,1,94.19,65.72Z"/><path class="cls-1" d="M128.37,89.74a2.65,2.65,0,0,1-1.59.33c-1-.25-1.55-2.42-1-3.43a11.07,11.07,0,0,1,1.41-1.7,6.26,6.26,0,0,1,2.35-1.45.65.65,0,0,0,.4-.36L131,80.06a24.45,24.45,0,0,0,.94-3.65,14.67,14.67,0,0,0,.29-2.17,10.16,10.16,0,0,1,0-2.13,6.46,6.46,0,0,0,0-1.7c-.07-.54-.11-1.12-.18-1.66S132,68,132,67.59a6.32,6.32,0,0,0-.15-.83c-.39-1.48-1.51-1.77-2.34-1.3a3.47,3.47,0,0,0-1.2,1.09c-.22.32-.5.57-.76.9s-.76.9-1.08,1.37-.54,1-.8,1.45c-.43.94-.86,1.88-1.26,2.78-.18.43-.29.9-.47,1.37-.22.65-.11,1.63-.33,2.32a3.15,3.15,0,0,0-.1.83c0,.5,0,1.05,0,1.59a4.54,4.54,0,0,1-.07.58c-.07.39-.18.83-.25,1.26a2.59,2.59,0,0,0-.11.54,10.42,10.42,0,0,0-.18,1.23l-.11,2c0,.44-.15.83-.18,1.23a3.26,3.26,0,0,0,0,.54,1.65,1.65,0,0,1-.1,1.09.11.11,0,0,1,0,.07c0,.58-.11,1.12-.18,1.66a6.68,6.68,0,0,1-.11.83c-.14.76-.25,1.49-.43,2.24-.08.47-.26,1-.37,1.45s-.28,1.26-.47,1.91c-.1.47-4.69,8.57-4.76-.5a14,14,0,0,1-.08-2.13c0-.94,0-1.88,0-2.82a26.79,26.79,0,0,1,0-3.47,20.79,20.79,0,0,0,0-2.1,26,26,0,0,1,.29-3.43c.14-1.41.32-2.82.36-4.23,0-1.69.18-3.36.29-5,0-.66.07-1.31.14-2,.07-.86.18-6.07.29-6.93l.22-1.63c.07-.61,3.57-1.73,4-1.19a2.92,2.92,0,0,1,.65,1.7,13.32,13.32,0,0,0,.29,1.48.92.92,0,0,1,.07.32c.08,1.05.4,6.4.51,7.45,0,.5,0,1,.07,1.51v.8s.08,0,.11,0l.22-.44c.22-.54.4-1,.65-1.59a25.42,25.42,0,0,1,2.49-4.19,12.48,12.48,0,0,1,1.52-1.84,5.3,5.3,0,0,1,2.93-1.52,8.43,8.43,0,0,1,1.33,0,3.22,3.22,0,0,1,1.52.43,2.53,2.53,0,0,1,1.23,1.38,11.67,11.67,0,0,1,.79,2.67,6.39,6.39,0,0,1,.11,1.23,18.47,18.47,0,0,1-.5,4.19c-.36,1.63-.62,3.29-1,5-.14.65-.5,2.13-.68,2.78l-.11.54.32-.14c1.66-1.08,1.66-.79,5.06-3.11.25,0,.33,0,.4.29s-.44.36-.58.4-4.12,2.42-5.67,3.36a7,7,0,0,0-.8,1.44c-.21.44-.4.91-.58,1.34-.07.18-.18.36-.25.51l-2,2.45A6.41,6.41,0,0,1,128.37,89.74Zm.18-2.49c2.06-3.47,1.12-3,.94-3.07-1.08,0-3.83,2.57-3.5,3.9l.39.94C127,89.6,128.15,87.83,128.55,87.25Z"/><path class="cls-1" d="M152.51,80a4.83,4.83,0,0,1-.58,1.7c-.44.9-.87,1.59-1.27,2.49s-.9,1.7-1.3,2.46a31.35,31.35,0,0,1-2,3.61,5.14,5.14,0,0,1-.47.76,7.25,7.25,0,0,1-2.75,2.39c-2,1.19-2.64,0-2.86-.15a5.19,5.19,0,0,1-2.2-3.14c-.22-.87-.32-1.74-.47-2.57-.07-.61-.22-1.19-.25-1.77a40.32,40.32,0,0,1,.11-5.27,19.64,19.64,0,0,1,.47-4.19,39.39,39.39,0,0,0,.9-4.45,18.63,18.63,0,0,1,1.23-4.15c.43-1.27.87-2.53,1.41-3.8a10.66,10.66,0,0,1,1.91-2.78c3.15-3.4,6.83-2.93,8.24-1.19a.79.79,0,0,0,.25.14.82.82,0,0,1,.18.11c.08.4.44.62.51,1.05s.29.76.36,1.16a7.78,7.78,0,0,1-.5,3.93A19.5,19.5,0,0,1,152,69.87c-.21.43-.36.94-.57,1.37s-.62,1-.91,1.49c-.4.68-.86,1.37-1.33,2a8.06,8.06,0,0,1-1.63,1.81c-.33.28-.61.61-.94.9s-.79.72-1.23,1.05l-.79.54a.51.51,0,0,0-.29.5c-.07.84-.18,1.63-.26,2.46a8.48,8.48,0,0,0-.1,2.13,39.43,39.43,0,0,1,.25,4.63,3.71,3.71,0,0,0,.22.69,3,3,0,0,0,1.15,1.26,1.2,1.2,0,0,0,1.41-.47c.36-.58.9-1.3,1.23-1.92,1.34-2.52,2.64-5.09,3.87-7.55.68-1.37.43-2,.57-1.84A8.43,8.43,0,0,1,152.51,80Zm-8.06-1.8c.22-.19.47-.33.72-.51a13.56,13.56,0,0,0,2.53-2.49,21.76,21.76,0,0,0,2-3.07c.32-.66.68-1.31,1-2a24.07,24.07,0,0,0,.83-2.39c.15-.39.29-.83.4-1.23l.22-1.33a5.14,5.14,0,0,0,0-1.66,9.4,9.4,0,0,0-.28-1,1.08,1.08,0,0,0-.37-.72.58.58,0,0,1-.14-.33.83.83,0,0,0-.36-.47l-.47-.22a.55.55,0,0,0-.72.15,2.1,2.1,0,0,0-.29.32c-.33.51-.65,1-.94,1.52a21.73,21.73,0,0,0-2,4.95,30.73,30.73,0,0,0-.9,3.29c-.22,1.08-.33,2.2-.47,3.32-.11.47-.15,1-.26,1.45a11,11,0,0,1-.39,1.19c-.15.4-.11.83-.22,1.23A.13.13,0,0,1,144.45,78.15Z"/><path class="cls-1" d="M153.84,84.43a2.16,2.16,0,0,1-2.09-.9,2,2,0,0,1-.36-.8,5,5,0,0,1-.08-2.42c.08-.36.11-.72.18-1.08l.33-1.08c.14-.44.32-.87.43-1.31a7.22,7.22,0,0,1,4-4.4,4.46,4.46,0,0,1,3.5.29c1.63.75-.72.83-1.66.83-3.58,0-4.37,3.61-4.91,5.06-.76,2.45-.58,6.1,2.78,5,1.37-.47,1.19-2.38,1.62-3.14a5,5,0,0,0,.22-.83,5.53,5.53,0,0,1,.22-.87c.11-.43.29-.87.43-1.3s.33-.9.44-1.37c.39-1.27,5.81-5.89,4.73-.4l.11.22c.07.36-.26.68-.08,1a2.53,2.53,0,0,1,0,.55,15.38,15.38,0,0,1-.43,2.56c-.14.87-.14,1.45-.29,2.31-.07.29-.14.55-.18.83-.14,1-1.77,5.89-.07,5.39,3.07-.91,5.92-9.54,6.11-9.58s.25,0,.21.22a1.72,1.72,0,0,1-.14.65,25.32,25.32,0,0,0-1.23,2.71c-.94,2.17-2.64,5.6-5,6.47-4.84,1.77-5.78.29-5.78-3.58a16.48,16.48,0,0,1,.18-2v-.33l-.29.25A5.31,5.31,0,0,1,153.84,84.43Z"/><path class="cls-1" d="M181,84c-.47.47-.83,1.2-1.27,1.66l-.32.44A5,5,0,0,1,178,87.4a9.29,9.29,0,0,1-2.16,1.08,17.35,17.35,0,0,1-1.92.47s-2.89.51-4.34-.94a1,1,0,0,0-.18-.25,3.35,3.35,0,0,1-.86-1.56l-.18-.5a2.76,2.76,0,0,1-.11-.8c0-.58,0-1.15,0-1.7a4.74,4.74,0,0,1,0-1.26,7,7,0,0,0,.11-.8,6.46,6.46,0,0,1,.1-1.15c.08-.87.4-1.66.51-2.53l.07-.18a8.39,8.39,0,0,1,.4-1.23c.18-.43.4-.87.58-1.26s.36-.66.54-1a.46.46,0,0,0,.07-.18,1.93,1.93,0,0,1,.91-.87c1.69-2.06,6.14-2.13,7.87-.5a1.52,1.52,0,0,1,.33.21.37.37,0,0,1,.18.33c0,.14.11.29.14.43a1.41,1.41,0,0,1,.15.76.15.15,0,0,0,0,.18c0,1.74-.47,3.43-.87.4a.92.92,0,0,0-.4-.83.47.47,0,0,0-.18-.36,1.67,1.67,0,0,0-.5-.33,4.32,4.32,0,0,0-.62-.29.33.33,0,0,0-.36,0l-.54.4a.71.71,0,0,0-.22.25,3,3,0,0,1-.65,1.12,2.65,2.65,0,0,0-.5.94c-.11.36-.26.69-.37,1a.57.57,0,0,0-.07.25,9.12,9.12,0,0,1-.36,1.41,3.72,3.72,0,0,0-.25.94,1.24,1.24,0,0,1-.11.36,3.65,3.65,0,0,0-.25,1c0,.36-.15.72-.22,1.12a.2.2,0,0,0,0,.14c0,.51-.07,1-.07,1.49a1,1,0,0,0,0,.47c0,.07,0,.14,0,.18a3.54,3.54,0,0,0,0,.86v.4a1.42,1.42,0,0,0,.08.76c.07.14.1.33.18.51a5,5,0,0,0,.18.61,1.36,1.36,0,0,0,.32.47c1.88,1.59,3.58-.58,4.63-1.63s4.73-6,5.06-6.64.25.14-.22.72l-1.77,2.42A7.25,7.25,0,0,0,181,84Z"/><path class="cls-1" d="M197.31,79.3a.67.67,0,0,1-.15.29,4.83,4.83,0,0,0-.68,1.19.28.28,0,0,0-.08.15c0,.43-.32.72-.43,1.08s-.32.62-.54.91c-1.09,1.33-1.63,3-3.11,4a8.84,8.84,0,0,1-3.79,1.84c-3.25.55-3.58-.61-4.12-.75,0,.21-.07,0-.15-.08a3.68,3.68,0,0,1-1.88-3.25,18.45,18.45,0,0,1,.08-2.78c.07-.58.14-1.19.18-1.77a1.4,1.4,0,0,1,.07-.4c.14-.58.25-1.15.36-1.77a15.52,15.52,0,0,1,.76-2.17c0-.11.11-.21.14-.29a2.09,2.09,0,0,0,.44-.72s0-.07,0-.11a3,3,0,0,1,.91-1.3c.07-.07.18-.11.25-.18,1.92-1.91,3.72-1.23,4.73-1.23,2.79,0,4.52,3.47,1.77,6.18a2,2,0,0,0-.54.4.2.2,0,0,1-.18.11,3.14,3.14,0,0,1-.58.29,4.12,4.12,0,0,1-1.22.39c-3.47,0-2.06,8.93.39,8.42,3.51-.65,6.36-6.68,7.12-8.74A1.38,1.38,0,0,0,197.31,79.3Zm-4.63-5.13a.19.19,0,0,0-.11-.18c-.36-.36-1.15-1-1.69-.9a1,1,0,0,0-.84.65,4.53,4.53,0,0,0-.39,1.26.72.72,0,0,1-.11.36,9.06,9.06,0,0,0-.25,1.7,4.1,4.1,0,0,1-.18.9.9.9,0,0,0-.08.62c.62-.07,1.16.22,1.7,0a2.11,2.11,0,0,0,.87-.72A5.28,5.28,0,0,0,192.83,76c0-.07.11-.18,0-.29a.84.84,0,0,1,.08-.51l.1-.36A1.93,1.93,0,0,1,192.68,74.17Z"/><path class="cls-1" d="M75.59,110.19c-.28-.07-2.23-.7-2.58-.73a2.3,2.3,0,0,1-.42-.14c-2.33-1.58.37-.68.85-.63.22,0,1.4.15,1.55.13a3.74,3.74,0,0,1,.82,0,.54.54,0,0,0,.28,0,.3.3,0,0,0,.07-.22c.08-.4.15-.8.2-1.2,0-3.25,2.53-.5,2.53.15a2.88,2.88,0,0,0,.1.7v.12a.89.89,0,0,1,0,.23.33.33,0,0,0,.25.34c4.57-.22,4.24,0,3.77.43a3.87,3.87,0,0,0-.55.25h-.08a1,1,0,0,0-.4.18,1.31,1.31,0,0,0-.15.05.88.88,0,0,0-.2.12c-.94.05-1,.08-1.12.08s0,0,0,0a.9.9,0,0,1-.53,0,4,4,0,0,1-.5,0h-.35a5,5,0,0,0,0,.55c0,.32,0,1.07,0,1.44v.43a.6.6,0,0,0,0,.35c.23,3-.17,10.17-.17,13.15,0,.75-.68,5.62,5.84-5.83a1.72,1.72,0,0,0,.3-.55c.08-.12.63-.67.28,0l0,0s-.08.1-.08.12a.63.63,0,0,1-.1.25c-.07.13-.15.25-.22.4-.33.55-.6,1-1,1.53-1.12,1.57-1.27,2.62-2.52,4.47-.65,1-4.75,6.4-5.92.7a3.42,3.42,0,0,1-.23-1.07l-.07-.48a.72.72,0,0,0,0-.25c0-.22,0-.45,0-.67v-1.1c0-.25,0-.55,0-.8a2.68,2.68,0,0,0,0-.4c0-.2,0-.4,0-.6l.07-1.35a1,1,0,0,0,0-.3,9.8,9.8,0,0,1,.2-1.55c0-.33,0-5,.07-5.3.1-.58.13-1.18.25-1.75,0-.28.08-.58.1-.83a2.78,2.78,0,0,0,0-.37A1.17,1.17,0,0,1,75.59,110.19Z"/><path class="cls-1" d="M91.86,124.34c-.15.35-.53.55-.73.85a2.2,2.2,0,0,1-.52.57c-.23.15-.4.35-.63.5a5.76,5.76,0,0,1-2.47.7c-2.25,0-2.42-1.95-2.77-2.62a12.92,12.92,0,0,1-.28-2.43,8.71,8.71,0,0,1,0-1.35,6.65,6.65,0,0,1,.28-1.25,13.83,13.83,0,0,1,.72-1.72,1.53,1.53,0,0,1,.33-.48c.15-.17.32-.37.47-.57a2.24,2.24,0,0,1,.53-.4c.92-.65,2.7-.58,3.22.35.12.2-.15.32-.6.85a2.66,2.66,0,0,0-.25.67c-.12.53-.25,1.08-.42,1.6-.13.35-.2.73-.3,1.08s-.28.67-.35,1a.55.55,0,0,1-.05.13,6.82,6.82,0,0,0-.2,2.17c0,.35,0,.7.1,1a.36.36,0,0,0,.17.3,1.83,1.83,0,0,0,.45.75.37.37,0,0,0,.38.08,3.49,3.49,0,0,0,1.19-.55c.18-.13.28-.35.45-.5a1.61,1.61,0,0,0,.3-.28,6.86,6.86,0,0,0,.8-.9l0,0c0-.12.85-1.2.7-1.85-.08-.15,0,.13-1.15-.37a3,3,0,0,1-1.1-1,5.37,5.37,0,0,1-.35-.53,2.73,2.73,0,0,1-.2-1.92c.13-.68.63-1.43,1-1.48a1,1,0,0,0,.3-.05,1.38,1.38,0,0,1,.9.1,1.74,1.74,0,0,1,.88,1,5.28,5.28,0,0,1,.3,3c0,.17,0,.75-.1.95.07,0,.12.05.17.05s.48-.08.65-.1a5.7,5.7,0,0,0,2.83-1.5.63.63,0,0,0,.12-.18c0-.05.08-.12.13-.15s.2-.22.27-.12a4.34,4.34,0,0,1-1.55,1.4c-.32.22-2.72,1.17-2.67,1l-.58,1.52C92.06,123.84,92,124.09,91.86,124.34Zm.8-4.58a4.52,4.52,0,0,0-.23-1.5c-.42-1.2-3.44-2-1.8,1.73.45,1,2,2,1.93,1.62C92.56,121.56,92.68,120,92.66,119.76Z"/><path class="cls-1" d="M106.38,105.68c.08.36.26.72.33,1.08a3.85,3.85,0,0,1,.18.87c1,5.78-.15,12.68-.15,19.08,0,1.12-.5,3.5,1.41,3,2.35-.69,3.36-3.94,4-6.29l.61-5.24a14.31,14.31,0,0,0,.37-2.42c.14-1.12.25-2.24.39-3.36,0-.18,0-.36,0-.54.61-2.93,5.28-6.07,5.42,1.41,0,.47.07,1,.07,1.48-.11,2.17,0,4.41,0,6.61,0,3.62-.18,7.63.72,11.17a2.17,2.17,0,0,0,.33.69.83.83,0,0,0,1.19.25,2.49,2.49,0,0,0,.62-.54c.61-1,1.26-2,1.84-3s1-2,1.52-3,.65-1.74,1-2.61a16.33,16.33,0,0,1-1-6.17c.94-7.48,1.12-8.24,3-9.83.9-.25,1.48.07,1.62,1.08a24.22,24.22,0,0,1,.15,2.82,14.43,14.43,0,0,1-.26,3.54c-.21,1.16-.57,2.31-.72,3.51a3.17,3.17,0,0,1-.18.57c-.18.91-1,2.89-1.3,3.73,2.67,1.84,4.91-3,5.71-4.27a3.14,3.14,0,0,0,.29-.58,5.26,5.26,0,0,1,1.55-2.63c.07,0,.18,0,.33,0s-1.88,4.08-2.64,5.24a13.52,13.52,0,0,1-2,2.42,7.6,7.6,0,0,1-1.56,1,2.31,2.31,0,0,1-1.41.11l-.5-.11c-.15.4-.33.76-.47,1.12-.18.58-.33,1.19-.54,1.77-.37.91-.76,1.77-1.13,2.64a5.87,5.87,0,0,0-.36.8c-.36.68-.65,1.4-1.08,2.06a11.06,11.06,0,0,1-1.19,1.62,5,5,0,0,1-.91.8,2.78,2.78,0,0,1-1.69.36h-.62c-1.12,0-4.8-.51-5.42-1.41a6.79,6.79,0,0,1-.9-2.64c-.18-1.34-.33-2.67-.47-4-.07-.8-.15-1.59-.18-2.46l-.26.43c-.32.58-.65,1.19-1,1.81a.67.67,0,0,1-.18.25,6.92,6.92,0,0,1-3.18,2.6,3.94,3.94,0,0,1-1.3.22,5.87,5.87,0,0,1-3.69-1.84,5.46,5.46,0,0,1-1.08-2.31,17.73,17.73,0,0,1-.58-5.35c0-.26,0-.51,0-.76a2.65,2.65,0,0,1,.08-.94,7.22,7.22,0,0,0,.07-2.13,10.39,10.39,0,0,1,0-1.85c.07-1.44.07-2.85.18-4.3a31.57,31.57,0,0,0-.29-6.93c-.61-3.8,4.41-4.34,4.41-.51C105.59,104.45,106.31,104.92,106.38,105.68ZM128.68,116c.11-.65,0-1.3.11-1.91a16.1,16.1,0,0,0,0-3.47c0-2.46-1.2-1.23-1.67.69a5.37,5.37,0,0,0-.25,1.69,16.55,16.55,0,0,1-.18,1.81c0,.14-.07.25-.07.4a11.25,11.25,0,0,1-.15,2.24c-.1.76,0,1.55-.07,2.35-.11,4.4.8,3.36.87,3C127.48,121.94,128.53,116.92,128.68,116Z"/><path class="cls-1" d="M145,123.17c-.22.5-.76.79-1,1.23a3.56,3.56,0,0,1-.76.83c-.32.21-.58.5-.9.72a8.56,8.56,0,0,1-3.58,1c-3.25,0-3.5-2.82-4-3.79a19.25,19.25,0,0,1-.4-3.51,11.57,11.57,0,0,1-.07-2,10.08,10.08,0,0,1,.4-1.81,19.55,19.55,0,0,1,1.05-2.49,2,2,0,0,1,.47-.69c.21-.25.46-.54.68-.83a4.08,4.08,0,0,1,.76-.57c1.34-.94,3.9-.84,4.66.5.18.29-.22.47-.87,1.23a4.34,4.34,0,0,0-.36,1c-.18.75-.36,1.55-.61,2.31-.18.5-.29,1-.43,1.55s-.4,1-.51,1.48a.71.71,0,0,1-.07.18,10,10,0,0,0-.29,3.15c0,.5.07,1,.14,1.51a.54.54,0,0,0,.26.44,2.43,2.43,0,0,0,.65,1.08.51.51,0,0,0,.54.11,5.14,5.14,0,0,0,1.73-.79c.26-.18.4-.51.65-.73a2.73,2.73,0,0,0,.44-.39,9,9,0,0,0,1.15-1.31l0-.07c0-.18,1.23-1.73,1-2.67-.11-.22,0,.18-1.66-.54a4.33,4.33,0,0,1-1.59-1.45c-.18-.25-.36-.5-.51-.76a4,4,0,0,1-.29-2.78c.18-1,.91-2.06,1.41-2.13a2.24,2.24,0,0,0,.44-.07,1.93,1.93,0,0,1,1.3.14,2.49,2.49,0,0,1,1.26,1.37,7.6,7.6,0,0,1,.44,4.38c-.08.25-.08,1.08-.15,1.37.11,0,.18.07.25.07.22,0,.69-.11.94-.14a8.24,8.24,0,0,0,4.09-2.17,1.3,1.3,0,0,0,.18-.25c.07-.08.11-.18.18-.22s.29-.33.4-.18a6.32,6.32,0,0,1-2.25,2c-.46.33-3.93,1.7-3.86,1.38l-.83,2.2A8.36,8.36,0,0,0,145,123.17Zm1.15-6.62a6.09,6.09,0,0,0-.32-2.16c-.62-1.74-5-2.93-2.6,2.49.65,1.48,2.85,2.82,2.78,2.35C146,119.16,146.2,117,146.16,116.55Z"/><path class="cls-1" d="M153.68,125.48l.21-1.7a3.34,3.34,0,0,0,.08-.58,17,17,0,0,1,.54-2.13,9.22,9.22,0,0,0,.29-1.15.67.67,0,0,0,0-.22c.08-.47-.5-.44-1-.69s-.94-.43-1.37-.68-.94-.58-1.37-.94a4.42,4.42,0,0,1-1.16-2.5l-.11-.65a7.56,7.56,0,0,1,.11-2.17,7.18,7.18,0,0,1,.47-1.19,2.92,2.92,0,0,0,.22-.43,2.72,2.72,0,0,0,.18-.44c.07-.28.32-.43.5-.68a.8.8,0,0,0,.22-.29,1.4,1.4,0,0,1,.51-.36,2.66,2.66,0,0,1,1.19,0,7.84,7.84,0,0,1,1,.21,1,1,0,0,1,.47.26c.11.14.22.21.32.32a1.39,1.39,0,0,1,.37.4.78.78,0,0,1,.07.47,1.84,1.84,0,0,0,0,.4.82.82,0,0,1-.07.43,2.72,2.72,0,0,0-.07.43,1.57,1.57,0,0,1-.14.51c-.08.25-.26.47-.33.69a3.91,3.91,0,0,1-.43.72,4,4,0,0,1-1,1.16l-.25.25c-.11.11-.11.18,0,.29a3.52,3.52,0,0,0,1.4,1.41c.47.21.87.39,1.31.61a24.26,24.26,0,0,1,2.81.62,1.76,1.76,0,0,1,.65.65,1.1,1.1,0,0,1,.26.72c-.07,0,0,.11,0,.18a2.19,2.19,0,0,1,0,1.08v0c.07.32-.18.61-.18.94s-.22.47-.29.69a6.8,6.8,0,0,1-.18.75l-.33,1.67a8.28,8.28,0,0,0-.21,1.91c0,.29,0,.58,0,.87a5.83,5.83,0,0,0,.22.87,3.87,3.87,0,0,0,.32,1.33c.22.47.69,1.09,1.23.83,1.41-.39,1.52-1.37,1.77-1.69a.9.9,0,0,1,.07-.22c.29-.54.47-.9.72-1.45,0-.07,0-.18.08-.25.18-.54.5-1.16.72-1.66s.29-.65.4-1.09c.07-.28,0,0,.29-.65.14-.5.39-.9.57-1.44a11.13,11.13,0,0,0,.44-1.23,6.37,6.37,0,0,0,.25-.69c.07-.21.25-.47.33-.68.5-1.34,1-2.42.47-.65a3,3,0,0,1-.26.54c-.21.72-.54,1.37-.72,2.06-.11.43-1.3,3.65-1.81,4.84-.18.4-.29.76-.43,1.08a1.35,1.35,0,0,1-.25.51l-.65,1.37a2,2,0,0,1-.18.4c0,.07-.08.18-.15.29a5.06,5.06,0,0,1-.47.54c-.22.18-.4.43-.61.62a2.37,2.37,0,0,0-.33.21c-3.07,2.13-6,.33-6.5-1.7-.11-.5-.15-1.08-.22-1.55s-.07-.69-.07-1.05S153.61,125.91,153.68,125.48Zm-.11-11.74a1.94,1.94,0,0,1,.32-.51,5.51,5.51,0,0,0,.44-.79.92.92,0,0,0,.14-.51c0-.47.15-1,.22-1.52a.64.64,0,0,0,0-.25,1.73,1.73,0,0,0-.76-.69s-.07,0-.1,0-.11,0-.11.07-.18.26-.22.37a.81.81,0,0,0-.18.47.53.53,0,0,1-.11.29,3.2,3.2,0,0,0-.4,1.4.54.54,0,0,0,0,.22v.36a7.4,7.4,0,0,1,0,.8,3.08,3.08,0,0,0,.14,1A3.18,3.18,0,0,0,153.57,113.74Z"/><path class="cls-1" d="M186.12,116l-.21.83c-.33,1.23-.76,2.42-1,3.65-.54,2.24-1.23,4.45-1.88,6.65l-.65,2.13a5.5,5.5,0,0,1-1.34,2.35,4.08,4.08,0,0,1-2.56,1c-3.36.54-4.34-3.61-5-6l-.66-2.21a.78.78,0,0,0,0-.14c-.15-.44-.94-1.34-1.52-1.27a13.77,13.77,0,0,0-.5,3.4c-.51,5.49-5.24,3.83-5,1.81a21.26,21.26,0,0,0-.29-5c-.29-2.67.18-5.56.36-8.24.33-4.66.65-9.64,2.24-14.09a16.28,16.28,0,0,1,1.77-3.36,22.07,22.07,0,0,1,1.48-2.35c5.46-7.08,10.48-1.73,10.77-1.73l.22.11a2.27,2.27,0,0,1,.72.94,9,9,0,0,0,.47,1.55,5.09,5.09,0,0,1,.07,3.11,14.27,14.27,0,0,1-1.12,2.93,17.41,17.41,0,0,1-2.24,3.57,11.87,11.87,0,0,1-1.7,1.92c-.43.36-.79.83-1.19,1.23l-.79.75c-.4.37-.8.76-1.2,1.09L173.44,112c-.54.4-1.15.76-1.7,1.15-.11.08-.14.26-.18.37-.07.65-.18,1.3-.25,2a4.79,4.79,0,0,0,.07,2,1.82,1.82,0,0,1,.22-.29,10.86,10.86,0,0,1,2.64-2.56,5,5,0,0,1,.61-.37,1.87,1.87,0,0,1,2.06.19,2.47,2.47,0,0,1,1,1.22,5,5,0,0,1,.18,2.28,5.68,5.68,0,0,1-1.92,2.49c-.69.47-1.37.94-2.09,1.41.07.07.1.15.14.18l1,.58a1.47,1.47,0,0,1,.36.33,3.93,3.93,0,0,1,.69,1.33c.14.62.4,1.16.58,1.74s.54,1.44.83,2.17c.25.57.54,1.15.79,1.73,1.27,2.67,3,.07,3.4-.72a44.6,44.6,0,0,0,1.63-4.81c.5-1.55.79-3.11,1.3-4.66C185.18,118.51,185.8,116,186.12,116Zm-11.45,1.34a7.89,7.89,0,0,0,.22-.9c0-.33,0-1.23.07-1.16-.22-.4-.36-.33-.51-.22-.5.44-1,.91-1.48,1.41a5.53,5.53,0,0,0-1.8,4.92c.1,0,.14,0,.18-.08l1.87-1.55A4.48,4.48,0,0,0,174.67,117.35Zm-3-5.89c0,.83,0,1,0,1.26l1.26-1c.72-.54,1.45-.62,2.06-1.3s1.81-1.66,2.57-2.49c.29-.33.9-1,1.15-1.38.69-.94,1.67-1.91,2.32-2.89a13.87,13.87,0,0,0,2.05-5,6.79,6.79,0,0,0-.72-3.65,2.47,2.47,0,0,0-.9-1.12c-2.6-1.62-3.83,0-4.34.29-1,.72-3.5,6.76-4,8.67-.36,1.48-.69,3-1,4.48A17.39,17.39,0,0,0,171.67,111.46Z"/><path class="cls-1" d="M192.1,122c-9.31,10-5.76-1.3-2.31-1.3C191.29,120.71,193.29,120.71,192.1,122Zm6-26.9a8.48,8.48,0,0,1,1-2.4c.55-.6,7.1-4.95,5.15,2.65a14.34,14.34,0,0,1-1.1,3c-3.65,8-6.95,13.45-9.3,16.5a5.66,5.66,0,0,1-2.55,1.65c-1,.3-1.6.1-.85-1.35A137.23,137.23,0,0,0,198.05,95.11Z"/></svg>