<?xml version="1.0" encoding="utf-8"?>
<!-- Generator: Adobe Illustrator 22.0.1, SVG Export Plug-In . SVG Version: 6.00 Build 0)  -->
<svg version="1.1" id="Layer_1" xmlns="http://www.w3.org/2000/svg" xmlns:xlink="http://www.w3.org/1999/xlink" x="0px" y="0px"
	 viewBox="0 0 239.5 145.5" style="enable-background:new 0 0 239.5 145.5;" xml:space="preserve">
<style type="text/css">
	.st0{fill:#FFFFFF;}
	.st1{opacity:0.6;fill:#73CBCB;enable-background:new    ;}
	.st2{fill:none;stroke:#FFFFFF;stroke-width:2;stroke-linecap:round;stroke-linejoin:round;}
	.st3{fill:none;stroke:#FFFFFF;stroke-width:2;stroke-linecap:round;stroke-linejoin:round;}
</style>
<title>best-place-words-01</title>
<g>
	<path class="st0" d="M34.1,35.9c-0.1,0-2.9,4.7-3,5.1c-2,5.2-4.3,8.2-5.9,8.4c-2.4,0.2-3.1-8.8-7.8-11.8c-1.1-0.7-2.3-1.2-3.5-1.5
		l-0.3,2.1c-0.1,0.5-0.2,1-0.4,1.5c-0.4,1.5-0.6,3.1-0.6,4.7c-0.1,1.4-0.2,2.9-0.4,4.3c0,0.4,0,0.7-0.1,1.1
		c-0.1,0.6-0.1,1.2-0.2,1.8c0,0.2-0.1,0.3-0.2,0.4s-0.2,0-0.3-0.1c-1.2,0.4-4-0.9-4-1.2c-0.4-2.6-0.6-5.2-0.5-7.9
		c0-4.9-0.3-9.9,0.2-14.7c0.2-1.3,0.4-2.5,0.5-3.8l0.2-2.1c0.1-1.3,0.4-2.6,0.7-3.8c0.5-1.2,4.1-2.5,4.1,0.8
		c0.1,0.9,0.2,1.8,0.4,2.8l0.4,1.8l0.1,0.6c0,0.2,0.1,0.4,0.2,0.6c0,0,0.1,0,0.1,0c0-0.1,0-0.1,0.1-0.1c1.1-2.2,6.4-6.5,9.8-3.2
		c0.4,0.3,0.7,0.7,0.9,1.1c0.2,0.3,0.3,0.7,0.4,1c0.5,1.5,0.4,3.2-0.3,4.7c-0.9,2-2.2,3.8-3.9,5.2c-0.1,0.1-0.3,0.2-0.4,0.2
		c-1.1,0.7-2.3,1.2-3.5,1.5c-0.1,0.1-0.1,0.1-0.2,0.1c0.4,0.2,0.8,0.5,1.2,0.8s0.9,0.7,1.4,1.1c0.3,0.2,0.6,0.6,0.9,0.9
		c0,0,0,0,0.1,0c0.7,0.9,1.3,1.9,1.7,3c0.1,0.4,0.2,0.7,0.4,1.1c0,0.1,0,0.2,0,0.3l0.3,1c0.2,0.6,1.1,4.2,1.4,4.5
		c0.1,0.2,0.3,0.3,0.5,0.4c0.6,0.8,1.7,0.1,2.3-0.5c0.8-0.8,1.4-1.8,1.8-2.8C30,42.1,34.1,35.2,34.1,35.9z M16.6,34
		c0.8-0.4,1.7-0.5,2.2-1.2s1.1-1.5,1.7-2.3c0.2-0.3,0.3-0.6,0.3-1l0.2-3.1c0-0.2,0-0.4,0.1-0.5c0.2-0.7,0.2-1.5,0.2-2.2
		c0-0.7-0.1-1.5-0.5-2.1c-0.1-0.2-0.4-0.3-0.6-0.3c-0.3,0-0.6,0.1-0.8,0.2c-0.5,0.2-0.9,0.4-1.4,0.6c-2.8,1.3-3.9,2.9-3.7,6.4
		c-0.1,0.1-0.1,0.2-0.1,0.4c0,0.9,0,1.9-0.1,2.8c0,0.7,0,1.4-0.1,2.1c0,0.5,0,1,0.1,1.5h0.2C15,34.7,15.8,34.3,16.6,34z"/>
	<path class="st0" d="M51.8,45.3c-0.7,0.9-1.4,1.8-2.2,2.6c-2.8,2.8-9,3.4-12.4,1.5c-1.4-0.6-2.5-1.7-3.2-3.1c-0.6-1.3-0.9-2.7-1-4
		c0-1.1,0.1-2.2,0.4-3.3c0.1-0.4,0.3-0.8,0.5-1.1c0.4-0.9,1-1.7,1.8-2.4c0.5-0.5,1.1-0.9,1.7-1.3c0.1,0,1-0.3,1.4-0.4
		c-0.2-0.1-0.4-0.2-0.5-0.3c-1.2-0.6-2.2-1.6-2.9-2.8c-0.5-1-0.7-2-0.7-3.1c0.1-1.6,0.6-3.1,1.6-4.3c0.3-0.3,0.5-0.7,0.8-1
		c0.5-0.5,2-2.4,6.6-3c0.8-0.4,1.6-0.7,2.5-0.8c6.3-0.2,5.6,1.5,6,1.8c0,0,0.1,0.1,0.1,0.1c0.2,0.3,0.4,0.7,0.5,1
		c0.1,0.5,0.1,1-0.2,1.4c-0.2,0.4-0.5,0.8-0.9,1.1c-1,0.8-2.1,1.3-3.3,1.6c-1.3,0.1-2.7-0.3-3.6-1.3c-0.7-1-1-1-1.3-0.9
		c-0.1,0.4-0.5,0.7-0.9,1.1s-0.5,0.8-0.9,1.2c-1.5,1.7-1.4,5,0.5,6.4c3.5,2.6,3.9,1.5,4.2,1.6s0.7,0.2,0.6,0.5s-1.6,0.9-2,0.8
		c-0.4-0.1-0.8,0-1.2,0.2c-0.8,0.4-1.6,1.1-2.1,1.8c-0.5,0.9-0.9,2-1.2,3c-0.4,1.1-0.6,2.2-0.6,3.3c0.1,1.7,0.9,3.3,2.3,4.3
		c1.5,0.9,3.4,1,5.1,0.5c1.9-0.7,3-2.3,4.3-3.9c2.2-2.4,3.5-5.5,3.6-8.8C56.8,34.7,55.7,39.7,51.8,45.3z M46.7,24.7
		c0.6,0.2,1.2,0.3,1.8,0.1c3.7-0.4,5.2-5.3-1.7-4.2c-0.2,0-4.3,1.7-0.8,3.6C46.2,24.4,46.5,24.6,46.7,24.7z"/>
	<path class="st0" d="M71.7,46.9c-0.1,0.2-0.2,0.5-0.3,0.8c-0.1,0.4-0.2,0.8-0.4,1.2c-0.2,0.4-0.5,0.7-0.7,1.1l-0.2,0.4l-0.4,0.4
		c-2.4,2.9-8.6,2.8-9.4,2.8c-1.1,0-2.2-0.1-3.2-0.4L56,52.6c-0.3-0.2-0.7-0.4-1-0.6c-1-0.5-1.7-1.5-1.8-2.6c-0.1-0.4-0.1-0.7,0-1.1
		c0.1-0.4,0.2-0.7,0.4-1c0.3-0.7,0.7-1.4,1.3-2.1c0.5-0.6,1.1-1.2,1.8-1.7c0.5-0.4,1-0.8,1.6-1.1l1.8-0.9c0.5-0.2,0.9-0.4,1.3-0.6
		s0.9-0.4,1.3-0.6c0.1,0,0.1,0,0.1,0l0.1-0.1c0-0.1,0-0.2,0-0.2c-0.3-0.5-0.5-1-0.8-1.5c-0.8-1.5-1.9-2.9-3.2-4.1
		c-0.9-1-1.8-2.1-2.7-3.1c-1.3-1.5-2.9-3-3.2-5.1c-0.1-0.9,0-1.9,0.2-2.8c0.2-1,0.5-2,1-3c1.6-2.1,3.8-3.6,6.3-4.4
		c2-0.3,4.1-0.5,6.1-0.5c1,0,2,0.1,3,0.4c0.8,0.2,1.5,0.5,2.1,1c0.4,0.3,1.1,0.6,1.1,1.2c0,0.8-2-0.6-3.8-0.6c-0.2,0-0.5,0-0.7,0
		c-0.8,0.1-1.6,0.2-2.4,0.4c-0.3,0.1-0.7,0.2-1.1,0.3c-0.9,0.2-1.7,0.6-2.5,1c-0.4,0.2-0.7,0.5-1,0.9c-0.3,0.3-0.6,0.6-0.9,0.9
		c-0.2,0.3-0.3,0.5-0.4,0.9c-0.1,0.5-0.2,1-0.2,1.5c0,0.7,0,1.3,0,2c0,0.4,0.1,0.7,0.2,1.1c0.3,0.6,0.7,1.2,1.1,1.7
		c1.5,2.1,3.2,3.9,4.9,5.9c0.7,0.9,0.8,1.4,1.6,2.2c0.5,0.5,0.9,1,1.2,1.5l0.1,0.2c0.1,0.1,0.1,0.2,0.2,0.3c1.2-0.3,2.4-0.7,3.5-1.2
		c0.7-0.3,1.3-0.7,2-1.1c0.1,0,1.2-0.7,1.4-0.7c0.1-0.1,0.2-0.1,0.3-0.1c0.9-0.5,1.2-0.7,0.9,0c-1.3,0.6-2.5,1.2-3.7,2
		c-0.6,0.4-2.4,0.9-3.8,1.7l1.6,3.9c0.1,0.2,0.1,0.5,0.1,0.8c0.1,0.2,0.1,0.5,0.2,0.7c0,0.3,0.1,0.6,0.1,0.9c0,0.3,0,0.6,0.1,0.8V46
		C71.8,46.3,71.8,46.6,71.7,46.9z M64.8,45c-0.1-0.6-0.3-1.1-0.6-1.6c-0.2-0.5-0.9-2.1-1.1-2.6c0,0,0,0-0.1,0c0,0-0.1,0-0.2,0
		c-0.1,0-0.1,0-0.1,0.1c-0.5,0.2-0.7,0.3-1.1,0.5s-0.9,0.5-1.5,0.7c-0.2,0.1-0.5,0.3-0.8,0.4c-3.5,1.2-8.1,7.3-3.5,8.9
		c0.5,0.3,1,0.4,1.6,0.5c0.2,0.1,0.4,0.1,0.7,0.1c0.2,0,0.5,0.1,0.7,0.1c0.6,0.1,1.2,0,1.7-0.2c0.6-0.2,1.1-0.4,1.6-0.7
		c0.6-0.4,1.2-0.8,1.7-1.3c0.5-0.6,0.8-1.3,0.9-2c0.1-0.4,0.2-0.9,0.3-1.4C65,46,65,45.5,64.8,45z"/>
	<path class="st0" d="M92.9,45.7c-1.5-0.6-2.8-1.8-3.4-3.3c-0.6-1.4-1-2.9-1.3-4.4c-0.1-0.7-0.2-1.4-0.4-2.1s-0.1-3.8-0.1-4.6
		c0-0.5,0-1,0-1.5c0-1.1,0-2.3,0.2-3.4c0.2-0.9,0.5-1.8,0.8-2.7c0.3-0.7,0.7-1.3,1.3-1.8c0.3-0.3,0.7-0.6,1-0.9
		c0.8-0.5,1.8-0.6,2.8-0.5c3.5,0,4,4.2,3.8,10.9c-0.2,3.6-0.8,7.2-1.8,10.7c0,0.1,0,0.1,0,0.2c-0.2,0.5,0,0,0.2,1.5
		c0.9,4.4,7-1.3,10.2-8.1c0,0.2,0,0.3,0,0.5c-0.1,0.4-0.3,0.8-0.5,1.2c-1.1,2.7-2.8,5-5,6.8c-0.8,0.6-1.7,1.2-2.6,1.5
		c-1,0.3-2.1,0.6-3.2,0.6c-0.2,0-0.6-0.1-0.7,0.1c-3.1,2.6-1.4,2-3.9,3.8c-0.9,0.6-1.9,1-2.9,1.1c-0.5,0-0.9,0.1-1.4,0.2
		c-3,0.4-7-0.8-8.6-3.5c-0.5-0.9-0.9-1.8-1.1-2.7c-0.4-1.4-0.8-2.7-1-4.2c-0.1-1.1-0.1-2.3,0.1-3.4c0.1-0.5,0.1-1.1,0.2-1.6
		c0.2-1,0.4-4.3,0.6-5.4c0.1-0.9,0.3-1.7,0.6-2.6c0.2-1,0.6-1.9,1.2-2.8c0-0.1,0.1-0.2,0.1-0.4c0.5-0.9,1-1.8,1.6-2.6
		c0.8-1.3,2-2.3,3.2-3.1c3-1.9,7.3-2.3,10.1-2.3c0.2-0.1,0.4-0.1,0.6,0c0.1,0.1,0.3,0.2,0.4,0.2c0.2,0.1,0.2,0.2,0.2,0.4
		c-0.1,0.1-0.2,0.3-0.3,0.4c-0.4,0.2-4.1-0.5-7.4,4.6l-0.2,0.2c-0.3,0.3-0.5,0.7-0.5,1.1c0,0.1,0,0.2-0.1,0.2
		c-0.2,0.5-0.3,1.1-0.4,1.7c0,0.2,0,0.3-0.1,0.5c-0.2,0.8-0.5,1.5-0.7,2.2c-0.1,0.3-0.1,0.6-0.2,0.9c-0.4,1.9-0.7,5.9-1,7.8
		c-0.2,1.7-0.3,3.3-0.2,5c0,1.5,0.4,2.9,1.1,4.2c0,0.1,0.1,0.2,0.1,0.2c0.4,1.3,1.4,2.4,2.6,3c1.9,1,4.9-1.7,6.2-3.9
		C93,45.7,92.9,45.7,92.9,45.7z M94.9,41.9c0.2-0.7,0.5-1.5,0.7-2.2c1-3.1,1.6-11.3,1-14.6c-0.7-3.8-3.7-4.8-4.2,0.3
		c-0.1,1.1-0.1,2.1,0,3.2c0.1,1.8,0.2,3.7,0.5,7.6c0,0.7,0.1,1.3,0.2,2c0.2,0.7,0.4,1.5,0.7,2.2c0.1,0.2,0.2,0.4,0.3,0.7
		c0.2,0.4,0.3,0.8,0.5,1.2h0.1C94.8,42.2,94.8,42,94.9,41.9L94.9,41.9z"/>
	<path class="st0" d="M110.7,44.3c0.8-1,1.7-2.2,2.5-3.3s1.7-2.5,2.5-3.7c0.1-0.2,0.3-0.5,0.3-0.7l0.7-3c0.1-0.4,0.1-0.8,0.2-1.2
		c0-0.1,0.6-3.2,0.7-3.7c0.3-0.7,0.5-1.5,0.5-2.3c0-3,6.3-8,6.3-2.7c0,0.1,0,0.3,0,0.5c-0.1,0.4,0,0.8,0.2,1.1
		c0.1,0.1,0.1,0.3,0.1,0.5c-0.5,2.7-0.9,5.4-1,8.2c-0.3,2.6-0.6,5.3-0.8,8c-0.2,1.6-0.4,3.1-0.7,4.6c-0.2,1.2-0.5,2.3-0.8,3.5
		c-0.2,0.8-0.3,1.6-0.2,2.4l0.1,0.5c0.1,0.5,1.1,0.7,1.5,0.4c2.2-1.3,3.8-4.6,4.8-6.8c1.2-2.7,2.3-5.4,3.3-8.2
		c0.4-1,0.8-3.2,1.6-2.7c-2.2,6-4.2,12.4-8.5,17.4c-5.9,6.8-10.6,1.9-9.2-5.8c0.2-0.8,0.2-1.6,0.3-2.5c0.1-0.9,0.2-1.7,0.4-2.5
		c0.1-0.7,0.1-1.3,0.2-2c0-0.2,0-0.4-0.1-0.6c-0.1,0.1-0.2,0.2-0.2,0.3c-0.4,0.5-0.7,1-1,1.6c-0.2,0.4-0.4,0.7-0.7,1
		c-4.2,6.2-9.2,7.7-10.3,6.7c-0.7-0.7-1.1-1.7-1.1-2.8c0-0.4-0.1-0.8-0.1-1.2c0-0.3,0-0.6,0-0.8l0.2-1.5c0.1-0.2,0.1-0.4,0.1-0.7
		c0-1,0.1-2,0.3-3c0.1-0.8,0.2-1.6,0.4-2.4c0.1-0.6,0.3-1.2,0.3-1.9c0.2-1.8,0.5-3.7,1-5.5c0.3-1.3,0.5-2.6,0.7-3.9
		c0.2-1,0.3-2,0.2-3c-0.2-1.1-0.6-2.3,0.7-2.3c0.5,0,1.8,0.1,2.1,0.6c0,0.1,0.1,0.1,0.1,0.1c0.4,0.2,0.6,0.6,0.7,1.1
		c0,0.2,0.1,0.3,0.1,0.5c0.1,0.5,0.2,1,0.2,1.5c0.1,1.8,0.1,3.6,0,5.4c-0.3,3.6-1.5,7-2.2,10.5c-0.2,1.2-0.5,2.3-0.7,3.4
		c-0.1,0.8-0.4,3.7,0.3,4C107.4,47.8,110.2,45,110.7,44.3z"/>
	<path class="st0" d="M156.6,35.9c-0.1,0-2.9,4.7-3,5.1c-2,5.2-4.3,8.2-5.9,8.4c-2.4,0.2-3.1-8.8-7.8-11.8c-1.1-0.7-2.3-1.2-3.5-1.5
		l-0.4,2.1c-0.1,0.5-0.2,1-0.4,1.5c-0.4,1.5-0.6,3.1-0.6,4.7c-0.1,1.4-0.2,2.9-0.4,4.3c0,0.4,0,0.7-0.1,1.1
		c-0.1,0.6-0.1,1.2-0.2,1.8c0,0.2-0.1,0.3-0.2,0.4s-0.2,0-0.3-0.1c-1.2,0.4-4-0.9-4-1.2c-0.4-2.6-0.6-5.2-0.5-7.9
		c0-4.9-0.3-9.9,0.2-14.7c0.1-1.3,0.4-2.5,0.5-3.8l0.2-2.1c0.1-1.3,0.4-2.6,0.7-3.8c0.5-1.2,4.1-2.5,4.1,0.8
		c0.1,0.9,0.2,1.8,0.4,2.8l0.4,1.8l0.1,0.6c0,0.2,0.1,0.4,0.2,0.6c0,0,0.1,0,0.1,0c0-0.1,0-0.1,0.1-0.1c1.1-2.2,6.4-6.5,9.8-3.2
		c0.4,0.3,0.7,0.7,0.9,1.1c0.2,0.3,0.3,0.7,0.4,1c0.5,1.5,0.4,3.2-0.3,4.7c-0.9,2-2.2,3.8-3.9,5.2c-0.1,0.1-0.3,0.2-0.4,0.2
		c-1.1,0.7-2.3,1.2-3.5,1.5c-0.1,0.1-0.1,0.1-0.2,0.1c0.4,0.2,0.8,0.5,1.2,0.8s0.9,0.7,1.4,1.1c0.3,0.2,0.6,0.6,0.9,0.9
		c0,0,0,0,0.1,0c0.7,0.9,1.3,1.9,1.7,3c0.1,0.4,0.3,0.7,0.4,1.1c0,0.1,0,0.2,0,0.3l0.3,1c0.2,0.6,1.1,4.2,1.4,4.5
		c0.2,0.2,0.3,0.3,0.5,0.4c0.6,0.8,1.7,0.1,2.3-0.5c0.8-0.8,1.4-1.8,1.8-2.8C152.5,42.1,156.6,35.2,156.6,35.9z M139.1,34
		c0.8-0.4,1.7-0.5,2.2-1.2s1.1-1.5,1.7-2.3c0.2-0.3,0.3-0.6,0.3-1l0.2-3.1c0-0.2,0-0.4,0.1-0.5c0.2-0.7,0.2-1.5,0.2-2.2
		c0-0.7-0.2-1.5-0.5-2.1c-0.1-0.2-0.4-0.3-0.6-0.3c-0.3,0.1-0.6,0.1-0.8,0.2c-0.5,0.2-0.9,0.4-1.4,0.6c-2.8,1.3-3.9,2.9-3.7,6.4
		c-0.1,0.1-0.1,0.2-0.1,0.4c0,0.9,0,1.9-0.2,2.8c0,0.7,0,1.4-0.1,2.1c0,0.5,0,1,0.1,1.5h0.2C137.5,34.7,138.3,34.3,139.1,34z"/>
	<path class="st0" d="M169.9,28.5l-0.2-0.5c0.4-0.9,0.6-1.8,0.7-2.8c0.1-0.6,0-1.3-0.1-1.9c-0.3-1.4-2.1-0.6-2.8,0
		c-0.5,0.5-0.9,1.1-1.2,1.7c-0.7,1.3-1.3,2.6-1.9,3.9c-0.4,1-0.8,2-1.2,2.9c-0.4,0.9-0.7,1.9-1,2.8c-0.5,2-1.2,4-1.5,6.1
		c-0.1,0.8-0.2,1.6-0.3,2.3c-0.1,1.1,0.1,2.2,0.1,3.3c0,0.9,0.6,1.7,1.4,1.8c1.1,0.2,2.3,0.1,3.3-0.4c0.9-0.5,1.7-1,2.4-1.7
		c1.1-0.8,2.1-1.7,3.1-2.7c1.2-1.1,2.3-2.3,3.2-3.7c0.6-1.1,2.3-3.9,2.8-4c0,0.1,0,0.2,0,0.3c0,0.1-0.1,0.2-0.1,0.2
		c0.1,0.4-0.2,0.8-0.4,1.1c-0.2,0.3-0.4,0.7-0.6,1c-1,1.5-2.6,3.2-3.7,4.6c-2.8,3.2-5.4,6.2-9.4,7.9c-1,0.3-2,0.4-3.1,0.3
		c-1.7,0-4.6-2-5-5.8c-0.5-4,0.2-8,1.2-11.9c0.4-1.5,0.7-3,1.2-4.4c1-2.8,2-5.5,4.3-7.5c1-0.9,2.2-1.5,3.4-1.9
		c5-1.4,7.4,2.2,7.6,2.8c0.1,0.3,0.1,0.7,0.1,1c0,0.4,0.1,0.7,0.1,1.1c0,0.3-0.1,0.7-0.1,1c-0.1,0.7-0.3,1.4-0.7,2.1l-0.2,0.4
		c-0.2,0.3-0.4,0.6-0.6,0.9l-0.6-0.2C170,28.7,169.9,28.6,169.9,28.5z"/>
	<path class="st0" d="M194.7,45.3c-0.7,0.9-1.4,1.8-2.2,2.6c-2.8,2.8-9,3.4-12.4,1.5c-1.4-0.6-2.5-1.7-3.1-3.1c-0.6-1.3-1-2.6-1.1-4
		c0-1.1,0.1-2.2,0.4-3.3c0.1-0.4,0.3-0.8,0.5-1.1c0.4-0.9,1-1.7,1.8-2.4c0.5-0.5,1.1-0.9,1.7-1.3c0.1,0,1-0.3,1.4-0.4
		c-0.2-0.1-0.3-0.2-0.5-0.3c-1.2-0.6-2.2-1.6-2.9-2.8c-0.5-1-0.7-2-0.6-3.1c0.1-1.6,0.6-3.1,1.6-4.3c0.3-0.3,0.5-0.7,0.8-1
		c0.5-0.5,2-2.4,6.6-3c0.8-0.4,1.6-0.7,2.5-0.8c6.3-0.2,5.6,1.5,6,1.8c0,0,0.1,0.1,0.1,0.1c0.2,0.3,0.4,0.7,0.5,1
		c0.1,0.5,0.1,1-0.2,1.4c-0.2,0.4-0.5,0.8-0.9,1.1c-1,0.8-2.1,1.3-3.3,1.6c-1.3,0.1-2.6-0.3-3.6-1.3c-0.7-1-1-1-1.3-0.9
		c-0.1,0.4-0.5,0.7-0.9,1.1s-0.5,0.8-0.9,1.2c-1.4,1.7-1.4,5,0.5,6.4c3.5,2.6,3.9,1.5,4.2,1.6s0.7,0.2,0.6,0.5s-1.6,0.9-2,0.8
		c-0.4-0.1-0.8,0-1.2,0.2c-0.9,0.4-1.6,1.1-2.2,1.8c-0.5,0.9-0.9,2-1.2,3c-0.4,1.1-0.6,2.2-0.6,3.3c0.1,1.7,0.9,3.3,2.3,4.3
		c1.5,0.9,3.4,1,5.1,0.5c1.9-0.7,3-2.3,4.3-3.9c2.2-2.4,3.5-5.5,3.6-8.8C199.7,34.7,198.6,39.7,194.7,45.3z M189.6,24.7
		c0.6,0.2,1.2,0.3,1.8,0.1c3.7-0.4,5.2-5.3-1.7-4.2c-0.2,0-4.3,1.7-0.8,3.6C189.1,24.4,189.3,24.6,189.6,24.7L189.6,24.7z"/>
	<path class="st0" d="M210.9,39.5c0.1-0.2,0.1-0.3,0.1-0.3s0,0.2,0,0.3s-0.1,0.3-0.1,0.4s-0.4,0.9-0.4,1l-0.6,1.3
		c-0.5,1.4-1.5,2.5-2.6,3.4c-0.4,0.2-1.9,0.7-2.6,0.1c-0.9-0.2-1.1-2.5-1.1-3.2c0-0.4,0-0.8,0-1.2c0-0.7,0-1.4,0.1-2.1
		c0.1-0.3,0.1-0.7,0.1-1c0-0.3,0.1-0.7,0.1-1c0.1-0.3,0.2-0.6,0.3-0.9c0.5-0.8,0.8-1.1,2-0.5c0.1,0,0.2,0.1,0.2,0.2
		c0,0.2,0.1,0.2,0.2,0.4c0,0.1,0.1,0.1,0.1,0.2c0,0.2,0,0.4,0.1,0.7c0,0.4,0,0.9,0,1.3c0,0.2,0,0.4,0,0.5c0,0.1,0,0.2,0,0.3
		c0,0.2,0,0.5,0,0.7c-0.1,0.3-0.1,0.6-0.1,0.9v0.3c0,0,0,0,0,0.1c0,0.3,0,0.6-0.1,0.8c0,0,0,0.1,0,0.2c0,0.1,0.1,0.3,0.1,0.5
		c0,0.2,0,0.3,0,0.5c0,0.3,0,0.5,0,0.8c0.1,0.7,0.1,0.8,0.6,0.9c0.8,0.2,1.4-0.7,2.4-2.5l0.8-1.5l0.5-1
		C210.9,39.7,210.9,39.6,210.9,39.5z M205.1,32.9c2.3-0.6,1.5,1,1.2,1.2c-0.5,0.3-1.1,0.3-1.6,0.2c-0.1-0.1-0.2-0.2-0.2-0.3
		c-0.1-0.1-0.2-0.3-0.2-0.5c0-0.1-0.1-0.5,0.4-0.5C204.9,32.9,205,32.9,205.1,32.9z"/>
	<path class="st0" d="M215.4,41.2c-0.1,0.1-0.1,0.2,0,0.3c0.4,0.5,0.8,0.9,1.3,1.4c0,0.1,0.1,0.1,0.1,0.2c0.2,0.3,0.4,0.6,0.5,1
		c0.1,0.2,0.1,0.3,0.1,0.5c0,0.2,0,0.3,0.1,0.5c0.3,1.1,0.3,2.2-0.1,3.2c-0.3,1-2.6,1.5-3.3,2.2c-0.6,0.4-1.3,0.6-2,0.5
		c-0.7-0.1-1.3-0.4-1.8-0.9c0-0.1-0.1-0.1-0.1-0.1c-0.1-0.1-0.2-0.2-0.3-0.3c-0.1-0.1-0.1-0.1-0.2-0.2c-0.1-0.1-0.1-0.2-0.1-0.3
		c-0.2-1.4,0.3-2.7,1.1-3.8c0.1-0.1,0.2-0.3,0.3-0.5c0.1-0.2,0.3-0.3,0.4-0.5c0.4-0.4,0.7-0.7,1.1-1.1c0.1-0.1,0.1-0.1,0.2-0.2
		c-0.2-0.2-0.3-0.4-0.5-0.6l-1.3-1.2c-0.4-0.3-0.7-0.6-1-1c-0.5-0.5-0.9-1.1-1.2-1.7c-0.2-0.5-0.4-1-0.4-1.6c0-0.2,0-0.4,0.1-0.5
		c0.1-0.6,0.4-1.1,0.8-1.6c0.2-0.3,1.4-2.2,3.6-0.4c0.5,0.3,1,0.6,1.4,1c0.2,0.2,0.2,0.3,0,0.4s-1-0.4-1.3-0.4l-0.2,0.1
		c-0.2,0.2-0.3,0.4-0.4,0.6c0,0.1-0.1,0.2-0.1,0.3c-0.1,0.2-0.1,0.4-0.1,0.7c0,0.2,0.1,0.3,0.2,0.4l0,0c0.2,0.3,0.4,0.5,0.6,0.8
		l0.2,0.2c0.4,0.4,1,0.8,1.4,1.2c0.2,0.2,0.9,1,0.9,1.1c0.2-0.1,0.6-0.2,0.8-0.2c0.4-0.1,0.8-0.3,1.2-0.4c0.4-0.1,1.5-1.2,1.6-1.3
		c0.6-0.2,0.2,0,0.3,0l-1.2,1C217,40.9,215.7,40.9,215.4,41.2z M213.9,46.6c0-0.5,0-1.1-0.2-1.6l-0.1-0.2c-0.2-0.5-0.4-0.9-0.8-1.4
		c0,0,0,0-0.1,0s-0.6,0.5-0.9,0.9s-0.6,0.7-0.5,0.6c-0.3,0.3-0.6,0.6-0.8,1c-0.2,0.2-0.3,0.5-0.4,0.8c-0.1,0.1-0.1,0.1-0.1,0.3
		s-0.1,0.4-0.2,0.6c-0.1,0.4-0.1,0.8,0,1.2c0.1,1.2,1.6,2.2,3.3,1.3C214.5,49.6,213.9,47,213.9,46.6z"/>
	<path class="st0" d="M223.6,42.8c-0.6,0.1-1.1-0.2-1.4-0.6c-0.1-0.2-0.2-0.3-0.2-0.5c-0.1-0.5-0.1-1.1,0-1.7c0-0.2,0.1-0.5,0.1-0.8
		l0.2-0.8c0.1-0.3,0.2-0.6,0.3-0.9c0.2-0.6,0.5-1.1,0.9-1.6c0.5-0.6,1.1-1.1,1.9-1.4c0.8-0.3,1.7-0.2,2.4,0.2
		c1.1,0.5-0.5,0.6-1.1,0.6c-2.5,0-3,2.5-3.4,3.5c-0.5,1.7-0.4,4.2,1.9,3.4c1-0.3,0.8-1.6,1.1-2.2c0.1-0.2,0.1-0.4,0.1-0.6
		c0-0.2,0.1-0.4,0.1-0.6c0.1-0.3,0.2-0.6,0.3-0.9s0.2-0.6,0.3-1c0.3-0.9,4-4.1,3.3-0.3l0.1,0.2c0.1,0.2-0.2,0.5-0.1,0.7
		c0,0.1,0,0.2,0,0.4c-0.1,0.6-0.2,1.2-0.3,1.8c-0.1,0.6-0.1,1-0.2,1.6c0,0.2-0.1,0.4-0.1,0.6c-0.1,0.7-1.2,4.1,0,3.7
		c2.1-0.6,4.1-6.6,4.2-6.6s0.2,0,0.1,0.2c0,0.2,0,0.3-0.1,0.5c-0.3,0.6-0.6,1.2-0.9,1.9c-0.6,1.5-1.8,3.9-3.5,4.5
		c-3.3,1.2-4,0.2-4-2.5c0-0.5,0.1-0.9,0.1-1.4v-0.2l-0.2,0.2C225.1,42.5,224.4,42.7,223.6,42.8z"/>
	<path class="st0" d="M72,85.1c-0.3,0.4-0.4,0.8-0.3,1.3c0.1,1,0.1,2,0,3c-0.1,0.3-0.1,0.5-0.1,0.8c0,0.2,0,0.4-0.2,0.4
		s-0.1,0.2-0.1,0.3c-0.2,0.7-0.5,1.4-0.8,2.1c-0.3,0.5-0.7,0.9-1,1.4c-0.1,0.2-0.2,0.4-0.4,0.6c-0.4,0.6-1,1.1-1.6,1.5
		c-0.5,0.3-0.9,0.7-1.4,1.1c-0.4,0.4-0.9,0.7-1.5,0.9c-0.5,0.2-1,0.4-1.6,0.4c-0.1,0-0.2,0-0.2,0.1c-0.4,0.2-0.8,0.3-1.2,0.4
		c-0.2,0.1-0.4,0.1-0.6,0c-0.6-0.2-1.2-0.3-1.8-0.4c-0.4,0-2.4-3.1-0.5-4.9c1-1,2-1.9,3.2-2.7c1.6-1,3.2-2,4.8-3.1
		c0,0,0.1-0.1,0.1-0.1c0.5-0.2,0.6-0.6,0.6-1.1c0-5.3-6.7-12.8-10.4-11.4c-0.1,0-0.1,0.2-0.2,0.3c-0.1,0.2-0.1,0.5-0.1,0.7
		c0,0.7,0.1,5.2-0.1,6.7c0,0.2,0,0.5,0,0.7c0.1,0.8,2.1,9.2-3.8,5.8c0,0-0.1,0-0.1,0s-1.2-0.3-1.3-0.9c-0.2-1-0.3-2-0.1-3
		c0.2-0.6,0.3-1.2,0.2-1.8c-0.5-5.4-0.8-10.9-0.7-16.3c0-0.1,0-0.2,0-0.2c-0.4-4.2,0-5.1,0.1-6.1c0-0.2,0-0.4,0-0.5
		c0.9-0.5,5-0.5,5.6,0.2c0.2,0.3,0.3,0.6,0.3,1c0,0.2,0,0.4,0.1,0.6c0.3,2.2,0.5,4.4,0.5,6.6c-0.2,1.3-0.3,2.7-0.4,4l-0.1,0.8
		c0.1,0,0.1,0.1,0.1,0.1c0.8,0,1.6-0.1,2.4-0.3c1.1-0.4,2.2-0.9,3.1-1.7c0.4-0.4,0.7-0.9,0.9-1.4c0-0.1,0-0.2,0.1-0.3
		c0.3-0.4,0.5-0.9,0.5-1.4c0-0.3,0.1-0.6,0.2-0.9c0.2-0.4,0.3-0.9,0.3-1.3c0.1-0.9-0.1-1.8-0.6-2.6c-0.5-0.8-1.3-1.5-2.2-1.7
		c-0.8-0.2-1.5-0.4-2.3-0.5s-4.3-1.9-1.4-2.8c0.6,0,1.3,0,1.9,0c0.6,0,1.2,0.2,1.9,0.2c1.3,0.2,2.5,0.6,3.6,1.4
		c0.8,0.5,1.4,1.1,1.9,1.9c0.2,0.4,0.5,0.7,0.7,1.1c0.1,0.2,0.1,0.4,0.1,0.6c0.1,0.4,0.1,0.8,0.1,1.2c-0.1,0.5-0.1,1.1,0,1.6
		c-0.1,0.9-0.3,1.8-0.7,2.7c-0.2,0.5-0.5,1.1-0.8,1.6c-1.2,1.4-2.6,2.6-4.1,3.7c-0.1,0.1-0.1,0.2-0.2,0.3l0.2,0.1
		c0.8,0.3,1.5,0.7,2.4,0.9c1.3,0.5,2.5,1.5,3.3,2.6c0.5,0.6,1,1.3,1.4,2.1c0.3,0.6,0.4,1.1,0.7,1.6l0.4,1l0.4,1
		c0.1,0,0.2-0.1,0.3-0.2c3.8-3.1,2.7-1.8,5.6-4.3c1.6-1.3,1.9-2.1,1.9-1C74.5,83.1,79.4,79.4,72,85.1z M65.1,89.7
		c-0.8,0.6-1.6,1.1-2.4,1.7l-2,1.3c-0.4,0.2-0.7,0.5-1,0.8c-0.9,1-1.2,2.3-1,3.7c0,0,0.4,0.5,0.4,0.5c0.3,0.4,0.9,0.7,1.4,0.5
		c0.7-0.3,1.4-0.6,2-1c1-0.5,1.9-1.3,2.5-2.3c0.2-0.3,0.3-0.7,0.5-1c0.5-0.8,0.8-1.6,1.2-2.3C69.1,87.8,67.5,88.2,65.1,89.7
		L65.1,89.7z"/>
	<path class="st0" d="M92.5,79.3c0,0.1-0.1,0.2-0.1,0.3c-0.3,0.4-0.5,0.8-0.7,1.2c0,0-0.1,0.1-0.1,0.2c0,0.4-0.3,0.7-0.4,1.1
		s-0.3,0.6-0.5,0.9c-1.1,1.3-1.6,3-3.1,4c-1.1,0.9-2.4,1.5-3.8,1.8c-3.2,0.6-3.6-0.6-4.1-0.8c0,0.2-0.1,0-0.1-0.1
		c-0.4-0.3-0.8-0.6-1.2-1c-0.5-0.7-0.7-1.4-0.7-2.2c-0.1-0.9,0-1.9,0.1-2.8c0.1-0.6,0.2-1.2,0.2-1.8c0-0.1,0-0.3,0.1-0.4
		c0.2-0.6,0.3-1.2,0.4-1.8c0.2-0.7,0.4-1.4,0.7-2.1c0-0.1,0.1-0.2,0.2-0.3c0.2-0.2,0.3-0.5,0.4-0.7c0,0,0-0.1,0-0.1
		c0.2-0.5,0.5-1,0.9-1.3c0.1-0.1,0.2-0.1,0.2-0.2c2-1.9,3.8-1.2,4.8-1.2c2.8,0,4.5,3.5,1.8,6.2c-0.2,0.1-0.4,0.2-0.5,0.4
		c0,0.1-0.1,0.1-0.2,0.1c-0.2,0.1-0.4,0.2-0.6,0.3c-0.4,0.2-0.8,0.3-1.2,0.4c-3.5,0-2.1,8.9,0.4,8.4c3.5-0.7,6.4-6.7,7.1-8.7
		C92.4,79.2,92.4,79.2,92.5,79.3z M87.9,74.2c0-0.1,0-0.1-0.1-0.2c-0.4-0.4-1.2-1-1.7-0.9c-0.4,0-0.7,0.3-0.8,0.7
		c-0.2,0.4-0.3,0.8-0.4,1.3c0,0.1,0,0.3-0.1,0.4c-0.1,0.6-0.2,1.1-0.2,1.7c0,0.3-0.1,0.6-0.2,0.9c-0.1,0.2-0.1,0.4-0.1,0.6
		c0.6-0.1,1.2,0.2,1.7,0c0.3-0.2,0.6-0.4,0.9-0.7c0.5-0.5,0.9-1.2,1.2-1.9c0.1-0.1,0.1-0.2,0-0.3c0-0.2,0-0.4,0.1-0.5l0.1-0.4
		C88,74.6,88,74.4,87.9,74.2z"/>
	<path class="st0" d="M98.8,82.1c-0.2,0.1-0.1,0.2,0,0.4c0.6,0.7,1.2,1.4,1.9,2c0.1,0.1,0.1,0.2,0.2,0.3c0.3,0.5,0.6,1,0.7,1.5
		c0.1,0.2,0.1,0.5,0.1,0.8c0,0.2,0,0.5,0.1,0.7c0.7,1.3,0.2,3.4-0.2,4.7c-0.5,1.5-3.7,2.2-4.8,3.2c-0.8,0.6-1.9,0.9-2.9,0.8
		c-1-0.1-1.9-0.6-2.5-1.3c0-0.1-0.1-0.2-0.2-0.2c-0.2-0.1-0.3-0.2-0.4-0.4c-0.1-0.1-0.2-0.2-0.3-0.3c-0.1-0.1-0.2-0.2-0.2-0.4
		c-0.2-2,0.4-3.9,1.6-5.5c0.2-0.2,0.3-0.4,0.5-0.7c0.2-0.2,0.4-0.5,0.6-0.7c0.5-0.5,1-1,1.5-1.6c0.1-0.1,0.2-0.2,0.3-0.3
		c-0.2-0.3-0.5-0.6-0.8-0.9l-1.8-1.8c-0.5-0.5-1-1-1.5-1.5c-0.7-0.8-1.3-1.6-1.8-2.5c-0.3-0.7-0.6-1.5-0.6-2.3c0-0.3,0-0.5,0.1-0.8
		c0.1-0.8,0.5-1.6,1.1-2.3c0.3-0.4,2-3.3,5.1-0.6c0.7,0.4,1.4,0.9,2,1.5c0.3,0.2,0.3,0.4,0,0.6s-1.5-0.6-1.8-0.6
		c-0.1,0-0.3,0.1-0.4,0.2c-0.3,0.2-0.5,0.6-0.6,0.9c0,0.1-0.1,0.3-0.2,0.4c-0.1,0.3-0.2,0.6-0.1,0.9c0.1,0.2,0.2,0.4,0.3,0.6
		c0,0,0,0,0,0.1c0.2,0.4,0.5,0.8,0.9,1.1l0.4,0.3c0.7,0.6,1.4,1.2,2.1,1.8c0.4,0.4,1.2,1.4,1.4,1.6c0.2-0.1,0.8-0.2,1.1-0.3
		c0.6-0.2,1.2-0.4,1.7-0.6c0.6-0.2,2.1-1.8,2.3-1.8c0.8-0.3,0.2,0,0.5,0l-1.7,1.3C101,81.7,99.1,81.8,98.8,82.1z M96.5,90
		c0-0.8-0.1-1.5-0.3-2.3l-0.1-0.3c-0.3-0.7-0.6-1.4-1.1-2c0,0,0,0-0.1-0.1s-0.8,0.8-1.3,1.3s-0.8,0.9-0.7,0.9
		c-0.5,0.4-0.8,1-1.2,1.5c-0.3,0.3-0.5,0.7-0.7,1.2c-0.2,0.2-0.1,0.2-0.2,0.4s-0.2,0.6-0.3,0.9c-0.1,0.6-0.1,1.2,0,1.8
		c0.2,1.7,2.4,3.1,4.8,1.9C97.4,94.3,96.6,90.5,96.5,90z"/>
	<path class="st0" d="M104.2,65.7c-0.4-0.1-3.2-1-3.7-1c-0.2-0.1-0.4-0.1-0.6-0.2c-3.4-2.3,0.6-1,1.2-0.9c0.3,0,2,0.2,2.2,0.2
		c0.4,0,0.8,0,1.2,0c0.1,0,0.3,0,0.4,0c0.1-0.1,0.1-0.2,0.1-0.3c0.1-0.6,0.2-1.2,0.3-1.7c0-4.7,3.7-0.7,3.7,0.2c0,0.3,0.1,0.7,0.1,1
		v0.2c0,0.1,0,0.2,0,0.3c0,0.2,0.1,0.4,0.4,0.5c6.6-0.3,6.1,0,5.4,0.6c-0.2,0.1-0.5,0.2-0.8,0.4H114c-0.2,0-0.4,0.1-0.6,0.2
		c-0.1,0-0.1,0-0.2,0.1c-0.1,0-0.2,0.1-0.3,0.2c-1.4,0.1-1.5,0.1-1.6,0.1s0,0,0,0c-0.2,0.1-0.5,0.1-0.8,0.1c-0.2,0-0.5,0-0.7,0h-0.5
		c0,0.3,0,0.5,0,0.8c0,0.5,0,1.6,0,2.1v0.6c0,0.2,0,0.3,0,0.5c0.3,4.3-0.2,14.7-0.2,19c0,1.1-1,8.1,8.5-8.4c0.2-0.2,0.3-0.5,0.4-0.8
		c0.1-0.2,0.9-1,0.4,0l-0.1,0.1c0,0.1-0.1,0.1-0.1,0.2c0,0.1-0.1,0.2-0.2,0.4c-0.1,0.2-0.2,0.4-0.3,0.6c-0.5,0.8-0.9,1.4-1.4,2.2
		c-1.6,2.3-1.8,3.8-3.7,6.5c-0.9,1.4-6.9,9.2-8.6,1c-0.2-0.5-0.3-1-0.3-1.6l-0.2-0.7c0-0.1,0-0.2,0-0.4c0-0.3-0.1-0.7-0.1-1v-1.6
		c0-0.4,0-0.8,0-1.2c0-0.2,0-0.4,0-0.6c0-0.3,0-0.6,0-0.9l0.1-2c0-0.1,0-0.3,0-0.4c0.1-0.7,0.2-1.5,0.4-2.2c0-0.5,0.1-7.2,0.1-7.7
		c0.2-0.8,0.2-1.7,0.4-2.5c0.1-0.4,0.1-0.8,0.2-1.2c0-0.2,0-0.3,0.1-0.5C104.5,65.9,104.3,65.8,104.2,65.7z"/>
	<path class="st0" d="M138.4,89.7c-0.5,0.3-1,0.4-1.6,0.3c-1-0.2-1.6-2.4-1-3.4c0.4-0.6,0.9-1.2,1.4-1.7c0.7-0.7,1.5-1.1,2.4-1.4
		c0.2-0.1,0.3-0.2,0.4-0.4l1.1-3.1c0.4-1.2,0.7-2.4,0.9-3.7c0.2-0.7,0.2-1.4,0.3-2.2c-0.1-0.7-0.1-1.4,0-2.1c0.1-0.6,0.1-1.1,0-1.7
		c-0.1-0.5-0.1-1.1-0.2-1.7S142,68,142,67.6c0-0.3-0.1-0.6-0.1-0.8c-0.4-1.5-1.5-1.8-2.3-1.3c-0.5,0.3-0.9,0.6-1.2,1.1
		c-0.2,0.3-0.5,0.6-0.8,0.9c-0.3,0.3-0.8,0.9-1.1,1.4c-0.3,0.5-0.5,1-0.8,1.4c-0.4,0.9-0.9,1.9-1.3,2.8c-0.2,0.4-0.3,0.9-0.5,1.4
		c-0.2,0.7-0.1,1.6-0.3,2.3c-0.1,0.3-0.1,0.6-0.1,0.8c0,0.5,0,1.1,0,1.6c0,0.2,0,0.4-0.1,0.6c-0.1,0.4-0.2,0.8-0.2,1.3
		c-0.1,0.2-0.1,0.4-0.1,0.5c-0.1,0.4-0.1,0.8-0.2,1.2l-0.1,2c0,0.4-0.2,0.8-0.2,1.2c0,0.2,0,0.4,0,0.5c0.1,0.4,0.1,0.7-0.1,1.1
		c0,0,0,0,0,0.1c0,0.6-0.1,1.1-0.2,1.7c0,0.3-0.1,0.6-0.1,0.8c-0.1,0.8-0.2,1.5-0.4,2.2c-0.1,0.5-0.3,1-0.4,1.4s-0.3,1.3-0.5,1.9
		c-0.1,0.5-4.7,8.6-4.8-0.5c-0.1-0.7-0.1-1.4-0.1-2.1c0-0.9,0-1.9,0-2.8c-0.1-1.2-0.1-2.3,0-3.5c0-0.7,0-1.4,0-2.1
		c0-1.1,0.1-2.3,0.3-3.4c0.1-1.4,0.3-2.8,0.4-4.2c0-1.7,0.2-3.4,0.3-5c0-0.7,0.1-1.3,0.1-2c0.1-0.9,0.2-6.1,0.3-6.9l0.2-1.6
		c0.1-0.6,3.6-1.7,4-1.2c0.4,0.5,0.6,1.1,0.7,1.7c0.1,0.5,0.2,1,0.3,1.5c0,0.1,0.1,0.2,0.1,0.3c0.1,1.1,0.4,6.4,0.5,7.4
		c0,0.5,0,1,0.1,1.5v0.8c0,0,0.1,0,0.1,0l0.2-0.4c0.2-0.5,0.4-1,0.7-1.6c0.7-1.5,1.5-2.9,2.5-4.2c0.4-0.7,1-1.3,1.5-1.8
		c0.8-0.8,1.8-1.3,2.9-1.5c0.4,0,0.9,0,1.3,0c0.5,0,1.1,0.2,1.5,0.4c0.6,0.3,1,0.8,1.2,1.4c0.4,0.9,0.6,1.8,0.8,2.7
		c0.1,0.4,0.1,0.8,0.1,1.2c0,1.4-0.2,2.8-0.5,4.2c-0.4,1.6-0.6,3.3-1,5c-0.1,0.7-0.5,2.1-0.7,2.8l-0.1,0.5l0.3-0.1
		c1.7-1.1,1.7-0.8,5.1-3.1c0.2,0,0.3,0,0.4,0.3s-0.4,0.4-0.6,0.4s-4.1,2.4-5.7,3.4c-0.3,0.4-0.6,0.9-0.8,1.4
		c-0.2,0.4-0.4,0.9-0.6,1.3c-0.1,0.2-0.2,0.4-0.2,0.5l-2,2.4C139.4,89.2,138.9,89.5,138.4,89.7z M138.5,87.2c2.1-3.5,1.1-3,0.9-3.1
		c-1.1,0-3.8,2.6-3.5,3.9l0.4,0.9C137,89.6,138.1,87.8,138.5,87.2L138.5,87.2z"/>
	<path class="st0" d="M162.5,80c-0.1,0.6-0.3,1.2-0.6,1.7c-0.4,0.9-0.9,1.6-1.3,2.5s-0.9,1.7-1.3,2.5c-0.6,1.2-1.3,2.5-2,3.6
		c-0.1,0.3-0.3,0.5-0.5,0.8c-0.7,1-1.6,1.8-2.8,2.4c-2,1.2-2.6,0-2.9-0.2c-1.1-0.7-1.9-1.9-2.2-3.1c-0.2-0.9-0.3-1.7-0.5-2.6
		c-0.1-0.6-0.2-1.2-0.2-1.8c-0.1-1.8,0-3.5,0.1-5.3c0-1.4,0.2-2.8,0.5-4.2c0.4-1.5,0.7-3,0.9-4.4c0.2-1.4,0.7-2.8,1.2-4.2
		c0.4-1.3,0.9-2.5,1.4-3.8c0.5-1,1.1-2,1.9-2.8c3.1-3.4,6.8-2.9,8.2-1.2c0.1,0.1,0.2,0.1,0.2,0.1c0.1,0,0.1,0.1,0.2,0.1
		c0.1,0.4,0.4,0.6,0.5,1s0.3,0.8,0.4,1.2c0.2,1.3,0,2.7-0.5,3.9c-0.4,1.2-0.8,2.4-1.4,3.5c-0.2,0.4-0.4,0.9-0.6,1.4s-0.6,1-0.9,1.5
		c-0.4,0.7-0.9,1.4-1.3,2c-0.4,0.7-1,1.3-1.6,1.8c-0.3,0.3-0.6,0.6-0.9,0.9s-0.8,0.7-1.2,1.1l-0.8,0.5c-0.2,0.1-0.3,0.3-0.3,0.5
		c-0.1,0.8-0.2,1.6-0.3,2.5c-0.1,0.7-0.2,1.4-0.1,2.1c0.2,1.5,0.3,3.1,0.2,4.6c0.1,0.2,0.1,0.5,0.2,0.7c0.3,0.5,0.7,1,1.1,1.3
		c0.5,0.2,1.1,0,1.4-0.5c0.4-0.6,0.9-1.3,1.2-1.9c1.3-2.5,2.6-5.1,3.9-7.6c0.7-1.4,0.4-2,0.6-1.8C162.6,79.3,162.6,79.6,162.5,80z
		 M154.4,78.2c0.2-0.2,0.5-0.3,0.7-0.5c0.9-0.7,1.8-1.6,2.5-2.5c0.8-1,1.4-2,2-3.1c0.3-0.7,0.7-1.3,1-2c0.3-0.8,0.6-1.6,0.8-2.4
		c0.1-0.4,0.3-0.8,0.4-1.2l0.2-1.3c0.1-0.5,0.1-1.1,0-1.7c-0.1-0.3-0.2-0.7-0.3-1c0-0.3-0.2-0.5-0.4-0.7c-0.1-0.1-0.1-0.2-0.1-0.3
		c-0.1-0.2-0.2-0.4-0.4-0.5l-0.5-0.2c-0.2-0.1-0.6-0.1-0.7,0.2c-0.1,0.1-0.2,0.2-0.3,0.3c-0.3,0.5-0.6,1-0.9,1.5
		c-0.9,1.6-1.5,3.2-2,4.9c-0.4,1.1-0.7,2.2-0.9,3.3c-0.2,1.1-0.3,2.2-0.5,3.3c-0.1,0.5-0.1,1-0.3,1.4c-0.1,0.4-0.2,0.8-0.4,1.2
		c-0.1,0.4-0.1,0.8-0.2,1.2C154.4,78.2,154.4,78.1,154.4,78.2L154.4,78.2z"/>
	<path class="st0" d="M163.8,84.4c-0.8,0.1-1.6-0.2-2.1-0.9c-0.2-0.2-0.3-0.5-0.4-0.8c-0.2-0.8-0.3-1.6-0.1-2.4
		c0.1-0.4,0.1-0.7,0.2-1.1l0.3-1.1c0.1-0.4,0.3-0.9,0.4-1.3c0.6-2,2.1-3.6,4-4.4c1.2-0.4,2.4-0.3,3.5,0.3c1.6,0.8-0.7,0.8-1.7,0.8
		c-3.6,0-4.4,3.6-4.9,5.1c-0.8,2.4-0.6,6.1,2.8,5c1.4-0.5,1.2-2.4,1.6-3.1c0.1-0.3,0.2-0.5,0.2-0.8c0-0.3,0.1-0.6,0.2-0.9
		c0.1-0.4,0.3-0.9,0.4-1.3s0.3-0.9,0.4-1.4c0.4-1.3,5.8-5.9,4.7-0.4l0.1,0.2c0.1,0.4-0.3,0.7-0.1,1c0,0.2,0,0.4,0,0.6
		c-0.1,0.9-0.2,1.7-0.4,2.6c-0.1,0.9-0.1,1.4-0.3,2.3c-0.1,0.3-0.1,0.6-0.2,0.8c-0.1,1-1.8,5.9-0.1,5.4c3.1-0.9,5.9-9.5,6.1-9.6
		s0.2,0,0.2,0.2c0,0.2-0.1,0.4-0.1,0.7c-0.5,0.9-0.9,1.8-1.2,2.7c-0.9,2.2-2.6,5.6-5,6.5c-4.8,1.8-5.8,0.3-5.8-3.6
		c0-0.7,0.1-1.3,0.2-2v-0.3l-0.3,0.2C165.9,84,164.9,84.4,163.8,84.4z"/>
	<path class="st0" d="M191,84c-0.5,0.5-0.8,1.2-1.3,1.7l-0.3,0.4c-0.4,0.5-0.9,1-1.4,1.3c-0.7,0.5-1.4,0.8-2.2,1.1
		c-0.6,0.2-1.3,0.3-1.9,0.5c0,0-2.9,0.5-4.3-0.9c0-0.1-0.1-0.2-0.2-0.2c-0.4-0.4-0.7-1-0.9-1.6l-0.2-0.5c-0.1-0.3-0.1-0.5-0.1-0.8
		c0-0.6,0-1.2,0-1.7c-0.1-0.4-0.1-0.8,0-1.3c0.1-0.3,0.1-0.5,0.1-0.8c0-0.4,0-0.8,0.1-1.2c0.1-0.9,0.4-1.7,0.5-2.5l0.1-0.2
		c0.1-0.4,0.2-0.8,0.4-1.2c0.2-0.4,0.4-0.9,0.6-1.3s0.4-0.7,0.5-1c0-0.1,0.1-0.1,0.1-0.2c0.2-0.4,0.5-0.7,0.9-0.9
		c1.7-2.1,6.1-2.1,7.9-0.5c0.1,0.1,0.2,0.1,0.3,0.2c0.1,0.1,0.2,0.2,0.2,0.3c0,0.1,0.1,0.3,0.1,0.4c0.1,0.2,0.2,0.5,0.1,0.8
		c0,0.1,0,0.1,0,0.2c0,1.7-0.5,3.4-0.9,0.4c0-0.3-0.1-0.6-0.4-0.8c0-0.1-0.1-0.3-0.2-0.4c-0.1-0.1-0.3-0.3-0.5-0.3
		c-0.2-0.1-0.4-0.2-0.6-0.3c-0.1-0.1-0.3-0.1-0.4,0l-0.5,0.4c-0.1,0.1-0.2,0.2-0.2,0.2c-0.1,0.4-0.4,0.8-0.6,1.1
		c-0.2,0.3-0.4,0.6-0.5,0.9c-0.1,0.4-0.3,0.7-0.4,1c0,0.1-0.1,0.2-0.1,0.2c-0.1,0.5-0.2,1-0.4,1.4c-0.1,0.3-0.2,0.6-0.2,0.9
		c0,0.1-0.1,0.2-0.1,0.4c-0.1,0.3-0.2,0.7-0.2,1c0,0.4-0.1,0.7-0.2,1.1c0,0,0,0.1,0,0.1c0,0.5-0.1,1-0.1,1.5c0,0.2,0,0.3,0,0.5
		c0,0.1,0,0.1,0,0.2c0,0.3,0,0.6,0,0.9v0.4c0,0.3,0,0.5,0.1,0.8c0.1,0.1,0.1,0.3,0.2,0.5c0,0.2,0.1,0.4,0.2,0.6
		c0.1,0.2,0.2,0.3,0.3,0.5c1.9,1.6,3.6-0.6,4.6-1.6s4.7-6,5.1-6.6s0.2,0.1-0.2,0.7l-1.8,2.4C191.7,82.8,191.3,83.4,191,84z"/>
	<path class="st0" d="M207.3,79.3c0,0.1-0.1,0.2-0.1,0.3c-0.3,0.4-0.5,0.8-0.7,1.2c0,0-0.1,0.1-0.1,0.2c0,0.4-0.3,0.7-0.4,1.1
		s-0.3,0.6-0.5,0.9c-1.1,1.3-1.6,3-3.1,4c-1.1,0.9-2.4,1.5-3.8,1.8c-3.2,0.6-3.6-0.6-4.1-0.8c0,0.2-0.1,0-0.1-0.1
		c-1.2-0.7-1.9-1.9-1.9-3.2c0-0.9,0-1.9,0.1-2.8c0.1-0.6,0.1-1.2,0.2-1.8c0-0.1,0-0.3,0.1-0.4c0.1-0.6,0.2-1.2,0.4-1.8
		c0.2-0.7,0.5-1.5,0.8-2.2c0-0.1,0.1-0.2,0.1-0.3c0.2-0.2,0.3-0.5,0.4-0.7c0,0,0-0.1,0-0.1c0.2-0.5,0.5-1,0.9-1.3
		c0.1-0.1,0.2-0.1,0.2-0.2c1.9-1.9,3.7-1.2,4.7-1.2c2.8,0,4.5,3.5,1.8,6.2c-0.2,0.1-0.4,0.2-0.5,0.4c0,0.1-0.1,0.1-0.2,0.1
		c-0.2,0.1-0.4,0.2-0.6,0.3c-0.4,0.2-0.8,0.3-1.2,0.4c-3.5,0-2.1,8.9,0.4,8.4c3.5-0.7,6.4-6.7,7.1-8.7
		C207.1,79.1,207.2,79.2,207.3,79.3z M202.7,74.2c0-0.1,0-0.1-0.1-0.2c-0.4-0.4-1.1-1-1.7-0.9c-0.4,0-0.7,0.3-0.8,0.7
		c-0.2,0.4-0.3,0.8-0.4,1.3c0,0.1,0,0.3-0.1,0.4c-0.1,0.6-0.2,1.1-0.2,1.7c0,0.3-0.1,0.6-0.2,0.9c-0.1,0.2-0.1,0.4-0.1,0.6
		c0.6-0.1,1.2,0.2,1.7,0c0.4-0.2,0.7-0.4,0.9-0.7c0.5-0.5,1-1.2,1.2-1.9c0-0.1,0.1-0.2,0-0.3c0-0.2,0-0.4,0.1-0.5l0.1-0.4
		C202.9,74.6,202.7,74.4,202.7,74.2z"/>
	<path class="st0" d="M85.6,110.2c-0.3-0.1-2.2-0.7-2.6-0.7c-0.1,0-0.3-0.1-0.4-0.1c-2.3-1.6,0.4-0.7,0.8-0.6c0.2,0,1.4,0.2,1.6,0.1
		c0.3,0,0.5,0,0.8,0c0.1,0,0.2,0,0.3,0c0.1-0.1,0.1-0.1,0.1-0.2c0.1-0.4,0.2-0.8,0.2-1.2c0-3.2,2.5-0.5,2.5,0.2c0,0.2,0,0.5,0.1,0.7
		v0.1c0,0.1,0,0.2,0,0.2c0,0.2,0.1,0.3,0.2,0.3c4.6-0.2,4.2,0,3.8,0.4c-0.2,0.1-0.4,0.2-0.6,0.2h-0.1c-0.1,0-0.3,0.1-0.4,0.2
		c-0.1,0-0.1,0-0.2,0.1c-0.1,0-0.1,0.1-0.2,0.1c-0.9,0.1-1,0.1-1.1,0.1s0,0,0,0c-0.2,0.1-0.4,0.1-0.5,0c-0.2,0-0.3,0-0.5,0h-0.3
		c0,0.2,0,0.4,0,0.6c0,0.3,0,1.1,0,1.4v0.4c0,0.1,0,0.2,0,0.3c0.2,3-0.2,10.2-0.2,13.2c0,0.8-0.7,5.6,5.8-5.8
		c0.1-0.2,0.2-0.3,0.3-0.6c0.1-0.1,0.6-0.7,0.3,0l0,0c0,0-0.1,0.1-0.1,0.1c0,0.1,0,0.2-0.1,0.2c-0.1,0.1-0.2,0.2-0.2,0.4
		c-0.3,0.6-0.6,1-1,1.5c-1.1,1.6-1.3,2.6-2.5,4.5c-0.7,1-4.8,6.4-5.9,0.7c-0.1-0.3-0.2-0.7-0.2-1.1l-0.1-0.5c0-0.1,0-0.2,0-0.2
		c0-0.2,0-0.4,0-0.7v-1.1c0-0.2,0-0.6,0-0.8c0-0.1,0-0.3,0-0.4c0-0.2,0-0.4,0-0.6l0.1-1.3c0-0.1,0-0.2,0-0.3c0-0.5,0.1-1,0.2-1.6
		c0-0.3,0-5,0.1-5.3c0.1-0.6,0.1-1.2,0.2-1.8c0-0.3,0.1-0.6,0.1-0.8c0-0.1,0-0.2,0-0.4C85.8,110.2,85.7,110.2,85.6,110.2z"/>
	<path class="st0" d="M101.9,124.3c-0.2,0.3-0.5,0.6-0.7,0.8c-0.1,0.2-0.3,0.4-0.5,0.6c-0.2,0.2-0.4,0.3-0.6,0.5
		c-0.8,0.4-1.6,0.7-2.5,0.7c-2.2,0-2.4-1.9-2.8-2.6c-0.2-0.8-0.3-1.6-0.3-2.4c0-0.4,0-0.9,0-1.3c0.1-0.4,0.1-0.8,0.3-1.2
		c0.2-0.6,0.4-1.2,0.7-1.7c0.1-0.2,0.2-0.3,0.3-0.5c0.2-0.2,0.3-0.4,0.5-0.6c0.2-0.2,0.3-0.3,0.5-0.4c0.9-0.7,2.7-0.6,3.2,0.3
		c0.1,0.2-0.2,0.3-0.6,0.8c-0.1,0.2-0.2,0.4-0.2,0.7c-0.1,0.5-0.2,1.1-0.4,1.6c-0.1,0.3-0.2,0.7-0.3,1.1s-0.3,0.7-0.3,1
		c0,0,0,0.1-0.1,0.1c-0.2,0.7-0.3,1.4-0.2,2.2c0,0.3,0,0.7,0.1,1c0,0.1,0.1,0.2,0.2,0.3c0.1,0.3,0.2,0.5,0.4,0.8
		c0.1,0.1,0.2,0.1,0.4,0.1c0.4-0.1,0.8-0.3,1.2-0.6c0.2-0.1,0.3-0.3,0.4-0.5c0.1-0.1,0.2-0.2,0.3-0.3c0.3-0.3,0.6-0.6,0.8-0.9l0,0
		c0-0.1,0.8-1.2,0.7-1.8c-0.1-0.2,0,0.1-1.2-0.4c-0.4-0.2-0.8-0.6-1.1-1c-0.1-0.2-0.2-0.3-0.3-0.5c-0.3-0.6-0.4-1.3-0.2-1.9
		c0.1-0.7,0.6-1.4,1-1.5c0.1,0,0.2,0,0.3-0.1c0.3-0.1,0.6,0,0.9,0.1c0.4,0.2,0.7,0.6,0.9,1c0.4,0.9,0.5,2,0.3,3c0,0.2,0,0.8-0.1,0.9
		c0.1,0,0.1,0.1,0.2,0.1s0.5-0.1,0.7-0.1c1.1-0.2,2-0.7,2.8-1.5c0.1-0.1,0.1-0.1,0.1-0.2c0-0.1,0.1-0.1,0.1-0.2s0.2-0.2,0.3-0.1
		c-0.4,0.6-0.9,1.1-1.6,1.4c-0.3,0.2-2.7,1.2-2.7,1l-0.6,1.5C102.1,123.8,102,124.1,101.9,124.3z M102.7,119.8c0-0.5-0.1-1-0.2-1.5
		c-0.4-1.2-3.4-2-1.8,1.7c0.4,1,2,2,1.9,1.6C102.6,121.6,102.7,120,102.7,119.8z"/>
	<path class="st0" d="M116.4,105.7c0.1,0.4,0.3,0.7,0.3,1.1c0.1,0.3,0.2,0.6,0.2,0.9c1,5.8-0.2,12.7-0.2,19.1c0,1.1-0.5,3.5,1.4,3
		c2.3-0.7,3.4-3.9,4-6.3l0.6-5.2c0.2-0.8,0.3-1.6,0.4-2.4c0.1-1.1,0.2-2.2,0.4-3.4c0-0.2,0-0.4,0-0.5c0.6-2.9,5.3-6.1,5.4,1.4
		c0,0.5,0.1,1,0.1,1.5c-0.1,2.2,0,4.4,0,6.6c0,3.6-0.2,7.6,0.7,11.2c0.1,0.2,0.2,0.5,0.3,0.7c0.2,0.4,0.7,0.5,1.1,0.3c0,0,0,0,0.1,0
		c0.2-0.1,0.4-0.3,0.6-0.5c0.6-1,1.3-2,1.8-3s1-2,1.5-3c0.5-1,0.6-1.7,1-2.6c-0.7-2-1.1-4.1-1-6.2c0.9-7.5,1.1-8.2,3-9.8
		c0.9-0.2,1.5,0.1,1.6,1.1c0.1,0.9,0.2,1.9,0.1,2.8c0.1,1.2,0,2.4-0.3,3.5c-0.2,1.2-0.6,2.3-0.7,3.5c0,0.2-0.1,0.4-0.2,0.6
		c-0.2,0.9-1,2.9-1.3,3.7c2.7,1.8,4.9-3,5.7-4.3c0.1-0.2,0.2-0.4,0.3-0.6c0.2-1,0.8-1.9,1.6-2.6c0.1,0,0.2,0,0.3,0s-1.9,4.1-2.6,5.2
		c-0.6,0.9-1.2,1.7-2,2.4c-0.5,0.4-1,0.7-1.6,1c-0.4,0.2-0.9,0.2-1.4,0.1l-0.5-0.1c-0.2,0.4-0.3,0.8-0.5,1.1
		c-0.2,0.6-0.3,1.2-0.5,1.8c-0.4,0.9-0.8,1.8-1.1,2.6c-0.1,0.3-0.3,0.5-0.4,0.8c-0.4,0.7-0.7,1.4-1.1,2.1c-0.3,0.6-0.7,1.1-1.2,1.6
		c-0.3,0.3-0.6,0.6-0.9,0.8c-0.5,0.3-1.1,0.4-1.7,0.4h-0.6c-1.1,0-4.8-0.5-5.4-1.4c-0.5-0.8-0.8-1.7-0.9-2.6c-0.2-1.3-0.3-2.7-0.5-4
		c-0.1-0.8-0.2-1.6-0.2-2.5l-0.3,0.4c-0.3,0.6-0.7,1.2-1,1.8c0,0.1-0.1,0.2-0.2,0.2c-0.8,1.2-1.9,2.1-3.2,2.6
		c-0.4,0.1-0.9,0.2-1.3,0.2c-1.4-0.1-2.7-0.8-3.7-1.8c-0.5-0.7-0.9-1.5-1.1-2.3c-0.5-1.7-0.7-3.5-0.6-5.3c0-0.3,0-0.5,0-0.8
		c0-0.3,0-0.6,0.1-0.9c0.1-0.7,0.2-1.4,0.1-2.1c-0.1-0.6-0.1-1.2,0-1.8c0.1-1.4,0.1-2.8,0.2-4.3c0.2-2.3,0.1-4.6-0.3-6.9
		c-0.6-3.8,4.4-4.3,4.4-0.5C115.6,104.4,116.3,104.9,116.4,105.7z M138.7,116c0.1-0.7,0-1.3,0.1-1.9c0.1-1.2,0.1-2.3,0-3.5
		c0-2.5-1.2-1.2-1.7,0.7c-0.2,0.5-0.3,1.1-0.2,1.7c0,0.6-0.1,1.2-0.2,1.8c0,0.1-0.1,0.2-0.1,0.4c0,0.7,0,1.5-0.1,2.2
		c-0.1,0.8,0,1.6-0.1,2.3c-0.1,4.4,0.8,3.4,0.9,3C137.5,121.9,138.5,116.9,138.7,116z"/>
	<path class="st0" d="M155,123.2c-0.2,0.5-0.8,0.8-1,1.2c-0.2,0.3-0.5,0.6-0.8,0.8c-0.3,0.2-0.6,0.5-0.9,0.7c-1.1,0.6-2.3,0.9-3.6,1
		c-3.2,0-3.5-2.8-4-3.8c-0.2-1.2-0.4-2.3-0.4-3.5c-0.1-0.7-0.1-1.3-0.1-2c0.1-0.6,0.2-1.2,0.4-1.8c0.3-0.9,0.6-1.7,1.1-2.5
		c0.1-0.3,0.3-0.5,0.5-0.7c0.2-0.2,0.5-0.5,0.7-0.8c0.2-0.2,0.5-0.4,0.8-0.6c1.3-0.9,3.9-0.8,4.7,0.5c0.2,0.3-0.2,0.5-0.9,1.2
		c-0.2,0.3-0.3,0.7-0.4,1c-0.2,0.8-0.4,1.6-0.6,2.3c-0.2,0.5-0.3,1-0.4,1.6s-0.4,1-0.5,1.5c0,0.1,0,0.1-0.1,0.2
		c-0.3,1-0.4,2.1-0.3,3.2c0,0.5,0.1,1,0.1,1.5c0,0.2,0.1,0.3,0.3,0.4c0.1,0.4,0.3,0.8,0.6,1.1c0.1,0.1,0.4,0.2,0.5,0.1
		c0.6-0.2,1.2-0.4,1.7-0.8c0.3-0.2,0.4-0.5,0.6-0.7c0.2-0.1,0.3-0.2,0.4-0.4c0.4-0.4,0.8-0.8,1.1-1.3v-0.1c0-0.2,1.2-1.7,1-2.7
		c-0.1-0.2,0,0.2-1.7-0.5c-0.6-0.3-1.2-0.8-1.6-1.4c-0.2-0.2-0.4-0.5-0.5-0.8c-0.4-0.9-0.5-1.8-0.3-2.8c0.2-1,0.9-2.1,1.4-2.1
		c0.1,0,0.3,0,0.4-0.1c0.4-0.1,0.9-0.1,1.3,0.1c0.6,0.3,1,0.8,1.3,1.4c0.6,1.4,0.7,2.9,0.4,4.4c-0.1,0.2-0.1,1.1-0.1,1.4
		c0.1,0,0.2,0.1,0.2,0.1c0.2,0,0.7-0.1,0.9-0.1c1.5-0.3,3-1.1,4.1-2.2c0.1-0.1,0.1-0.2,0.2-0.2c0.1-0.1,0.1-0.2,0.2-0.2
		s0.3-0.3,0.4-0.2c-0.6,0.8-1.3,1.5-2.2,2c-0.5,0.3-3.9,1.7-3.9,1.4l-0.8,2.2C155.3,122.4,155.1,122.8,155,123.2z M156.1,116.5
		c0-0.7-0.1-1.5-0.3-2.2c-0.6-1.7-5-2.9-2.6,2.5c0.6,1.5,2.9,2.8,2.8,2.3C156,119.2,156.2,117,156.1,116.5L156.1,116.5z"/>
	<path class="st0" d="M163.7,125.5l0.2-1.7c0-0.2,0.1-0.4,0.1-0.6c0.1-0.7,0.3-1.4,0.5-2.1c0.1-0.4,0.2-0.8,0.3-1.2
		c0-0.1,0-0.1,0-0.2c0.1-0.5-0.5-0.4-1-0.7s-0.9-0.4-1.4-0.7s-0.9-0.6-1.4-0.9c-0.6-0.7-1-1.6-1.2-2.5l-0.1-0.7
		c-0.1-0.7,0-1.5,0.1-2.2c0.1-0.4,0.3-0.8,0.5-1.2c0.1-0.1,0.2-0.3,0.2-0.4c0.1-0.1,0.1-0.3,0.2-0.4c0.1-0.3,0.3-0.4,0.5-0.7
		c0.1-0.1,0.2-0.2,0.2-0.3c0.1-0.2,0.3-0.3,0.5-0.4c0.4-0.1,0.8-0.1,1.2,0c0.3,0,0.7,0.1,1,0.2c0.2,0,0.3,0.1,0.5,0.3
		c0.1,0.1,0.2,0.2,0.3,0.3c0.1,0.1,0.3,0.2,0.4,0.4c0.1,0.1,0.1,0.3,0.1,0.5c0,0.1,0,0.3,0,0.4c0,0.1,0,0.3-0.1,0.4
		c0,0.1-0.1,0.3-0.1,0.4c0,0.2-0.1,0.3-0.1,0.5c-0.1,0.2-0.3,0.5-0.3,0.7c-0.1,0.3-0.3,0.5-0.4,0.7c-0.3,0.4-0.6,0.8-1,1.2l-0.2,0.2
		c-0.1,0.1-0.1,0.2,0,0.3c0.3,0.6,0.8,1.1,1.4,1.4c0.5,0.2,0.9,0.4,1.3,0.6c0.9,0.2,1.9,0.4,2.8,0.6c0.3,0.2,0.5,0.4,0.6,0.7
		c0.2,0.2,0.3,0.5,0.3,0.7c-0.1,0,0,0.1,0,0.2c0.1,0.4,0.1,0.7,0,1.1l0,0c0.1,0.3-0.2,0.6-0.2,0.9s-0.2,0.5-0.3,0.7
		c0,0.3-0.1,0.5-0.2,0.8l-0.3,1.7c-0.1,0.6-0.2,1.3-0.2,1.9c0,0.3,0,0.6,0,0.9c0.1,0.3,0.1,0.6,0.2,0.9c0,0.5,0.1,0.9,0.3,1.3
		c0.2,0.5,0.7,1.1,1.2,0.8c1.4-0.4,1.5-1.4,1.8-1.7c0-0.1,0-0.1,0.1-0.2c0.3-0.5,0.5-0.9,0.7-1.4c0-0.1,0-0.2,0.1-0.2
		c0.2-0.5,0.5-1.2,0.7-1.7s0.3-0.7,0.4-1.1c0.1-0.3,0,0,0.3-0.7c0.1-0.5,0.4-0.9,0.6-1.4c0.2-0.4,0.3-0.8,0.4-1.2
		c0.1-0.2,0.2-0.5,0.2-0.7c0.1-0.2,0.2-0.5,0.3-0.7c0.5-1.3,1-2.4,0.5-0.7c-0.1,0.2-0.2,0.4-0.3,0.5c-0.2,0.7-0.5,1.4-0.7,2.1
		c-0.1,0.4-1.3,3.7-1.8,4.8c-0.2,0.4-0.3,0.8-0.4,1.1c0,0.2-0.1,0.4-0.2,0.5l-0.6,1.4c0,0.1-0.1,0.3-0.2,0.4c0,0.1-0.1,0.2-0.1,0.3
		c-0.1,0.2-0.3,0.4-0.5,0.5c-0.2,0.2-0.4,0.4-0.6,0.6c-0.1,0.1-0.2,0.1-0.3,0.2c-3.1,2.1-6,0.3-6.5-1.7c-0.1-0.5-0.1-1.1-0.2-1.6
		s-0.1-0.7-0.1-1.1S163.6,125.9,163.7,125.5z M163.6,113.7c0.1-0.2,0.2-0.4,0.3-0.5c0.2-0.3,0.3-0.5,0.4-0.8
		c0.1-0.2,0.1-0.3,0.1-0.5c0-0.5,0.1-1,0.2-1.5c0-0.1,0-0.2,0-0.2c-0.2-0.3-0.4-0.5-0.8-0.7c0,0-0.1,0-0.1,0s-0.1,0-0.1,0.1
		s-0.2,0.3-0.2,0.4c-0.1,0.1-0.2,0.3-0.2,0.5c0,0.1,0,0.2-0.1,0.3c-0.2,0.4-0.4,0.9-0.4,1.4c0,0.1,0,0.1,0,0.2v0.4
		c0,0.3,0,0.5,0,0.8c0,0.3,0,0.7,0.1,1C163.2,114.2,163.4,114,163.6,113.7L163.6,113.7z"/>
	<path class="st0" d="M196.1,116l-0.2,0.8c-0.3,1.2-0.8,2.4-1,3.7c-0.5,2.2-1.2,4.4-1.9,6.7l-0.6,2.1c-0.2,0.9-0.7,1.7-1.3,2.4
		c-0.7,0.6-1.6,1-2.6,1c-3.4,0.5-4.3-3.6-5-6l-0.7-2.2c0,0,0-0.1,0-0.1c-0.1-0.4-0.9-1.3-1.5-1.3c-0.3,1.1-0.5,2.3-0.5,3.4
		c-0.5,5.5-5.2,3.8-5,1.8c0.1-1.7,0-3.4-0.3-5c-0.3-2.7,0.2-5.6,0.4-8.2c0.3-4.7,0.6-9.6,2.2-14.1c0.5-1.2,1.1-2.3,1.8-3.4
		c0.4-0.8,0.9-1.6,1.5-2.3c5.5-7.1,10.5-1.7,10.8-1.7l0.2,0.1c0.3,0.2,0.6,0.6,0.7,0.9c0.1,0.5,0.3,1,0.5,1.6c0.3,1,0.4,2.1,0.1,3.1
		c-0.3,1-0.6,2-1.1,2.9c-0.6,1.3-1.4,2.5-2.2,3.6c-0.5,0.7-1.1,1.3-1.7,1.9c-0.4,0.4-0.8,0.8-1.2,1.2l-0.8,0.8
		c-0.4,0.4-0.8,0.8-1.2,1.1l-1.9,1.4c-0.5,0.4-1.1,0.8-1.7,1.2c-0.1,0.1-0.1,0.3-0.2,0.4c-0.1,0.7-0.2,1.3-0.2,2
		c-0.1,0.7-0.1,1.3,0.1,2c0.1-0.1,0.1-0.2,0.2-0.3c0.7-1,1.6-1.9,2.6-2.6c0.2-0.1,0.4-0.3,0.6-0.4c0.7-0.4,1.5-0.3,2.1,0.2
		c0.5,0.3,0.8,0.7,1,1.2c0.2,0.7,0.3,1.5,0.2,2.3c-0.4,1-1.1,1.9-1.9,2.5c-0.7,0.5-1.4,0.9-2.1,1.4c0.1,0.1,0.1,0.2,0.1,0.2l1,0.6
		c0.1,0.1,0.3,0.2,0.4,0.3c0.3,0.4,0.5,0.8,0.7,1.3c0.1,0.6,0.4,1.2,0.6,1.7s0.5,1.4,0.8,2.2c0.2,0.6,0.5,1.1,0.8,1.7
		c1.3,2.7,3,0.1,3.4-0.7c0.6-1.6,1.2-3.2,1.6-4.8c0.5-1.6,0.8-3.1,1.3-4.7C195.2,118.5,195.8,116,196.1,116z M184.7,117.3
		c0.1-0.3,0.2-0.6,0.2-0.9c0-0.3,0-1.2,0.1-1.2c-0.2-0.4-0.4-0.3-0.5-0.2c-0.5,0.4-1,0.9-1.5,1.4c-1.4,1.2-2.1,3.1-1.8,4.9
		c0.1,0,0.1,0,0.2-0.1l1.9-1.6C183.9,119.1,184.5,118.3,184.7,117.3L184.7,117.3z M181.7,111.4c0,0.8,0,1,0,1.3l1.3-1
		c0.7-0.5,1.4-0.6,2.1-1.3s1.8-1.7,2.6-2.5c0.3-0.3,0.9-1,1.1-1.4c0.7-0.9,1.7-1.9,2.3-2.9c1-1.5,1.7-3.2,2.1-5
		c0.1-1.3-0.1-2.5-0.7-3.7c-0.2-0.5-0.5-0.8-0.9-1.1c-2.6-1.6-3.8,0-4.3,0.3c-1,0.7-3.5,6.8-4,8.7c-0.4,1.5-0.7,3-1,4.5
		C181.8,108.7,181.7,110.1,181.7,111.4L181.7,111.4z"/>
	<path class="st0" d="M202.1,122c-9.3,10-5.8-1.3-2.3-1.3C201.3,120.7,203.3,120.7,202.1,122z M208.1,95.1c0.2-0.8,0.5-1.7,1-2.4
		c0.6-0.6,7.1-4.9,5.1,2.7c-0.3,1-0.6,2-1.1,3c-3.6,8-6.9,13.4-9.3,16.5c-0.7,0.8-1.6,1.3-2.6,1.7c-1,0.3-1.6,0.1-0.9-1.3
		C203.5,108.7,206,102,208.1,95.1L208.1,95.1z"/>
</g>
<path class="st1" d="M29.9,97.3c0,0,5.4-3.5,5.5-9.1c0.1-4.8-3.9-3.1-5.4-0.7c-0.6,0.9-0.1,1.2-1,0.2c-2.1-2.4-6.5-1.9-3.6,3.6
	c1.1,2.2,2.6,4.1,4.4,5.8"/>
<path class="st2" d="M29.9,97c0,0,5.4-3.5,5.5-9.1c0.1-4.8-3.9-3.1-5.4-0.7c-0.6,0.9-0.1,1.2-1,0.2c-2.1-2.4-6.5-1.9-3.6,3.6
	c1.1,2.2,2.6,4.1,4.4,5.8"/>
<path class="st3" d="M2.7,61.7c0,0,2.1,1.4,3.7,1c2.5-0.5,5.5-3.3,5.9-3.7c0.5-0.4,1.1-0.7,1.7-0.8l28.4-6c0.1,0,0.2,0,0.2,0.1
	c0,0.1,9.5,43.2,11.2,50.9"/>
<path class="st3" d="M54,103.8c0.1,0.4,0.1,0.5,0.1,0.6c0,0.1,0,0.3-0.1,0.4c-0.1,0.1-0.8,0.8-0.7,0.9c0,0.2,1.3,0.9,1.4,1.5
	c0,0.2-0.6,1.1-0.6,1.3c0.1,0.2,0.9-0.2,1.4,0.1c0.5,0.3,0.1,0.8,0,1c-0.1,0.2-0.3,0.3-0.1,0.6c0.2,0.3,0.4,0.6,0.3,0.7
	c-0.1,0.1-0.4,0.2-0.8,0.1c-0.4,0-0.7,0.1-0.9,0.4c-0.1,0.1-0.7,0.2-1,0.3s-2,2.3-2.5,2.5c-0.4,0.1-0.8,0-1-0.3
	c-0.3-0.2-0.5-0.5-0.9-0.4c-0.5,0.1-0.8,0.3-1,0.4s-0.7,0-0.9,0.1c-0.3,0.2-0.4,0.6-0.3,0.9c0.1,0.3,0.4,0.2,0.6,1
	c0.2,0.8,0.7,1,0.8,1.6c0.1,0.6,0,0.7-0.3,0.9c-0.3,0.2-0.4,0.2-0.5,0.9c-0.1,0.7-0.9,0.9-1.1,0.9c-0.3,0.1-0.8,0.2-0.8,1.2
	c0.1,1,0.2,1.5-0.3,2.1c-0.4,0.6-0.8,0.9-1,1c-0.2,0.1-0.6-0.3-0.9-0.2c-0.3,0.1-0.3,0.4-0.3,0.7s-0.3,0.8-0.4,1
	c-0.3,0.3-0.4,0.8-0.3,1.2c0.1,0.7,0.3,1.4,0.3,2.1c0,0.5-0.2,0.9-0.7,1.1c-0.4,0.1-0.6,0.1-0.7,0.2c-0.2,0-0.2,0.1-0.2,0.3
	c0,0.2,0.1,0.6,0,0.6c-0.5,0.1-1-1-1.6-0.8c-0.2,0.1-0.4,0.2-0.6,0.2c-0.3,0.1-0.7,0-1.3-0.3c-0.6-0.3-0.9-0.5-1-0.8
	c-0.1-0.3-0.1-0.4-0.1-0.5c0-0.1,0.1-0.3,0.1-0.4c0-0.1-0.2-0.4-0.8-0.6c-0.5-0.2-0.5-0.5-0.9-0.3c-0.2,0.1,0.1,0.5,0.5,0.4
	c0.3-0.1,0.5,0.1,0.6,0.4c0,0,0,0.1,0,0.1c0,0.2-0.2,0.4-0.4,0.4c-0.2,0.1-0.4-0.1-0.5-0.1c-0.1,0.1-0.1,0.7-0.2,0.7
	c-0.2,0-0.7-0.6-0.9-0.3c-0.2,0.3,0.5,0.4,0.5,0.5c0.1,0.2,0.1,0.4,0,0.6c-0.1,0.2-0.3,0.4-0.5,0.5l-0.6,0.1c-0.1,0-0.2,0.1-0.2,0.3
	c0,0,0,0,0,0c0,0.1,0.2,1,0.3,1.2c0,0.2,0.4,0.3,0.5,0.5c0,0.3-0.2,0.6-0.5,0.6c0,0,0,0,0,0c-0.4,0.1-0.5-0.2-0.7-0.1
	c-0.3,0.1-0.3,0.3-0.2,0.6c0.1,0.3,0.1,0.7-0.1,1c-0.3,0.3-0.7,0.4-0.9,0.1c-0.2-0.3,0.1-0.6,0.1-0.7c0-0.1-0.1-0.5-0.4-0.4
	c-0.3,0.1-0.4,0.6-0.7,0.6c-0.3,0.1-0.8-0.5-1.1-0.9c-0.3-0.4-0.5-0.8-0.7-0.9c-0.2-0.1-0.5,0.2-0.8,0.6c-0.3,0.5-0.5,0.9-0.7,1
	c-0.3,0-0.7,0.1-1,0.3c-0.3,0.2-0.7,0.4-0.5,1.4c0.2,1-0.2,1.7-0.8,1.8c-0.5,0.1-0.9-1-1.2-1c-0.5,0.1-1,0-1.4-0.2
	c-0.4-0.3-0.9-0.5-1.3-0.6c-0.2,0-0.5-0.1-0.7-0.3c-0.3-0.2-0.6-0.3-1-0.2c-0.4,0.1-0.8,1-1.2,1c-0.5,0-0.9-0.2-1.2-0.6
	c0-0.2-0.2-0.7-0.4-0.7c-0.2,0,0,0.6,0,0.6s-0.3,0.3-0.3,0.4s0.8,0.4,0.9,0.9c0.1,0.6-0.3,1.1-0.8,1.3c-0.4,0.1-0.8-0.1-0.9-0.4
	c0-0.2,0.3-0.8,0.2-0.9c-0.2-0.1-1.2,0.3-1.4,0.5s-0.3,0.3-0.6,0.4c-0.3,0-0.5,0-0.7-0.2c-0.2-0.2-0.7-0.7-0.8-0.7s-0.5,0.7-0.5,0.9
	c0,0.2,0.7,0.6,0.8,1c0.1,0.5-0.2,0.6-0.3,0.8s-0.1,0.6-0.3,0.7c-0.2,0-0.7-0.5-0.9-0.4c-0.1,0-0.3,0.1-0.4,0.1c0,0-0.2-0.1-0.2-0.1
	c0,0-0.1,0.2-0.3,0.3c-0.3-0.1-0.5-0.2-0.7-0.5c0-0.2,0.1-0.4,0.3-0.4c0,0,0,0,0,0c0.3-0.1,0.5,0.1,0.5,0s-0.5-0.3-0.8-0.5
	s-0.6-0.6-0.5-0.8c0.1-0.2,0.4-0.2,0.5-0.1c0.2,0.1,0.5,0.2,0.5,0.1c0-0.1-0.7-0.3-0.7-0.4s0-0.4,0.4-0.3c0,0,0.1,0,0-0.2
	s-0.1-0.3,0-0.4c0.1,0,0.3-0.2,0.3-0.3s-0.2-0.2-0.3-0.5S8.7,136,8.7,136c-0.1,0-0.3-0.1-0.3-0.3c0-0.2,0.2-0.4,0.5-0.4
	c0.2,0,0.5-0.1,0.6-0.3c0.1-0.1,0.1-0.3,0.1-0.4c0,0-0.2,0.2-0.4,0.3c-0.2,0.1-0.4-0.1-0.5-0.3c-0.1-0.2,0-0.4,0.2-0.5
	c0.2-0.1,0.3-0.1,0.4-0.1c0-0.1-0.1-0.3,0.1-0.4c0.1-0.1,0.4-0.1,0.5-0.2s0.1-0.3-0.3-0.6c-0.4-0.2-0.7-0.4-0.7-0.6s-0.3-1-0.1-1.1
	c0.2-0.1,0.3,0.2,0.4,0.2c0.1-0.1-0.2-0.6,0-1c0.1-0.2,0.3-0.2,0.4-0.2c0.2,0,0.3,0.5,0.4,0.5c0.1,0-0.1-0.8,0.3-0.8
	c0.2,0,0.3,0.1,0.4,0.3c0,0.1,0.1,0.5,0.2,0.2s0-0.5-0.1-0.7c0-0.3,0-0.6,0.2-0.8c0.2-0.3,0.8-0.9,0.8-1.2c0-0.4-0.1-0.6-0.2-0.7
	c-0.1-0.1-0.2-0.3-0.2-0.5c0-0.1,0.1-0.3,0.7-0.5c0.3-0.1,0.4-0.5,0.5-0.5s0.3-0.1,0.4-0.1c0.1-0.1-0.5-0.3-0.5-0.5
	c0-0.3,0.4-0.8,0.5-1.3c0.1-0.4-0.2-0.7,0.1-1.3c0.4-0.6,0.9-0.6,1.1-0.7c0.2-0.1-0.1-0.5,0.1-0.7c0.1-0.2,0.2-0.4,0.1-0.6
	c-0.1-0.4-0.2-0.8-0.5-1.1c-0.2-0.1-0.2-0.7-0.3-0.8c-0.1-0.1-0.3,0-0.4-0.6s0.2-0.3,0.2-0.9c0-0.7-0.2-0.9-0.7-1
	c-0.5-0.1-0.5-0.4-0.5-0.8c0-0.4,0-0.7-0.5-1c-0.8-0.5-1.1-0.5-1.2-1c-0.1-0.5,0.1-0.6,0.4-1.1c0.4-0.5,0.5-0.6,0.5-0.8
	c0-0.2-0.3-0.6-0.5-0.9c-0.5-0.7-0.4-0.9-0.1-1.2c0.4-0.4,0.7-0.5,0.8-0.8C11.4,107.9,5,75,3.1,64.8"/>
</svg>
