<svg id="Layer_1" data-name="Layer 1" xmlns="http://www.w3.org/2000/svg" viewBox="0 0 486 59.13"><defs><style>.cls-1{fill:#fff;}.cls-2{fill:#6d7d89;}.cls-3{fill:#d2db3a;}.cls-4{fill:#75caca;}</style></defs><title>icon-logo-rcre-horiz-light</title><g id="_Group_" data-name="&lt;Group&gt;"><path id="_Compound_Path_" data-name="&lt;Compound Path&gt;" class="cls-1" d="M67.91,3.26H92c6.71,0,11.91,1.88,15.37,5.35,2.94,2.94,4.52,7.08,4.52,12.06v.15c0,8.52-4.6,13.86-11.3,16.35L113.5,56H99.94L88.63,39.13H79.52V56H67.91ZM91.27,28.88c5.65,0,8.89-3,8.89-7.46v-.15c0-5-3.47-7.54-9.12-7.54H79.52V28.88Z"/><path id="_Compound_Path_2" data-name="&lt;Compound Path&gt;" class="cls-1" d="M121.12,3.26H160.9V13.58H132.64v10.7h24.87V34.61H132.64V45.68h28.63V56H121.12Z"/><path id="_Compound_Path_3" data-name="&lt;Compound Path&gt;" class="cls-1" d="M166.71,48.32l6.86-8.21c4.75,3.92,9.72,6.4,15.75,6.4,4.75,0,7.61-1.88,7.61-5v-.15c0-2.94-1.81-4.45-10.62-6.71C175.67,32,168.82,29,168.82,18.56V18.4c0-9.57,7.69-15.9,18.46-15.9a30.53,30.53,0,0,1,19.59,6.71l-6,8.74c-4.67-3.24-9.27-5.2-13.71-5.2s-6.78,2-6.78,4.6v.15c0,3.47,2.26,4.6,11.38,6.93,10.7,2.79,16.73,6.63,16.73,15.82v.15c0,10.47-8,16.35-19.37,16.35A33.57,33.57,0,0,1,166.71,48.32Z"/><path id="_Compound_Path_4" data-name="&lt;Compound Path&gt;" class="cls-1" d="M214.94,29.78v-.15c0-15,11.83-27.28,28.11-27.28s28,12.13,28,27.13v.15c0,15-11.83,27.28-28.11,27.28S214.94,44.78,214.94,29.78Zm43.93,0v-.15c0-9-6.63-16.58-16-16.58s-15.82,7.38-15.82,16.43v.15c0,9,6.63,16.58,16,16.58S258.87,38.83,258.87,29.78Z"/><path id="_Compound_Path_5" data-name="&lt;Compound Path&gt;" class="cls-1" d="M279.22,33.4V3.26h11.6V33.1c0,8.59,4.29,13,11.38,13s11.38-4.3,11.38-12.66V3.26h11.6V33c0,16-9,23.81-23.13,23.81S279.22,48.92,279.22,33.4Z"/><path id="_Compound_Path_6" data-name="&lt;Compound Path&gt;" class="cls-1" d="M335.74,3.26h24.11c6.71,0,11.91,1.88,15.37,5.35,2.94,2.94,4.52,7.08,4.52,12.06v.15c0,8.52-4.6,13.86-11.3,16.35L381.33,56H367.76l-11.3-16.88h-9.12V56h-11.6ZM359.1,28.88c5.65,0,8.89-3,8.89-7.46v-.15c0-5-3.47-7.54-9.12-7.54H347.34V28.88Z"/><path id="_Compound_Path_7" data-name="&lt;Compound Path&gt;" class="cls-1" d="M386.61,29.78v-.15c0-15,11.3-27.28,27.5-27.28,9.95,0,15.9,3.32,20.8,8.14L427.52,19c-4.07-3.69-8.21-6-13.49-6-8.89,0-15.3,7.38-15.3,16.43v.15c0,9,6.25,16.58,15.3,16.58,6,0,9.72-2.41,13.86-6.18l7.39,7.46c-5.43,5.8-11.45,9.42-21.63,9.42C398.13,56.91,386.61,44.93,386.61,29.78Z"/><path id="_Compound_Path_8" data-name="&lt;Compound Path&gt;" class="cls-1" d="M443.28,3.26h39.79V13.58H454.81v10.7h24.87V34.61H454.81V45.68h28.63V56H443.28Z"/></g><g id="_Group_2" data-name="&lt;Group&gt;"><path class="cls-2" d="M51,54.67a5.48,5.48,0,0,0,2.88,1.46c.71,0,1.29-1,1.29-2.16V5.29A2.17,2.17,0,0,0,53,3.13H46a5.45,5.45,0,0,0-3.58,1.62l-19,21.71a2.22,2.22,0,0,0,.17,3.08Z"/></g><g id="_Group_3" data-name="&lt;Group&gt;"><path class="cls-3" d="M42.94,56.13c1.19,0,1.44-.65.56-1.46L20.17,33.4a2.12,2.12,0,0,0-3,.17L3.65,48.95a6.64,6.64,0,0,0-1.42,3.78V54a2.17,2.17,0,0,0,2.16,2.16Z"/></g><g id="_Group_4" data-name="&lt;Group&gt;"><path class="cls-4" d="M35.62,4.75c.78-.89.45-1.62-.73-1.62H4.37A2.17,2.17,0,0,0,2.21,5.29v35.3c0,1.19.64,1.43,1.43.54Z"/></g></svg>