<svg id="Layer_1" data-name="Layer 1" xmlns="http://www.w3.org/2000/svg" viewBox="0 0 291.75 53"><defs><style>.cls-1{fill:#fff;}.cls-2{fill:#576571;}.cls-3{fill:#d2db3a;}.cls-4{fill:#75caca;}</style></defs><title>logo-rcre-horiz-light</title><g id="_Group_" data-name="&lt;Group&gt;"><path id="_Compound_Path_" data-name="&lt;Compound Path&gt;" class="cls-1" d="M62.85-.15H76c3.67,0,6.51,1,8.41,2.93a9.05,9.05,0,0,1,2.47,6.59v.08a9,9,0,0,1-6.18,8.94l7,10.3H80.36l-6.18-9.23h-5v9.23H62.85Zm12.77,14c3.09,0,4.86-1.65,4.86-4.08V9.7c0-2.72-1.9-4.12-5-4.12H69.2v8.28Z"/><path id="_Compound_Path_2" data-name="&lt;Compound Path&gt;" class="cls-1" d="M91.94-.15H113.7V5.49H98.25v5.85h13.6V17H98.25V23H113.9v5.64h-22Z"/><path id="_Compound_Path_3" data-name="&lt;Compound Path&gt;" class="cls-1" d="M116.87,24.49,120.62,20a13.23,13.23,0,0,0,8.61,3.5c2.6,0,4.16-1,4.16-2.72V20.7c0-1.61-1-2.43-5.81-3.67-5.81-1.48-9.56-3.09-9.56-8.82V8.13c0-5.23,4.2-8.69,10.09-8.69A16.7,16.7,0,0,1,138.83,3.1l-3.3,4.78A13.54,13.54,0,0,0,128,5c-2.43,0-3.71,1.11-3.71,2.51v.08c0,1.89,1.24,2.51,6.22,3.79,5.85,1.52,9.15,3.63,9.15,8.65v.08c0,5.73-4.37,8.94-10.59,8.94A18.35,18.35,0,0,1,116.87,24.49Z"/><path id="_Compound_Path_4" data-name="&lt;Compound Path&gt;" class="cls-1" d="M143.24,14.35v-.08c0-8.2,6.47-14.91,15.37-14.91S173.9,6,173.9,14.19v.08c0,8.2-6.47,14.92-15.37,14.92S143.24,22.55,143.24,14.35Zm24,0v-.08a8.76,8.76,0,0,0-8.73-9.06c-5.11,0-8.65,4-8.65,9v.08a8.76,8.76,0,0,0,8.73,9.06C163.72,23.33,167.26,19.3,167.26,14.35Z"/><path id="_Compound_Path_5" data-name="&lt;Compound Path&gt;" class="cls-1" d="M178.39,16.33V-.15h6.34V16.17c0,4.7,2.35,7.13,6.22,7.13s6.22-2.35,6.22-6.92V-.15h6.34V16.12c0,8.73-4.9,13-12.65,13S178.39,24.82,178.39,16.33Z"/><path id="_Compound_Path_6" data-name="&lt;Compound Path&gt;" class="cls-1" d="M209.3-.15h13.18c3.67,0,6.51,1,8.41,2.93a9.05,9.05,0,0,1,2.47,6.59v.08a9,9,0,0,1-6.18,8.94l7,10.3h-7.42l-6.18-9.23h-5v9.23H209.3Zm12.77,14c3.09,0,4.86-1.65,4.86-4.08V9.7c0-2.72-1.9-4.12-5-4.12h-6.3v8.28Z"/><path id="_Compound_Path_7" data-name="&lt;Compound Path&gt;" class="cls-1" d="M237.11,14.35v-.08a14.66,14.66,0,0,1,15-14.91c5.44,0,8.69,1.81,11.37,4.45l-4,4.66c-2.22-2-4.49-3.25-7.37-3.25-4.86,0-8.36,4-8.36,9v.08c0,4.94,3.42,9.06,8.36,9.06,3.3,0,5.32-1.32,7.58-3.38l4,4.08a14.74,14.74,0,0,1-11.82,5.15A14.56,14.56,0,0,1,237.11,14.35Z"/><path id="_Compound_Path_8" data-name="&lt;Compound Path&gt;" class="cls-1" d="M268.1-.15h21.75V5.49H274.4v5.85H288V17H274.4V23h15.66v5.64h-22Z"/></g><g id="_Group_2" data-name="&lt;Group&gt;"><path id="_Compound_Path_9" data-name="&lt;Compound Path&gt;" class="cls-1" d="M61.72,45.3v0A5.11,5.11,0,0,1,66.8,40a5.37,5.37,0,0,1,4,1.63l-.54.55a4.67,4.67,0,0,0-3.43-1.5,4.35,4.35,0,0,0-4.29,4.55v0a4.39,4.39,0,0,0,4.3,4.58,4.66,4.66,0,0,0,3.5-1.58l.51.49a5.37,5.37,0,0,1-4,1.77A5.06,5.06,0,0,1,61.72,45.3Z"/><path id="_Compound_Path_10" data-name="&lt;Compound Path&gt;" class="cls-1" d="M73.06,45.3v0a5.12,5.12,0,1,1,10.23,0v0a5.12,5.12,0,1,1-10.23,0Zm9.45,0v0a4.4,4.4,0,0,0-4.35-4.58,4.36,4.36,0,0,0-4.32,4.55v0a4.4,4.4,0,0,0,4.35,4.58A4.35,4.35,0,0,0,82.51,45.3Z"/><path id="_Compound_Path_11" data-name="&lt;Compound Path&gt;" class="cls-1" d="M86.77,40.18h.71l4.08,6,4.08-6h.71V50.36h-.76V41.52l-4,5.86h-.06l-4-5.86v8.84h-.73Z"/><path id="_Compound_Path_12" data-name="&lt;Compound Path&gt;" class="cls-1" d="M100.3,40.18H101l4.08,6,4.08-6h.71V50.36h-.76V41.52l-4,5.86h-.06l-4-5.86v8.84h-.73Z"/><path id="_Compound_Path_13" data-name="&lt;Compound Path&gt;" class="cls-1" d="M113.82,40.18h7.24v.7h-6.48v4h5.83v.7h-5.83v4.08h6.56v.7h-7.31Z"/><path id="_Compound_Path_14" data-name="&lt;Compound Path&gt;" class="cls-1" d="M124.47,40.18h4.27a4,4,0,0,1,2.86,1,2.68,2.68,0,0,1,.77,1.89v0c0,1.7-1.26,2.68-3,2.91l3.36,4.35h-1l-3.24-4.22h-3.33v4.22h-.76Zm4.19,5.28c1.7,0,3-.86,3-2.33v0c0-1.37-1.08-2.22-2.92-2.22h-3.47v4.58Z"/><path id="_Compound_Path_15" data-name="&lt;Compound Path&gt;" class="cls-1" d="M135.44,45.3v0A5.11,5.11,0,0,1,140.52,40a5.37,5.37,0,0,1,4,1.63l-.54.55a4.67,4.67,0,0,0-3.43-1.5,4.35,4.35,0,0,0-4.29,4.55v0a4.39,4.39,0,0,0,4.3,4.58,4.66,4.66,0,0,0,3.5-1.58l.51.49a5.37,5.37,0,0,1-4,1.77A5.06,5.06,0,0,1,135.44,45.3Z"/><path id="_Compound_Path_16" data-name="&lt;Compound Path&gt;" class="cls-1" d="M147.62,40.18h.76V50.36h-.76Z"/><path id="_Compound_Path_17" data-name="&lt;Compound Path&gt;" class="cls-1" d="M156.27,40.11H157l4.74,10.25h-.83l-1.29-2.85h-6l-1.29,2.85h-.78Zm3,6.72-2.67-5.89-2.69,5.89Z"/><path id="_Compound_Path_18" data-name="&lt;Compound Path&gt;" class="cls-1" d="M164.8,40.18h.76v9.48h6v.7H164.8Z"/><path id="_Compound_Path_19" data-name="&lt;Compound Path&gt;" class="cls-1" d="M180,40.18h4.27a4,4,0,0,1,2.86,1,2.68,2.68,0,0,1,.77,1.89v0c0,1.7-1.26,2.68-3,2.91l3.36,4.35h-1l-3.24-4.22h-3.33v4.22H180Zm4.19,5.28c1.7,0,3-.86,3-2.33v0c0-1.37-1.08-2.22-2.92-2.22h-3.47v4.58Z"/><path id="_Compound_Path_20" data-name="&lt;Compound Path&gt;" class="cls-1" d="M191.38,40.18h7.24v.7h-6.48v4H198v.7h-5.83v4.08h6.56v.7h-7.31Z"/><path id="_Compound_Path_21" data-name="&lt;Compound Path&gt;" class="cls-1" d="M205.89,40.11h.73l4.74,10.25h-.83l-1.29-2.85h-6l-1.29,2.85h-.78Zm3,6.72-2.67-5.89-2.69,5.89Z"/><path id="_Compound_Path_22" data-name="&lt;Compound Path&gt;" class="cls-1" d="M214.42,40.18h.76v9.48h6v.7h-6.73Z"/><path id="_Compound_Path_23" data-name="&lt;Compound Path&gt;" class="cls-1" d="M229.59,40.18h7.24v.7h-6.48v4h5.83v.7h-5.83v4.08h6.56v.7h-7.31Z"/><path id="_Compound_Path_24" data-name="&lt;Compound Path&gt;" class="cls-1" d="M239.58,48.87l.49-.57a4.94,4.94,0,0,0,3.65,1.51c1.53,0,2.57-.86,2.57-2v0c0-1.08-.57-1.7-2.88-2.17S240,44.28,240,42.74v0c0-1.51,1.38-2.67,3.27-2.67a5.07,5.07,0,0,1,3.49,1.24l-.48.6a4.38,4.38,0,0,0-3-1.15c-1.5,0-2.49.86-2.49,1.92v0c0,1.08.55,1.73,3,2.22S247,46.21,247,47.7v0c0,1.64-1.41,2.78-3.37,2.78A5.79,5.79,0,0,1,239.58,48.87Z"/><path id="_Compound_Path_25" data-name="&lt;Compound Path&gt;" class="cls-1" d="M253,40.88H249.5v-.7h7.85v.7H253.8v9.48H253Z"/><path id="_Compound_Path_26" data-name="&lt;Compound Path&gt;" class="cls-1" d="M263.11,40.11h.73l4.74,10.25h-.83l-1.29-2.85h-6l-1.29,2.85h-.79Zm3,6.72-2.68-5.89-2.69,5.89Z"/><path id="_Compound_Path_27" data-name="&lt;Compound Path&gt;" class="cls-1" d="M273.14,40.88h-3.55v-.7h7.85v.7H273.9v9.48h-.76Z"/><path id="_Compound_Path_28" data-name="&lt;Compound Path&gt;" class="cls-1" d="M280.65,40.18h7.24v.7H281.4v4h5.83v.7H281.4v4.08H288v.7h-7.31Z"/></g><g id="_Group_3" data-name="&lt;Group&gt;"><polygon id="_Path_" data-name="&lt;Path&gt;" class="cls-2" points="48.43 53 51 53 51 0 40.68 0 18.28 25.49 48.43 53"/><polygon id="_Path_2" data-name="&lt;Path&gt;" class="cls-3" points="40.06 53 14.56 30.15 0 46.76 0 53 40.06 53"/><polygon id="_Path_3" data-name="&lt;Path&gt;" class="cls-4" points="33.66 0 0 0 0 38.54 33.66 0"/></g></svg>