<?xml version="1.0" standalone="no"?>
<!DOCTYPE svg PUBLIC "-//W3C//DTD SVG 20010904//EN"
 "http://www.w3.org/TR/2001/REC-SVG-20010904/DTD/svg10.dtd">
<svg version="1.0" xmlns="http://www.w3.org/2000/svg"
 width="752.000000pt" height="752.000000pt" viewBox="0 0 752.000000 752.000000"
 preserveAspectRatio="xMidYMid meet">
<metadata>
Created by potrace 1.11, written by Peter Selinger 2001-2013
</metadata>
<g transform="translate(0.000000,752.000000) scale(0.100000,-0.100000)"
fill="#000000" stroke="none">
<path d="M719 6934 c-53 -16 -112 -69 -136 -122 -15 -34 -16 -205 -17 -2051
-1 -1415 2 -2027 10 -2057 16 -63 59 -113 122 -142 47 -21 63 -24 116 -18 95
10 72 -11 452 421 43 50 83 95 89 101 5 6 21 24 35 40 41 47 234 268 245 280
6 6 37 42 70 80 33 37 67 75 75 84 8 9 40 45 70 80 30 36 64 74 75 86 11 11
33 36 49 55 43 49 160 183 166 189 3 3 37 41 75 85 39 44 84 96 101 115 17 19
71 80 119 135 48 55 101 115 117 133 17 19 60 68 96 110 37 43 71 82 77 88 19
21 132 149 281 319 82 94 153 175 159 181 5 6 35 39 65 74 30 35 60 68 65 74
6 6 91 103 190 216 99 113 233 266 299 340 65 74 131 149 145 165 58 67 157
180 171 195 161 176 348 396 368 434 42 78 27 186 -36 252 -11 12 -38 32 -59
45 l-38 24 -1785 1 c-1481 1 -1793 -1 -1831 -12z"/>
<path d="M5630 6940 c-71 -20 -89 -36 -260 -235 -52 -60 -100 -114 -106 -120
-6 -5 -55 -62 -110 -125 -54 -63 -106 -122 -114 -130 -8 -9 -40 -45 -70 -80
-50 -58 -427 -489 -569 -649 -31 -35 -64 -73 -74 -85 -52 -60 -419 -477 -498
-566 -36 -41 -77 -88 -90 -104 -13 -16 -28 -34 -34 -40 -5 -6 -44 -49 -85 -96
-41 -47 -77 -87 -80 -90 -3 -3 -34 -39 -70 -80 -36 -41 -69 -80 -75 -86 -5 -6
-35 -40 -65 -74 -56 -64 -78 -89 -189 -215 -35 -38 -72 -88 -84 -110 -28 -54
-28 -145 0 -200 17 -33 101 -117 213 -215 30 -26 201 -182 267 -244 35 -32 72
-66 82 -75 15 -14 91 -83 217 -198 16 -14 56 -51 90 -82 33 -31 102 -94 154
-141 52 -47 121 -110 155 -141 33 -30 92 -84 130 -120 39 -35 98 -89 131 -119
33 -30 102 -93 153 -140 52 -47 107 -98 124 -113 16 -15 68 -62 115 -105 46
-42 101 -93 122 -112 21 -19 71 -65 111 -101 41 -37 90 -82 110 -100 31 -30
168 -155 233 -214 13 -11 69 -63 126 -115 132 -121 138 -126 245 -224 50 -44
104 -95 122 -112 18 -17 49 -46 70 -64 21 -18 83 -75 138 -125 55 -51 112
-103 126 -116 74 -67 207 -189 248 -227 63 -59 116 -85 181 -88 94 -5 172 45
212 134 19 43 20 98 20 3055 0 2824 -1 3015 -17 3055 -25 61 -94 118 -158 131
-59 12 -1107 13 -1147 1z"/>
<path d="M2477 3366 c-50 -18 -63 -31 -220 -211 -73 -82 -134 -152 -137 -155
-3 -3 -41 -45 -84 -95 -43 -49 -93 -106 -110 -125 -18 -19 -110 -125 -206
-235 -96 -110 -177 -202 -180 -205 -3 -3 -55 -61 -115 -130 -60 -69 -121 -138
-136 -155 -75 -85 -178 -203 -200 -229 -13 -16 -29 -34 -34 -40 -40 -44 -189
-213 -232 -262 -28 -32 -60 -68 -70 -80 -80 -91 -130 -148 -138 -158 -6 -6
-19 -28 -29 -50 -16 -33 -18 -67 -18 -266 0 -204 3 -233 20 -272 24 -53 65
-95 117 -119 38 -18 126 -18 2280 -16 2064 2 2242 3 2270 19 138 75 166 253
58 363 -16 17 -64 62 -107 100 -43 39 -93 84 -110 100 -18 17 -75 68 -126 115
-52 47 -101 92 -110 100 -8 8 -53 49 -99 90 -46 41 -96 86 -110 100 -14 14
-66 61 -115 105 -49 44 -106 96 -127 116 -21 20 -68 63 -105 95 -37 32 -81 73
-98 89 -37 35 -116 108 -246 225 -51 47 -121 110 -154 141 -34 31 -83 76 -110
100 -74 68 -85 77 -196 179 -58 52 -134 122 -170 155 -36 33 -70 64 -76 70 -6
5 -49 44 -94 85 -46 41 -88 80 -94 85 -6 6 -65 59 -131 120 -66 60 -140 128
-165 151 -95 89 -134 110 -205 112 -27 1 -67 -5 -88 -12z"/>
</g>
</svg>
